<svg version="1.1" viewBox="0.0 0.0 705.0 442.0" fill="none" stroke="none" stroke-linecap="square" stroke-miterlimit="10" width="705" height="442" xmlns:xlink="http://www.w3.org/1999/xlink" xmlns="http://www.w3.org/2000/svg"><path fill="#ffffff" d="M0 0L705.0 0L705.0 442.0L0 442.0L0 0Z" fill-rule="nonzero"/><path fill="#fca311" d="M253.35403 339.0881C202.1816 297.1885 182.87265 227.64398 205.11864 165.35988C227.36461 103.07578 286.3623 61.5 352.5 61.5L352.5 139.75C319.43115 139.75 289.9323 160.53789 278.80933 191.67995C267.68634 222.82199 277.3408 257.59427 302.927 278.54404Z" fill-rule="nonzero"/><path fill="#14213d" d="M389.34534 74.66003C458.25772 74.66003 519.06036 119.736626 539.0894 185.67415C559.1184 251.61166 533.65967 322.8908 476.38995 361.21957C419.1202 399.54834 343.51868 395.90555 290.19937 352.2481L339.77237 291.70407C366.432 313.53278 404.2328 315.3542 432.86765 296.1898C461.50253 277.02542 474.23187 241.38585 464.21738 208.41708C454.20288 175.44833 423.80154 152.91003 389.34534 152.91003Z" fill-rule="nonzero"/><path fill="#ffffff" d="M486.85013 268.0776L485.63138 268.17136Q485.4595 267.43698 485.16263 267.10886Q484.66263 266.59323 483.92825 266.59323Q483.3345 266.59323 482.897 266.92136Q482.31888 267.34323 481.97513 268.15573Q481.647 268.96823 481.63138 270.46823Q482.06888 269.79636 482.7095 269.46823Q483.36575 269.1401 484.06888 269.1401Q485.30325 269.1401 486.16263 270.04636Q487.022 270.9526 487.022 272.3901Q487.022 273.3276 486.61575 274.1401Q486.2095 274.9526 485.49075 275.3901Q484.78763 275.81198 483.88138 275.81198Q482.35013 275.81198 481.38138 274.68698Q480.41263 273.54636 480.41263 270.9526Q480.41263 268.04636 481.47513 266.71823Q482.41263 265.5776 484.00638 265.5776Q485.19388 265.5776 485.94388 266.24948Q486.69388 266.90573 486.85013 268.0776ZM481.81888 272.3901Q481.81888 273.03073 482.0845 273.60886Q482.36575 274.18698 482.85013 274.49948Q483.3345 274.79636 483.86575 274.79636Q484.647 274.79636 485.2095 274.17136Q485.772 273.54636 485.772 272.46823Q485.772 271.42136 485.2095 270.8276Q484.66263 270.21823 483.81888 270.21823Q482.99075 270.21823 482.397 270.8276Q481.81888 271.42136 481.81888 272.3901ZM488.4595 270.7026Q488.4595 268.92136 488.81888 267.84323Q489.19388 266.74948 489.91263 266.17136Q490.63138 265.5776 491.72513 265.5776Q492.53763 265.5776 493.147 265.90573Q493.75638 266.23386 494.147 266.84323Q494.55325 267.4526 494.772 268.3276Q494.99075 269.2026 494.99075 270.7026Q494.99075 272.46823 494.63138 273.54636Q494.272 274.62448 493.55325 275.21823Q492.8345 275.81198 491.72513 275.81198Q490.28763 275.81198 489.4595 274.7651Q488.4595 273.5151 488.4595 270.7026ZM489.72513 270.7026Q489.72513 273.17136 490.30325 273.98386Q490.88138 274.79636 491.72513 274.79636Q492.5845 274.79636 493.16263 273.98386Q493.74075 273.15573 493.74075 270.7026Q493.74075 268.21823 493.16263 267.40573Q492.5845 266.59323 491.7095 266.59323Q490.86575 266.59323 490.36575 267.31198Q489.72513 268.23386 489.72513 270.7026ZM497.147 275.6401L497.147 274.23386L498.55325 274.23386L498.55325 275.6401L497.147 275.6401ZM500.647 273.3276L501.8345 273.21823Q501.97513 274.04636 502.397 274.42136Q502.8345 274.79636 503.49075 274.79636Q504.05325 274.79636 504.47513 274.54636Q504.91263 274.28073 505.17825 273.84323Q505.4595 273.40573 505.647 272.67136Q505.8345 271.93698 505.8345 271.17136Q505.8345 271.09323 505.81888 270.92136Q505.4595 271.5151 504.81888 271.8901Q504.17825 272.24948 503.42825 272.24948Q502.17825 272.24948 501.31888 271.34323Q500.4595 270.43698 500.4595 268.96823Q500.4595 267.43698 501.35013 266.5151Q502.25638 265.5776 503.61575 265.5776Q504.5845 265.5776 505.397 266.10886Q506.2095 266.62448 506.63138 267.60886Q507.05325 268.5776 507.05325 270.42136Q507.05325 272.34323 506.63138 273.48386Q506.22513 274.62448 505.397 275.21823Q504.56888 275.81198 503.4595 275.81198Q502.28763 275.81198 501.53763 275.15573Q500.80325 274.49948 500.647 273.3276ZM505.67825 268.90573Q505.67825 267.84323 505.11575 267.21823Q504.55325 266.59323 503.772 266.59323Q502.94388 266.59323 502.3345 267.2651Q501.72513 267.93698 501.72513 268.99948Q501.72513 269.9526 502.30325 270.56198Q502.88138 271.15573 503.72513 271.15573Q504.5845 271.15573 505.13138 270.56198Q505.67825 269.9526 505.67825 268.90573ZM508.69388 268.03073Q508.69388 266.9526 509.22513 266.2026Q509.772 265.4526 510.80325 265.4526Q511.74075 265.4526 512.3501 266.12448Q512.9751 266.79636 512.9751 268.09323Q512.9751 269.37448 512.3501 270.06198Q511.72513 270.74948 510.81888 270.74948Q509.91263 270.74948 509.30325 270.0776Q508.69388 269.3901 508.69388 268.03073ZM510.8345 266.29636Q510.38138 266.29636 510.06888 266.7026Q509.772 267.09323 509.772 268.1401Q509.772 269.10886 510.06888 269.49948Q510.38138 269.8901 510.8345 269.8901Q511.30325 269.8901 511.60013 269.49948Q511.91263 269.10886 511.91263 268.04636Q511.91263 267.0776 511.60013 266.68698Q511.28763 266.29636 510.8345 266.29636ZM510.8345 276.0151L516.31885 265.4526L517.31885 265.4526L511.86575 276.0151L510.8345 276.0151ZM515.1782 273.28073Q515.1782 272.2026 515.7095 271.46823Q516.25635 270.71823 517.2876 270.71823Q518.2251 270.71823 518.8501 271.3901Q519.4751 272.06198 519.4751 273.35886Q519.4751 274.6401 518.8501 275.3276Q518.2251 276.0151 517.2876 276.0151Q516.38135 276.0151 515.772 275.34323Q515.1782 274.65573 515.1782 273.28073ZM517.31885 271.56198Q516.8501 271.56198 516.5532 271.96823Q516.25635 272.35886 516.25635 273.40573Q516.25635 274.37448 516.5532 274.7651Q516.8657 275.15573 517.31885 275.15573Q517.7876 275.15573 518.0845 274.7651Q518.397 274.37448 518.397 273.31198Q518.397 272.34323 518.0845 271.9526Q517.7876 271.56198 517.31885 271.56198Z" fill-rule="nonzero"/><path fill="#ffffff" d="M207.58897 183.51991L207.58897 174.67616L204.2921 174.67616L204.2921 173.50429L212.2296 173.50429L212.2296 174.67616L208.9171 174.67616L208.9171 183.51991L207.58897 183.51991ZM213.43272 179.89491Q213.43272 177.87929 214.55772 176.89491Q215.4796 176.09804 216.83897 176.09804Q218.32335 176.09804 219.27647 177.08241Q220.2296 178.05116 220.2296 179.78554Q220.2296 181.19179 219.80772 182.00429Q219.38585 182.80116 218.57335 183.25429Q217.77647 183.69179 216.83897 183.69179Q215.30772 183.69179 214.37022 182.70741Q213.43272 181.72304 213.43272 179.89491ZM214.69835 179.89491Q214.69835 181.28554 215.30772 181.98866Q215.9171 182.67616 216.83897 182.67616Q217.74522 182.67616 218.3546 181.97304Q218.96397 181.26991 218.96397 179.84804Q218.96397 178.50429 218.3546 177.81679Q217.74522 177.11366 216.83897 177.11366Q215.9171 177.11366 215.30772 177.80116Q214.69835 178.48866 214.69835 179.89491ZM224.57335 182.42616L224.74522 183.50429Q224.2296 183.61366 223.82335 183.61366Q223.15147 183.61366 222.77647 183.41054Q222.4171 183.19179 222.26085 182.84804Q222.12022 182.50429 222.12022 181.39491L222.12022 177.22304L221.21397 177.22304L221.21397 176.25429L222.12022 176.25429L222.12022 174.45741L223.33897 173.72304L223.33897 176.25429L224.57335 176.25429L224.57335 177.22304L223.33897 177.22304L223.33897 181.45741Q223.33897 181.98866 223.40147 182.14491Q223.46397 182.28554 223.6046 182.37929Q223.76085 182.47304 224.02647 182.47304Q224.24522 182.47304 224.57335 182.42616ZM230.62022 182.62929Q229.94835 183.20741 229.30772 183.45741Q228.68272 183.69179 227.94835 183.69179Q226.76085 183.69179 226.1046 183.11366Q225.46397 182.51991 225.46397 181.59804Q225.46397 181.06679 225.69835 180.62929Q225.94835 180.19179 226.33897 179.92616Q226.74522 179.66054 227.2296 179.51991Q227.58897 179.42616 228.32335 179.33241Q229.82335 179.16054 230.52647 178.91054Q230.52647 178.66054 230.52647 178.59804Q230.52647 177.83241 230.18272 177.53554Q229.71397 177.11366 228.77647 177.11366Q227.9171 177.11366 227.49522 177.42616Q227.08897 177.72304 226.88585 178.48866L225.68272 178.33241Q225.83897 177.55116 226.21397 177.08241Q226.6046 176.61366 227.30772 176.36366Q228.02647 176.09804 228.96397 176.09804Q229.88585 176.09804 230.46397 176.31679Q231.0421 176.53554 231.30772 176.86366Q231.58897 177.19179 231.69835 177.70741Q231.76085 178.01991 231.76085 178.83241L231.76085 180.47304Q231.76085 182.19179 231.83897 182.64491Q231.9171 183.09804 232.15147 183.51991L230.87022 183.51991Q230.68272 183.12929 230.62022 182.62929ZM230.52647 179.87929Q229.8546 180.14491 228.51085 180.34804Q227.76085 180.45741 227.43272 180.59804Q227.12022 180.72304 226.94835 180.98866Q226.77647 181.25429 226.77647 181.56679Q226.77647 182.06679 227.15147 182.39491Q227.52647 182.72304 228.24522 182.72304Q228.96397 182.72304 229.51085 182.41054Q230.05772 182.09804 230.32335 181.55116Q230.52647 181.14491 230.52647 180.33241L230.52647 179.87929ZM233.8546 183.51991L233.8546 173.50429L235.08897 173.50429L235.08897 183.51991L233.8546 183.51991ZM248.19835 180.00429L249.52647 180.34804Q249.1046 181.97304 248.01085 182.83241Q246.93272 183.69179 245.37022 183.69179Q243.74522 183.69179 242.7296 183.03554Q241.71397 182.36366 241.18272 181.11366Q240.6671 179.86366 240.6671 178.42616Q240.6671 176.86366 241.26085 175.70741Q241.8546 174.53554 242.96397 173.94179Q244.07335 173.33241 245.38585 173.33241Q246.90147 173.33241 247.9171 174.09804Q248.94835 174.86366 249.3546 176.23866L248.0421 176.55116Q247.69835 175.45741 247.02647 174.95741Q246.37022 174.45741 245.37022 174.45741Q244.21397 174.45741 243.43272 175.01991Q242.65147 175.56679 242.33897 176.50429Q242.02647 177.44179 242.02647 178.42616Q242.02647 179.70741 242.40147 180.66054Q242.77647 181.61366 243.55772 182.08241Q244.33897 182.55116 245.26085 182.55116Q246.37022 182.55116 247.13585 181.91054Q247.9171 181.26991 248.19835 180.00429ZM255.62022 182.62929Q254.94835 183.20741 254.30772 183.45741Q253.68272 183.69179 252.94835 183.69179Q251.76085 183.69179 251.1046 183.11366Q250.46397 182.51991 250.46397 181.59804Q250.46397 181.06679 250.69835 180.62929Q250.94835 180.19179 251.33897 179.92616Q251.74522 179.66054 252.2296 179.51991Q252.58897 179.42616 253.32335 179.33241Q254.82335 179.16054 255.52647 178.91054Q255.52647 178.66054 255.52647 178.59804Q255.52647 177.83241 255.18272 177.53554Q254.71397 177.11366 253.77647 177.11366Q252.9171 177.11366 252.49522 177.42616Q252.08897 177.72304 251.88585 178.48866L250.68272 178.33241Q250.83897 177.55116 251.21397 177.08241Q251.6046 176.61366 252.30772 176.36366Q253.02647 176.09804 253.96397 176.09804Q254.88585 176.09804 255.46397 176.31679Q256.0421 176.53554 256.30774 176.86366Q256.589 177.19179 256.69836 177.70741Q256.76086 178.01991 256.76086 178.83241L256.76086 180.47304Q256.76086 182.19179 256.839 182.64491Q256.9171 183.09804 257.1515 183.51991L255.87022 183.51991Q255.68272 183.12929 255.62022 182.62929ZM255.52647 179.87929Q254.8546 180.14491 253.51085 180.34804Q252.76085 180.45741 252.43272 180.59804Q252.12022 180.72304 251.94835 180.98866Q251.77647 181.25429 251.77647 181.56679Q251.77647 182.06679 252.15147 182.39491Q252.52647 182.72304 253.24522 182.72304Q253.96397 182.72304 254.51085 182.41054Q255.05772 182.09804 255.32335 181.55116Q255.52647 181.14491 255.52647 180.33241L255.52647 179.87929ZM258.4015 181.34804L259.6046 181.16054Q259.714 181.89491 260.18274 182.28554Q260.6515 182.67616 261.49524 182.67616Q262.339 182.67616 262.74524 182.33241Q263.1671 181.98866 263.1671 181.51991Q263.1671 181.09804 262.7921 180.86366Q262.5421 180.69179 261.5421 180.44179Q260.18274 180.09804 259.6515 179.84804Q259.13586 179.59804 258.87024 179.16054Q258.6046 178.72304 258.6046 178.19179Q258.6046 177.70741 258.82336 177.30116Q259.0421 176.87929 259.43274 176.59804Q259.714 176.39491 260.19836 176.25429Q260.69836 176.09804 261.2765 176.09804Q262.12024 176.09804 262.76086 176.34804Q263.4171 176.58241 263.7296 177.00429Q264.0421 177.42616 264.1515 178.12929L262.94836 178.30116Q262.87024 177.73866 262.464 177.42616Q262.07336 177.11366 261.3546 177.11366Q260.51086 177.11366 260.1515 177.39491Q259.7921 177.66054 259.7921 178.05116Q259.7921 178.28554 259.93274 178.47304Q260.089 178.67616 260.4171 178.80116Q260.589 178.86366 261.49524 179.11366Q262.80774 179.47304 263.32336 179.69179Q263.839 179.91054 264.12024 180.33241Q264.4171 180.75429 264.4171 181.37929Q264.4171 182.00429 264.05774 182.55116Q263.714 183.08241 263.0265 183.39491Q262.3546 183.69179 261.49524 183.69179Q260.089 183.69179 259.339 183.09804Q258.6046 182.50429 258.4015 181.34804ZM270.8546 181.17616L272.13586 181.33241Q271.82336 182.45741 271.01086 183.08241Q270.19836 183.69179 268.93274 183.69179Q267.339 183.69179 266.4015 182.70741Q265.4796 181.72304 265.4796 179.95741Q265.4796 178.11366 266.4171 177.11366Q267.37024 176.09804 268.87024 176.09804Q270.32336 176.09804 271.24524 177.09804Q272.1671 178.08241 272.1671 179.87929Q272.1671 179.98866 272.1671 180.20741L266.74524 180.20741Q266.82336 181.39491 267.4171 182.03554Q268.0265 182.67616 268.94836 182.67616Q269.62024 182.67616 270.089 182.31679Q270.57336 181.95741 270.8546 181.17616ZM266.82336 179.19179L270.87024 179.19179Q270.7921 178.26991 270.4015 177.81679Q269.82336 177.11366 268.88586 177.11366Q268.0265 177.11366 267.44836 177.67616Q266.88586 178.23866 266.82336 179.19179ZM273.4015 181.34804L274.6046 181.16054Q274.714 181.89491 275.18274 182.28554Q275.6515 182.67616 276.49524 182.67616Q277.339 182.67616 277.74524 182.33241Q278.1671 181.98866 278.1671 181.51991Q278.1671 181.09804 277.7921 180.86366Q277.5421 180.69179 276.5421 180.44179Q275.18274 180.09804 274.6515 179.84804Q274.13586 179.59804 273.87024 179.16054Q273.6046 178.72304 273.6046 178.19179Q273.6046 177.70741 273.82336 177.30116Q274.0421 176.87929 274.43274 176.59804Q274.714 176.39491 275.19836 176.25429Q275.69836 176.09804 276.2765 176.09804Q277.12024 176.09804 277.76086 176.34804Q278.4171 176.58241 278.7296 177.00429Q279.0421 177.42616 279.1515 178.12929L277.94836 178.30116Q277.87024 177.73866 277.464 177.42616Q277.07336 177.11366 276.3546 177.11366Q275.51086 177.11366 275.1515 177.39491Q274.7921 177.66054 274.7921 178.05116Q274.7921 178.28554 274.93274 178.47304Q275.089 178.67616 275.4171 178.80116Q275.589 178.86366 276.49524 179.11366Q277.80774 179.47304 278.32336 179.69179Q278.839 179.91054 279.12024 180.33241Q279.4171 180.75429 279.4171 181.37929Q279.4171 182.00429 279.05774 182.55116Q278.714 183.08241 278.0265 183.39491Q277.3546 183.69179 276.49524 183.69179Q275.089 183.69179 274.339 183.09804Q273.6046 182.50429 273.4015 181.34804Z" fill-rule="nonzero"/><path fill="#14213d" d="M243.0 408.30984C243.0 411.62354 240.3137 414.30984 237.0 414.30984C233.6863 414.30984 231.0 411.62354 231.0 408.30984C231.0 404.99612 233.6863 402.30984 237.0 402.30984C240.3137 402.30984 243.0 404.99612 243.0 408.30984Z" fill-rule="nonzero"/><path fill="#1a1a1a" d="M258.0625 409.29422L259.1875 409.5911Q258.82812 410.98172 257.90625 411.7161Q256.98438 412.45047 255.64062 412.45047Q254.25 412.45047 253.375 411.88797Q252.5 411.32547 252.04688 410.26297Q251.59375 409.18484 251.59375 407.95047Q251.59375 406.60672 252.10938 405.60672Q252.625 404.60672 253.5625 404.0911Q254.51562 403.57547 255.65625 403.57547Q256.9375 403.57547 257.8125 404.23172Q258.70312 404.88797 259.04688 406.07547L257.92188 406.3411Q257.625 405.4036 257.04688 404.98172Q256.48438 404.54422 255.625 404.54422Q254.64062 404.54422 253.96875 405.0286Q253.3125 405.49734 253.03125 406.29422Q252.76562 407.0911 252.76562 407.95047Q252.76562 409.04422 253.07812 409.85672Q253.40625 410.66922 254.07812 411.07547Q254.75 411.48172 255.54688 411.48172Q256.5 411.48172 257.15625 410.93484Q257.82812 410.38797 258.0625 409.29422ZM264.85938 411.54422Q264.26562 412.04422 263.71875 412.24734Q263.1875 412.45047 262.5625 412.45047Q261.53125 412.45047 260.98438 411.95047Q260.4375 411.45047 260.4375 410.66922Q260.4375 410.2161 260.64062 409.8411Q260.84375 409.45047 261.1875 409.23172Q261.53125 408.99734 261.95312 408.88797Q262.25 408.79422 262.89062 408.7161Q264.15625 408.57547 264.76562 408.35672Q264.76562 408.13797 264.76562 408.0911Q264.76562 407.43484 264.46875 407.16922Q264.0625 406.82547 263.26562 406.82547Q262.53125 406.82547 262.17188 407.0911Q261.8125 407.3411 261.64062 407.99734L260.60938 407.85672Q260.75 407.20047 261.07812 406.79422Q261.40625 406.38797 262.01562 406.16922Q262.625 405.95047 263.42188 405.95047Q264.21875 405.95047 264.71875 406.13797Q265.21875 406.32547 265.45312 406.60672Q265.6875 406.88797 265.78125 407.32547Q265.82812 407.5911 265.82812 408.29422L265.82812 409.70047Q265.82812 411.16922 265.89062 411.55984Q265.96875 411.95047 266.17188 412.30984L265.0625 412.30984Q264.90625 411.98172 264.85938 411.54422ZM264.76562 409.18484Q264.1875 409.41922 263.04688 409.5911Q262.39062 409.68484 262.125 409.80984Q261.85938 409.91922 261.70312 410.13797Q261.5625 410.35672 261.5625 410.63797Q261.5625 411.05984 261.875 411.3411Q262.20312 411.62234 262.8125 411.62234Q263.42188 411.62234 263.89062 411.35672Q264.375 411.0911 264.59375 410.62234Q264.76562 410.26297 264.76562 409.57547L264.76562 409.18484ZM267.375 410.45047L268.40625 410.29422Q268.5 410.91922 268.89062 411.24734Q269.29688 411.57547 270.03125 411.57547Q270.75 411.57547 271.09375 411.29422Q271.45312 410.99734 271.45312 410.5911Q271.45312 410.23172 271.14062 410.0286Q270.92188 409.88797 270.0625 409.66922Q268.90625 409.37234 268.45312 409.16922Q268.01562 408.95047 267.78125 408.57547Q267.54688 408.20047 267.54688 407.73172Q267.54688 407.32547 267.73438 406.9661Q267.92188 406.60672 268.25 406.37234Q268.5 406.20047 268.92188 406.07547Q269.34375 405.95047 269.84375 405.95047Q270.5625 405.95047 271.10938 406.16922Q271.67188 406.37234 271.9375 406.73172Q272.20312 407.0911 272.29688 407.68484L271.26562 407.82547Q271.20312 407.35672 270.85938 407.0911Q270.53125 406.80984 269.90625 406.80984Q269.1875 406.80984 268.875 407.05984Q268.5625 407.29422 268.5625 407.62234Q268.5625 407.82547 268.6875 407.98172Q268.82812 408.1536 269.09375 408.26297Q269.25 408.32547 270.03125 408.5286Q271.15625 408.8411 271.59375 409.0286Q272.03125 409.2161 272.28125 409.57547Q272.53125 409.93484 272.53125 410.48172Q272.53125 411.01297 272.21875 411.48172Q271.92188 411.93484 271.34375 412.20047Q270.76562 412.45047 270.03125 412.45047Q268.8125 412.45047 268.17188 411.95047Q267.54688 411.43484 267.375 410.45047ZM278.04688 410.30984L279.14062 410.43484Q278.89062 411.38797 278.1875 411.91922Q277.48438 412.45047 276.40625 412.45047Q275.04688 412.45047 274.23438 411.60672Q273.4375 410.76297 273.4375 409.24734Q273.4375 407.68484 274.25 406.82547Q275.0625 405.95047 276.34375 405.95047Q277.59375 405.95047 278.375 406.79422Q279.17188 407.63797 279.17188 409.18484Q279.17188 409.2786 279.17188 409.4661L274.53125 409.4661Q274.59375 410.49734 275.10938 411.04422Q275.625 411.57547 276.40625 411.57547Q276.98438 411.57547 277.39062 411.2786Q277.8125 410.9661 278.04688 410.30984ZM274.59375 408.60672L278.0625 408.60672Q278.0 407.80984 277.67188 407.41922Q277.15625 406.80984 276.35938 406.80984Q275.625 406.80984 275.125 407.29422Q274.64062 407.7786 274.59375 408.60672ZM280.375 410.45047L281.40625 410.29422Q281.5 410.91922 281.89062 411.24734Q282.29688 411.57547 283.03125 411.57547Q283.75 411.57547 284.09375 411.29422Q284.45312 410.99734 284.45312 410.5911Q284.45312 410.23172 284.14062 410.0286Q283.92188 409.88797 283.0625 409.66922Q281.90625 409.37234 281.45312 409.16922Q281.01562 408.95047 280.78125 408.57547Q280.54688 408.20047 280.54688 407.73172Q280.54688 407.32547 280.73438 406.9661Q280.92188 406.60672 281.25 406.37234Q281.5 406.20047 281.92188 406.07547Q282.34375 405.95047 282.84375 405.95047Q283.5625 405.95047 284.10938 406.16922Q284.67188 406.37234 284.9375 406.73172Q285.20312 407.0911 285.29688 407.68484L284.26562 407.82547Q284.20312 407.35672 283.85938 407.0911Q283.53125 406.80984 282.90625 406.80984Q282.1875 406.80984 281.875 407.05984Q281.5625 407.29422 281.5625 407.62234Q281.5625 407.82547 281.6875 407.98172Q281.82812 408.1536 282.09375 408.26297Q282.25 408.32547 283.03125 408.5286Q284.15625 408.8411 284.59375 409.0286Q285.03125 409.2161 285.28125 409.57547Q285.53125 409.93484 285.53125 410.48172Q285.53125 411.01297 285.21875 411.48172Q284.92188 411.93484 284.34375 412.20047Q283.76562 412.45047 283.03125 412.45047Q281.8125 412.45047 281.17188 411.95047Q280.54688 411.43484 280.375 410.45047ZM291.42188 412.30984L289.14062 403.7161L290.3125 403.7161L291.625 409.35672Q291.82812 410.23172 291.98438 411.10672Q292.3125 409.73172 292.375 409.51297L294.0 403.7161L295.375 403.7161L296.60938 408.05984Q297.0625 409.68484 297.28125 411.10672Q297.4375 410.29422 297.70312 409.23172L299.04688 403.7161L300.1875 403.7161L297.84375 412.30984L296.73438 412.30984L294.9375 405.76297Q294.70312 404.95047 294.65625 404.76297Q294.53125 405.3411 294.40625 405.76297L292.59375 412.30984L291.42188 412.30984ZM300.40625 409.20047Q300.40625 407.4661 301.35938 406.63797Q302.15625 405.95047 303.3125 405.95047Q304.59375 405.95047 305.40625 406.79422Q306.23438 407.62234 306.23438 409.10672Q306.23438 410.30984 305.875 410.99734Q305.51562 411.68484 304.8125 412.07547Q304.125 412.45047 303.3125 412.45047Q302.01562 412.45047 301.20312 411.62234Q300.40625 410.7786 300.40625 409.20047ZM301.48438 409.20047Q301.48438 410.38797 302.0 410.98172Q302.53125 411.57547 303.3125 411.57547Q304.10938 411.57547 304.625 410.98172Q305.14062 410.38797 305.14062 409.16922Q305.14062 408.01297 304.60938 407.41922Q304.09375 406.82547 303.3125 406.82547Q302.53125 406.82547 302.0 407.41922Q301.48438 407.99734 301.48438 409.20047ZM307.79688 412.30984L307.79688 406.0911L308.73438 406.0911L308.73438 406.9661Q309.42188 405.95047 310.71875 405.95047Q311.28125 405.95047 311.75 406.1536Q312.23438 406.35672 312.46875 406.68484Q312.70312 407.01297 312.79688 407.45047Q312.84375 407.74734 312.84375 408.48172L312.84375 412.30984L311.79688 412.30984L311.79688 408.5286Q311.79688 407.87234 311.67188 407.55984Q311.54688 407.24734 311.23438 407.05984Q310.92188 406.85672 310.5 406.85672Q309.82812 406.85672 309.32812 407.29422Q308.84375 407.7161 308.84375 408.9036L308.84375 412.30984L307.79688 412.30984Z" fill-rule="nonzero"/><path fill="#fca311" d="M342.0 408.30984C342.0 411.62354 339.31372 414.30984 336.0 414.30984C332.68628 414.30984 330.0 411.62354 330.0 408.30984C330.0 404.99612 332.68628 402.30984 336.0 402.30984C339.31372 402.30984 342.0 404.99612 342.0 408.30984Z" fill-rule="nonzero"/><path fill="#1a1a1a" d="M353.10938 412.30984L353.10938 404.73172L350.28125 404.73172L350.28125 403.7161L357.09375 403.7161L357.09375 404.73172L354.25 404.73172L354.25 412.30984L353.10938 412.30984ZM357.40625 409.20047Q357.40625 407.4661 358.35938 406.63797Q359.15625 405.95047 360.3125 405.95047Q361.59375 405.95047 362.40625 406.79422Q363.23438 407.62234 363.23438 409.10672Q363.23438 410.30984 362.875 410.99734Q362.51562 411.68484 361.8125 412.07547Q361.125 412.45047 360.3125 412.45047Q359.01562 412.45047 358.20312 411.62234Q357.40625 410.7786 357.40625 409.20047ZM358.48438 409.20047Q358.48438 410.38797 359.0 410.98172Q359.53125 411.57547 360.3125 411.57547Q361.10938 411.57547 361.625 410.98172Q362.14062 410.38797 362.14062 409.16922Q362.14062 408.01297 361.60938 407.41922Q361.09375 406.82547 360.3125 406.82547Q359.53125 406.82547 359.0 407.41922Q358.48438 407.99734 358.48438 409.20047ZM367.09375 411.37234L367.25 412.29422Q366.79688 412.38797 366.45312 412.38797Q365.875 412.38797 365.5625 412.2161Q365.25 412.0286 365.10938 411.73172Q364.98438 411.43484 364.98438 410.48172L364.98438 406.9036L364.21875 406.9036L364.21875 406.0911L364.98438 406.0911L364.98438 404.54422L366.03125 403.91922L366.03125 406.0911L367.09375 406.0911L367.09375 406.9036L366.03125 406.9036L366.03125 410.54422Q366.03125 410.99734 366.07812 411.12234Q366.14062 411.24734 366.26562 411.32547Q366.39062 411.4036 366.625 411.4036Q366.8125 411.4036 367.09375 411.37234ZM371.85938 411.54422Q371.26562 412.04422 370.71875 412.24734Q370.1875 412.45047 369.5625 412.45047Q368.53125 412.45047 367.98438 411.95047Q367.4375 411.45047 367.4375 410.66922Q367.4375 410.2161 367.64062 409.8411Q367.84375 409.45047 368.1875 409.23172Q368.53125 408.99734 368.95312 408.88797Q369.25 408.79422 369.89062 408.7161Q371.15625 408.57547 371.76562 408.35672Q371.76562 408.13797 371.76562 408.0911Q371.76562 407.43484 371.46875 407.16922Q371.0625 406.82547 370.26562 406.82547Q369.53125 406.82547 369.17188 407.0911Q368.8125 407.3411 368.64062 407.99734L367.60938 407.85672Q367.75 407.20047 368.07812 406.79422Q368.40625 406.38797 369.01562 406.16922Q369.625 405.95047 370.42188 405.95047Q371.21875 405.95047 371.71875 406.13797Q372.21875 406.32547 372.45312 406.60672Q372.6875 406.88797 372.78125 407.32547Q372.82812 407.5911 372.82812 408.29422L372.82812 409.70047Q372.82812 411.16922 372.89062 411.55984Q372.96875 411.95047 373.17188 412.30984L372.0625 412.30984Q371.90625 411.98172 371.85938 411.54422ZM371.76562 409.18484Q371.1875 409.41922 370.04688 409.5911Q369.39062 409.68484 369.125 409.80984Q368.85938 409.91922 368.70312 410.13797Q368.5625 410.35672 368.5625 410.63797Q368.5625 411.05984 368.875 411.3411Q369.20312 411.62234 369.8125 411.62234Q370.42188 411.62234 370.89062 411.35672Q371.375 411.0911 371.59375 410.62234Q371.76562 410.26297 371.76562 409.57547L371.76562 409.18484ZM374.76562 412.30984L374.76562 403.7161L375.82812 403.7161L375.82812 412.30984L374.76562 412.30984ZM387.0625 409.29422L388.1875 409.5911Q387.82812 410.98172 386.90625 411.7161Q385.98438 412.45047 384.64062 412.45047Q383.25 412.45047 382.375 411.88797Q381.5 411.32547 381.04688 410.26297Q380.59375 409.18484 380.59375 407.95047Q380.59375 406.60672 381.10938 405.60672Q381.625 404.60672 382.5625 404.0911Q383.51562 403.57547 384.65625 403.57547Q385.9375 403.57547 386.8125 404.23172Q387.70312 404.88797 388.04688 406.07547L386.92188 406.3411Q386.625 405.4036 386.04688 404.98172Q385.48438 404.54422 384.625 404.54422Q383.64062 404.54422 382.96875 405.0286Q382.3125 405.49734 382.03125 406.29422Q381.76562 407.0911 381.76562 407.95047Q381.76562 409.04422 382.07812 409.85672Q382.40625 410.66922 383.07812 411.07547Q383.75 411.48172 384.54688 411.48172Q385.5 411.48172 386.15625 410.93484Q386.82812 410.38797 387.0625 409.29422ZM389.40625 409.20047Q389.40625 407.4661 390.35938 406.63797Q391.15625 405.95047 392.3125 405.95047Q393.59375 405.95047 394.40625 406.79422Q395.23438 407.62234 395.23438 409.10672Q395.23438 410.30984 394.875 410.99734Q394.51562 411.68484 393.8125 412.07547Q393.125 412.45047 392.3125 412.45047Q391.01562 412.45047 390.20312 411.62234Q389.40625 410.7786 389.40625 409.20047ZM390.48438 409.20047Q390.48438 410.38797 391.0 410.98172Q391.53125 411.57547 392.3125 411.57547Q393.10938 411.57547 393.625 410.98172Q394.14062 410.38797 394.14062 409.16922Q394.14062 408.01297 393.60938 407.41922Q393.09375 406.82547 392.3125 406.82547Q391.53125 406.82547 391.0 407.41922Q390.48438 407.99734 390.48438 409.20047ZM396.79688 412.30984L396.79688 406.0911L397.73438 406.0911L397.73438 406.9661Q398.42188 405.95047 399.71875 405.95047Q400.28125 405.95047 400.75 406.1536Q401.23438 406.35672 401.46875 406.68484Q401.70312 407.01297 401.79688 407.45047Q401.84375 407.74734 401.84375 408.48172L401.84375 412.30984L400.79688 412.30984L400.79688 408.5286Q400.79688 407.87234 400.67188 407.55984Q400.54688 407.24734 400.23438 407.05984Q399.92188 406.85672 399.5 406.85672Q398.82812 406.85672 398.32812 407.29422Q397.84375 407.7161 397.84375 408.9036L397.84375 412.30984L396.79688 412.30984ZM406.09375 411.37234L406.25 412.29422Q405.79688 412.38797 405.45312 412.38797Q404.875 412.38797 404.5625 412.2161Q404.25 412.0286 404.10938 411.73172Q403.98438 411.43484 403.98438 410.48172L403.98438 406.9036L403.21875 406.9036L403.21875 406.0911L403.98438 406.0911L403.98438 404.54422L405.03125 403.91922L405.03125 406.0911L406.09375 406.0911L406.09375 406.9036L405.03125 406.9036L405.03125 410.54422Q405.03125 410.99734 405.07812 411.12234Q405.14062 411.24734 405.26562 411.32547Q405.39062 411.4036 405.625 411.4036Q405.8125 411.4036 406.09375 411.37234ZM411.04688 410.30984L412.14062 410.43484Q411.89062 411.38797 411.1875 411.91922Q410.48438 412.45047 409.40625 412.45047Q408.04688 412.45047 407.23438 411.60672Q406.4375 410.76297 406.4375 409.24734Q406.4375 407.68484 407.25 406.82547Q408.0625 405.95047 409.34375 405.95047Q410.59375 405.95047 411.375 406.79422Q412.17188 407.63797 412.17188 409.18484Q412.17188 409.2786 412.17188 409.4661L407.53125 409.4661Q407.59375 410.49734 408.10938 411.04422Q408.625 411.57547 409.40625 411.57547Q409.98438 411.57547 410.39062 411.2786Q410.8125 410.9661 411.04688 410.30984ZM407.59375 408.60672L411.0625 408.60672Q411.0 407.80984 410.67188 407.41922Q410.15625 406.80984 409.35938 406.80984Q408.625 406.80984 408.125 407.29422Q407.64062 407.7786 407.59375 408.60672ZM413.375 410.45047L414.40625 410.29422Q414.5 410.91922 414.89062 411.24734Q415.29688 411.57547 416.03125 411.57547Q416.75 411.57547 417.09375 411.29422Q417.45312 410.99734 417.45312 410.5911Q417.45312 410.23172 417.14062 410.0286Q416.92188 409.88797 416.0625 409.66922Q414.90625 409.37234 414.45312 409.16922Q414.01562 408.95047 413.78125 408.57547Q413.54688 408.20047 413.54688 407.73172Q413.54688 407.32547 413.73438 406.9661Q413.92188 406.60672 414.25 406.37234Q414.5 406.20047 414.92188 406.07547Q415.34375 405.95047 415.84375 405.95047Q416.5625 405.95047 417.10938 406.16922Q417.67188 406.37234 417.9375 406.73172Q418.20312 407.0911 418.29688 407.68484L417.26562 407.82547Q417.20312 407.35672 416.85938 407.0911Q416.53125 406.80984 415.90625 406.80984Q415.1875 406.80984 414.875 407.05984Q414.5625 407.29422 414.5625 407.62234Q414.5625 407.82547 414.6875 407.98172Q414.82812 408.1536 415.09375 408.26297Q415.25 408.32547 416.03125 408.5286Q417.15625 408.8411 417.59375 409.0286Q418.03125 409.2161 418.28125 409.57547Q418.53125 409.93484 418.53125 410.48172Q418.53125 411.01297 418.21875 411.48172Q417.92188 411.93484 417.34375 412.20047Q416.76562 412.45047 416.03125 412.45047Q414.8125 412.45047 414.17188 411.95047Q413.54688 411.43484 413.375 410.45047ZM422.09375 411.37234L422.25 412.29422Q421.79688 412.38797 421.45312 412.38797Q420.875 412.38797 420.5625 412.2161Q420.25 412.0286 420.10938 411.73172Q419.98438 411.43484 419.98438 410.48172L419.98438 406.9036L419.21875 406.9036L419.21875 406.0911L419.98438 406.0911L419.98438 404.54422L421.03125 403.91922L421.03125 406.0911L422.09375 406.0911L422.09375 406.9036L421.03125 406.9036L421.03125 410.54422Q421.03125 410.99734 421.07812 411.12234Q421.14062 411.24734 421.26562 411.32547Q421.39062 411.4036 421.625 411.4036Q421.8125 411.4036 422.09375 411.37234ZM427.04688 410.30984L428.14062 410.43484Q427.89062 411.38797 427.1875 411.91922Q426.48438 412.45047 425.40625 412.45047Q424.04688 412.45047 423.23438 411.60672Q422.4375 410.76297 422.4375 409.24734Q422.4375 407.68484 423.25 406.82547Q424.0625 405.95047 425.34375 405.95047Q426.59375 405.95047 427.375 406.79422Q428.17188 407.63797 428.17188 409.18484Q428.17188 409.2786 428.17188 409.4661L423.53125 409.4661Q423.59375 410.49734 424.10938 411.04422Q424.625 411.57547 425.40625 411.57547Q425.98438 411.57547 426.39062 411.2786Q426.8125 410.9661 427.04688 410.30984ZM423.59375 408.60672L427.0625 408.60672Q427.0 407.80984 426.67188 407.41922Q426.15625 406.80984 425.35938 406.80984Q424.625 406.80984 424.125 407.29422Q423.64062 407.7786 423.59375 408.60672ZM433.82812 412.30984L433.82812 411.5286Q433.23438 412.45047 432.09375 412.45047Q431.34375 412.45047 430.71875 412.04422Q430.09375 411.62234 429.75 410.88797Q429.40625 410.1536 429.40625 409.20047Q429.40625 408.2786 429.71875 407.51297Q430.03125 406.74734 430.65625 406.35672Q431.28125 405.95047 432.04688 405.95047Q432.60938 405.95047 433.04688 406.18484Q433.48438 406.41922 433.76562 406.79422L433.76562 403.7161L434.8125 403.7161L434.8125 412.30984L433.82812 412.30984ZM430.5 409.20047Q430.5 410.4036 431.0 410.99734Q431.5 411.57547 432.1875 411.57547Q432.875 411.57547 433.35938 411.01297Q433.84375 410.45047 433.84375 409.29422Q433.84375 408.01297 433.34375 407.41922Q432.85938 406.82547 432.14062 406.82547Q431.4375 406.82547 430.96875 407.4036Q430.5 407.9661 430.5 409.20047ZM446.0625 409.29422L447.1875 409.5911Q446.82812 410.98172 445.90625 411.7161Q444.98438 412.45047 443.64062 412.45047Q442.25 412.45047 441.375 411.88797Q440.5 411.32547 440.04688 410.26297Q439.59375 409.18484 439.59375 407.95047Q439.59375 406.60672 440.10938 405.60672Q440.625 404.60672 441.5625 404.0911Q442.51562 403.57547 443.65625 403.57547Q444.9375 403.57547 445.8125 404.23172Q446.70312 404.88797 447.04688 406.07547L445.92188 406.3411Q445.625 405.4036 445.04688 404.98172Q444.48438 404.54422 443.625 404.54422Q442.64062 404.54422 441.96875 405.0286Q441.3125 405.49734 441.03125 406.29422Q440.76562 407.0911 440.76562 407.95047Q440.76562 409.04422 441.07812 409.85672Q441.40625 410.66922 442.07812 411.07547Q442.75 411.48172 443.54688 411.48172Q444.5 411.48172 445.15625 410.93484Q445.82812 410.38797 446.0625 409.29422ZM452.85938 411.54422Q452.26562 412.04422 451.71875 412.24734Q451.1875 412.45047 450.5625 412.45047Q449.53125 412.45047 448.98438 411.95047Q448.4375 411.45047 448.4375 410.66922Q448.4375 410.2161 448.64062 409.8411Q448.84375 409.45047 449.1875 409.23172Q449.53125 408.99734 449.95312 408.88797Q450.25 408.79422 450.89062 408.7161Q452.15625 408.57547 452.76562 408.35672Q452.76562 408.13797 452.76562 408.0911Q452.76562 407.43484 452.46875 407.16922Q452.0625 406.82547 451.26562 406.82547Q450.53125 406.82547 450.17188 407.0911Q449.8125 407.3411 449.64062 407.99734L448.60938 407.85672Q448.75 407.20047 449.07812 406.79422Q449.40625 406.38797 450.01562 406.16922Q450.625 405.95047 451.42188 405.95047Q452.21875 405.95047 452.71875 406.13797Q453.21875 406.32547 453.45312 406.60672Q453.6875 406.88797 453.78125 407.32547Q453.82812 407.5911 453.82812 408.29422L453.82812 409.70047Q453.82812 411.16922 453.89062 411.55984Q453.96875 411.95047 454.17188 412.30984L453.0625 412.30984Q452.90625 411.98172 452.85938 411.54422ZM452.76562 409.18484Q452.1875 409.41922 451.04688 409.5911Q450.39062 409.68484 450.125 409.80984Q449.85938 409.91922 449.70312 410.13797Q449.5625 410.35672 449.5625 410.63797Q449.5625 411.05984 449.875 411.3411Q450.20312 411.62234 450.8125 411.62234Q451.42188 411.62234 451.89062 411.35672Q452.375 411.0911 452.59375 410.62234Q452.76562 410.26297 452.76562 409.57547L452.76562 409.18484ZM455.375 410.45047L456.40625 410.29422Q456.5 410.91922 456.89062 411.24734Q457.29688 411.57547 458.03125 411.57547Q458.75 411.57547 459.09375 411.29422Q459.45312 410.99734 459.45312 410.5911Q459.45312 410.23172 459.14062 410.0286Q458.92188 409.88797 458.0625 409.66922Q456.90625 409.37234 456.45312 409.16922Q456.01562 408.95047 455.78125 408.57547Q455.54688 408.20047 455.54688 407.73172Q455.54688 407.32547 455.73438 406.9661Q455.92188 406.60672 456.25 406.37234Q456.5 406.20047 456.92188 406.07547Q457.34375 405.95047 457.84375 405.95047Q458.5625 405.95047 459.10938 406.16922Q459.67188 406.37234 459.9375 406.73172Q460.20312 407.0911 460.29688 407.68484L459.26562 407.82547Q459.20312 407.35672 458.85938 407.0911Q458.53125 406.80984 457.90625 406.80984Q457.1875 406.80984 456.875 407.05984Q456.5625 407.29422 456.5625 407.62234Q456.5625 407.82547 456.6875 407.98172Q456.82812 408.1536 457.09375 408.26297Q457.25 408.32547 458.03125 408.5286Q459.15625 408.8411 459.59375 409.0286Q460.03125 409.2161 460.28125 409.57547Q460.53125 409.93484 460.53125 410.48172Q460.53125 411.01297 460.21875 411.48172Q459.92188 411.93484 459.34375 412.20047Q458.76562 412.45047 458.03125 412.45047Q456.8125 412.45047 456.17188 411.95047Q455.54688 411.43484 455.375 410.45047ZM466.04688 410.30984L467.14062 410.43484Q466.89062 411.38797 466.1875 411.91922Q465.48438 412.45047 464.40625 412.45047Q463.04688 412.45047 462.23438 411.60672Q461.4375 410.76297 461.4375 409.24734Q461.4375 407.68484 462.25 406.82547Q463.0625 405.95047 464.34375 405.95047Q465.59375 405.95047 466.375 406.79422Q467.17188 407.63797 467.17188 409.18484Q467.17188 409.2786 467.17188 409.4661L462.53125 409.4661Q462.59375 410.49734 463.10938 411.04422Q463.625 411.57547 464.40625 411.57547Q464.98438 411.57547 465.39062 411.2786Q465.8125 410.9661 466.04688 410.30984ZM462.59375 408.60672L466.0625 408.60672Q466.0 407.80984 465.67188 407.41922Q465.15625 406.80984 464.35938 406.80984Q463.625 406.80984 463.125 407.29422Q462.64062 407.7786 462.59375 408.60672ZM468.375 410.45047L469.40625 410.29422Q469.5 410.91922 469.89062 411.24734Q470.29688 411.57547 471.03125 411.57547Q471.75 411.57547 472.09375 411.29422Q472.45312 410.99734 472.45312 410.5911Q472.45312 410.23172 472.14062 410.0286Q471.92188 409.88797 471.0625 409.66922Q469.90625 409.37234 469.45312 409.16922Q469.01562 408.95047 468.78125 408.57547Q468.54688 408.20047 468.54688 407.73172Q468.54688 407.32547 468.73438 406.9661Q468.92188 406.60672 469.25 406.37234Q469.5 406.20047 469.92188 406.07547Q470.34375 405.95047 470.84375 405.95047Q471.5625 405.95047 472.10938 406.16922Q472.67188 406.37234 472.9375 406.73172Q473.20312 407.0911 473.29688 407.68484L472.26562 407.82547Q472.20312 407.35672 471.85938 407.0911Q471.53125 406.80984 470.90625 406.80984Q470.1875 406.80984 469.875 407.05984Q469.5625 407.29422 469.5625 407.62234Q469.5625 407.82547 469.6875 407.98172Q469.82812 408.1536 470.09375 408.26297Q470.25 408.32547 471.03125 408.5286Q472.15625 408.8411 472.59375 409.0286Q473.03125 409.2161 473.28125 409.57547Q473.53125 409.93484 473.53125 410.48172Q473.53125 411.01297 473.21875 411.48172Q472.92188 411.93484 472.34375 412.20047Q471.76562 412.45047 471.03125 412.45047Q469.8125 412.45047 469.17188 411.95047Q468.54688 411.43484 468.375 410.45047Z" fill-rule="nonzero"/><path fill="#757575" d="M136.26562 35.15385L138.15625 35.6226Q137.5625 37.96635 136.01562 39.200726Q134.46875 40.419476 132.21875 40.419476Q129.90625 40.419476 128.45312 39.481976Q127.015625 38.52885 126.25 36.7476Q125.5 34.950726 125.5 32.90385Q125.5 30.669476 126.34375 29.013226Q127.203125 27.34135 128.78125 26.481976Q130.35938 25.606976 132.25 25.606976Q134.40625 25.606976 135.85938 26.700726Q137.32812 27.794476 137.90625 29.77885L136.04688 30.21635Q135.54688 28.65385 134.59375 27.950726Q133.65625 27.231976 132.21875 27.231976Q130.5625 27.231976 129.45312 28.02885Q128.34375 28.8101 127.890625 30.15385Q127.453125 31.481976 127.453125 32.888226Q127.453125 34.71635 127.984375 36.09135Q128.51562 37.450726 129.64062 38.1226Q130.76562 38.794476 132.0625 38.794476Q133.65625 38.794476 134.76562 37.8726Q135.875 36.950726 136.26562 35.15385ZM146.59375 38.888226Q145.60938 39.71635 144.70312 40.0601Q143.79688 40.40385 142.76562 40.40385Q141.0625 40.40385 140.14062 39.575726Q139.21875 38.731976 139.21875 37.4351Q139.21875 36.669476 139.5625 36.044476Q139.92188 35.419476 140.48438 35.044476Q141.04688 34.65385 141.75 34.450726Q142.26562 34.325726 143.3125 34.1851Q145.4375 33.9351 146.4375 33.59135Q146.45312 33.231976 146.45312 33.1226Q146.45312 32.0601 145.95312 31.606976Q145.28125 31.013226 143.95312 31.013226Q142.70312 31.013226 142.10938 31.450726Q141.53125 31.888226 141.25 32.9976L139.53125 32.763226Q139.76562 31.65385 140.29688 30.981976Q140.82812 30.294476 141.84375 29.9351Q142.85938 29.5601 144.20312 29.5601Q145.53125 29.5601 146.35938 29.8726Q147.1875 30.1851 147.57812 30.669476Q147.96875 31.138226 148.125 31.856976Q148.21875 32.3101 148.21875 33.481976L148.21875 35.825726Q148.21875 38.27885 148.32812 38.9351Q148.4375 39.575726 148.78125 40.169476L146.9375 40.169476Q146.67188 39.6226 146.59375 38.888226ZM146.4375 34.96635Q145.48438 35.356976 143.5625 35.6226Q142.48438 35.77885 142.03125 35.981976Q141.59375 36.169476 141.34375 36.544476Q141.09375 36.919476 141.09375 37.388226Q141.09375 38.09135 141.625 38.5601Q142.15625 39.02885 143.1875 39.02885Q144.20312 39.02885 144.98438 38.59135Q145.78125 38.138226 146.15625 37.3726Q146.4375 36.763226 146.4375 35.606976L146.4375 34.96635ZM150.10938 37.075726L151.85938 36.794476Q152.0 37.84135 152.67188 38.40385Q153.34375 38.950726 154.54688 38.950726Q155.75 38.950726 156.32812 38.46635Q156.92188 37.96635 156.92188 37.3101Q156.92188 36.71635 156.40625 36.3726Q156.04688 36.138226 154.60938 35.77885Q152.67188 35.27885 151.92188 34.9351Q151.1875 34.575726 150.79688 33.950726Q150.40625 33.3101 150.40625 32.544476Q150.40625 31.856976 150.71875 31.263226Q151.04688 30.669476 151.59375 30.27885Q152.0 29.981976 152.70312 29.77885Q153.42188 29.5601 154.23438 29.5601Q155.45312 29.5601 156.375 29.919476Q157.29688 30.263226 157.73438 30.8726Q158.17188 31.46635 158.34375 32.46635L156.625 32.700726Q156.5 31.90385 155.9375 31.46635Q155.375 31.013226 154.35938 31.013226Q153.14062 31.013226 152.625 31.419476Q152.10938 31.8101 152.10938 32.34135Q152.10938 32.6851 152.32812 32.96635Q152.53125 33.2476 153.0 33.4351Q153.26562 33.52885 154.54688 33.8726Q156.42188 34.3726 157.15625 34.700726Q157.89062 35.013226 158.3125 35.6226Q158.73438 36.21635 158.73438 37.1226Q158.73438 37.9976 158.21875 38.77885Q157.70312 39.5601 156.73438 39.981976Q155.76562 40.40385 154.54688 40.40385Q152.53125 40.40385 151.46875 39.5601Q150.40625 38.71635 150.10938 37.075726ZM167.92188 36.825726L169.73438 37.0601Q169.3125 38.638226 168.14062 39.52885Q166.98438 40.40385 165.17188 40.40385Q162.90625 40.40385 161.5625 39.013226Q160.23438 37.606976 160.23438 35.075726Q160.23438 32.450726 161.57812 31.013226Q162.92188 29.5601 165.07812 29.5601Q167.15625 29.5601 168.46875 30.981976Q169.79688 32.388226 169.79688 34.96635Q169.79688 35.1226 169.78125 35.4351L162.04688 35.4351Q162.14062 37.138226 163.01562 38.044476Q163.89062 38.950726 165.1875 38.950726Q166.15625 38.950726 166.82812 38.450726Q167.51562 37.9351 167.92188 36.825726ZM162.14062 33.981976L167.9375 33.981976Q167.82812 32.6851 167.28125 32.02885Q166.4375 31.013226 165.09375 31.013226Q163.89062 31.013226 163.0625 31.825726Q162.23438 32.6226 162.14062 33.981976ZM171.10938 37.075726L172.85938 36.794476Q173.0 37.84135 173.67188 38.40385Q174.34375 38.950726 175.54688 38.950726Q176.75 38.950726 177.32812 38.46635Q177.92188 37.96635 177.92188 37.3101Q177.92188 36.71635 177.40625 36.3726Q177.04688 36.138226 175.60938 35.77885Q173.67188 35.27885 172.92188 34.9351Q172.1875 34.575726 171.79688 33.950726Q171.40625 33.3101 171.40625 32.544476Q171.40625 31.856976 171.71875 31.263226Q172.04688 30.669476 172.59375 30.27885Q173.0 29.981976 173.70312 29.77885Q174.42188 29.5601 175.23438 29.5601Q176.45312 29.5601 177.375 29.919476Q178.29688 30.263226 178.73438 30.8726Q179.17188 31.46635 179.34375 32.46635L177.625 32.700726Q177.5 31.90385 176.9375 31.46635Q176.375 31.013226 175.35938 31.013226Q174.14062 31.013226 173.625 31.419476Q173.10938 31.8101 173.10938 32.34135Q173.10938 32.6851 173.32812 32.96635Q173.53125 33.2476 174.0 33.4351Q174.26562 33.52885 175.54688 33.8726Q177.42188 34.3726 178.15625 34.700726Q178.89062 35.013226 179.3125 35.6226Q179.73438 36.21635 179.73438 37.1226Q179.73438 37.9976 179.21875 38.77885Q178.70312 39.5601 177.73438 39.981976Q176.76562 40.40385 175.54688 40.40385Q173.53125 40.40385 172.46875 39.5601Q171.40625 38.71635 171.10938 37.075726ZM188.23438 40.169476L188.23438 31.169476L186.6875 31.169476L186.6875 29.794476L188.23438 29.794476L188.23438 28.700726Q188.23438 27.65385 188.42188 27.138226Q188.67188 26.450726 189.3125 26.02885Q189.95312 25.606976 191.10938 25.606976Q191.85938 25.606976 192.75 25.77885L192.48438 27.3101Q191.9375 27.21635 191.45312 27.21635Q190.65625 27.21635 190.3125 27.5601Q189.98438 27.90385 189.98438 28.84135L189.98438 29.794476L192.01562 29.794476L192.01562 31.169476L189.98438 31.169476L189.98438 40.169476L188.23438 40.169476ZM193.17188 34.981976Q193.17188 32.106976 194.76562 30.71635Q196.10938 29.5601 198.03125 29.5601Q200.17188 29.5601 201.51562 30.96635Q202.875 32.3726 202.875 34.84135Q202.875 36.84135 202.28125 37.9976Q201.6875 39.138226 200.53125 39.77885Q199.39062 40.40385 198.03125 40.40385Q195.84375 40.40385 194.5 39.013226Q193.17188 37.606976 193.17188 34.981976ZM194.96875 34.981976Q194.96875 36.981976 195.82812 37.96635Q196.70312 38.950726 198.03125 38.950726Q199.34375 38.950726 200.20312 37.96635Q201.07812 36.96635 201.07812 34.919476Q201.07812 32.9976 200.20312 32.013226Q199.32812 31.013226 198.03125 31.013226Q196.70312 31.013226 195.82812 32.013226Q194.96875 32.9976 194.96875 34.981976ZM204.79688 40.169476L204.79688 29.794476L206.375 29.794476L206.375 31.3726Q206.98438 30.263226 207.5 29.919476Q208.01562 29.5601 208.625 29.5601Q209.51562 29.5601 210.4375 30.1226L209.82812 31.763226Q209.1875 31.3726 208.54688 31.3726Q207.96875 31.3726 207.5 31.731976Q207.04688 32.075726 206.84375 32.6851Q206.5625 33.6226 206.5625 34.731976L206.5625 40.169476L204.79688 40.169476ZM218.07812 40.169476L218.07812 25.856976L228.4375 25.856976L228.4375 27.544476L219.98438 27.544476L219.98438 31.919476L227.89062 31.919476L227.89062 33.606976L219.98438 33.606976L219.98438 38.481976L228.76562 38.481976L228.76562 40.169476L218.07812 40.169476ZM229.64062 40.169476L233.4375 34.77885L229.9375 29.794476L232.125 29.794476L233.71875 32.231976Q234.17188 32.919476 234.4375 33.388226Q234.875 32.7476 235.23438 32.2476L236.98438 29.794476L239.07812 29.794476L235.5 34.6851L239.35938 40.169476L237.20312 40.169476L235.0625 36.950726L234.5 36.075726L231.78125 40.169476L229.64062 40.169476ZM240.8125 44.138226L240.8125 29.794476L242.42188 29.794476L242.42188 31.138226Q242.98438 30.356976 243.6875 29.96635Q244.40625 29.5601 245.42188 29.5601Q246.75 29.5601 247.76562 30.2476Q248.78125 30.9351 249.29688 32.1851Q249.82812 33.419476 249.82812 34.90385Q249.82812 36.4976 249.25 37.77885Q248.6875 39.044476 247.59375 39.731976Q246.5 40.40385 245.29688 40.40385Q244.42188 40.40385 243.71875 40.02885Q243.03125 39.65385 242.57812 39.09135L242.57812 44.138226L240.8125 44.138226ZM242.40625 35.044476Q242.40625 37.044476 243.21875 37.9976Q244.03125 38.950726 245.1875 38.950726Q246.35938 38.950726 247.1875 37.96635Q248.03125 36.981976 248.03125 34.888226Q248.03125 32.919476 247.20312 31.9351Q246.39062 30.9351 245.26562 30.9351Q244.14062 30.9351 243.26562 31.9976Q242.40625 33.044476 242.40625 35.044476ZM252.3125 40.169476L252.3125 38.169476L254.3125 38.169476L254.3125 40.169476L252.3125 40.169476ZM263.98438 40.169476L263.98438 25.856976L266.84375 25.856976L270.21875 35.981976Q270.6875 37.40385 270.90625 38.106976Q271.15625 37.325726 271.67188 35.8101L275.09375 25.856976L277.64062 25.856976L277.64062 40.169476L275.82812 40.169476L275.82812 28.1851L271.65625 40.169476L269.95312 40.169476L265.8125 27.981976L265.8125 40.169476L263.98438 40.169476ZM287.92188 36.825726L289.73438 37.0601Q289.3125 38.638226 288.14062 39.52885Q286.98438 40.40385 285.17188 40.40385Q282.90625 40.40385 281.5625 39.013226Q280.23438 37.606976 280.23438 35.075726Q280.23438 32.450726 281.57812 31.013226Q282.92188 29.5601 285.07812 29.5601Q287.15625 29.5601 288.46875 30.981976Q289.79688 32.388226 289.79688 34.96635Q289.79688 35.1226 289.78125 35.4351L282.04688 35.4351Q282.14062 37.138226 283.01562 38.044476Q283.89062 38.950726 285.1875 38.950726Q286.15625 38.950726 286.82812 38.450726Q287.51562 37.9351 287.92188 36.825726ZM282.14062 33.981976L287.9375 33.981976Q287.82812 32.6851 287.28125 32.02885Q286.4375 31.013226 285.09375 31.013226Q283.89062 31.013226 283.0625 31.825726Q282.23438 32.6226 282.14062 33.981976ZM295.65625 38.59135L295.90625 40.15385Q295.17188 40.3101 294.57812 40.3101Q293.625 40.3101 293.09375 40.013226Q292.57812 39.700726 292.35938 39.21635Q292.14062 38.71635 292.14062 37.138226L292.14062 31.169476L290.85938 31.169476L290.85938 29.794476L292.14062 29.794476L292.14062 27.231976L293.89062 26.169476L293.89062 29.794476L295.65625 29.794476L295.65625 31.169476L293.89062 31.169476L293.89062 37.231976Q293.89062 37.981976 293.98438 38.200726Q294.07812 38.40385 294.28125 38.544476Q294.5 38.669476 294.89062 38.669476Q295.17188 38.669476 295.65625 38.59135ZM304.92188 36.825726L306.73438 37.0601Q306.3125 38.638226 305.14062 39.52885Q303.98438 40.40385 302.17188 40.40385Q299.90625 40.40385 298.5625 39.013226Q297.23438 37.606976 297.23438 35.075726Q297.23438 32.450726 298.57812 31.013226Q299.92188 29.5601 302.07812 29.5601Q304.15625 29.5601 305.46875 30.981976Q306.79688 32.388226 306.79688 34.96635Q306.79688 35.1226 306.78125 35.4351L299.04688 35.4351Q299.14062 37.138226 300.01562 38.044476Q300.89062 38.950726 302.1875 38.950726Q303.15625 38.950726 303.82812 38.450726Q304.51562 37.9351 304.92188 36.825726ZM299.14062 33.981976L304.9375 33.981976Q304.82812 32.6851 304.28125 32.02885Q303.4375 31.013226 302.09375 31.013226Q300.89062 31.013226 300.0625 31.825726Q299.23438 32.6226 299.14062 33.981976ZM308.79688 40.169476L308.79688 29.794476L310.375 29.794476L310.375 31.3726Q310.98438 30.263226 311.5 29.919476Q312.01562 29.5601 312.625 29.5601Q313.51562 29.5601 314.4375 30.1226L313.82812 31.763226Q313.1875 31.3726 312.54688 31.3726Q311.96875 31.3726 311.5 31.731976Q311.04688 32.075726 310.84375 32.6851Q310.5625 33.6226 310.5625 34.731976L310.5625 40.169476L308.79688 40.169476ZM322.03125 40.169476L322.03125 25.856976L323.96875 25.856976L331.48438 37.09135L331.48438 25.856976L333.29688 25.856976L333.29688 40.169476L331.35938 40.169476L323.84375 28.919476L323.84375 40.169476L322.03125 40.169476ZM335.17188 34.981976Q335.17188 32.106976 336.76562 30.71635Q338.10938 29.5601 340.03125 29.5601Q342.17188 29.5601 343.51562 30.96635Q344.875 32.3726 344.875 34.84135Q344.875 36.84135 344.28125 37.9976Q343.6875 39.138226 342.53125 39.77885Q341.39062 40.40385 340.03125 40.40385Q337.84375 40.40385 336.5 39.013226Q335.17188 37.606976 335.17188 34.981976ZM336.96875 34.981976Q336.96875 36.981976 337.82812 37.96635Q338.70312 38.950726 340.03125 38.950726Q341.34375 38.950726 342.20312 37.96635Q343.07812 36.96635 343.07812 34.919476Q343.07812 32.9976 342.20312 32.013226Q341.32812 31.013226 340.03125 31.013226Q338.70312 31.013226 337.82812 32.013226Q336.96875 32.9976 336.96875 34.981976ZM346.8125 40.169476L346.8125 29.794476L348.40625 29.794476L348.40625 31.27885Q349.54688 29.5601 351.70312 29.5601Q352.64062 29.5601 353.42188 29.90385Q354.21875 30.231976 354.60938 30.77885Q355.0 31.325726 355.15625 32.075726Q355.25 32.575726 355.25 33.794476L355.25 40.169476L353.48438 40.169476L353.48438 33.856976Q353.48438 32.77885 353.28125 32.2476Q353.07812 31.71635 352.54688 31.40385Q352.03125 31.09135 351.32812 31.09135Q350.20312 31.09135 349.39062 31.8101Q348.57812 32.513226 348.57812 34.4976L348.57812 40.169476L346.8125 40.169476ZM357.14062 35.8726L357.14062 34.106976L362.53125 34.106976L362.53125 35.8726L357.14062 35.8726ZM375.26562 35.15385L377.15625 35.6226Q376.5625 37.96635 375.01562 39.200726Q373.46875 40.419476 371.21875 40.419476Q368.90625 40.419476 367.45312 39.481976Q366.01562 38.52885 365.25 36.7476Q364.5 34.950726 364.5 32.90385Q364.5 30.669476 365.34375 29.013226Q366.20312 27.34135 367.78125 26.481976Q369.35938 25.606976 371.25 25.606976Q373.40625 25.606976 374.85938 26.700726Q376.32812 27.794476 376.90625 29.77885L375.04688 30.21635Q374.54688 28.65385 373.59375 27.950726Q372.65625 27.231976 371.21875 27.231976Q369.5625 27.231976 368.45312 28.02885Q367.34375 28.8101 366.89062 30.15385Q366.45312 31.481976 366.45312 32.888226Q366.45312 34.71635 366.98438 36.09135Q367.51562 37.450726 368.64062 38.1226Q369.76562 38.794476 371.0625 38.794476Q372.65625 38.794476 373.76562 37.8726Q374.875 36.950726 375.26562 35.15385ZM385.92188 36.825726L387.73438 37.0601Q387.3125 38.638226 386.14062 39.52885Q384.98438 40.40385 383.17188 40.40385Q380.90625 40.40385 379.5625 39.013226Q378.23438 37.606976 378.23438 35.075726Q378.23438 32.450726 379.57812 31.013226Q380.92188 29.5601 383.07812 29.5601Q385.15625 29.5601 386.46875 30.981976Q387.79688 32.388226 387.79688 34.96635Q387.79688 35.1226 387.78125 35.4351L380.04688 35.4351Q380.14062 37.138226 381.01562 38.044476Q381.89062 38.950726 383.1875 38.950726Q384.15625 38.950726 384.82812 38.450726Q385.51562 37.9351 385.92188 36.825726ZM380.14062 33.981976L385.9375 33.981976Q385.82812 32.6851 385.28125 32.02885Q384.4375 31.013226 383.09375 31.013226Q381.89062 31.013226 381.0625 31.825726Q380.23438 32.6226 380.14062 33.981976ZM389.8125 40.169476L389.8125 29.794476L391.40625 29.794476L391.40625 31.27885Q392.54688 29.5601 394.70312 29.5601Q395.64062 29.5601 396.42188 29.90385Q397.21875 30.231976 397.60938 30.77885Q398.0 31.325726 398.15625 32.075726Q398.25 32.575726 398.25 33.794476L398.25 40.169476L396.48438 40.169476L396.48438 33.856976Q396.48438 32.77885 396.28125 32.2476Q396.07812 31.71635 395.54688 31.40385Q395.03125 31.09135 394.32812 31.09135Q393.20312 31.09135 392.39062 31.8101Q391.57812 32.513226 391.57812 34.4976L391.57812 40.169476L389.8125 40.169476ZM404.65625 38.59135L404.90625 40.15385Q404.17188 40.3101 403.57812 40.3101Q402.625 40.3101 402.09375 40.013226Q401.57812 39.700726 401.35938 39.21635Q401.14062 38.71635 401.14062 37.138226L401.14062 31.169476L399.85938 31.169476L399.85938 29.794476L401.14062 29.794476L401.14062 27.231976L402.89062 26.169476L402.89062 29.794476L404.65625 29.794476L404.65625 31.169476L402.89062 31.169476L402.89062 37.231976Q402.89062 37.981976 402.98438 38.200726Q403.07812 38.40385 403.28125 38.544476Q403.5 38.669476 403.89062 38.669476Q404.17188 38.669476 404.65625 38.59135ZM406.79688 40.169476L406.79688 29.794476L408.375 29.794476L408.375 31.3726Q408.98438 30.263226 409.5 29.919476Q410.01562 29.5601 410.625 29.5601Q411.51562 29.5601 412.4375 30.1226L411.82812 31.763226Q411.1875 31.3726 410.54688 31.3726Q409.96875 31.3726 409.5 31.731976Q409.04688 32.075726 408.84375 32.6851Q408.5625 33.6226 408.5625 34.731976L408.5625 40.169476L406.79688 40.169476ZM420.59375 38.888226Q419.60938 39.71635 418.70312 40.0601Q417.79688 40.40385 416.76562 40.40385Q415.0625 40.40385 414.14062 39.575726Q413.21875 38.731976 413.21875 37.4351Q413.21875 36.669476 413.5625 36.044476Q413.92188 35.419476 414.48438 35.044476Q415.04688 34.65385 415.75 34.450726Q416.26562 34.325726 417.3125 34.1851Q419.4375 33.9351 420.4375 33.59135Q420.45312 33.231976 420.45312 33.1226Q420.45312 32.0601 419.95312 31.606976Q419.28125 31.013226 417.95312 31.013226Q416.70312 31.013226 416.10938 31.450726Q415.53125 31.888226 415.25 32.9976L413.53125 32.763226Q413.76562 31.65385 414.29688 30.981976Q414.82812 30.294476 415.84375 29.9351Q416.85938 29.5601 418.20312 29.5601Q419.53125 29.5601 420.35938 29.8726Q421.1875 30.1851 421.57812 30.669476Q421.96875 31.138226 422.125 31.856976Q422.21875 32.3101 422.21875 33.481976L422.21875 35.825726Q422.21875 38.27885 422.32812 38.9351Q422.4375 39.575726 422.78125 40.169476L420.9375 40.169476Q420.67188 39.6226 420.59375 38.888226ZM420.4375 34.96635Q419.48438 35.356976 417.5625 35.6226Q416.48438 35.77885 416.03125 35.981976Q415.59375 36.169476 415.34375 36.544476Q415.09375 36.919476 415.09375 37.388226Q415.09375 38.09135 415.625 38.5601Q416.15625 39.02885 417.1875 39.02885Q418.20312 39.02885 418.98438 38.59135Q419.78125 38.138226 420.15625 37.3726Q420.4375 36.763226 420.4375 35.606976L420.4375 34.96635ZM424.78125 40.169476L424.78125 25.856976L426.53125 25.856976L426.53125 40.169476L424.78125 40.169476ZM434.96875 40.169476L434.96875 25.856976L440.34375 25.856976Q441.98438 25.856976 442.96875 26.294476Q443.95312 26.71635 444.51562 27.6226Q445.07812 28.52885 445.07812 29.513226Q445.07812 30.4351 444.57812 31.2476Q444.09375 32.0601 443.07812 32.544476Q444.375 32.9351 445.07812 33.856976Q445.78125 34.763226 445.78125 36.013226Q445.78125 37.02885 445.34375 37.888226Q444.92188 38.7476 444.29688 39.21635Q443.67188 39.6851 442.73438 39.9351Q441.79688 40.169476 440.42188 40.169476L434.96875 40.169476ZM436.85938 31.8726L439.95312 31.8726Q441.21875 31.8726 441.76562 31.700726Q442.48438 31.481976 442.84375 30.9976Q443.21875 30.4976 443.21875 29.731976Q443.21875 29.02885 442.875 28.481976Q442.53125 27.9351 441.89062 27.7476Q441.26562 27.544476 439.71875 27.544476L436.85938 27.544476L436.85938 31.8726ZM436.85938 38.481976L440.42188 38.481976Q441.34375 38.481976 441.71875 38.40385Q442.375 38.294476 442.8125 38.02885Q443.25 37.7476 443.53125 37.231976Q443.8125 36.700726 443.8125 36.013226Q443.8125 35.21635 443.40625 34.6226Q443.0 34.02885 442.26562 33.794476Q441.53125 33.5601 440.17188 33.5601L436.85938 33.5601L436.85938 38.481976ZM454.60938 40.169476L454.60938 38.638226Q453.40625 40.40385 451.32812 40.40385Q450.40625 40.40385 449.60938 40.0601Q448.8125 39.700726 448.42188 39.169476Q448.04688 38.638226 447.89062 37.856976Q447.78125 37.34135 447.78125 36.21635L447.78125 29.794476L449.53125 29.794476L449.53125 35.544476Q449.53125 36.919476 449.64062 37.40385Q449.8125 38.09135 450.34375 38.4976Q450.89062 38.888226 451.67188 38.888226Q452.46875 38.888226 453.15625 38.481976Q453.85938 38.075726 454.14062 37.388226Q454.4375 36.6851 454.4375 35.356976L454.4375 29.794476L456.1875 29.794476L456.1875 40.169476L454.60938 40.169476ZM458.10938 37.075726L459.85938 36.794476Q460.0 37.84135 460.67188 38.40385Q461.34375 38.950726 462.54688 38.950726Q463.75 38.950726 464.32812 38.46635Q464.92188 37.96635 464.92188 37.3101Q464.92188 36.71635 464.40625 36.3726Q464.04688 36.138226 462.60938 35.77885Q460.67188 35.27885 459.92188 34.9351Q459.1875 34.575726 458.79688 33.950726Q458.40625 33.3101 458.40625 32.544476Q458.40625 31.856976 458.71875 31.263226Q459.04688 30.669476 459.59375 30.27885Q460.0 29.981976 460.70312 29.77885Q461.42188 29.5601 462.23438 29.5601Q463.45312 29.5601 464.375 29.919476Q465.29688 30.263226 465.73438 30.8726Q466.17188 31.46635 466.34375 32.46635L464.625 32.700726Q464.5 31.90385 463.9375 31.46635Q463.375 31.013226 462.35938 31.013226Q461.14062 31.013226 460.625 31.419476Q460.10938 31.8101 460.10938 32.34135Q460.10938 32.6851 460.32812 32.96635Q460.53125 33.2476 461.0 33.4351Q461.26562 33.52885 462.54688 33.8726Q464.42188 34.3726 465.15625 34.700726Q465.89062 35.013226 466.3125 35.6226Q466.73438 36.21635 466.73438 37.1226Q466.73438 37.9976 466.21875 38.77885Q465.70312 39.5601 464.73438 39.981976Q463.76562 40.40385 462.54688 40.40385Q460.53125 40.40385 459.46875 39.5601Q458.40625 38.71635 458.10938 37.075726ZM468.82812 27.8726L468.82812 25.856976L470.59375 25.856976L470.59375 27.8726L468.82812 27.8726ZM468.82812 40.169476L468.82812 29.794476L470.59375 29.794476L470.59375 40.169476L468.82812 40.169476ZM472.8125 40.169476L472.8125 29.794476L474.40625 29.794476L474.40625 31.27885Q475.54688 29.5601 477.70312 29.5601Q478.64062 29.5601 479.42188 29.90385Q480.21875 30.231976 480.60938 30.77885Q481.0 31.325726 481.15625 32.075726Q481.25 32.575726 481.25 33.794476L481.25 40.169476L479.48438 40.169476L479.48438 33.856976Q479.48438 32.77885 479.28125 32.2476Q479.07812 31.71635 478.54688 31.40385Q478.03125 31.09135 477.32812 31.09135Q476.20312 31.09135 475.39062 31.8101Q474.57812 32.513226 474.57812 34.4976L474.57812 40.169476L472.8125 40.169476ZM490.92188 36.825726L492.73438 37.0601Q492.3125 38.638226 491.14062 39.52885Q489.98438 40.40385 488.17188 40.40385Q485.90625 40.40385 484.5625 39.013226Q483.23438 37.606976 483.23438 35.075726Q483.23438 32.450726 484.57812 31.013226Q485.92188 29.5601 488.07812 29.5601Q490.15625 29.5601 491.46875 30.981976Q492.79688 32.388226 492.79688 34.96635Q492.79688 35.1226 492.78125 35.4351L485.04688 35.4351Q485.14062 37.138226 486.01562 38.044476Q486.89062 38.950726 488.1875 38.950726Q489.15625 38.950726 489.82812 38.450726Q490.51562 37.9351 490.92188 36.825726ZM485.14062 33.981976L490.9375 33.981976Q490.82812 32.6851 490.28125 32.02885Q489.4375 31.013226 488.09375 31.013226Q486.89062 31.013226 486.0625 31.825726Q485.23438 32.6226 485.14062 33.981976ZM494.10938 37.075726L495.85938 36.794476Q496.0 37.84135 496.67188 38.40385Q497.34375 38.950726 498.54688 38.950726Q499.75 38.950726 500.32812 38.46635Q500.92188 37.96635 500.92188 37.3101Q500.92188 36.71635 500.40625 36.3726Q500.04688 36.138226 498.60938 35.77885Q496.67188 35.27885 495.92188 34.9351Q495.1875 34.575726 494.79688 33.950726Q494.40625 33.3101 494.40625 32.544476Q494.40625 31.856976 494.71875 31.263226Q495.04688 30.669476 495.59375 30.27885Q496.0 29.981976 496.70312 29.77885Q497.42188 29.5601 498.23438 29.5601Q499.45312 29.5601 500.375 29.919476Q501.29688 30.263226 501.73438 30.8726Q502.17188 31.46635 502.34375 32.46635L500.625 32.700726Q500.5 31.90385 499.9375 31.46635Q499.375 31.013226 498.35938 31.013226Q497.14062 31.013226 496.625 31.419476Q496.10938 31.8101 496.10938 32.34135Q496.10938 32.6851 496.32812 32.96635Q496.53125 33.2476 497.0 33.4351Q497.26562 33.52885 498.54688 33.8726Q500.42188 34.3726 501.15625 34.700726Q501.89062 35.013226 502.3125 35.6226Q502.73438 36.21635 502.73438 37.1226Q502.73438 37.9976 502.21875 38.77885Q501.70312 39.5601 500.73438 39.981976Q499.76562 40.40385 498.54688 40.40385Q496.53125 40.40385 495.46875 39.5601Q494.40625 38.71635 494.10938 37.075726ZM504.10938 37.075726L505.85938 36.794476Q506.0 37.84135 506.67188 38.40385Q507.34375 38.950726 508.54688 38.950726Q509.75 38.950726 510.32812 38.46635Q510.92188 37.96635 510.92188 37.3101Q510.92188 36.71635 510.40625 36.3726Q510.04688 36.138226 508.60938 35.77885Q506.67188 35.27885 505.92188 34.9351Q505.1875 34.575726 504.79688 33.950726Q504.40625 33.3101 504.40625 32.544476Q504.40625 31.856976 504.71875 31.263226Q505.04688 30.669476 505.59375 30.27885Q506.0 29.981976 506.70312 29.77885Q507.42188 29.5601 508.23438 29.5601Q509.45312 29.5601 510.375 29.919476Q511.29688 30.263226 511.73438 30.8726Q512.1719 31.46635 512.34375 32.46635L510.625 32.700726Q510.5 31.90385 509.9375 31.46635Q509.375 31.013226 508.35938 31.013226Q507.14062 31.013226 506.625 31.419476Q506.10938 31.8101 506.10938 32.34135Q506.10938 32.6851 506.32812 32.96635Q506.53125 33.2476 507.0 33.4351Q507.26562 33.52885 508.54688 33.8726Q510.42188 34.3726 511.15625 34.700726Q511.89062 35.013226 512.3125 35.6226Q512.7344 36.21635 512.7344 37.1226Q512.7344 37.9976 512.21875 38.77885Q511.70312 39.5601 510.73438 39.981976Q509.76562 40.40385 508.54688 40.40385Q506.53125 40.40385 505.46875 39.5601Q504.40625 38.71635 504.10938 37.075726ZM521.0469 40.169476L521.0469 25.856976L525.96875 25.856976Q527.6406 25.856976 528.53125 26.0601Q529.75 26.34135 530.625 27.075726Q531.75 28.044476 532.3125 29.52885Q532.875 31.013226 532.875 32.9351Q532.875 34.5601 532.5 35.825726Q532.125 37.075726 531.5156 37.90385Q530.9219 38.731976 530.21875 39.21635Q529.5156 39.6851 528.5156 39.9351Q527.5156 40.169476 526.2031 40.169476L521.0469 40.169476ZM522.9375 38.481976L526.0 38.481976Q527.40625 38.481976 528.2031 38.21635Q529.0156 37.950726 529.5 37.46635Q530.1719 36.794476 530.5469 35.669476Q530.9219 34.52885 530.9219 32.90385Q530.9219 30.65385 530.1875 29.450726Q529.4531 28.2476 528.3906 27.84135Q527.6406 27.544476 525.9531 27.544476L522.9375 27.544476L522.9375 38.481976ZM534.8281 27.8726L534.8281 25.856976L536.59375 25.856976L536.59375 27.8726L534.8281 27.8726ZM534.8281 40.169476L534.8281 29.794476L536.59375 29.794476L536.59375 40.169476L534.8281 40.169476ZM538.1094 37.075726L539.8594 36.794476Q540.0 37.84135 540.6719 38.40385Q541.34375 38.950726 542.5469 38.950726Q543.75 38.950726 544.3281 38.46635Q544.9219 37.96635 544.9219 37.3101Q544.9219 36.71635 544.40625 36.3726Q544.0469 36.138226 542.6094 35.77885Q540.6719 35.27885 539.9219 34.9351Q539.1875 34.575726 538.7969 33.950726Q538.40625 33.3101 538.40625 32.544476Q538.40625 31.856976 538.71875 31.263226Q539.0469 30.669476 539.59375 30.27885Q540.0 29.981976 540.7031 29.77885Q541.4219 29.5601 542.2344 29.5601Q543.4531 29.5601 544.375 29.919476Q545.2969 30.263226 545.7344 30.8726Q546.1719 31.46635 546.34375 32.46635L544.625 32.700726Q544.5 31.90385 543.9375 31.46635Q543.375 31.013226 542.3594 31.013226Q541.1406 31.013226 540.625 31.419476Q540.1094 31.8101 540.1094 32.34135Q540.1094 32.6851 540.3281 32.96635Q540.53125 33.2476 541.0 33.4351Q541.2656 33.52885 542.5469 33.8726Q544.4219 34.3726 545.15625 34.700726Q545.8906 35.013226 546.3125 35.6226Q546.7344 36.21635 546.7344 37.1226Q546.7344 37.9976 546.21875 38.77885Q545.7031 39.5601 544.7344 39.981976Q543.7656 40.40385 542.5469 40.40385Q540.53125 40.40385 539.46875 39.5601Q538.40625 38.71635 538.1094 37.075726ZM552.65625 38.59135L552.90625 40.15385Q552.1719 40.3101 551.5781 40.3101Q550.625 40.3101 550.09375 40.013226Q549.5781 39.700726 549.3594 39.21635Q549.1406 38.71635 549.1406 37.138226L549.1406 31.169476L547.8594 31.169476L547.8594 29.794476L549.1406 29.794476L549.1406 27.231976L550.8906 26.169476L550.8906 29.794476L552.65625 29.794476L552.65625 31.169476L550.8906 31.169476L550.8906 37.231976Q550.8906 37.981976 550.9844 38.200726Q551.0781 38.40385 551.28125 38.544476Q551.5 38.669476 551.8906 38.669476Q552.1719 38.669476 552.65625 38.59135ZM554.7969 40.169476L554.7969 29.794476L556.375 29.794476L556.375 31.3726Q556.9844 30.263226 557.5 29.919476Q558.0156 29.5601 558.625 29.5601Q559.5156 29.5601 560.4375 30.1226L559.8281 31.763226Q559.1875 31.3726 558.5469 31.3726Q557.96875 31.3726 557.5 31.731976Q557.0469 32.075726 556.84375 32.6851Q556.5625 33.6226 556.5625 34.731976L556.5625 40.169476L554.7969 40.169476ZM561.8281 27.8726L561.8281 25.856976L563.59375 25.856976L563.59375 27.8726L561.8281 27.8726ZM561.8281 40.169476L561.8281 29.794476L563.59375 29.794476L563.59375 40.169476L561.8281 40.169476ZM572.59375 36.3726L574.3125 36.59135Q574.03125 38.388226 572.8594 39.40385Q571.7031 40.40385 570.0 40.40385Q567.875 40.40385 566.5781 39.013226Q565.28125 37.6226 565.28125 35.02885Q565.28125 33.34135 565.8281 32.09135Q566.3906 30.825726 567.53125 30.200726Q568.6719 29.5601 570.0156 29.5601Q571.7031 29.5601 572.7656 30.419476Q573.84375 31.27885 574.15625 32.84135L572.4375 33.106976Q572.2031 32.0601 571.5781 31.544476Q570.9531 31.013226 570.0781 31.013226Q568.75 31.013226 567.9219 31.96635Q567.09375 32.919476 567.09375 34.96635Q567.09375 37.0601 567.8906 38.013226Q568.6875 38.950726 569.9844 38.950726Q571.0156 38.950726 571.7031 38.325726Q572.40625 37.6851 572.59375 36.3726ZM579.65625 38.59135L579.90625 40.15385Q579.1719 40.3101 578.5781 40.3101Q577.625 40.3101 577.09375 40.013226Q576.5781 39.700726 576.3594 39.21635Q576.1406 38.71635 576.1406 37.138226L576.1406 31.169476L574.8594 31.169476L574.8594 29.794476L576.1406 29.794476L576.1406 27.231976L577.8906 26.169476L577.8906 29.794476L579.65625 29.794476L579.65625 31.169476L577.8906 31.169476L577.8906 37.231976Q577.8906 37.981976 577.9844 38.200726Q578.0781 38.40385 578.28125 38.544476Q578.5 38.669476 578.8906 38.669476Q579.1719 38.669476 579.65625 38.59135Z" fill-rule="nonzero"/></svg>