<svg version="1.1" viewBox="0.0 0.0 705.0 442.0" fill="none" stroke="none" stroke-linecap="square" stroke-miterlimit="10" width="705" height="442" xmlns:xlink="http://www.w3.org/1999/xlink" xmlns="http://www.w3.org/2000/svg"><path fill="#ffffff" d="M0 0L705.0 0L705.0 442.0L0 442.0L0 0Z" fill-rule="nonzero"/><path fill="#14213d" d="M389.51804 48.833908C456.42432 48.833908 515.9304 91.3663 537.5902 154.66954C559.25006 217.9728 538.2723 288.04355 485.39005 329.03036L437.45404 267.18213C463.89514 246.68872 474.38406 211.65335 463.55414 180.00172C452.7242 148.3501 422.9712 127.08391 389.51804 127.08391Z" fill-rule="nonzero"/><path fill="#fca311" d="M448.37198 341.69644C394.31155 383.59644 319.30408 385.53632 263.15012 346.48676C206.99612 307.4372 182.70554 236.44527 203.16743 171.18082C223.62935 105.91636 284.1031 61.5 352.5 61.5L352.5 139.75C318.30154 139.75 288.06467 161.95818 277.8337 194.59041C267.60275 227.22263 279.74805 262.7186 307.82504 282.24338C335.90204 301.76816 373.4058 300.79822 400.436 279.84824Z" fill-rule="nonzero"/><path fill="#ffffff" d="M481.16592 169.695L482.38467 169.52313Q482.60342 170.57 483.10342 171.03876Q483.61905 171.49188 484.35342 171.49188Q485.22842 171.49188 485.82217 170.89813Q486.41592 170.28876 486.41592 169.39813Q486.41592 168.55438 485.85342 168.0075Q485.30655 167.46063 484.4628 167.46063Q484.10342 167.46063 483.5878 167.58563L483.72842 166.5075Q483.85342 166.52313 483.91592 166.52313Q484.7128 166.52313 485.3378 166.11688Q485.9628 165.71063 485.9628 164.85126Q485.9628 164.17938 485.50967 163.74188Q485.05655 163.28876 484.32217 163.28876Q483.60342 163.28876 483.11905 163.74188Q482.6503 164.17938 482.50967 165.08563L481.29092 164.86688Q481.50967 163.6325 482.30655 162.96063Q483.10342 162.27313 484.29092 162.27313Q485.11905 162.27313 485.80655 162.6325Q486.49405 162.97626 486.85342 163.58563Q487.22842 164.195 487.22842 164.8825Q487.22842 165.52313 486.88467 166.05438Q486.54092 166.58563 485.85342 166.91376Q486.74405 167.11688 487.22842 167.7575Q487.72842 168.39813 487.72842 169.3825Q487.72842 170.695 486.75967 171.60126Q485.80655 172.5075 484.35342 172.5075Q483.0253 172.5075 482.1503 171.72626Q481.29092 170.945 481.16592 169.695ZM489.3378 170.02313L490.5253 169.91376Q490.66592 170.74188 491.0878 171.11688Q491.5253 171.49188 492.18155 171.49188Q492.74405 171.49188 493.16592 171.24188Q493.60342 170.97626 493.86905 170.53876Q494.1503 170.10126 494.3378 169.36688Q494.5253 168.6325 494.5253 167.86688Q494.5253 167.78876 494.50967 167.61688Q494.1503 168.21063 493.50967 168.58563Q492.86905 168.945 492.11905 168.945Q490.86905 168.945 490.00967 168.03876Q489.1503 167.1325 489.1503 165.66376Q489.1503 164.1325 490.04092 163.21063Q490.94717 162.27313 492.30655 162.27313Q493.2753 162.27313 494.0878 162.80438Q494.9003 163.32 495.32217 164.30438Q495.74405 165.27313 495.74405 167.11688Q495.74405 169.03876 495.32217 170.17938Q494.91592 171.32 494.0878 171.91376Q493.25967 172.5075 492.1503 172.5075Q490.97842 172.5075 490.22842 171.85126Q489.49405 171.195 489.3378 170.02313ZM494.36905 165.60126Q494.36905 164.53876 493.80655 163.91376Q493.24405 163.28876 492.4628 163.28876Q491.63467 163.28876 491.0253 163.96063Q490.41592 164.6325 490.41592 165.695Q490.41592 166.64813 490.99405 167.2575Q491.57217 167.85126 492.41592 167.85126Q493.2753 167.85126 493.82217 167.2575Q494.36905 166.64813 494.36905 165.60126ZM497.8378 172.33563L497.8378 170.92938L499.24405 170.92938L499.24405 172.33563L497.8378 172.33563ZM501.1503 169.71063L502.44717 169.60126Q502.5878 170.53876 503.10342 171.02313Q503.63467 171.49188 504.36905 171.49188Q505.25967 171.49188 505.86905 170.82Q506.49405 170.14813 506.49405 169.05438Q506.49405 167.99188 505.9003 167.3825Q505.30655 166.77313 504.35342 166.77313Q503.75967 166.77313 503.2753 167.05438Q502.80655 167.32 502.5253 167.74188L501.36905 167.60126L502.3378 162.445L507.32217 162.445L507.32217 163.6325L503.32217 163.6325L502.79092 166.32Q503.69717 165.695 504.68155 165.695Q505.99405 165.695 506.88467 166.60126Q507.79092 167.5075 507.79092 168.945Q507.79092 170.30438 507.00967 171.28876Q506.04092 172.5075 504.36905 172.5075Q503.00967 172.5075 502.13467 171.74188Q501.2753 170.97626 501.1503 169.71063ZM509.38467 164.72626Q509.38467 163.64813 509.91592 162.89813Q510.4628 162.14813 511.49405 162.14813Q512.4315 162.14813 513.0409 162.82Q513.6659 163.49188 513.6659 164.78876Q513.6659 166.07 513.0409 166.7575Q512.4159 167.445 511.50967 167.445Q510.60342 167.445 509.99405 166.77313Q509.38467 166.08563 509.38467 164.72626ZM511.5253 162.99188Q511.07217 162.99188 510.75967 163.39813Q510.4628 163.78876 510.4628 164.83563Q510.4628 165.80438 510.75967 166.195Q511.07217 166.58563 511.5253 166.58563Q511.99405 166.58563 512.2909 166.195Q512.6034 165.80438 512.6034 164.74188Q512.6034 163.77313 512.2909 163.3825Q511.97842 162.99188 511.5253 162.99188ZM511.5253 172.71063L517.00964 162.14813L518.00964 162.14813L512.5565 172.71063L511.5253 172.71063ZM515.869 169.97626Q515.869 168.89813 516.40027 168.16376Q516.94714 167.41376 517.9784 167.41376Q518.9159 167.41376 519.5409 168.08563Q520.1659 168.7575 520.1659 170.05438Q520.1659 171.33563 519.5409 172.02313Q518.9159 172.71063 517.9784 172.71063Q517.07214 172.71063 516.46277 172.03876Q515.869 171.35126 515.869 169.97626ZM518.00964 168.2575Q517.5409 168.2575 517.244 168.66376Q516.94714 169.05438 516.94714 170.10126Q516.94714 171.07 517.244 171.46063Q517.5565 171.85126 518.00964 171.85126Q518.4784 171.85126 518.77527 171.46063Q519.08777 171.07 519.08777 170.0075Q519.08777 169.03876 518.77527 168.64813Q518.4784 168.2575 518.00964 168.2575Z" fill-rule="nonzero"/><path fill="#ffffff" d="M207.07086 260.99826L207.07086 252.15451L203.77399 252.15451L203.77399 250.98264L211.71149 250.98264L211.71149 252.15451L208.39899 252.15451L208.39899 260.99826L207.07086 260.99826ZM212.91461 257.37326Q212.91461 255.35764 214.03961 254.37326Q214.96149 253.57639 216.32086 253.57639Q217.80524 253.57639 218.75836 254.56076Q219.71149 255.52951 219.71149 257.2639Q219.71149 258.67014 219.28961 259.48264Q218.86774 260.2795 218.05524 260.73264Q217.25836 261.17014 216.32086 261.17014Q214.78961 261.17014 213.85211 260.18576Q212.91461 259.2014 212.91461 257.37326ZM214.18024 257.37326Q214.18024 258.7639 214.78961 259.467Q215.39899 260.1545 216.32086 260.1545Q217.22711 260.1545 217.83649 259.4514Q218.44586 258.74826 218.44586 257.3264Q218.44586 255.98264 217.83649 255.29514Q217.22711 254.59201 216.32086 254.59201Q215.39899 254.59201 214.78961 255.27951Q214.18024 255.96701 214.18024 257.37326ZM224.05524 259.9045L224.22711 260.98264Q223.71149 261.092 223.30524 261.092Q222.63336 261.092 222.25836 260.8889Q221.89899 260.67014 221.74274 260.3264Q221.60211 259.98264 221.60211 258.87326L221.60211 254.70139L220.69586 254.70139L220.69586 253.73264L221.60211 253.73264L221.60211 251.93576L222.82086 251.20139L222.82086 253.73264L224.05524 253.73264L224.05524 254.70139L222.82086 254.70139L222.82086 258.93576Q222.82086 259.467 222.88336 259.62326Q222.94586 259.7639 223.08649 259.85764Q223.24274 259.9514 223.50836 259.9514Q223.72711 259.9514 224.05524 259.9045ZM230.10211 260.10764Q229.43024 260.68576 228.78961 260.93576Q228.16461 261.17014 227.43024 261.17014Q226.24274 261.17014 225.58649 260.592Q224.94586 259.99826 224.94586 259.0764Q224.94586 258.54514 225.18024 258.10764Q225.43024 257.67014 225.82086 257.4045Q226.22711 257.1389 226.71149 256.99826Q227.07086 256.9045 227.80524 256.81076Q229.30524 256.6389 230.00836 256.3889Q230.00836 256.1389 230.00836 256.0764Q230.00836 255.31076 229.66461 255.01389Q229.19586 254.59201 228.25836 254.59201Q227.39899 254.59201 226.97711 254.90451Q226.57086 255.20139 226.36774 255.96701L225.16461 255.81076Q225.32086 255.02951 225.69586 254.56076Q226.08649 254.09201 226.78961 253.84201Q227.50836 253.57639 228.44586 253.57639Q229.36774 253.57639 229.94586 253.79514Q230.52399 254.01389 230.78961 254.34201Q231.07086 254.67014 231.18024 255.18576Q231.24274 255.49826 231.24274 256.31076L231.24274 257.9514Q231.24274 259.67014 231.32086 260.12326Q231.39899 260.5764 231.63336 260.99826L230.35211 260.99826Q230.16461 260.60764 230.10211 260.10764ZM230.00836 257.35764Q229.33649 257.62326 227.99274 257.8264Q227.24274 257.93576 226.91461 258.0764Q226.60211 258.2014 226.43024 258.467Q226.25836 258.73264 226.25836 259.04514Q226.25836 259.54514 226.63336 259.87326Q227.00836 260.2014 227.72711 260.2014Q228.44586 260.2014 228.99274 259.8889Q229.53961 259.5764 229.80524 259.0295Q230.00836 258.62326 230.00836 257.81076L230.00836 257.35764ZM233.33649 260.99826L233.33649 250.98264L234.57086 250.98264L234.57086 260.99826L233.33649 260.99826ZM247.68024 257.48264L249.00836 257.8264Q248.58649 259.4514 247.49274 260.31076Q246.41461 261.17014 244.85211 261.17014Q243.22711 261.17014 242.21149 260.5139Q241.19586 259.842 240.66461 258.592Q240.14899 257.342 240.14899 255.90451Q240.14899 254.34201 240.74274 253.18576Q241.33649 252.01389 242.44586 251.42014Q243.55524 250.81076 244.86774 250.81076Q246.38336 250.81076 247.39899 251.57639Q248.43024 252.34201 248.83649 253.71701L247.52399 254.02951Q247.18024 252.93576 246.50836 252.43576Q245.85211 251.93576 244.85211 251.93576Q243.69586 251.93576 242.91461 252.49826Q242.13336 253.04514 241.82086 253.98264Q241.50836 254.92014 241.50836 255.90451Q241.50836 257.18576 241.88336 258.1389Q242.25836 259.092 243.03961 259.56076Q243.82086 260.0295 244.74274 260.0295Q245.85211 260.0295 246.61774 259.3889Q247.39899 258.74826 247.68024 257.48264ZM255.10211 260.10764Q254.43024 260.68576 253.78961 260.93576Q253.16461 261.17014 252.43024 261.17014Q251.24274 261.17014 250.58649 260.592Q249.94586 259.99826 249.94586 259.0764Q249.94586 258.54514 250.18024 258.10764Q250.43024 257.67014 250.82086 257.4045Q251.22711 257.1389 251.71149 256.99826Q252.07086 256.9045 252.80524 256.81076Q254.30524 256.6389 255.00836 256.3889Q255.00836 256.1389 255.00836 256.0764Q255.00836 255.31076 254.66461 255.01389Q254.19586 254.59201 253.25836 254.59201Q252.39899 254.59201 251.97711 254.90451Q251.57086 255.20139 251.36774 255.96701L250.16461 255.81076Q250.32086 255.02951 250.69586 254.56076Q251.08649 254.09201 251.78961 253.84201Q252.50836 253.57639 253.44586 253.57639Q254.36774 253.57639 254.94586 253.79514Q255.52399 254.01389 255.78961 254.34201Q256.07086 254.67014 256.18024 255.18576Q256.24274 255.49826 256.24274 256.31076L256.24274 257.9514Q256.24274 259.67014 256.32086 260.12326Q256.399 260.5764 256.63336 260.99826L255.35211 260.99826Q255.16461 260.60764 255.10211 260.10764ZM255.00836 257.35764Q254.33649 257.62326 252.99274 257.8264Q252.24274 257.93576 251.91461 258.0764Q251.60211 258.2014 251.43024 258.467Q251.25836 258.73264 251.25836 259.04514Q251.25836 259.54514 251.63336 259.87326Q252.00836 260.2014 252.72711 260.2014Q253.44586 260.2014 253.99274 259.8889Q254.53961 259.5764 254.80524 259.0295Q255.00836 258.62326 255.00836 257.81076L255.00836 257.35764ZM257.88336 258.8264L259.0865 258.6389Q259.19586 259.37326 259.6646 259.7639Q260.13336 260.1545 260.9771 260.1545Q261.82086 260.1545 262.2271 259.81076Q262.649 259.467 262.649 258.99826Q262.649 258.5764 262.274 258.342Q262.024 258.17014 261.024 257.92014Q259.6646 257.5764 259.13336 257.3264Q258.61774 257.0764 258.3521 256.6389Q258.0865 256.2014 258.0865 255.67014Q258.0865 255.18576 258.30524 254.77951Q258.524 254.35764 258.9146 254.07639Q259.19586 253.87326 259.68024 253.73264Q260.18024 253.57639 260.75836 253.57639Q261.6021 253.57639 262.24274 253.82639Q262.899 254.06076 263.2115 254.48264Q263.524 254.90451 263.63336 255.60764L262.43024 255.77951Q262.3521 255.21701 261.94586 254.90451Q261.55524 254.59201 260.8365 254.59201Q259.99274 254.59201 259.63336 254.87326Q259.274 255.13889 259.274 255.52951Q259.274 255.76389 259.4146 255.95139Q259.57086 256.1545 259.899 256.2795Q260.07086 256.342 260.9771 256.592Q262.2896 256.9514 262.80524 257.17014Q263.32086 257.3889 263.6021 257.81076Q263.899 258.23264 263.899 258.85764Q263.899 259.48264 263.5396 260.0295Q263.19586 260.56076 262.50836 260.87326Q261.8365 261.17014 260.9771 261.17014Q259.57086 261.17014 258.82086 260.5764Q258.0865 259.98264 257.88336 258.8264ZM270.3365 258.6545L271.61774 258.81076Q271.30524 259.93576 270.49274 260.56076Q269.68024 261.17014 268.4146 261.17014Q266.82086 261.17014 265.88336 260.18576Q264.9615 259.2014 264.9615 257.43576Q264.9615 255.59201 265.899 254.59201Q266.8521 253.57639 268.3521 253.57639Q269.80524 253.57639 270.7271 254.57639Q271.649 255.56076 271.649 257.35764Q271.649 257.467 271.649 257.68576L266.2271 257.68576Q266.30524 258.87326 266.899 259.5139Q267.50836 260.1545 268.43024 260.1545Q269.1021 260.1545 269.57086 259.79514Q270.05524 259.43576 270.3365 258.6545ZM266.30524 256.67014L270.3521 256.67014Q270.274 255.74826 269.88336 255.29514Q269.30524 254.59201 268.36774 254.59201Q267.50836 254.59201 266.93024 255.15451Q266.36774 255.71701 266.30524 256.67014ZM272.88336 258.8264L274.0865 258.6389Q274.19586 259.37326 274.6646 259.7639Q275.13336 260.1545 275.9771 260.1545Q276.82086 260.1545 277.2271 259.81076Q277.649 259.467 277.649 258.99826Q277.649 258.5764 277.274 258.342Q277.024 258.17014 276.024 257.92014Q274.6646 257.5764 274.13336 257.3264Q273.61774 257.0764 273.3521 256.6389Q273.0865 256.2014 273.0865 255.67014Q273.0865 255.18576 273.30524 254.77951Q273.524 254.35764 273.9146 254.07639Q274.19586 253.87326 274.68024 253.73264Q275.18024 253.57639 275.75836 253.57639Q276.6021 253.57639 277.24274 253.82639Q277.899 254.06076 278.2115 254.48264Q278.524 254.90451 278.63336 255.60764L277.43024 255.77951Q277.3521 255.21701 276.94586 254.90451Q276.55524 254.59201 275.8365 254.59201Q274.99274 254.59201 274.63336 254.87326Q274.274 255.13889 274.274 255.52951Q274.274 255.76389 274.4146 255.95139Q274.57086 256.1545 274.899 256.2795Q275.07086 256.342 275.9771 256.592Q277.2896 256.9514 277.80524 257.17014Q278.32086 257.3889 278.6021 257.81076Q278.899 258.23264 278.899 258.85764Q278.899 259.48264 278.5396 260.0295Q278.19586 260.56076 277.50836 260.87326Q276.8365 261.17014 275.9771 261.17014Q274.57086 261.17014 273.82086 260.5764Q273.0865 259.98264 272.88336 258.8264Z" fill-rule="nonzero"/><path fill="#14213d" d="M243.0 408.30984C243.0 411.62354 240.3137 414.30984 237.0 414.30984C233.6863 414.30984 231.0 411.62354 231.0 408.30984C231.0 404.99612 233.6863 402.30984 237.0 402.30984C240.3137 402.30984 243.0 404.99612 243.0 408.30984Z" fill-rule="nonzero"/><path fill="#1a1a1a" d="M258.0625 409.29422L259.1875 409.5911Q258.82812 410.98172 257.90625 411.7161Q256.98438 412.45047 255.64062 412.45047Q254.25 412.45047 253.375 411.88797Q252.5 411.32547 252.04688 410.26297Q251.59375 409.18484 251.59375 407.95047Q251.59375 406.60672 252.10938 405.60672Q252.625 404.60672 253.5625 404.0911Q254.51562 403.57547 255.65625 403.57547Q256.9375 403.57547 257.8125 404.23172Q258.70312 404.88797 259.04688 406.07547L257.92188 406.3411Q257.625 405.4036 257.04688 404.98172Q256.48438 404.54422 255.625 404.54422Q254.64062 404.54422 253.96875 405.0286Q253.3125 405.49734 253.03125 406.29422Q252.76562 407.0911 252.76562 407.95047Q252.76562 409.04422 253.07812 409.85672Q253.40625 410.66922 254.07812 411.07547Q254.75 411.48172 255.54688 411.48172Q256.5 411.48172 257.15625 410.93484Q257.82812 410.38797 258.0625 409.29422ZM264.85938 411.54422Q264.26562 412.04422 263.71875 412.24734Q263.1875 412.45047 262.5625 412.45047Q261.53125 412.45047 260.98438 411.95047Q260.4375 411.45047 260.4375 410.66922Q260.4375 410.2161 260.64062 409.8411Q260.84375 409.45047 261.1875 409.23172Q261.53125 408.99734 261.95312 408.88797Q262.25 408.79422 262.89062 408.7161Q264.15625 408.57547 264.76562 408.35672Q264.76562 408.13797 264.76562 408.0911Q264.76562 407.43484 264.46875 407.16922Q264.0625 406.82547 263.26562 406.82547Q262.53125 406.82547 262.17188 407.0911Q261.8125 407.3411 261.64062 407.99734L260.60938 407.85672Q260.75 407.20047 261.07812 406.79422Q261.40625 406.38797 262.01562 406.16922Q262.625 405.95047 263.42188 405.95047Q264.21875 405.95047 264.71875 406.13797Q265.21875 406.32547 265.45312 406.60672Q265.6875 406.88797 265.78125 407.32547Q265.82812 407.5911 265.82812 408.29422L265.82812 409.70047Q265.82812 411.16922 265.89062 411.55984Q265.96875 411.95047 266.17188 412.30984L265.0625 412.30984Q264.90625 411.98172 264.85938 411.54422ZM264.76562 409.18484Q264.1875 409.41922 263.04688 409.5911Q262.39062 409.68484 262.125 409.80984Q261.85938 409.91922 261.70312 410.13797Q261.5625 410.35672 261.5625 410.63797Q261.5625 411.05984 261.875 411.3411Q262.20312 411.62234 262.8125 411.62234Q263.42188 411.62234 263.89062 411.35672Q264.375 411.0911 264.59375 410.62234Q264.76562 410.26297 264.76562 409.57547L264.76562 409.18484ZM267.375 410.45047L268.40625 410.29422Q268.5 410.91922 268.89062 411.24734Q269.29688 411.57547 270.03125 411.57547Q270.75 411.57547 271.09375 411.29422Q271.45312 410.99734 271.45312 410.5911Q271.45312 410.23172 271.14062 410.0286Q270.92188 409.88797 270.0625 409.66922Q268.90625 409.37234 268.45312 409.16922Q268.01562 408.95047 267.78125 408.57547Q267.54688 408.20047 267.54688 407.73172Q267.54688 407.32547 267.73438 406.9661Q267.92188 406.60672 268.25 406.37234Q268.5 406.20047 268.92188 406.07547Q269.34375 405.95047 269.84375 405.95047Q270.5625 405.95047 271.10938 406.16922Q271.67188 406.37234 271.9375 406.73172Q272.20312 407.0911 272.29688 407.68484L271.26562 407.82547Q271.20312 407.35672 270.85938 407.0911Q270.53125 406.80984 269.90625 406.80984Q269.1875 406.80984 268.875 407.05984Q268.5625 407.29422 268.5625 407.62234Q268.5625 407.82547 268.6875 407.98172Q268.82812 408.1536 269.09375 408.26297Q269.25 408.32547 270.03125 408.5286Q271.15625 408.8411 271.59375 409.0286Q272.03125 409.2161 272.28125 409.57547Q272.53125 409.93484 272.53125 410.48172Q272.53125 411.01297 272.21875 411.48172Q271.92188 411.93484 271.34375 412.20047Q270.76562 412.45047 270.03125 412.45047Q268.8125 412.45047 268.17188 411.95047Q267.54688 411.43484 267.375 410.45047ZM278.04688 410.30984L279.14062 410.43484Q278.89062 411.38797 278.1875 411.91922Q277.48438 412.45047 276.40625 412.45047Q275.04688 412.45047 274.23438 411.60672Q273.4375 410.76297 273.4375 409.24734Q273.4375 407.68484 274.25 406.82547Q275.0625 405.95047 276.34375 405.95047Q277.59375 405.95047 278.375 406.79422Q279.17188 407.63797 279.17188 409.18484Q279.17188 409.2786 279.17188 409.4661L274.53125 409.4661Q274.59375 410.49734 275.10938 411.04422Q275.625 411.57547 276.40625 411.57547Q276.98438 411.57547 277.39062 411.2786Q277.8125 410.9661 278.04688 410.30984ZM274.59375 408.60672L278.0625 408.60672Q278.0 407.80984 277.67188 407.41922Q277.15625 406.80984 276.35938 406.80984Q275.625 406.80984 275.125 407.29422Q274.64062 407.7786 274.59375 408.60672ZM280.375 410.45047L281.40625 410.29422Q281.5 410.91922 281.89062 411.24734Q282.29688 411.57547 283.03125 411.57547Q283.75 411.57547 284.09375 411.29422Q284.45312 410.99734 284.45312 410.5911Q284.45312 410.23172 284.14062 410.0286Q283.92188 409.88797 283.0625 409.66922Q281.90625 409.37234 281.45312 409.16922Q281.01562 408.95047 280.78125 408.57547Q280.54688 408.20047 280.54688 407.73172Q280.54688 407.32547 280.73438 406.9661Q280.92188 406.60672 281.25 406.37234Q281.5 406.20047 281.92188 406.07547Q282.34375 405.95047 282.84375 405.95047Q283.5625 405.95047 284.10938 406.16922Q284.67188 406.37234 284.9375 406.73172Q285.20312 407.0911 285.29688 407.68484L284.26562 407.82547Q284.20312 407.35672 283.85938 407.0911Q283.53125 406.80984 282.90625 406.80984Q282.1875 406.80984 281.875 407.05984Q281.5625 407.29422 281.5625 407.62234Q281.5625 407.82547 281.6875 407.98172Q281.82812 408.1536 282.09375 408.26297Q282.25 408.32547 283.03125 408.5286Q284.15625 408.8411 284.59375 409.0286Q285.03125 409.2161 285.28125 409.57547Q285.53125 409.93484 285.53125 410.48172Q285.53125 411.01297 285.21875 411.48172Q284.92188 411.93484 284.34375 412.20047Q283.76562 412.45047 283.03125 412.45047Q281.8125 412.45047 281.17188 411.95047Q280.54688 411.43484 280.375 410.45047ZM291.42188 412.30984L289.14062 403.7161L290.3125 403.7161L291.625 409.35672Q291.82812 410.23172 291.98438 411.10672Q292.3125 409.73172 292.375 409.51297L294.0 403.7161L295.375 403.7161L296.60938 408.05984Q297.0625 409.68484 297.28125 411.10672Q297.4375 410.29422 297.70312 409.23172L299.04688 403.7161L300.1875 403.7161L297.84375 412.30984L296.73438 412.30984L294.9375 405.76297Q294.70312 404.95047 294.65625 404.76297Q294.53125 405.3411 294.40625 405.76297L292.59375 412.30984L291.42188 412.30984ZM300.40625 409.20047Q300.40625 407.4661 301.35938 406.63797Q302.15625 405.95047 303.3125 405.95047Q304.59375 405.95047 305.40625 406.79422Q306.23438 407.62234 306.23438 409.10672Q306.23438 410.30984 305.875 410.99734Q305.51562 411.68484 304.8125 412.07547Q304.125 412.45047 303.3125 412.45047Q302.01562 412.45047 301.20312 411.62234Q300.40625 410.7786 300.40625 409.20047ZM301.48438 409.20047Q301.48438 410.38797 302.0 410.98172Q302.53125 411.57547 303.3125 411.57547Q304.10938 411.57547 304.625 410.98172Q305.14062 410.38797 305.14062 409.16922Q305.14062 408.01297 304.60938 407.41922Q304.09375 406.82547 303.3125 406.82547Q302.53125 406.82547 302.0 407.41922Q301.48438 407.99734 301.48438 409.20047ZM307.79688 412.30984L307.79688 406.0911L308.73438 406.0911L308.73438 406.9661Q309.42188 405.95047 310.71875 405.95047Q311.28125 405.95047 311.75 406.1536Q312.23438 406.35672 312.46875 406.68484Q312.70312 407.01297 312.79688 407.45047Q312.84375 407.74734 312.84375 408.48172L312.84375 412.30984L311.79688 412.30984L311.79688 408.5286Q311.79688 407.87234 311.67188 407.55984Q311.54688 407.24734 311.23438 407.05984Q310.92188 406.85672 310.5 406.85672Q309.82812 406.85672 309.32812 407.29422Q308.84375 407.7161 308.84375 408.9036L308.84375 412.30984L307.79688 412.30984Z" fill-rule="nonzero"/><path fill="#fca311" d="M342.0 408.30984C342.0 411.62354 339.31372 414.30984 336.0 414.30984C332.68628 414.30984 330.0 411.62354 330.0 408.30984C330.0 404.99612 332.68628 402.30984 336.0 402.30984C339.31372 402.30984 342.0 404.99612 342.0 408.30984Z" fill-rule="nonzero"/><path fill="#1a1a1a" d="M353.10938 412.30984L353.10938 404.73172L350.28125 404.73172L350.28125 403.7161L357.09375 403.7161L357.09375 404.73172L354.25 404.73172L354.25 412.30984L353.10938 412.30984ZM357.40625 409.20047Q357.40625 407.4661 358.35938 406.63797Q359.15625 405.95047 360.3125 405.95047Q361.59375 405.95047 362.40625 406.79422Q363.23438 407.62234 363.23438 409.10672Q363.23438 410.30984 362.875 410.99734Q362.51562 411.68484 361.8125 412.07547Q361.125 412.45047 360.3125 412.45047Q359.01562 412.45047 358.20312 411.62234Q357.40625 410.7786 357.40625 409.20047ZM358.48438 409.20047Q358.48438 410.38797 359.0 410.98172Q359.53125 411.57547 360.3125 411.57547Q361.10938 411.57547 361.625 410.98172Q362.14062 410.38797 362.14062 409.16922Q362.14062 408.01297 361.60938 407.41922Q361.09375 406.82547 360.3125 406.82547Q359.53125 406.82547 359.0 407.41922Q358.48438 407.99734 358.48438 409.20047ZM367.09375 411.37234L367.25 412.29422Q366.79688 412.38797 366.45312 412.38797Q365.875 412.38797 365.5625 412.2161Q365.25 412.0286 365.10938 411.73172Q364.98438 411.43484 364.98438 410.48172L364.98438 406.9036L364.21875 406.9036L364.21875 406.0911L364.98438 406.0911L364.98438 404.54422L366.03125 403.91922L366.03125 406.0911L367.09375 406.0911L367.09375 406.9036L366.03125 406.9036L366.03125 410.54422Q366.03125 410.99734 366.07812 411.12234Q366.14062 411.24734 366.26562 411.32547Q366.39062 411.4036 366.625 411.4036Q366.8125 411.4036 367.09375 411.37234ZM371.85938 411.54422Q371.26562 412.04422 370.71875 412.24734Q370.1875 412.45047 369.5625 412.45047Q368.53125 412.45047 367.98438 411.95047Q367.4375 411.45047 367.4375 410.66922Q367.4375 410.2161 367.64062 409.8411Q367.84375 409.45047 368.1875 409.23172Q368.53125 408.99734 368.95312 408.88797Q369.25 408.79422 369.89062 408.7161Q371.15625 408.57547 371.76562 408.35672Q371.76562 408.13797 371.76562 408.0911Q371.76562 407.43484 371.46875 407.16922Q371.0625 406.82547 370.26562 406.82547Q369.53125 406.82547 369.17188 407.0911Q368.8125 407.3411 368.64062 407.99734L367.60938 407.85672Q367.75 407.20047 368.07812 406.79422Q368.40625 406.38797 369.01562 406.16922Q369.625 405.95047 370.42188 405.95047Q371.21875 405.95047 371.71875 406.13797Q372.21875 406.32547 372.45312 406.60672Q372.6875 406.88797 372.78125 407.32547Q372.82812 407.5911 372.82812 408.29422L372.82812 409.70047Q372.82812 411.16922 372.89062 411.55984Q372.96875 411.95047 373.17188 412.30984L372.0625 412.30984Q371.90625 411.98172 371.85938 411.54422ZM371.76562 409.18484Q371.1875 409.41922 370.04688 409.5911Q369.39062 409.68484 369.125 409.80984Q368.85938 409.91922 368.70312 410.13797Q368.5625 410.35672 368.5625 410.63797Q368.5625 411.05984 368.875 411.3411Q369.20312 411.62234 369.8125 411.62234Q370.42188 411.62234 370.89062 411.35672Q371.375 411.0911 371.59375 410.62234Q371.76562 410.26297 371.76562 409.57547L371.76562 409.18484ZM374.76562 412.30984L374.76562 403.7161L375.82812 403.7161L375.82812 412.30984L374.76562 412.30984ZM387.0625 409.29422L388.1875 409.5911Q387.82812 410.98172 386.90625 411.7161Q385.98438 412.45047 384.64062 412.45047Q383.25 412.45047 382.375 411.88797Q381.5 411.32547 381.04688 410.26297Q380.59375 409.18484 380.59375 407.95047Q380.59375 406.60672 381.10938 405.60672Q381.625 404.60672 382.5625 404.0911Q383.51562 403.57547 384.65625 403.57547Q385.9375 403.57547 386.8125 404.23172Q387.70312 404.88797 388.04688 406.07547L386.92188 406.3411Q386.625 405.4036 386.04688 404.98172Q385.48438 404.54422 384.625 404.54422Q383.64062 404.54422 382.96875 405.0286Q382.3125 405.49734 382.03125 406.29422Q381.76562 407.0911 381.76562 407.95047Q381.76562 409.04422 382.07812 409.85672Q382.40625 410.66922 383.07812 411.07547Q383.75 411.48172 384.54688 411.48172Q385.5 411.48172 386.15625 410.93484Q386.82812 410.38797 387.0625 409.29422ZM389.40625 409.20047Q389.40625 407.4661 390.35938 406.63797Q391.15625 405.95047 392.3125 405.95047Q393.59375 405.95047 394.40625 406.79422Q395.23438 407.62234 395.23438 409.10672Q395.23438 410.30984 394.875 410.99734Q394.51562 411.68484 393.8125 412.07547Q393.125 412.45047 392.3125 412.45047Q391.01562 412.45047 390.20312 411.62234Q389.40625 410.7786 389.40625 409.20047ZM390.48438 409.20047Q390.48438 410.38797 391.0 410.98172Q391.53125 411.57547 392.3125 411.57547Q393.10938 411.57547 393.625 410.98172Q394.14062 410.38797 394.14062 409.16922Q394.14062 408.01297 393.60938 407.41922Q393.09375 406.82547 392.3125 406.82547Q391.53125 406.82547 391.0 407.41922Q390.48438 407.99734 390.48438 409.20047ZM396.79688 412.30984L396.79688 406.0911L397.73438 406.0911L397.73438 406.9661Q398.42188 405.95047 399.71875 405.95047Q400.28125 405.95047 400.75 406.1536Q401.23438 406.35672 401.46875 406.68484Q401.70312 407.01297 401.79688 407.45047Q401.84375 407.74734 401.84375 408.48172L401.84375 412.30984L400.79688 412.30984L400.79688 408.5286Q400.79688 407.87234 400.67188 407.55984Q400.54688 407.24734 400.23438 407.05984Q399.92188 406.85672 399.5 406.85672Q398.82812 406.85672 398.32812 407.29422Q397.84375 407.7161 397.84375 408.9036L397.84375 412.30984L396.79688 412.30984ZM406.09375 411.37234L406.25 412.29422Q405.79688 412.38797 405.45312 412.38797Q404.875 412.38797 404.5625 412.2161Q404.25 412.0286 404.10938 411.73172Q403.98438 411.43484 403.98438 410.48172L403.98438 406.9036L403.21875 406.9036L403.21875 406.0911L403.98438 406.0911L403.98438 404.54422L405.03125 403.91922L405.03125 406.0911L406.09375 406.0911L406.09375 406.9036L405.03125 406.9036L405.03125 410.54422Q405.03125 410.99734 405.07812 411.12234Q405.14062 411.24734 405.26562 411.32547Q405.39062 411.4036 405.625 411.4036Q405.8125 411.4036 406.09375 411.37234ZM411.04688 410.30984L412.14062 410.43484Q411.89062 411.38797 411.1875 411.91922Q410.48438 412.45047 409.40625 412.45047Q408.04688 412.45047 407.23438 411.60672Q406.4375 410.76297 406.4375 409.24734Q406.4375 407.68484 407.25 406.82547Q408.0625 405.95047 409.34375 405.95047Q410.59375 405.95047 411.375 406.79422Q412.17188 407.63797 412.17188 409.18484Q412.17188 409.2786 412.17188 409.4661L407.53125 409.4661Q407.59375 410.49734 408.10938 411.04422Q408.625 411.57547 409.40625 411.57547Q409.98438 411.57547 410.39062 411.2786Q410.8125 410.9661 411.04688 410.30984ZM407.59375 408.60672L411.0625 408.60672Q411.0 407.80984 410.67188 407.41922Q410.15625 406.80984 409.35938 406.80984Q408.625 406.80984 408.125 407.29422Q407.64062 407.7786 407.59375 408.60672ZM413.375 410.45047L414.40625 410.29422Q414.5 410.91922 414.89062 411.24734Q415.29688 411.57547 416.03125 411.57547Q416.75 411.57547 417.09375 411.29422Q417.45312 410.99734 417.45312 410.5911Q417.45312 410.23172 417.14062 410.0286Q416.92188 409.88797 416.0625 409.66922Q414.90625 409.37234 414.45312 409.16922Q414.01562 408.95047 413.78125 408.57547Q413.54688 408.20047 413.54688 407.73172Q413.54688 407.32547 413.73438 406.9661Q413.92188 406.60672 414.25 406.37234Q414.5 406.20047 414.92188 406.07547Q415.34375 405.95047 415.84375 405.95047Q416.5625 405.95047 417.10938 406.16922Q417.67188 406.37234 417.9375 406.73172Q418.20312 407.0911 418.29688 407.68484L417.26562 407.82547Q417.20312 407.35672 416.85938 407.0911Q416.53125 406.80984 415.90625 406.80984Q415.1875 406.80984 414.875 407.05984Q414.5625 407.29422 414.5625 407.62234Q414.5625 407.82547 414.6875 407.98172Q414.82812 408.1536 415.09375 408.26297Q415.25 408.32547 416.03125 408.5286Q417.15625 408.8411 417.59375 409.0286Q418.03125 409.2161 418.28125 409.57547Q418.53125 409.93484 418.53125 410.48172Q418.53125 411.01297 418.21875 411.48172Q417.92188 411.93484 417.34375 412.20047Q416.76562 412.45047 416.03125 412.45047Q414.8125 412.45047 414.17188 411.95047Q413.54688 411.43484 413.375 410.45047ZM422.09375 411.37234L422.25 412.29422Q421.79688 412.38797 421.45312 412.38797Q420.875 412.38797 420.5625 412.2161Q420.25 412.0286 420.10938 411.73172Q419.98438 411.43484 419.98438 410.48172L419.98438 406.9036L419.21875 406.9036L419.21875 406.0911L419.98438 406.0911L419.98438 404.54422L421.03125 403.91922L421.03125 406.0911L422.09375 406.0911L422.09375 406.9036L421.03125 406.9036L421.03125 410.54422Q421.03125 410.99734 421.07812 411.12234Q421.14062 411.24734 421.26562 411.32547Q421.39062 411.4036 421.625 411.4036Q421.8125 411.4036 422.09375 411.37234ZM427.04688 410.30984L428.14062 410.43484Q427.89062 411.38797 427.1875 411.91922Q426.48438 412.45047 425.40625 412.45047Q424.04688 412.45047 423.23438 411.60672Q422.4375 410.76297 422.4375 409.24734Q422.4375 407.68484 423.25 406.82547Q424.0625 405.95047 425.34375 405.95047Q426.59375 405.95047 427.375 406.79422Q428.17188 407.63797 428.17188 409.18484Q428.17188 409.2786 428.17188 409.4661L423.53125 409.4661Q423.59375 410.49734 424.10938 411.04422Q424.625 411.57547 425.40625 411.57547Q425.98438 411.57547 426.39062 411.2786Q426.8125 410.9661 427.04688 410.30984ZM423.59375 408.60672L427.0625 408.60672Q427.0 407.80984 426.67188 407.41922Q426.15625 406.80984 425.35938 406.80984Q424.625 406.80984 424.125 407.29422Q423.64062 407.7786 423.59375 408.60672ZM433.82812 412.30984L433.82812 411.5286Q433.23438 412.45047 432.09375 412.45047Q431.34375 412.45047 430.71875 412.04422Q430.09375 411.62234 429.75 410.88797Q429.40625 410.1536 429.40625 409.20047Q429.40625 408.2786 429.71875 407.51297Q430.03125 406.74734 430.65625 406.35672Q431.28125 405.95047 432.04688 405.95047Q432.60938 405.95047 433.04688 406.18484Q433.48438 406.41922 433.76562 406.79422L433.76562 403.7161L434.8125 403.7161L434.8125 412.30984L433.82812 412.30984ZM430.5 409.20047Q430.5 410.4036 431.0 410.99734Q431.5 411.57547 432.1875 411.57547Q432.875 411.57547 433.35938 411.01297Q433.84375 410.45047 433.84375 409.29422Q433.84375 408.01297 433.34375 407.41922Q432.85938 406.82547 432.14062 406.82547Q431.4375 406.82547 430.96875 407.4036Q430.5 407.9661 430.5 409.20047ZM446.0625 409.29422L447.1875 409.5911Q446.82812 410.98172 445.90625 411.7161Q444.98438 412.45047 443.64062 412.45047Q442.25 412.45047 441.375 411.88797Q440.5 411.32547 440.04688 410.26297Q439.59375 409.18484 439.59375 407.95047Q439.59375 406.60672 440.10938 405.60672Q440.625 404.60672 441.5625 404.0911Q442.51562 403.57547 443.65625 403.57547Q444.9375 403.57547 445.8125 404.23172Q446.70312 404.88797 447.04688 406.07547L445.92188 406.3411Q445.625 405.4036 445.04688 404.98172Q444.48438 404.54422 443.625 404.54422Q442.64062 404.54422 441.96875 405.0286Q441.3125 405.49734 441.03125 406.29422Q440.76562 407.0911 440.76562 407.95047Q440.76562 409.04422 441.07812 409.85672Q441.40625 410.66922 442.07812 411.07547Q442.75 411.48172 443.54688 411.48172Q444.5 411.48172 445.15625 410.93484Q445.82812 410.38797 446.0625 409.29422ZM452.85938 411.54422Q452.26562 412.04422 451.71875 412.24734Q451.1875 412.45047 450.5625 412.45047Q449.53125 412.45047 448.98438 411.95047Q448.4375 411.45047 448.4375 410.66922Q448.4375 410.2161 448.64062 409.8411Q448.84375 409.45047 449.1875 409.23172Q449.53125 408.99734 449.95312 408.88797Q450.25 408.79422 450.89062 408.7161Q452.15625 408.57547 452.76562 408.35672Q452.76562 408.13797 452.76562 408.0911Q452.76562 407.43484 452.46875 407.16922Q452.0625 406.82547 451.26562 406.82547Q450.53125 406.82547 450.17188 407.0911Q449.8125 407.3411 449.64062 407.99734L448.60938 407.85672Q448.75 407.20047 449.07812 406.79422Q449.40625 406.38797 450.01562 406.16922Q450.625 405.95047 451.42188 405.95047Q452.21875 405.95047 452.71875 406.13797Q453.21875 406.32547 453.45312 406.60672Q453.6875 406.88797 453.78125 407.32547Q453.82812 407.5911 453.82812 408.29422L453.82812 409.70047Q453.82812 411.16922 453.89062 411.55984Q453.96875 411.95047 454.17188 412.30984L453.0625 412.30984Q452.90625 411.98172 452.85938 411.54422ZM452.76562 409.18484Q452.1875 409.41922 451.04688 409.5911Q450.39062 409.68484 450.125 409.80984Q449.85938 409.91922 449.70312 410.13797Q449.5625 410.35672 449.5625 410.63797Q449.5625 411.05984 449.875 411.3411Q450.20312 411.62234 450.8125 411.62234Q451.42188 411.62234 451.89062 411.35672Q452.375 411.0911 452.59375 410.62234Q452.76562 410.26297 452.76562 409.57547L452.76562 409.18484ZM455.375 410.45047L456.40625 410.29422Q456.5 410.91922 456.89062 411.24734Q457.29688 411.57547 458.03125 411.57547Q458.75 411.57547 459.09375 411.29422Q459.45312 410.99734 459.45312 410.5911Q459.45312 410.23172 459.14062 410.0286Q458.92188 409.88797 458.0625 409.66922Q456.90625 409.37234 456.45312 409.16922Q456.01562 408.95047 455.78125 408.57547Q455.54688 408.20047 455.54688 407.73172Q455.54688 407.32547 455.73438 406.9661Q455.92188 406.60672 456.25 406.37234Q456.5 406.20047 456.92188 406.07547Q457.34375 405.95047 457.84375 405.95047Q458.5625 405.95047 459.10938 406.16922Q459.67188 406.37234 459.9375 406.73172Q460.20312 407.0911 460.29688 407.68484L459.26562 407.82547Q459.20312 407.35672 458.85938 407.0911Q458.53125 406.80984 457.90625 406.80984Q457.1875 406.80984 456.875 407.05984Q456.5625 407.29422 456.5625 407.62234Q456.5625 407.82547 456.6875 407.98172Q456.82812 408.1536 457.09375 408.26297Q457.25 408.32547 458.03125 408.5286Q459.15625 408.8411 459.59375 409.0286Q460.03125 409.2161 460.28125 409.57547Q460.53125 409.93484 460.53125 410.48172Q460.53125 411.01297 460.21875 411.48172Q459.92188 411.93484 459.34375 412.20047Q458.76562 412.45047 458.03125 412.45047Q456.8125 412.45047 456.17188 411.95047Q455.54688 411.43484 455.375 410.45047ZM466.04688 410.30984L467.14062 410.43484Q466.89062 411.38797 466.1875 411.91922Q465.48438 412.45047 464.40625 412.45047Q463.04688 412.45047 462.23438 411.60672Q461.4375 410.76297 461.4375 409.24734Q461.4375 407.68484 462.25 406.82547Q463.0625 405.95047 464.34375 405.95047Q465.59375 405.95047 466.375 406.79422Q467.17188 407.63797 467.17188 409.18484Q467.17188 409.2786 467.17188 409.4661L462.53125 409.4661Q462.59375 410.49734 463.10938 411.04422Q463.625 411.57547 464.40625 411.57547Q464.98438 411.57547 465.39062 411.2786Q465.8125 410.9661 466.04688 410.30984ZM462.59375 408.60672L466.0625 408.60672Q466.0 407.80984 465.67188 407.41922Q465.15625 406.80984 464.35938 406.80984Q463.625 406.80984 463.125 407.29422Q462.64062 407.7786 462.59375 408.60672ZM468.375 410.45047L469.40625 410.29422Q469.5 410.91922 469.89062 411.24734Q470.29688 411.57547 471.03125 411.57547Q471.75 411.57547 472.09375 411.29422Q472.45312 410.99734 472.45312 410.5911Q472.45312 410.23172 472.14062 410.0286Q471.92188 409.88797 471.0625 409.66922Q469.90625 409.37234 469.45312 409.16922Q469.01562 408.95047 468.78125 408.57547Q468.54688 408.20047 468.54688 407.73172Q468.54688 407.32547 468.73438 406.9661Q468.92188 406.60672 469.25 406.37234Q469.5 406.20047 469.92188 406.07547Q470.34375 405.95047 470.84375 405.95047Q471.5625 405.95047 472.10938 406.16922Q472.67188 406.37234 472.9375 406.73172Q473.20312 407.0911 473.29688 407.68484L472.26562 407.82547Q472.20312 407.35672 471.85938 407.0911Q471.53125 406.80984 470.90625 406.80984Q470.1875 406.80984 469.875 407.05984Q469.5625 407.29422 469.5625 407.62234Q469.5625 407.82547 469.6875 407.98172Q469.82812 408.1536 470.09375 408.26297Q470.25 408.32547 471.03125 408.5286Q472.15625 408.8411 472.59375 409.0286Q473.03125 409.2161 473.28125 409.57547Q473.53125 409.93484 473.53125 410.48172Q473.53125 411.01297 473.21875 411.48172Q472.92188 411.93484 472.34375 412.20047Q471.76562 412.45047 471.03125 412.45047Q469.8125 412.45047 469.17188 411.95047Q468.54688 411.43484 468.375 410.45047Z" fill-rule="nonzero"/><path fill="#757575" d="M161.76562 35.15385L163.65625 35.6226Q163.0625 37.96635 161.51562 39.200726Q159.96875 40.419476 157.71875 40.419476Q155.40625 40.419476 153.95312 39.481976Q152.51562 38.52885 151.75 36.7476Q151.0 34.950726 151.0 32.90385Q151.0 30.669476 151.84375 29.013226Q152.70312 27.34135 154.28125 26.481976Q155.85938 25.606976 157.75 25.606976Q159.90625 25.606976 161.35938 26.700726Q162.82812 27.794476 163.40625 29.77885L161.54688 30.21635Q161.04688 28.65385 160.09375 27.950726Q159.15625 27.231976 157.71875 27.231976Q156.0625 27.231976 154.95312 28.02885Q153.84375 28.8101 153.39062 30.15385Q152.95312 31.481976 152.95312 32.888226Q152.95312 34.71635 153.48438 36.09135Q154.01562 37.450726 155.14062 38.1226Q156.26562 38.794476 157.5625 38.794476Q159.15625 38.794476 160.26562 37.8726Q161.375 36.950726 161.76562 35.15385ZM172.09375 38.888226Q171.10938 39.71635 170.20312 40.0601Q169.29688 40.40385 168.26562 40.40385Q166.5625 40.40385 165.64062 39.575726Q164.71875 38.731976 164.71875 37.4351Q164.71875 36.669476 165.0625 36.044476Q165.42188 35.419476 165.98438 35.044476Q166.54688 34.65385 167.25 34.450726Q167.76562 34.325726 168.8125 34.1851Q170.9375 33.9351 171.9375 33.59135Q171.95312 33.231976 171.95312 33.1226Q171.95312 32.0601 171.45312 31.606976Q170.78125 31.013226 169.45312 31.013226Q168.20312 31.013226 167.60938 31.450726Q167.03125 31.888226 166.75 32.9976L165.03125 32.763226Q165.26562 31.65385 165.79688 30.981976Q166.32812 30.294476 167.34375 29.9351Q168.35938 29.5601 169.70312 29.5601Q171.03125 29.5601 171.85938 29.8726Q172.6875 30.1851 173.07812 30.669476Q173.46875 31.138226 173.625 31.856976Q173.71875 32.3101 173.71875 33.481976L173.71875 35.825726Q173.71875 38.27885 173.82812 38.9351Q173.9375 39.575726 174.28125 40.169476L172.4375 40.169476Q172.17188 39.6226 172.09375 38.888226ZM171.9375 34.96635Q170.98438 35.356976 169.0625 35.6226Q167.98438 35.77885 167.53125 35.981976Q167.09375 36.169476 166.84375 36.544476Q166.59375 36.919476 166.59375 37.388226Q166.59375 38.09135 167.125 38.5601Q167.65625 39.02885 168.6875 39.02885Q169.70312 39.02885 170.48438 38.59135Q171.28125 38.138226 171.65625 37.3726Q171.9375 36.763226 171.9375 35.606976L171.9375 34.96635ZM175.60938 37.075726L177.35938 36.794476Q177.5 37.84135 178.17188 38.40385Q178.84375 38.950726 180.04688 38.950726Q181.25 38.950726 181.82812 38.46635Q182.42188 37.96635 182.42188 37.3101Q182.42188 36.71635 181.90625 36.3726Q181.54688 36.138226 180.10938 35.77885Q178.17188 35.27885 177.42188 34.9351Q176.6875 34.575726 176.29688 33.950726Q175.90625 33.3101 175.90625 32.544476Q175.90625 31.856976 176.21875 31.263226Q176.54688 30.669476 177.09375 30.27885Q177.5 29.981976 178.20312 29.77885Q178.92188 29.5601 179.73438 29.5601Q180.95312 29.5601 181.875 29.919476Q182.79688 30.263226 183.23438 30.8726Q183.67188 31.46635 183.84375 32.46635L182.125 32.700726Q182.0 31.90385 181.4375 31.46635Q180.875 31.013226 179.85938 31.013226Q178.64062 31.013226 178.125 31.419476Q177.60938 31.8101 177.60938 32.34135Q177.60938 32.6851 177.82812 32.96635Q178.03125 33.2476 178.5 33.4351Q178.76562 33.52885 180.04688 33.8726Q181.92188 34.3726 182.65625 34.700726Q183.39062 35.013226 183.8125 35.6226Q184.23438 36.21635 184.23438 37.1226Q184.23438 37.9976 183.71875 38.77885Q183.20312 39.5601 182.23438 39.981976Q181.26562 40.40385 180.04688 40.40385Q178.03125 40.40385 176.96875 39.5601Q175.90625 38.71635 175.60938 37.075726ZM193.42188 36.825726L195.23438 37.0601Q194.8125 38.638226 193.64062 39.52885Q192.48438 40.40385 190.67188 40.40385Q188.40625 40.40385 187.0625 39.013226Q185.73438 37.606976 185.73438 35.075726Q185.73438 32.450726 187.07812 31.013226Q188.42188 29.5601 190.57812 29.5601Q192.65625 29.5601 193.96875 30.981976Q195.29688 32.388226 195.29688 34.96635Q195.29688 35.1226 195.28125 35.4351L187.54688 35.4351Q187.64062 37.138226 188.51562 38.044476Q189.39062 38.950726 190.6875 38.950726Q191.65625 38.950726 192.32812 38.450726Q193.01562 37.9351 193.42188 36.825726ZM187.64062 33.981976L193.4375 33.981976Q193.32812 32.6851 192.78125 32.02885Q191.9375 31.013226 190.59375 31.013226Q189.39062 31.013226 188.5625 31.825726Q187.73438 32.6226 187.64062 33.981976ZM196.60938 37.075726L198.35938 36.794476Q198.5 37.84135 199.17188 38.40385Q199.84375 38.950726 201.04688 38.950726Q202.25 38.950726 202.82812 38.46635Q203.42188 37.96635 203.42188 37.3101Q203.42188 36.71635 202.90625 36.3726Q202.54688 36.138226 201.10938 35.77885Q199.17188 35.27885 198.42188 34.9351Q197.6875 34.575726 197.29688 33.950726Q196.90625 33.3101 196.90625 32.544476Q196.90625 31.856976 197.21875 31.263226Q197.54688 30.669476 198.09375 30.27885Q198.5 29.981976 199.20312 29.77885Q199.92188 29.5601 200.73438 29.5601Q201.95312 29.5601 202.875 29.919476Q203.79688 30.263226 204.23438 30.8726Q204.67188 31.46635 204.84375 32.46635L203.125 32.700726Q203.0 31.90385 202.4375 31.46635Q201.875 31.013226 200.85938 31.013226Q199.64062 31.013226 199.125 31.419476Q198.60938 31.8101 198.60938 32.34135Q198.60938 32.6851 198.82812 32.96635Q199.03125 33.2476 199.5 33.4351Q199.76562 33.52885 201.04688 33.8726Q202.92188 34.3726 203.65625 34.700726Q204.39062 35.013226 204.8125 35.6226Q205.23438 36.21635 205.23438 37.1226Q205.23438 37.9976 204.71875 38.77885Q204.20312 39.5601 203.23438 39.981976Q202.26562 40.40385 201.04688 40.40385Q199.03125 40.40385 197.96875 39.5601Q196.90625 38.71635 196.60938 37.075726ZM213.73438 40.169476L213.73438 31.169476L212.1875 31.169476L212.1875 29.794476L213.73438 29.794476L213.73438 28.700726Q213.73438 27.65385 213.92188 27.138226Q214.17188 26.450726 214.8125 26.02885Q215.45312 25.606976 216.60938 25.606976Q217.35938 25.606976 218.25 25.77885L217.98438 27.3101Q217.4375 27.21635 216.95312 27.21635Q216.15625 27.21635 215.8125 27.5601Q215.48438 27.90385 215.48438 28.84135L215.48438 29.794476L217.51562 29.794476L217.51562 31.169476L215.48438 31.169476L215.48438 40.169476L213.73438 40.169476ZM218.67188 34.981976Q218.67188 32.106976 220.26562 30.71635Q221.60938 29.5601 223.53125 29.5601Q225.67188 29.5601 227.01562 30.96635Q228.375 32.3726 228.375 34.84135Q228.375 36.84135 227.78125 37.9976Q227.1875 39.138226 226.03125 39.77885Q224.89062 40.40385 223.53125 40.40385Q221.34375 40.40385 220.0 39.013226Q218.67188 37.606976 218.67188 34.981976ZM220.46875 34.981976Q220.46875 36.981976 221.32812 37.96635Q222.20312 38.950726 223.53125 38.950726Q224.84375 38.950726 225.70312 37.96635Q226.57812 36.96635 226.57812 34.919476Q226.57812 32.9976 225.70312 32.013226Q224.82812 31.013226 223.53125 31.013226Q222.20312 31.013226 221.32812 32.013226Q220.46875 32.9976 220.46875 34.981976ZM230.29688 40.169476L230.29688 29.794476L231.875 29.794476L231.875 31.3726Q232.48438 30.263226 233.0 29.919476Q233.51562 29.5601 234.125 29.5601Q235.01562 29.5601 235.9375 30.1226L235.32812 31.763226Q234.6875 31.3726 234.04688 31.3726Q233.46875 31.3726 233.0 31.731976Q232.54688 32.075726 232.34375 32.6851Q232.0625 33.6226 232.0625 34.731976L232.0625 40.169476L230.29688 40.169476ZM243.53125 40.169476L243.53125 25.856976L245.46875 25.856976L252.98438 37.09135L252.98438 25.856976L254.79688 25.856976L254.79688 40.169476L252.85938 40.169476L245.34375 28.919476L245.34375 40.169476L243.53125 40.169476ZM256.67188 34.981976Q256.67188 32.106976 258.26562 30.71635Q259.60938 29.5601 261.53125 29.5601Q263.67188 29.5601 265.01562 30.96635Q266.375 32.3726 266.375 34.84135Q266.375 36.84135 265.78125 37.9976Q265.1875 39.138226 264.03125 39.77885Q262.89062 40.40385 261.53125 40.40385Q259.34375 40.40385 258.0 39.013226Q256.67188 37.606976 256.67188 34.981976ZM258.46875 34.981976Q258.46875 36.981976 259.32812 37.96635Q260.20312 38.950726 261.53125 38.950726Q262.84375 38.950726 263.70312 37.96635Q264.57812 36.96635 264.57812 34.919476Q264.57812 32.9976 263.70312 32.013226Q262.82812 31.013226 261.53125 31.013226Q260.20312 31.013226 259.32812 32.013226Q258.46875 32.9976 258.46875 34.981976ZM284.76562 35.15385L286.65625 35.6226Q286.0625 37.96635 284.51562 39.200726Q282.96875 40.419476 280.71875 40.419476Q278.40625 40.419476 276.95312 39.481976Q275.51562 38.52885 274.75 36.7476Q274.0 34.950726 274.0 32.90385Q274.0 30.669476 274.84375 29.013226Q275.70312 27.34135 277.28125 26.481976Q278.85938 25.606976 280.75 25.606976Q282.90625 25.606976 284.35938 26.700726Q285.82812 27.794476 286.40625 29.77885L284.54688 30.21635Q284.04688 28.65385 283.09375 27.950726Q282.15625 27.231976 280.71875 27.231976Q279.0625 27.231976 277.95312 28.02885Q276.84375 28.8101 276.39062 30.15385Q275.95312 31.481976 275.95312 32.888226Q275.95312 34.71635 276.48438 36.09135Q277.01562 37.450726 278.14062 38.1226Q279.26562 38.794476 280.5625 38.794476Q282.15625 38.794476 283.26562 37.8726Q284.375 36.950726 284.76562 35.15385ZM288.32812 27.8726L288.32812 25.856976L290.09375 25.856976L290.09375 27.8726L288.32812 27.8726ZM288.32812 40.169476L288.32812 29.794476L290.09375 29.794476L290.09375 40.169476L288.32812 40.169476ZM296.15625 38.59135L296.40625 40.15385Q295.67188 40.3101 295.07812 40.3101Q294.125 40.3101 293.59375 40.013226Q293.07812 39.700726 292.85938 39.21635Q292.64062 38.71635 292.64062 37.138226L292.64062 31.169476L291.35938 31.169476L291.35938 29.794476L292.64062 29.794476L292.64062 27.231976L294.39062 26.169476L294.39062 29.794476L296.15625 29.794476L296.15625 31.169476L294.39062 31.169476L294.39062 37.231976Q294.39062 37.981976 294.48438 38.200726Q294.57812 38.40385 294.78125 38.544476Q295.0 38.669476 295.39062 38.669476Q295.67188 38.669476 296.15625 38.59135ZM298.23438 44.169476L298.04688 42.513226Q298.625 42.669476 299.04688 42.669476Q299.64062 42.669476 299.98438 42.46635Q300.34375 42.27885 300.5625 41.9351Q300.73438 41.669476 301.10938 40.6226Q301.15625 40.46635 301.26562 40.1851L297.32812 29.794476L299.21875 29.794476L301.375 35.8101Q301.79688 36.950726 302.125 38.200726Q302.4375 36.9976 302.84375 35.84135L305.0625 29.794476L306.82812 29.794476L302.875 40.34135Q302.25 42.0601 301.89062 42.700726Q301.42188 43.575726 300.8125 43.96635Q300.21875 44.3726 299.375 44.3726Q298.85938 44.3726 298.23438 44.169476ZM313.90625 35.575726L315.6875 35.419476Q315.8125 36.481976 316.26562 37.169476Q316.73438 37.856976 317.70312 38.294476Q318.6875 38.71635 319.92188 38.71635Q321.0 38.71635 321.82812 38.40385Q322.65625 38.075726 323.0625 37.513226Q323.46875 36.950726 323.46875 36.27885Q323.46875 35.606976 323.07812 35.106976Q322.6875 34.606976 321.79688 34.263226Q321.21875 34.02885 319.23438 33.5601Q317.26562 33.09135 316.48438 32.669476Q315.45312 32.138226 314.95312 31.34135Q314.45312 30.544476 314.45312 29.5601Q314.45312 28.46635 315.0625 27.52885Q315.67188 26.59135 316.85938 26.106976Q318.04688 25.606976 319.48438 25.606976Q321.07812 25.606976 322.29688 26.1226Q323.51562 26.638226 324.15625 27.638226Q324.8125 28.6226 324.85938 29.888226L323.04688 30.02885Q322.90625 28.669476 322.0625 27.981976Q321.21875 27.27885 319.5625 27.27885Q317.84375 27.27885 317.04688 27.919476Q316.26562 28.544476 316.26562 29.419476Q316.26562 30.200726 316.82812 30.700726Q317.375 31.200726 319.6875 31.71635Q322.0 32.231976 322.85938 32.6226Q324.10938 33.200726 324.70312 34.09135Q325.29688 34.96635 325.29688 36.1226Q325.29688 37.263226 324.64062 38.27885Q323.98438 39.294476 322.75 39.856976Q321.53125 40.419476 320.0 40.419476Q318.0625 40.419476 316.75 39.856976Q315.4375 39.27885 314.6875 38.138226Q313.9375 36.9976 313.90625 35.575726ZM331.15625 38.59135L331.40625 40.15385Q330.67188 40.3101 330.07812 40.3101Q329.125 40.3101 328.59375 40.013226Q328.07812 39.700726 327.85938 39.21635Q327.64062 38.71635 327.64062 37.138226L327.64062 31.169476L326.35938 31.169476L326.35938 29.794476L327.64062 29.794476L327.64062 27.231976L329.39062 26.169476L329.39062 29.794476L331.15625 29.794476L331.15625 31.169476L329.39062 31.169476L329.39062 37.231976Q329.39062 37.981976 329.48438 38.200726Q329.57812 38.40385 329.78125 38.544476Q330.0 38.669476 330.39062 38.669476Q330.67188 38.669476 331.15625 38.59135ZM333.32812 27.8726L333.32812 25.856976L335.09375 25.856976L335.09375 27.8726L333.32812 27.8726ZM333.32812 40.169476L333.32812 29.794476L335.09375 29.794476L335.09375 40.169476L333.32812 40.169476ZM344.09375 36.3726L345.8125 36.59135Q345.53125 38.388226 344.35938 39.40385Q343.20312 40.40385 341.5 40.40385Q339.375 40.40385 338.07812 39.013226Q336.78125 37.6226 336.78125 35.02885Q336.78125 33.34135 337.32812 32.09135Q337.89062 30.825726 339.03125 30.200726Q340.17188 29.5601 341.51562 29.5601Q343.20312 29.5601 344.26562 30.419476Q345.34375 31.27885 345.65625 32.84135L343.9375 33.106976Q343.70312 32.0601 343.07812 31.544476Q342.45312 31.013226 341.57812 31.013226Q340.25 31.013226 339.42188 31.96635Q338.59375 32.919476 338.59375 34.96635Q338.59375 37.0601 339.39062 38.013226Q340.1875 38.950726 341.48438 38.950726Q342.51562 38.950726 343.20312 38.325726Q343.90625 37.6851 344.09375 36.3726ZM347.32812 40.169476L347.32812 25.856976L349.09375 25.856976L349.09375 34.013226L353.25 29.794476L355.51562 29.794476L351.5625 33.638226L355.92188 40.169476L353.75 40.169476L350.32812 34.8726L349.09375 36.0601L349.09375 40.169476L347.32812 40.169476ZM364.42188 36.825726L366.23438 37.0601Q365.8125 38.638226 364.64062 39.52885Q363.48438 40.40385 361.67188 40.40385Q359.40625 40.40385 358.0625 39.013226Q356.73438 37.606976 356.73438 35.075726Q356.73438 32.450726 358.07812 31.013226Q359.42188 29.5601 361.57812 29.5601Q363.65625 29.5601 364.96875 30.981976Q366.29688 32.388226 366.29688 34.96635Q366.29688 35.1226 366.28125 35.4351L358.54688 35.4351Q358.64062 37.138226 359.51562 38.044476Q360.39062 38.950726 361.6875 38.950726Q362.65625 38.950726 363.32812 38.450726Q364.01562 37.9351 364.42188 36.825726ZM358.64062 33.981976L364.4375 33.981976Q364.32812 32.6851 363.78125 32.02885Q362.9375 31.013226 361.59375 31.013226Q360.39062 31.013226 359.5625 31.825726Q358.73438 32.6226 358.64062 33.981976ZM368.29688 40.169476L368.29688 29.794476L369.875 29.794476L369.875 31.3726Q370.48438 30.263226 371.0 29.919476Q371.51562 29.5601 372.125 29.5601Q373.01562 29.5601 373.9375 30.1226L373.32812 31.763226Q372.6875 31.3726 372.04688 31.3726Q371.46875 31.3726 371.0 31.731976Q370.54688 32.075726 370.34375 32.6851Q370.0625 33.6226 370.0625 34.731976L370.0625 40.169476L368.29688 40.169476ZM380.67188 34.981976Q380.67188 32.106976 382.26562 30.71635Q383.60938 29.5601 385.53125 29.5601Q387.67188 29.5601 389.01562 30.96635Q390.375 32.3726 390.375 34.84135Q390.375 36.84135 389.78125 37.9976Q389.1875 39.138226 388.03125 39.77885Q386.89062 40.40385 385.53125 40.40385Q383.34375 40.40385 382.0 39.013226Q380.67188 37.606976 380.67188 34.981976ZM382.46875 34.981976Q382.46875 36.981976 383.32812 37.96635Q384.20312 38.950726 385.53125 38.950726Q386.84375 38.950726 387.70312 37.96635Q388.57812 36.96635 388.57812 34.919476Q388.57812 32.9976 387.70312 32.013226Q386.82812 31.013226 385.53125 31.013226Q384.20312 31.013226 383.32812 32.013226Q382.46875 32.9976 382.46875 34.981976ZM392.29688 40.169476L392.29688 29.794476L393.875 29.794476L393.875 31.3726Q394.48438 30.263226 395.0 29.919476Q395.51562 29.5601 396.125 29.5601Q397.01562 29.5601 397.9375 30.1226L397.32812 31.763226Q396.6875 31.3726 396.04688 31.3726Q395.46875 31.3726 395.0 31.731976Q394.54688 32.075726 394.34375 32.6851Q394.0625 33.6226 394.0625 34.731976L394.0625 40.169476L392.29688 40.169476ZM405.85938 40.169476L405.85938 25.856976L407.76562 25.856976L407.76562 40.169476L405.85938 40.169476ZM411.3125 40.169476L411.3125 29.794476L412.89062 29.794476L412.89062 31.2476Q413.375 30.4976 414.1875 30.02885Q415.0 29.5601 416.03125 29.5601Q417.1875 29.5601 417.92188 30.044476Q418.65625 30.513226 418.96875 31.3726Q420.20312 29.5601 422.17188 29.5601Q423.71875 29.5601 424.54688 30.419476Q425.375 31.27885 425.375 33.044476L425.375 40.169476L423.625 40.169476L423.625 33.638226Q423.625 32.575726 423.45312 32.1226Q423.28125 31.65385 422.82812 31.3726Q422.39062 31.09135 421.78125 31.09135Q420.6875 31.09135 419.95312 31.825726Q419.23438 32.544476 419.23438 34.138226L419.23438 40.169476L417.48438 40.169476L417.48438 33.4351Q417.48438 32.263226 417.04688 31.6851Q416.625 31.09135 415.64062 31.09135Q414.90625 31.09135 414.26562 31.481976Q413.64062 31.8726 413.35938 32.6226Q413.07812 33.3726 413.07812 34.794476L413.07812 40.169476L411.3125 40.169476ZM428.3125 44.138226L428.3125 29.794476L429.92188 29.794476L429.92188 31.138226Q430.48438 30.356976 431.1875 29.96635Q431.90625 29.5601 432.92188 29.5601Q434.25 29.5601 435.26562 30.2476Q436.28125 30.9351 436.79688 32.1851Q437.32812 33.419476 437.32812 34.90385Q437.32812 36.4976 436.75 37.77885Q436.1875 39.044476 435.09375 39.731976Q434.0 40.40385 432.79688 40.40385Q431.92188 40.40385 431.21875 40.02885Q430.53125 39.65385 430.07812 39.09135L430.07812 44.138226L428.3125 44.138226ZM429.90625 35.044476Q429.90625 37.044476 430.71875 37.9976Q431.53125 38.950726 432.6875 38.950726Q433.85938 38.950726 434.6875 37.96635Q435.53125 36.981976 435.53125 34.888226Q435.53125 32.919476 434.70312 31.9351Q433.89062 30.9351 432.76562 30.9351Q431.64062 30.9351 430.76562 31.9976Q429.90625 33.044476 429.90625 35.044476ZM439.29688 40.169476L439.29688 29.794476L440.875 29.794476L440.875 31.3726Q441.48438 30.263226 442.0 29.919476Q442.51562 29.5601 443.125 29.5601Q444.01562 29.5601 444.9375 30.1226L444.32812 31.763226Q443.6875 31.3726 443.04688 31.3726Q442.46875 31.3726 442.0 31.731976Q441.54688 32.075726 441.34375 32.6851Q441.0625 33.6226 441.0625 34.731976L441.0625 40.169476L439.29688 40.169476ZM445.67188 34.981976Q445.67188 32.106976 447.26562 30.71635Q448.60938 29.5601 450.53125 29.5601Q452.67188 29.5601 454.01562 30.96635Q455.375 32.3726 455.375 34.84135Q455.375 36.84135 454.78125 37.9976Q454.1875 39.138226 453.03125 39.77885Q451.89062 40.40385 450.53125 40.40385Q448.34375 40.40385 447.0 39.013226Q445.67188 37.606976 445.67188 34.981976ZM447.46875 34.981976Q447.46875 36.981976 448.32812 37.96635Q449.20312 38.950726 450.53125 38.950726Q451.84375 38.950726 452.70312 37.96635Q453.57812 36.96635 453.57812 34.919476Q453.57812 32.9976 452.70312 32.013226Q451.82812 31.013226 450.53125 31.013226Q449.20312 31.013226 448.32812 32.013226Q447.46875 32.9976 447.46875 34.981976ZM457.3125 44.138226L457.3125 29.794476L458.92188 29.794476L458.92188 31.138226Q459.48438 30.356976 460.1875 29.96635Q460.90625 29.5601 461.92188 29.5601Q463.25 29.5601 464.26562 30.2476Q465.28125 30.9351 465.79688 32.1851Q466.32812 33.419476 466.32812 34.90385Q466.32812 36.4976 465.75 37.77885Q465.1875 39.044476 464.09375 39.731976Q463.0 40.40385 461.79688 40.40385Q460.92188 40.40385 460.21875 40.02885Q459.53125 39.65385 459.07812 39.09135L459.07812 44.138226L457.3125 44.138226ZM458.90625 35.044476Q458.90625 37.044476 459.71875 37.9976Q460.53125 38.950726 461.6875 38.950726Q462.85938 38.950726 463.6875 37.96635Q464.53125 36.981976 464.53125 34.888226Q464.53125 32.919476 463.70312 31.9351Q462.89062 30.9351 461.76562 30.9351Q460.64062 30.9351 459.76562 31.9976Q458.90625 33.044476 458.90625 35.044476ZM475.42188 36.825726L477.23438 37.0601Q476.8125 38.638226 475.64062 39.52885Q474.48438 40.40385 472.67188 40.40385Q470.40625 40.40385 469.0625 39.013226Q467.73438 37.606976 467.73438 35.075726Q467.73438 32.450726 469.07812 31.013226Q470.42188 29.5601 472.57812 29.5601Q474.65625 29.5601 475.96875 30.981976Q477.29688 32.388226 477.29688 34.96635Q477.29688 35.1226 477.28125 35.4351L469.54688 35.4351Q469.64062 37.138226 470.51562 38.044476Q471.39062 38.950726 472.6875 38.950726Q473.65625 38.950726 474.32812 38.450726Q475.01562 37.9351 475.42188 36.825726ZM469.64062 33.981976L475.4375 33.981976Q475.32812 32.6851 474.78125 32.02885Q473.9375 31.013226 472.59375 31.013226Q471.39062 31.013226 470.5625 31.825726Q469.73438 32.6226 469.64062 33.981976ZM479.29688 40.169476L479.29688 29.794476L480.875 29.794476L480.875 31.3726Q481.48438 30.263226 482.0 29.919476Q482.51562 29.5601 483.125 29.5601Q484.01562 29.5601 484.9375 30.1226L484.32812 31.763226Q483.6875 31.3726 483.04688 31.3726Q482.46875 31.3726 482.0 31.731976Q481.54688 32.075726 481.34375 32.6851Q481.0625 33.6226 481.0625 34.731976L481.0625 40.169476L479.29688 40.169476ZM492.54688 40.169476L492.54688 25.856976L497.46875 25.856976Q499.14062 25.856976 500.03125 26.0601Q501.25 26.34135 502.125 27.075726Q503.25 28.044476 503.8125 29.52885Q504.375 31.013226 504.375 32.9351Q504.375 34.5601 504.0 35.825726Q503.625 37.075726 503.01562 37.90385Q502.42188 38.731976 501.71875 39.21635Q501.01562 39.6851 500.01562 39.9351Q499.01562 40.169476 497.70312 40.169476L492.54688 40.169476ZM494.4375 38.481976L497.5 38.481976Q498.90625 38.481976 499.70312 38.21635Q500.51562 37.950726 501.0 37.46635Q501.67188 36.794476 502.04688 35.669476Q502.42188 34.52885 502.42188 32.90385Q502.42188 30.65385 501.6875 29.450726Q500.95312 28.2476 499.89062 27.84135Q499.14062 27.544476 497.45312 27.544476L494.4375 27.544476L494.4375 38.481976ZM506.32812 27.8726L506.32812 25.856976L508.09375 25.856976L508.09375 27.8726L506.32812 27.8726ZM506.32812 40.169476L506.32812 29.794476L508.09375 29.794476L508.09375 40.169476L506.32812 40.169476ZM509.60938 37.075726L511.35938 36.794476Q511.5 37.84135 512.1719 38.40385Q512.84375 38.950726 514.0469 38.950726Q515.25 38.950726 515.8281 38.46635Q516.4219 37.96635 516.4219 37.3101Q516.4219 36.71635 515.90625 36.3726Q515.5469 36.138226 514.1094 35.77885Q512.1719 35.27885 511.42188 34.9351Q510.6875 34.575726 510.29688 33.950726Q509.90625 33.3101 509.90625 32.544476Q509.90625 31.856976 510.21875 31.263226Q510.54688 30.669476 511.09375 30.27885Q511.5 29.981976 512.2031 29.77885Q512.9219 29.5601 513.7344 29.5601Q514.9531 29.5601 515.875 29.919476Q516.7969 30.263226 517.2344 30.8726Q517.6719 31.46635 517.84375 32.46635L516.125 32.700726Q516.0 31.90385 515.4375 31.46635Q514.875 31.013226 513.8594 31.013226Q512.6406 31.013226 512.125 31.419476Q511.60938 31.8101 511.60938 32.34135Q511.60938 32.6851 511.82812 32.96635Q512.03125 33.2476 512.5 33.4351Q512.7656 33.52885 514.0469 33.8726Q515.9219 34.3726 516.65625 34.700726Q517.3906 35.013226 517.8125 35.6226Q518.2344 36.21635 518.2344 37.1226Q518.2344 37.9976 517.71875 38.77885Q517.2031 39.5601 516.2344 39.981976Q515.2656 40.40385 514.0469 40.40385Q512.03125 40.40385 510.96875 39.5601Q509.90625 38.71635 509.60938 37.075726ZM520.3125 44.138226L520.3125 29.794476L521.9219 29.794476L521.9219 31.138226Q522.4844 30.356976 523.1875 29.96635Q523.90625 29.5601 524.9219 29.5601Q526.25 29.5601 527.2656 30.2476Q528.28125 30.9351 528.7969 32.1851Q529.3281 33.419476 529.3281 34.90385Q529.3281 36.4976 528.75 37.77885Q528.1875 39.044476 527.09375 39.731976Q526.0 40.40385 524.7969 40.40385Q523.9219 40.40385 523.21875 40.02885Q522.53125 39.65385 522.0781 39.09135L522.0781 44.138226L520.3125 44.138226ZM521.90625 35.044476Q521.90625 37.044476 522.71875 37.9976Q523.53125 38.950726 524.6875 38.950726Q525.8594 38.950726 526.6875 37.96635Q527.53125 36.981976 527.53125 34.888226Q527.53125 32.919476 526.7031 31.9351Q525.8906 30.9351 524.7656 30.9351Q523.6406 30.9351 522.7656 31.9976Q521.90625 33.044476 521.90625 35.044476ZM531.28125 40.169476L531.28125 25.856976L533.03125 25.856976L533.03125 40.169476L531.28125 40.169476ZM542.09375 38.888226Q541.1094 39.71635 540.2031 40.0601Q539.2969 40.40385 538.2656 40.40385Q536.5625 40.40385 535.6406 39.575726Q534.71875 38.731976 534.71875 37.4351Q534.71875 36.669476 535.0625 36.044476Q535.4219 35.419476 535.9844 35.044476Q536.5469 34.65385 537.25 34.450726Q537.7656 34.325726 538.8125 34.1851Q540.9375 33.9351 541.9375 33.59135Q541.9531 33.231976 541.9531 33.1226Q541.9531 32.0601 541.4531 31.606976Q540.78125 31.013226 539.4531 31.013226Q538.2031 31.013226 537.6094 31.450726Q537.03125 31.888226 536.75 32.9976L535.03125 32.763226Q535.2656 31.65385 535.7969 30.981976Q536.3281 30.294476 537.34375 29.9351Q538.3594 29.5601 539.7031 29.5601Q541.03125 29.5601 541.8594 29.8726Q542.6875 30.1851 543.0781 30.669476Q543.46875 31.138226 543.625 31.856976Q543.71875 32.3101 543.71875 33.481976L543.71875 35.825726Q543.71875 38.27885 543.8281 38.9351Q543.9375 39.575726 544.28125 40.169476L542.4375 40.169476Q542.1719 39.6226 542.09375 38.888226ZM541.9375 34.96635Q540.9844 35.356976 539.0625 35.6226Q537.9844 35.77885 537.53125 35.981976Q537.09375 36.169476 536.84375 36.544476Q536.59375 36.919476 536.59375 37.388226Q536.59375 38.09135 537.125 38.5601Q537.65625 39.02885 538.6875 39.02885Q539.7031 39.02885 540.4844 38.59135Q541.28125 38.138226 541.65625 37.3726Q541.9375 36.763226 541.9375 35.606976L541.9375 34.96635ZM546.2344 44.169476L546.0469 42.513226Q546.625 42.669476 547.0469 42.669476Q547.6406 42.669476 547.9844 42.46635Q548.34375 42.27885 548.5625 41.9351Q548.7344 41.669476 549.1094 40.6226Q549.15625 40.46635 549.2656 40.1851L545.3281 29.794476L547.21875 29.794476L549.375 35.8101Q549.7969 36.950726 550.125 38.200726Q550.4375 36.9976 550.84375 35.84135L553.0625 29.794476L554.8281 29.794476L550.875 40.34135Q550.25 42.0601 549.8906 42.700726Q549.4219 43.575726 548.8125 43.96635Q548.21875 44.3726 547.375 44.3726Q546.8594 44.3726 546.2344 44.169476Z" fill-rule="nonzero"/></svg>