<svg version="1.1" viewBox="0.0 0.0 705.0 435.0" fill="none" stroke="none" stroke-linecap="square" stroke-miterlimit="10" width="705" height="435" xmlns:xlink="http://www.w3.org/1999/xlink" xmlns="http://www.w3.org/2000/svg"><path fill="#ffffff" d="M0 0L705.0 0L705.0 435.0L0 435.0L0 0Z" fill-rule="nonzero"/><path fill="#14213d" d="M362.57407 49.227932C389.93396 49.227932 416.7802 56.658245 440.24664 70.72558L401.41037 135.51031C389.67715 128.47664 376.25403 124.76148 362.57407 124.76148Z" fill-rule="nonzero"/><path fill="#fca311" d="M430.17255 107.12396C494.9921 145.98111 521.12396 226.75974 491.34494 296.2195C461.5659 365.6793 385.03958 402.44595 312.20367 382.28696C239.36778 362.12796 192.63548 291.2467 202.80754 216.36024C212.9796 141.47377 276.92584 85.62631 352.5 85.62631L352.5 161.15987C314.71292 161.15987 282.7398 189.0836 277.65378 226.52682C272.56775 263.97006 295.9339 299.4107 332.35184 309.49017C368.76978 319.56967 407.03293 301.18637 421.92245 266.45648C436.81198 231.72658 423.74606 191.33727 391.33627 171.90869Z" fill-rule="nonzero"/><path fill="#ffffff" d="M380.68164 85.544205Q379.91602 85.262955 379.54102 84.74733Q379.18164 84.231705 379.18164 83.49733Q379.18164 82.40358 379.9629 81.669205Q380.75977 80.919205 382.05664 80.919205Q383.36914 80.919205 384.16602 81.68483Q384.97852 82.450455 384.97852 83.544205Q384.97852 84.231705 384.60352 84.74733Q384.24414 85.262955 383.49414 85.544205Q384.41602 85.84108 384.9004 86.512955Q385.38477 87.18483 385.38477 88.12233Q385.38477 89.40358 384.47852 90.27858Q383.57227 91.15358 382.0879 91.15358Q380.60352 91.15358 379.68164 90.27858Q378.7754 89.387955 378.7754 88.075455Q378.7754 87.106705 379.2754 86.450455Q379.7754 85.77858 380.68164 85.544205ZM380.44727 83.46608Q380.44727 84.169205 380.9004 84.62233Q381.35352 85.075455 382.0879 85.075455Q382.80664 85.075455 383.25977 84.637955Q383.7129 84.18483 383.7129 83.52858Q383.7129 82.856705 383.24414 82.40358Q382.7754 81.93483 382.07227 81.93483Q381.36914 81.93483 380.9004 82.387955Q380.44727 82.825455 380.44727 83.46608ZM380.04102 88.09108Q380.04102 88.62233 380.29102 89.12233Q380.54102 89.606705 381.0254 89.87233Q381.5254 90.137955 382.10352 90.137955Q382.97852 90.137955 383.54102 89.575455Q384.11914 89.012955 384.11914 88.137955Q384.11914 87.24733 383.5254 86.669205Q382.94727 86.075455 382.05664 86.075455Q381.18164 86.075455 380.60352 86.65358Q380.04102 87.231705 380.04102 88.09108ZM387.47852 90.981705L387.47852 89.575455L388.88477 89.575455L388.88477 90.981705L387.47852 90.981705ZM397.18164 83.419205L395.9629 83.512955Q395.79102 82.77858 395.49414 82.450455Q394.99414 81.93483 394.25977 81.93483Q393.66602 81.93483 393.22852 82.262955Q392.6504 82.68483 392.30664 83.49733Q391.97852 84.30983 391.9629 85.80983Q392.4004 85.137955 393.04102 84.80983Q393.69727 84.481705 394.4004 84.481705Q395.63477 84.481705 396.49414 85.387955Q397.35352 86.294205 397.35352 87.731705Q397.35352 88.669205 396.94727 89.481705Q396.54102 90.294205 395.82227 90.731705Q395.11914 91.15358 394.2129 91.15358Q392.68164 91.15358 391.7129 90.02858Q390.74414 88.887955 390.74414 86.294205Q390.74414 83.387955 391.80664 82.05983Q392.74414 80.919205 394.3379 80.919205Q395.5254 80.919205 396.2754 81.59108Q397.0254 82.24733 397.18164 83.419205ZM392.1504 87.731705Q392.1504 88.37233 392.41602 88.950455Q392.69727 89.52858 393.18164 89.84108Q393.66602 90.137955 394.19727 90.137955Q394.97852 90.137955 395.54102 89.512955Q396.10352 88.887955 396.10352 87.80983Q396.10352 86.762955 395.54102 86.169205Q394.99414 85.55983 394.1504 85.55983Q393.32227 85.55983 392.72852 86.169205Q392.1504 86.762955 392.1504 87.731705ZM399.0254 83.37233Q399.0254 82.294205 399.55664 81.544205Q400.10352 80.794205 401.13477 80.794205Q402.07227 80.794205 402.68164 81.46608Q403.30664 82.137955 403.30664 83.43483Q403.30664 84.71608 402.68164 85.40358Q402.05664 86.09108 401.1504 86.09108Q400.24414 86.09108 399.63477 85.419205Q399.0254 84.731705 399.0254 83.37233ZM401.16602 81.637955Q400.7129 81.637955 400.4004 82.044205Q400.10352 82.43483 400.10352 83.481705Q400.10352 84.450455 400.4004 84.84108Q400.7129 85.231705 401.16602 85.231705Q401.63477 85.231705 401.93164 84.84108Q402.24414 84.450455 402.24414 83.387955Q402.24414 82.419205 401.93164 82.02858Q401.61914 81.637955 401.16602 81.637955ZM401.16602 91.356705L406.6504 80.794205L407.6504 80.794205L402.19727 91.356705L401.16602 91.356705ZM405.50977 88.62233Q405.50977 87.544205 406.04102 86.80983Q406.5879 86.05983 407.61914 86.05983Q408.55664 86.05983 409.18164 86.731705Q409.80664 87.40358 409.80664 88.700455Q409.80664 89.981705 409.18164 90.669205Q408.55664 91.356705 407.61914 91.356705Q406.7129 91.356705 406.10352 90.68483Q405.50977 89.99733 405.50977 88.62233ZM407.6504 86.90358Q407.18164 86.90358 406.88477 87.30983Q406.5879 87.700455 406.5879 88.74733Q406.5879 89.71608 406.88477 90.106705Q407.19727 90.49733 407.6504 90.49733Q408.11914 90.49733 408.41602 90.106705Q408.72852 89.71608 408.72852 88.65358Q408.72852 87.68483 408.41602 87.294205Q408.11914 86.90358 407.6504 86.90358Z" fill-rule="nonzero"/><path fill="#ffffff" d="M287.90277 350.88858L287.90277 342.04483L284.6059 342.04483L284.6059 340.87296L292.5434 340.87296L292.5434 342.04483L289.2309 342.04483L289.2309 350.88858L287.90277 350.88858ZM293.74652 347.26358Q293.74652 345.24796 294.87152 344.26358Q295.7934 343.4667 297.15277 343.4667Q298.63715 343.4667 299.59027 344.45108Q300.5434 345.41983 300.5434 347.1542Q300.5434 348.56046 300.12152 349.37296Q299.69965 350.16983 298.88715 350.62296Q298.09027 351.06046 297.15277 351.06046Q295.62152 351.06046 294.68402 350.07608Q293.74652 349.0917 293.74652 347.26358ZM295.01215 347.26358Q295.01215 348.6542 295.62152 349.35733Q296.2309 350.04483 297.15277 350.04483Q298.05902 350.04483 298.6684 349.3417Q299.27777 348.63858 299.27777 347.2167Q299.27777 345.87296 298.6684 345.18546Q298.05902 344.48233 297.15277 344.48233Q296.2309 344.48233 295.62152 345.16983Q295.01215 345.85733 295.01215 347.26358ZM304.88715 349.79483L305.05902 350.87296Q304.5434 350.98233 304.13715 350.98233Q303.46527 350.98233 303.09027 350.7792Q302.7309 350.56046 302.57465 350.2167Q302.43402 349.87296 302.43402 348.76358L302.43402 344.5917L301.52777 344.5917L301.52777 343.62296L302.43402 343.62296L302.43402 341.82608L303.65277 341.0917L303.65277 343.62296L304.88715 343.62296L304.88715 344.5917L303.65277 344.5917L303.65277 348.82608Q303.65277 349.35733 303.71527 349.51358Q303.77777 349.6542 303.9184 349.74796Q304.07465 349.8417 304.34027 349.8417Q304.55902 349.8417 304.88715 349.79483ZM310.93402 349.99796Q310.26215 350.57608 309.62152 350.82608Q308.99652 351.06046 308.26215 351.06046Q307.07465 351.06046 306.4184 350.48233Q305.77777 349.88858 305.77777 348.9667Q305.77777 348.43546 306.01215 347.99796Q306.26215 347.56046 306.65277 347.29483Q307.05902 347.0292 307.5434 346.88858Q307.90277 346.79483 308.63715 346.70108Q310.13715 346.5292 310.84027 346.2792Q310.84027 346.0292 310.84027 345.9667Q310.84027 345.20108 310.49652 344.9042Q310.02777 344.48233 309.09027 344.48233Q308.2309 344.48233 307.80902 344.79483Q307.40277 345.0917 307.19965 345.85733L305.99652 345.70108Q306.15277 344.91983 306.52777 344.45108Q306.9184 343.98233 307.62152 343.73233Q308.34027 343.4667 309.27777 343.4667Q310.19965 343.4667 310.77777 343.68546Q311.3559 343.9042 311.62152 344.23233Q311.90277 344.56046 312.01215 345.07608Q312.07465 345.38858 312.07465 346.20108L312.07465 347.8417Q312.07465 349.56046 312.15277 350.01358Q312.2309 350.4667 312.46527 350.88858L311.18402 350.88858Q310.99652 350.49796 310.93402 349.99796ZM310.84027 347.24796Q310.1684 347.51358 308.82465 347.7167Q308.07465 347.82608 307.74652 347.9667Q307.43402 348.0917 307.26215 348.35733Q307.09027 348.62296 307.09027 348.93546Q307.09027 349.43546 307.46527 349.76358Q307.84027 350.0917 308.55902 350.0917Q309.27777 350.0917 309.82465 349.7792Q310.37152 349.4667 310.63715 348.91983Q310.84027 348.51358 310.84027 347.70108L310.84027 347.24796ZM314.1684 350.88858L314.1684 340.87296L315.40277 340.87296L315.40277 350.88858L314.1684 350.88858ZM328.51215 347.37296L329.84027 347.7167Q329.4184 349.3417 328.32465 350.20108Q327.24652 351.06046 325.68402 351.06046Q324.05902 351.06046 323.0434 350.4042Q322.02777 349.73233 321.49652 348.48233Q320.9809 347.23233 320.9809 345.79483Q320.9809 344.23233 321.57465 343.07608Q322.1684 341.9042 323.27777 341.31046Q324.38715 340.70108 325.69965 340.70108Q327.21527 340.70108 328.2309 341.4667Q329.26215 342.23233 329.6684 343.60733L328.3559 343.91983Q328.01215 342.82608 327.34027 342.32608Q326.68402 341.82608 325.68402 341.82608Q324.52777 341.82608 323.74652 342.38858Q322.96527 342.93546 322.65277 343.87296Q322.34027 344.81046 322.34027 345.79483Q322.34027 347.07608 322.71527 348.0292Q323.09027 348.98233 323.87152 349.45108Q324.65277 349.91983 325.57465 349.91983Q326.68402 349.91983 327.44965 349.2792Q328.2309 348.63858 328.51215 347.37296ZM335.93402 349.99796Q335.26215 350.57608 334.62152 350.82608Q333.99652 351.06046 333.26215 351.06046Q332.07465 351.06046 331.4184 350.48233Q330.77777 349.88858 330.77777 348.9667Q330.77777 348.43546 331.01215 347.99796Q331.26215 347.56046 331.65277 347.29483Q332.05902 347.0292 332.5434 346.88858Q332.90277 346.79483 333.63715 346.70108Q335.13715 346.5292 335.84027 346.2792Q335.84027 346.0292 335.84027 345.9667Q335.84027 345.20108 335.49652 344.9042Q335.02777 344.48233 334.09027 344.48233Q333.2309 344.48233 332.80902 344.79483Q332.40277 345.0917 332.19965 345.85733L330.99652 345.70108Q331.15277 344.91983 331.52777 344.45108Q331.9184 343.98233 332.62152 343.73233Q333.34027 343.4667 334.27777 343.4667Q335.19965 343.4667 335.77777 343.68546Q336.3559 343.9042 336.62152 344.23233Q336.90277 344.56046 337.01215 345.07608Q337.07465 345.38858 337.07465 346.20108L337.07465 347.8417Q337.07465 349.56046 337.15277 350.01358Q337.2309 350.4667 337.46527 350.88858L336.18402 350.88858Q335.99652 350.49796 335.93402 349.99796ZM335.84027 347.24796Q335.1684 347.51358 333.82465 347.7167Q333.07465 347.82608 332.74652 347.9667Q332.43402 348.0917 332.26215 348.35733Q332.09027 348.62296 332.09027 348.93546Q332.09027 349.43546 332.46527 349.76358Q332.84027 350.0917 333.55902 350.0917Q334.27777 350.0917 334.82465 349.7792Q335.37152 349.4667 335.63715 348.91983Q335.84027 348.51358 335.84027 347.70108L335.84027 347.24796ZM338.71527 348.7167L339.9184 348.5292Q340.02777 349.26358 340.49652 349.6542Q340.96527 350.04483 341.80902 350.04483Q342.65277 350.04483 343.05902 349.70108Q343.4809 349.35733 343.4809 348.88858Q343.4809 348.4667 343.1059 348.23233Q342.8559 348.06046 341.8559 347.81046Q340.49652 347.4667 339.96527 347.2167Q339.44965 346.9667 339.18402 346.5292Q338.9184 346.0917 338.9184 345.56046Q338.9184 345.07608 339.13715 344.66983Q339.3559 344.24796 339.74652 343.9667Q340.02777 343.76358 340.51215 343.62296Q341.01215 343.4667 341.59027 343.4667Q342.43402 343.4667 343.07465 343.7167Q343.7309 343.95108 344.0434 344.37296Q344.3559 344.79483 344.46527 345.49796L343.26215 345.66983Q343.18402 345.10733 342.77777 344.79483Q342.38715 344.48233 341.6684 344.48233Q340.82465 344.48233 340.46527 344.76358Q340.1059 345.0292 340.1059 345.41983Q340.1059 345.6542 340.24652 345.8417Q340.40277 346.04483 340.7309 346.16983Q340.90277 346.23233 341.80902 346.48233Q343.12152 346.8417 343.63715 347.06046Q344.15277 347.2792 344.43402 347.70108Q344.7309 348.12296 344.7309 348.74796Q344.7309 349.37296 344.37152 349.91983Q344.02777 350.45108 343.34027 350.76358Q342.6684 351.06046 341.80902 351.06046Q340.40277 351.06046 339.65277 350.4667Q338.9184 349.87296 338.71527 348.7167ZM351.1684 348.54483L352.44965 348.70108Q352.13715 349.82608 351.32465 350.45108Q350.51215 351.06046 349.24652 351.06046Q347.65277 351.06046 346.71527 350.07608Q345.7934 349.0917 345.7934 347.32608Q345.7934 345.48233 346.7309 344.48233Q347.68402 343.4667 349.18402 343.4667Q350.63715 343.4667 351.55902 344.4667Q352.4809 345.45108 352.4809 347.24796Q352.4809 347.35733 352.4809 347.57608L347.05902 347.57608Q347.13715 348.76358 347.7309 349.4042Q348.34027 350.04483 349.26215 350.04483Q349.93402 350.04483 350.40277 349.68546Q350.88715 349.32608 351.1684 348.54483ZM347.13715 346.56046L351.18402 346.56046Q351.1059 345.63858 350.71527 345.18546Q350.13715 344.48233 349.19965 344.48233Q348.34027 344.48233 347.76215 345.04483Q347.19965 345.60733 347.13715 346.56046ZM353.71527 348.7167L354.9184 348.5292Q355.02777 349.26358 355.49652 349.6542Q355.96527 350.04483 356.80902 350.04483Q357.65277 350.04483 358.05902 349.70108Q358.4809 349.35733 358.4809 348.88858Q358.4809 348.4667 358.1059 348.23233Q357.8559 348.06046 356.8559 347.81046Q355.49652 347.4667 354.96527 347.2167Q354.44965 346.9667 354.18402 346.5292Q353.9184 346.0917 353.9184 345.56046Q353.9184 345.07608 354.13715 344.66983Q354.3559 344.24796 354.74652 343.9667Q355.02777 343.76358 355.51215 343.62296Q356.01215 343.4667 356.59027 343.4667Q357.43402 343.4667 358.07465 343.7167Q358.7309 343.95108 359.0434 344.37296Q359.3559 344.79483 359.46527 345.49796L358.26215 345.66983Q358.18402 345.10733 357.77777 344.79483Q357.38715 344.48233 356.6684 344.48233Q355.82465 344.48233 355.46527 344.76358Q355.1059 345.0292 355.1059 345.41983Q355.1059 345.6542 355.24652 345.8417Q355.40277 346.04483 355.7309 346.16983Q355.90277 346.23233 356.80902 346.48233Q358.12152 346.8417 358.63715 347.06046Q359.15277 347.2792 359.43402 347.70108Q359.7309 348.12296 359.7309 348.74796Q359.7309 349.37296 359.37152 349.91983Q359.02777 350.45108 358.34027 350.76358Q357.6684 351.06046 356.80902 351.06046Q355.40277 351.06046 354.65277 350.4667Q353.9184 349.87296 353.71527 348.7167Z" fill-rule="nonzero"/><path fill="#14213d" d="M257.0 408.3918C257.0 411.70554 254.3137 414.3918 251.0 414.3918C247.6863 414.3918 245.0 411.70554 245.0 408.3918C245.0 405.0781 247.6863 402.3918 251.0 402.3918C254.3137 402.3918 257.0 405.0781 257.0 408.3918Z" fill-rule="nonzero"/><path fill="#1a1a1a" d="M272.0625 409.3762L273.1875 409.67307Q272.82812 411.0637 271.90625 411.79807Q270.98438 412.53244 269.64062 412.53244Q268.25 412.53244 267.375 411.96994Q266.5 411.40744 266.04688 410.34494Q265.59375 409.2668 265.59375 408.03244Q265.59375 406.6887 266.10938 405.6887Q266.625 404.6887 267.5625 404.17307Q268.51562 403.65744 269.65625 403.65744Q270.9375 403.65744 271.8125 404.3137Q272.70312 404.96994 273.04688 406.15744L271.92188 406.42307Q271.625 405.48557 271.04688 405.0637Q270.48438 404.6262 269.625 404.6262Q268.64062 404.6262 267.96875 405.11057Q267.3125 405.5793 267.03125 406.3762Q266.76562 407.17307 266.76562 408.03244Q266.76562 409.1262 267.07812 409.9387Q267.40625 410.7512 268.07812 411.15744Q268.75 411.5637 269.54688 411.5637Q270.5 411.5637 271.15625 411.0168Q271.82812 410.46994 272.0625 409.3762ZM278.85938 411.6262Q278.26562 412.1262 277.71875 412.3293Q277.1875 412.53244 276.5625 412.53244Q275.53125 412.53244 274.98438 412.03244Q274.4375 411.53244 274.4375 410.7512Q274.4375 410.29807 274.64062 409.92307Q274.84375 409.53244 275.1875 409.3137Q275.53125 409.0793 275.95312 408.96994Q276.25 408.8762 276.89062 408.79807Q278.15625 408.65744 278.76562 408.4387Q278.76562 408.21994 278.76562 408.17307Q278.76562 407.5168 278.46875 407.2512Q278.0625 406.90744 277.26562 406.90744Q276.53125 406.90744 276.17188 407.17307Q275.8125 407.42307 275.64062 408.0793L274.60938 407.9387Q274.75 407.28244 275.07812 406.8762Q275.40625 406.46994 276.01562 406.2512Q276.625 406.03244 277.42188 406.03244Q278.21875 406.03244 278.71875 406.21994Q279.21875 406.40744 279.45312 406.6887Q279.6875 406.96994 279.78125 407.40744Q279.82812 407.67307 279.82812 408.3762L279.82812 409.78244Q279.82812 411.2512 279.89062 411.6418Q279.96875 412.03244 280.17188 412.3918L279.0625 412.3918Q278.90625 412.0637 278.85938 411.6262ZM278.76562 409.2668Q278.1875 409.5012 277.04688 409.67307Q276.39062 409.7668 276.125 409.8918Q275.85938 410.0012 275.70312 410.21994Q275.5625 410.4387 275.5625 410.71994Q275.5625 411.1418 275.875 411.42307Q276.20312 411.7043 276.8125 411.7043Q277.42188 411.7043 277.89062 411.4387Q278.375 411.17307 278.59375 410.7043Q278.76562 410.34494 278.76562 409.65744L278.76562 409.2668ZM281.375 410.53244L282.40625 410.3762Q282.5 411.0012 282.89062 411.3293Q283.29688 411.65744 284.03125 411.65744Q284.75 411.65744 285.09375 411.3762Q285.45312 411.0793 285.45312 410.67307Q285.45312 410.3137 285.14062 410.11057Q284.92188 409.96994 284.0625 409.7512Q282.90625 409.4543 282.45312 409.2512Q282.01562 409.03244 281.78125 408.65744Q281.54688 408.28244 281.54688 407.8137Q281.54688 407.40744 281.73438 407.04807Q281.92188 406.6887 282.25 406.4543Q282.5 406.28244 282.92188 406.15744Q283.34375 406.03244 283.84375 406.03244Q284.5625 406.03244 285.10938 406.2512Q285.67188 406.4543 285.9375 406.8137Q286.20312 407.17307 286.29688 407.7668L285.26562 407.90744Q285.20312 407.4387 284.85938 407.17307Q284.53125 406.8918 283.90625 406.8918Q283.1875 406.8918 282.875 407.1418Q282.5625 407.3762 282.5625 407.7043Q282.5625 407.90744 282.6875 408.0637Q282.82812 408.23557 283.09375 408.34494Q283.25 408.40744 284.03125 408.61057Q285.15625 408.92307 285.59375 409.11057Q286.03125 409.29807 286.28125 409.65744Q286.53125 410.0168 286.53125 410.5637Q286.53125 411.09494 286.21875 411.5637Q285.92188 412.0168 285.34375 412.28244Q284.76562 412.53244 284.03125 412.53244Q282.8125 412.53244 282.17188 412.03244Q281.54688 411.5168 281.375 410.53244ZM292.04688 410.3918L293.14062 410.5168Q292.89062 411.46994 292.1875 412.0012Q291.48438 412.53244 290.40625 412.53244Q289.04688 412.53244 288.23438 411.6887Q287.4375 410.84494 287.4375 409.3293Q287.4375 407.7668 288.25 406.90744Q289.0625 406.03244 290.34375 406.03244Q291.59375 406.03244 292.375 406.8762Q293.17188 407.71994 293.17188 409.2668Q293.17188 409.36057 293.17188 409.54807L288.53125 409.54807Q288.59375 410.5793 289.10938 411.1262Q289.625 411.65744 290.40625 411.65744Q290.98438 411.65744 291.39062 411.36057Q291.8125 411.04807 292.04688 410.3918ZM288.59375 408.6887L292.0625 408.6887Q292.0 407.8918 291.67188 407.5012Q291.15625 406.8918 290.35938 406.8918Q289.625 406.8918 289.125 407.3762Q288.64062 407.86057 288.59375 408.6887ZM294.375 410.53244L295.40625 410.3762Q295.5 411.0012 295.89062 411.3293Q296.29688 411.65744 297.03125 411.65744Q297.75 411.65744 298.09375 411.3762Q298.45312 411.0793 298.45312 410.67307Q298.45312 410.3137 298.14062 410.11057Q297.92188 409.96994 297.0625 409.7512Q295.90625 409.4543 295.45312 409.2512Q295.01562 409.03244 294.78125 408.65744Q294.54688 408.28244 294.54688 407.8137Q294.54688 407.40744 294.73438 407.04807Q294.92188 406.6887 295.25 406.4543Q295.5 406.28244 295.92188 406.15744Q296.34375 406.03244 296.84375 406.03244Q297.5625 406.03244 298.10938 406.2512Q298.67188 406.4543 298.9375 406.8137Q299.20312 407.17307 299.29688 407.7668L298.26562 407.90744Q298.20312 407.4387 297.85938 407.17307Q297.53125 406.8918 296.90625 406.8918Q296.1875 406.8918 295.875 407.1418Q295.5625 407.3762 295.5625 407.7043Q295.5625 407.90744 295.6875 408.0637Q295.82812 408.23557 296.09375 408.34494Q296.25 408.40744 297.03125 408.61057Q298.15625 408.92307 298.59375 409.11057Q299.03125 409.29807 299.28125 409.65744Q299.53125 410.0168 299.53125 410.5637Q299.53125 411.09494 299.21875 411.5637Q298.92188 412.0168 298.34375 412.28244Q297.76562 412.53244 297.03125 412.53244Q295.8125 412.53244 295.17188 412.03244Q294.54688 411.5168 294.375 410.53244ZM310.0625 409.3762L311.1875 409.67307Q310.82812 411.0637 309.90625 411.79807Q308.98438 412.53244 307.64062 412.53244Q306.25 412.53244 305.375 411.96994Q304.5 411.40744 304.04688 410.34494Q303.59375 409.2668 303.59375 408.03244Q303.59375 406.6887 304.10938 405.6887Q304.625 404.6887 305.5625 404.17307Q306.51562 403.65744 307.65625 403.65744Q308.9375 403.65744 309.8125 404.3137Q310.70312 404.96994 311.04688 406.15744L309.92188 406.42307Q309.625 405.48557 309.04688 405.0637Q308.48438 404.6262 307.625 404.6262Q306.64062 404.6262 305.96875 405.11057Q305.3125 405.5793 305.03125 406.3762Q304.76562 407.17307 304.76562 408.03244Q304.76562 409.1262 305.07812 409.9387Q305.40625 410.7512 306.07812 411.15744Q306.75 411.5637 307.54688 411.5637Q308.5 411.5637 309.15625 411.0168Q309.82812 410.46994 310.0625 409.3762ZM312.40625 409.28244Q312.40625 407.54807 313.35938 406.71994Q314.15625 406.03244 315.3125 406.03244Q316.59375 406.03244 317.40625 406.8762Q318.23438 407.7043 318.23438 409.1887Q318.23438 410.3918 317.875 411.0793Q317.51562 411.7668 316.8125 412.15744Q316.125 412.53244 315.3125 412.53244Q314.01562 412.53244 313.20312 411.7043Q312.40625 410.86057 312.40625 409.28244ZM313.48438 409.28244Q313.48438 410.46994 314.0 411.0637Q314.53125 411.65744 315.3125 411.65744Q316.10938 411.65744 316.625 411.0637Q317.14062 410.46994 317.14062 409.2512Q317.14062 408.09494 316.60938 407.5012Q316.09375 406.90744 315.3125 406.90744Q314.53125 406.90744 314.0 407.5012Q313.48438 408.0793 313.48438 409.28244ZM319.79688 412.3918L319.79688 406.17307L320.73438 406.17307L320.73438 407.04807Q321.42188 406.03244 322.71875 406.03244Q323.28125 406.03244 323.75 406.23557Q324.23438 406.4387 324.46875 406.7668Q324.70312 407.09494 324.79688 407.53244Q324.84375 407.8293 324.84375 408.5637L324.84375 412.3918L323.79688 412.3918L323.79688 408.61057Q323.79688 407.9543 323.67188 407.6418Q323.54688 407.3293 323.23438 407.1418Q322.92188 406.9387 322.5 406.9387Q321.82812 406.9387 321.32812 407.3762Q320.84375 407.79807 320.84375 408.98557L320.84375 412.3918L319.79688 412.3918ZM329.09375 411.4543L329.25 412.3762Q328.79688 412.46994 328.45312 412.46994Q327.875 412.46994 327.5625 412.29807Q327.25 412.11057 327.10938 411.8137Q326.98438 411.5168 326.98438 410.5637L326.98438 406.98557L326.21875 406.98557L326.21875 406.17307L326.98438 406.17307L326.98438 404.6262L328.03125 404.0012L328.03125 406.17307L329.09375 406.17307L329.09375 406.98557L328.03125 406.98557L328.03125 410.6262Q328.03125 411.0793 328.07812 411.2043Q328.14062 411.3293 328.26562 411.40744Q328.39062 411.48557 328.625 411.48557Q328.8125 411.48557 329.09375 411.4543ZM334.04688 410.3918L335.14062 410.5168Q334.89062 411.46994 334.1875 412.0012Q333.48438 412.53244 332.40625 412.53244Q331.04688 412.53244 330.23438 411.6887Q329.4375 410.84494 329.4375 409.3293Q329.4375 407.7668 330.25 406.90744Q331.0625 406.03244 332.34375 406.03244Q333.59375 406.03244 334.375 406.8762Q335.17188 407.71994 335.17188 409.2668Q335.17188 409.36057 335.17188 409.54807L330.53125 409.54807Q330.59375 410.5793 331.10938 411.1262Q331.625 411.65744 332.40625 411.65744Q332.98438 411.65744 333.39062 411.36057Q333.8125 411.04807 334.04688 410.3918ZM330.59375 408.6887L334.0625 408.6887Q334.0 407.8918 333.67188 407.5012Q333.15625 406.8918 332.35938 406.8918Q331.625 406.8918 331.125 407.3762Q330.64062 407.86057 330.59375 408.6887ZM336.375 410.53244L337.40625 410.3762Q337.5 411.0012 337.89062 411.3293Q338.29688 411.65744 339.03125 411.65744Q339.75 411.65744 340.09375 411.3762Q340.45312 411.0793 340.45312 410.67307Q340.45312 410.3137 340.14062 410.11057Q339.92188 409.96994 339.0625 409.7512Q337.90625 409.4543 337.45312 409.2512Q337.01562 409.03244 336.78125 408.65744Q336.54688 408.28244 336.54688 407.8137Q336.54688 407.40744 336.73438 407.04807Q336.92188 406.6887 337.25 406.4543Q337.5 406.28244 337.92188 406.15744Q338.34375 406.03244 338.84375 406.03244Q339.5625 406.03244 340.10938 406.2512Q340.67188 406.4543 340.9375 406.8137Q341.20312 407.17307 341.29688 407.7668L340.26562 407.90744Q340.20312 407.4387 339.85938 407.17307Q339.53125 406.8918 338.90625 406.8918Q338.1875 406.8918 337.875 407.1418Q337.5625 407.3762 337.5625 407.7043Q337.5625 407.90744 337.6875 408.0637Q337.82812 408.23557 338.09375 408.34494Q338.25 408.40744 339.03125 408.61057Q340.15625 408.92307 340.59375 409.11057Q341.03125 409.29807 341.28125 409.65744Q341.53125 410.0168 341.53125 410.5637Q341.53125 411.09494 341.21875 411.5637Q340.92188 412.0168 340.34375 412.28244Q339.76562 412.53244 339.03125 412.53244Q337.8125 412.53244 337.17188 412.03244Q336.54688 411.5168 336.375 410.53244ZM345.09375 411.4543L345.25 412.3762Q344.79688 412.46994 344.45312 412.46994Q343.875 412.46994 343.5625 412.29807Q343.25 412.11057 343.10938 411.8137Q342.98438 411.5168 342.98438 410.5637L342.98438 406.98557L342.21875 406.98557L342.21875 406.17307L342.98438 406.17307L342.98438 404.6262L344.03125 404.0012L344.03125 406.17307L345.09375 406.17307L345.09375 406.98557L344.03125 406.98557L344.03125 410.6262Q344.03125 411.0793 344.07812 411.2043Q344.14062 411.3293 344.26562 411.40744Q344.39062 411.48557 344.625 411.48557Q344.8125 411.48557 345.09375 411.4543ZM350.04688 410.3918L351.14062 410.5168Q350.89062 411.46994 350.1875 412.0012Q349.48438 412.53244 348.40625 412.53244Q347.04688 412.53244 346.23438 411.6887Q345.4375 410.84494 345.4375 409.3293Q345.4375 407.7668 346.25 406.90744Q347.0625 406.03244 348.34375 406.03244Q349.59375 406.03244 350.375 406.8762Q351.17188 407.71994 351.17188 409.2668Q351.17188 409.36057 351.17188 409.54807L346.53125 409.54807Q346.59375 410.5793 347.10938 411.1262Q347.625 411.65744 348.40625 411.65744Q348.98438 411.65744 349.39062 411.36057Q349.8125 411.04807 350.04688 410.3918ZM346.59375 408.6887L350.0625 408.6887Q350.0 407.8918 349.67188 407.5012Q349.15625 406.8918 348.35938 406.8918Q347.625 406.8918 347.125 407.3762Q346.64062 407.86057 346.59375 408.6887ZM356.82812 412.3918L356.82812 411.61057Q356.23438 412.53244 355.09375 412.53244Q354.34375 412.53244 353.71875 412.1262Q353.09375 411.7043 352.75 410.96994Q352.40625 410.23557 352.40625 409.28244Q352.40625 408.36057 352.71875 407.59494Q353.03125 406.8293 353.65625 406.4387Q354.28125 406.03244 355.04688 406.03244Q355.60938 406.03244 356.04688 406.2668Q356.48438 406.5012 356.76562 406.8762L356.76562 403.79807L357.8125 403.79807L357.8125 412.3918L356.82812 412.3918ZM353.5 409.28244Q353.5 410.48557 354.0 411.0793Q354.5 411.65744 355.1875 411.65744Q355.875 411.65744 356.35938 411.09494Q356.84375 410.53244 356.84375 409.3762Q356.84375 408.09494 356.34375 407.5012Q355.85938 406.90744 355.14062 406.90744Q354.4375 406.90744 353.96875 407.48557Q353.5 408.04807 353.5 409.28244Z" fill-rule="nonzero"/><path fill="#fca311" d="M387.0 408.3918C387.0 411.70554 384.31372 414.3918 381.0 414.3918C377.68628 414.3918 375.0 411.70554 375.0 408.3918C375.0 405.0781 377.68628 402.3918 381.0 402.3918C384.31372 402.3918 387.0 405.0781 387.0 408.3918Z" fill-rule="nonzero"/><path fill="#1a1a1a" d="M398.10938 412.3918L398.10938 404.8137L395.28125 404.8137L395.28125 403.79807L402.09375 403.79807L402.09375 404.8137L399.25 404.8137L399.25 412.3918L398.10938 412.3918ZM402.40625 409.28244Q402.40625 407.54807 403.35938 406.71994Q404.15625 406.03244 405.3125 406.03244Q406.59375 406.03244 407.40625 406.8762Q408.23438 407.7043 408.23438 409.1887Q408.23438 410.3918 407.875 411.0793Q407.51562 411.7668 406.8125 412.15744Q406.125 412.53244 405.3125 412.53244Q404.01562 412.53244 403.20312 411.7043Q402.40625 410.86057 402.40625 409.28244ZM403.48438 409.28244Q403.48438 410.46994 404.0 411.0637Q404.53125 411.65744 405.3125 411.65744Q406.10938 411.65744 406.625 411.0637Q407.14062 410.46994 407.14062 409.2512Q407.14062 408.09494 406.60938 407.5012Q406.09375 406.90744 405.3125 406.90744Q404.53125 406.90744 404.0 407.5012Q403.48438 408.0793 403.48438 409.28244ZM412.09375 411.4543L412.25 412.3762Q411.79688 412.46994 411.45312 412.46994Q410.875 412.46994 410.5625 412.29807Q410.25 412.11057 410.10938 411.8137Q409.98438 411.5168 409.98438 410.5637L409.98438 406.98557L409.21875 406.98557L409.21875 406.17307L409.98438 406.17307L409.98438 404.6262L411.03125 404.0012L411.03125 406.17307L412.09375 406.17307L412.09375 406.98557L411.03125 406.98557L411.03125 410.6262Q411.03125 411.0793 411.07812 411.2043Q411.14062 411.3293 411.26562 411.40744Q411.39062 411.48557 411.625 411.48557Q411.8125 411.48557 412.09375 411.4543ZM416.85938 411.6262Q416.26562 412.1262 415.71875 412.3293Q415.1875 412.53244 414.5625 412.53244Q413.53125 412.53244 412.98438 412.03244Q412.4375 411.53244 412.4375 410.7512Q412.4375 410.29807 412.64062 409.92307Q412.84375 409.53244 413.1875 409.3137Q413.53125 409.0793 413.95312 408.96994Q414.25 408.8762 414.89062 408.79807Q416.15625 408.65744 416.76562 408.4387Q416.76562 408.21994 416.76562 408.17307Q416.76562 407.5168 416.46875 407.2512Q416.0625 406.90744 415.26562 406.90744Q414.53125 406.90744 414.17188 407.17307Q413.8125 407.42307 413.64062 408.0793L412.60938 407.9387Q412.75 407.28244 413.07812 406.8762Q413.40625 406.46994 414.01562 406.2512Q414.625 406.03244 415.42188 406.03244Q416.21875 406.03244 416.71875 406.21994Q417.21875 406.40744 417.45312 406.6887Q417.6875 406.96994 417.78125 407.40744Q417.82812 407.67307 417.82812 408.3762L417.82812 409.78244Q417.82812 411.2512 417.89062 411.6418Q417.96875 412.03244 418.17188 412.3918L417.0625 412.3918Q416.90625 412.0637 416.85938 411.6262ZM416.76562 409.2668Q416.1875 409.5012 415.04688 409.67307Q414.39062 409.7668 414.125 409.8918Q413.85938 410.0012 413.70312 410.21994Q413.5625 410.4387 413.5625 410.71994Q413.5625 411.1418 413.875 411.42307Q414.20312 411.7043 414.8125 411.7043Q415.42188 411.7043 415.89062 411.4387Q416.375 411.17307 416.59375 410.7043Q416.76562 410.34494 416.76562 409.65744L416.76562 409.2668ZM419.76562 412.3918L419.76562 403.79807L420.82812 403.79807L420.82812 412.3918L419.76562 412.3918ZM432.0625 409.3762L433.1875 409.67307Q432.82812 411.0637 431.90625 411.79807Q430.98438 412.53244 429.64062 412.53244Q428.25 412.53244 427.375 411.96994Q426.5 411.40744 426.04688 410.34494Q425.59375 409.2668 425.59375 408.03244Q425.59375 406.6887 426.10938 405.6887Q426.625 404.6887 427.5625 404.17307Q428.51562 403.65744 429.65625 403.65744Q430.9375 403.65744 431.8125 404.3137Q432.70312 404.96994 433.04688 406.15744L431.92188 406.42307Q431.625 405.48557 431.04688 405.0637Q430.48438 404.6262 429.625 404.6262Q428.64062 404.6262 427.96875 405.11057Q427.3125 405.5793 427.03125 406.3762Q426.76562 407.17307 426.76562 408.03244Q426.76562 409.1262 427.07812 409.9387Q427.40625 410.7512 428.07812 411.15744Q428.75 411.5637 429.54688 411.5637Q430.5 411.5637 431.15625 411.0168Q431.82812 410.46994 432.0625 409.3762ZM438.85938 411.6262Q438.26562 412.1262 437.71875 412.3293Q437.1875 412.53244 436.5625 412.53244Q435.53125 412.53244 434.98438 412.03244Q434.4375 411.53244 434.4375 410.7512Q434.4375 410.29807 434.64062 409.92307Q434.84375 409.53244 435.1875 409.3137Q435.53125 409.0793 435.95312 408.96994Q436.25 408.8762 436.89062 408.79807Q438.15625 408.65744 438.76562 408.4387Q438.76562 408.21994 438.76562 408.17307Q438.76562 407.5168 438.46875 407.2512Q438.0625 406.90744 437.26562 406.90744Q436.53125 406.90744 436.17188 407.17307Q435.8125 407.42307 435.64062 408.0793L434.60938 407.9387Q434.75 407.28244 435.07812 406.8762Q435.40625 406.46994 436.01562 406.2512Q436.625 406.03244 437.42188 406.03244Q438.21875 406.03244 438.71875 406.21994Q439.21875 406.40744 439.45312 406.6887Q439.6875 406.96994 439.78125 407.40744Q439.82812 407.67307 439.82812 408.3762L439.82812 409.78244Q439.82812 411.2512 439.89062 411.6418Q439.96875 412.03244 440.17188 412.3918L439.0625 412.3918Q438.90625 412.0637 438.85938 411.6262ZM438.76562 409.2668Q438.1875 409.5012 437.04688 409.67307Q436.39062 409.7668 436.125 409.8918Q435.85938 410.0012 435.70312 410.21994Q435.5625 410.4387 435.5625 410.71994Q435.5625 411.1418 435.875 411.42307Q436.20312 411.7043 436.8125 411.7043Q437.42188 411.7043 437.89062 411.4387Q438.375 411.17307 438.59375 410.7043Q438.76562 410.34494 438.76562 409.65744L438.76562 409.2668ZM441.375 410.53244L442.40625 410.3762Q442.5 411.0012 442.89062 411.3293Q443.29688 411.65744 444.03125 411.65744Q444.75 411.65744 445.09375 411.3762Q445.45312 411.0793 445.45312 410.67307Q445.45312 410.3137 445.14062 410.11057Q444.92188 409.96994 444.0625 409.7512Q442.90625 409.4543 442.45312 409.2512Q442.01562 409.03244 441.78125 408.65744Q441.54688 408.28244 441.54688 407.8137Q441.54688 407.40744 441.73438 407.04807Q441.92188 406.6887 442.25 406.4543Q442.5 406.28244 442.92188 406.15744Q443.34375 406.03244 443.84375 406.03244Q444.5625 406.03244 445.10938 406.2512Q445.67188 406.4543 445.9375 406.8137Q446.20312 407.17307 446.29688 407.7668L445.26562 407.90744Q445.20312 407.4387 444.85938 407.17307Q444.53125 406.8918 443.90625 406.8918Q443.1875 406.8918 442.875 407.1418Q442.5625 407.3762 442.5625 407.7043Q442.5625 407.90744 442.6875 408.0637Q442.82812 408.23557 443.09375 408.34494Q443.25 408.40744 444.03125 408.61057Q445.15625 408.92307 445.59375 409.11057Q446.03125 409.29807 446.28125 409.65744Q446.53125 410.0168 446.53125 410.5637Q446.53125 411.09494 446.21875 411.5637Q445.92188 412.0168 445.34375 412.28244Q444.76562 412.53244 444.03125 412.53244Q442.8125 412.53244 442.17188 412.03244Q441.54688 411.5168 441.375 410.53244ZM452.04688 410.3918L453.14062 410.5168Q452.89062 411.46994 452.1875 412.0012Q451.48438 412.53244 450.40625 412.53244Q449.04688 412.53244 448.23438 411.6887Q447.4375 410.84494 447.4375 409.3293Q447.4375 407.7668 448.25 406.90744Q449.0625 406.03244 450.34375 406.03244Q451.59375 406.03244 452.375 406.8762Q453.17188 407.71994 453.17188 409.2668Q453.17188 409.36057 453.17188 409.54807L448.53125 409.54807Q448.59375 410.5793 449.10938 411.1262Q449.625 411.65744 450.40625 411.65744Q450.98438 411.65744 451.39062 411.36057Q451.8125 411.04807 452.04688 410.3918ZM448.59375 408.6887L452.0625 408.6887Q452.0 407.8918 451.67188 407.5012Q451.15625 406.8918 450.35938 406.8918Q449.625 406.8918 449.125 407.3762Q448.64062 407.86057 448.59375 408.6887ZM454.375 410.53244L455.40625 410.3762Q455.5 411.0012 455.89062 411.3293Q456.29688 411.65744 457.03125 411.65744Q457.75 411.65744 458.09375 411.3762Q458.45312 411.0793 458.45312 410.67307Q458.45312 410.3137 458.14062 410.11057Q457.92188 409.96994 457.0625 409.7512Q455.90625 409.4543 455.45312 409.2512Q455.01562 409.03244 454.78125 408.65744Q454.54688 408.28244 454.54688 407.8137Q454.54688 407.40744 454.73438 407.04807Q454.92188 406.6887 455.25 406.4543Q455.5 406.28244 455.92188 406.15744Q456.34375 406.03244 456.84375 406.03244Q457.5625 406.03244 458.10938 406.2512Q458.67188 406.4543 458.9375 406.8137Q459.20312 407.17307 459.29688 407.7668L458.26562 407.90744Q458.20312 407.4387 457.85938 407.17307Q457.53125 406.8918 456.90625 406.8918Q456.1875 406.8918 455.875 407.1418Q455.5625 407.3762 455.5625 407.7043Q455.5625 407.90744 455.6875 408.0637Q455.82812 408.23557 456.09375 408.34494Q456.25 408.40744 457.03125 408.61057Q458.15625 408.92307 458.59375 409.11057Q459.03125 409.29807 459.28125 409.65744Q459.53125 410.0168 459.53125 410.5637Q459.53125 411.09494 459.21875 411.5637Q458.92188 412.0168 458.34375 412.28244Q457.76562 412.53244 457.03125 412.53244Q455.8125 412.53244 455.17188 412.03244Q454.54688 411.5168 454.375 410.53244Z" fill-rule="nonzero"/><path fill="#757575" d="M217.34581 34.818584L219.23643 35.287334Q218.64268 37.631084 217.09581 38.86546Q215.54893 40.08421 213.29893 40.08421Q210.98643 40.08421 209.53331 39.14671Q208.09581 38.193584 207.33018 36.412334Q206.58018 34.61546 206.58018 32.568584Q206.58018 30.33421 207.42393 28.67796Q208.28331 27.006084 209.86143 26.14671Q211.43956 25.27171 213.33018 25.27171Q215.48643 25.27171 216.93956 26.36546Q218.40831 27.45921 218.98643 29.443584L217.12706 29.881084Q216.62706 28.318584 215.67393 27.61546Q214.73643 26.89671 213.29893 26.89671Q211.64268 26.89671 210.53331 27.693584Q209.42393 28.474834 208.97081 29.818584Q208.53331 31.14671 208.53331 32.55296Q208.53331 34.381084 209.06456 35.756084Q209.59581 37.11546 210.72081 37.787334Q211.84581 38.45921 213.14268 38.45921Q214.73643 38.45921 215.84581 37.537334Q216.95518 36.61546 217.34581 34.818584ZM227.67393 38.55296Q226.68956 39.381084 225.78331 39.724834Q224.87706 40.068584 223.84581 40.068584Q222.14268 40.068584 221.22081 39.24046Q220.29893 38.39671 220.29893 37.099834Q220.29893 36.33421 220.64268 35.70921Q221.00206 35.08421 221.56456 34.70921Q222.12706 34.318584 222.83018 34.11546Q223.34581 33.99046 224.39268 33.849834Q226.51768 33.599834 227.51768 33.256084Q227.53331 32.89671 227.53331 32.787334Q227.53331 31.724834 227.03331 31.27171Q226.36143 30.67796 225.03331 30.67796Q223.78331 30.67796 223.18956 31.11546Q222.61143 31.55296 222.33018 32.662334L220.61143 32.42796Q220.84581 31.318584 221.37706 30.64671Q221.90831 29.95921 222.92393 29.599834Q223.93956 29.224834 225.28331 29.224834Q226.61143 29.224834 227.43956 29.537334Q228.26768 29.849834 228.65831 30.33421Q229.04893 30.80296 229.20518 31.52171Q229.29893 31.974834 229.29893 33.14671L229.29893 35.49046Q229.29893 37.943584 229.40831 38.599834Q229.51768 39.24046 229.86143 39.83421L228.01768 39.83421Q227.75206 39.287334 227.67393 38.55296ZM227.51768 34.631084Q226.56456 35.02171 224.64268 35.287334Q223.56456 35.443584 223.11143 35.64671Q222.67393 35.83421 222.42393 36.20921Q222.17393 36.58421 222.17393 37.05296Q222.17393 37.756084 222.70518 38.224834Q223.23643 38.693584 224.26768 38.693584Q225.28331 38.693584 226.06456 38.256084Q226.86143 37.80296 227.23643 37.037334Q227.51768 36.42796 227.51768 35.27171L227.51768 34.631084ZM231.18956 36.74046L232.93956 36.45921Q233.08018 37.506084 233.75206 38.068584Q234.42393 38.61546 235.62706 38.61546Q236.83018 38.61546 237.40831 38.131084Q238.00206 37.631084 238.00206 36.974834Q238.00206 36.381084 237.48643 36.037334Q237.12706 35.80296 235.68956 35.443584Q233.75206 34.943584 233.00206 34.599834Q232.26768 34.24046 231.87706 33.61546Q231.48643 32.974834 231.48643 32.20921Q231.48643 31.52171 231.79893 30.92796Q232.12706 30.33421 232.67393 29.943584Q233.08018 29.64671 233.78331 29.443584Q234.50206 29.224834 235.31456 29.224834Q236.53331 29.224834 237.45518 29.58421Q238.37706 29.92796 238.81456 30.537334Q239.25206 31.131084 239.42393 32.131084L237.70518 32.36546Q237.58018 31.568584 237.01768 31.131084Q236.45518 30.67796 235.43956 30.67796Q234.22081 30.67796 233.70518 31.08421Q233.18956 31.474834 233.18956 32.006084Q233.18956 32.349834 233.40831 32.631084Q233.61143 32.912334 234.08018 33.099834Q234.34581 33.193584 235.62706 33.537334Q237.50206 34.037334 238.23643 34.36546Q238.97081 34.67796 239.39268 35.287334Q239.81456 35.881084 239.81456 36.787334Q239.81456 37.662334 239.29893 38.443584Q238.78331 39.224834 237.81456 39.64671Q236.84581 40.068584 235.62706 40.068584Q233.61143 40.068584 232.54893 39.224834Q231.48643 38.381084 231.18956 36.74046ZM249.00206 36.49046L250.81456 36.724834Q250.39268 38.30296 249.22081 39.193584Q248.06456 40.068584 246.25206 40.068584Q243.98643 40.068584 242.64268 38.67796Q241.31456 37.27171 241.31456 34.74046Q241.31456 32.11546 242.65831 30.67796Q244.00206 29.224834 246.15831 29.224834Q248.23643 29.224834 249.54893 30.64671Q250.87706 32.05296 250.87706 34.631084Q250.87706 34.787334 250.86143 35.099834L243.12706 35.099834Q243.22081 36.80296 244.09581 37.70921Q244.97081 38.61546 246.26768 38.61546Q247.23643 38.61546 247.90831 38.11546Q248.59581 37.599834 249.00206 36.49046ZM243.22081 33.64671L249.01768 33.64671Q248.90831 32.349834 248.36143 31.693584Q247.51768 30.67796 246.17393 30.67796Q244.97081 30.67796 244.14268 31.49046Q243.31456 32.287334 243.22081 33.64671ZM252.18956 36.74046L253.93956 36.45921Q254.08018 37.506084 254.75206 38.068584Q255.42393 38.61546 256.62708 38.61546Q257.8302 38.61546 258.40833 38.131084Q259.00208 37.631084 259.00208 36.974834Q259.00208 36.381084 258.48645 36.037334Q258.12708 35.80296 256.68958 35.443584Q254.75206 34.943584 254.00206 34.599834Q253.26768 34.24046 252.87706 33.61546Q252.48643 32.974834 252.48643 32.20921Q252.48643 31.52171 252.79893 30.92796Q253.12706 30.33421 253.67393 29.943584Q254.08018 29.64671 254.78331 29.443584Q255.50206 29.224834 256.31458 29.224834Q257.53333 29.224834 258.4552 29.58421Q259.37708 29.92796 259.81458 30.537334Q260.25208 31.131084 260.42395 32.131084L258.7052 32.36546Q258.5802 31.568584 258.0177 31.131084Q257.4552 30.67796 256.43958 30.67796Q255.22081 30.67796 254.70518 31.08421Q254.18956 31.474834 254.18956 32.006084Q254.18956 32.349834 254.40831 32.631084Q254.61143 32.912334 255.08018 33.099834Q255.34581 33.193584 256.62708 33.537334Q258.50208 34.037334 259.23645 34.36546Q259.97083 34.67796 260.3927 35.287334Q260.81458 35.881084 260.81458 36.787334Q260.81458 37.662334 260.29895 38.443584Q259.78333 39.224834 258.81458 39.64671Q257.84583 40.068584 256.62708 40.068584Q254.61143 40.068584 253.54893 39.224834Q252.48643 38.381084 252.18956 36.74046ZM279.34583 34.818584L281.23645 35.287334Q280.6427 37.631084 279.09583 38.86546Q277.54895 40.08421 275.29895 40.08421Q272.98645 40.08421 271.53333 39.14671Q270.09583 38.193584 269.3302 36.412334Q268.5802 34.61546 268.5802 32.568584Q268.5802 30.33421 269.42395 28.67796Q270.28333 27.006084 271.86145 26.14671Q273.43958 25.27171 275.3302 25.27171Q277.48645 25.27171 278.93958 26.36546Q280.40833 27.45921 280.98645 29.443584L279.12708 29.881084Q278.62708 28.318584 277.67395 27.61546Q276.73645 26.89671 275.29895 26.89671Q273.6427 26.89671 272.53333 27.693584Q271.42395 28.474834 270.97083 29.818584Q270.53333 31.14671 270.53333 32.55296Q270.53333 34.381084 271.06458 35.756084Q271.59583 37.11546 272.72083 37.787334Q273.84583 38.45921 275.1427 38.45921Q276.73645 38.45921 277.84583 37.537334Q278.9552 36.61546 279.34583 34.818584ZM282.25208 34.64671Q282.25208 31.77171 283.84583 30.381084Q285.18958 29.224834 287.11145 29.224834Q289.25208 29.224834 290.59583 30.631084Q291.9552 32.037334 291.9552 34.506084Q291.9552 36.506084 291.36145 37.662334Q290.7677 38.80296 289.61145 39.443584Q288.47083 40.068584 287.11145 40.068584Q284.92395 40.068584 283.5802 38.67796Q282.25208 37.27171 282.25208 34.64671ZM284.04895 34.64671Q284.04895 36.64671 284.90833 37.631084Q285.78333 38.61546 287.11145 38.61546Q288.42395 38.61546 289.28333 37.631084Q290.15833 36.631084 290.15833 34.58421Q290.15833 32.662334 289.28333 31.67796Q288.40833 30.67796 287.11145 30.67796Q285.78333 30.67796 284.90833 31.67796Q284.04895 32.662334 284.04895 34.64671ZM293.8927 39.83421L293.8927 29.45921L295.48645 29.45921L295.48645 30.943584Q296.62708 29.224834 298.78333 29.224834Q299.72083 29.224834 300.50208 29.568584Q301.29895 29.89671 301.68958 30.443584Q302.0802 30.99046 302.23645 31.74046Q302.3302 32.24046 302.3302 33.45921L302.3302 39.83421L300.56458 39.83421L300.56458 33.52171Q300.56458 32.443584 300.36145 31.912334Q300.15833 31.381084 299.62708 31.068584Q299.11145 30.756084 298.40833 30.756084Q297.28333 30.756084 296.47083 31.474834Q295.65833 32.17796 295.65833 34.162334L295.65833 39.83421L293.8927 39.83421ZM308.73645 38.256084L308.98645 39.818584Q308.25208 39.974834 307.65833 39.974834Q306.7052 39.974834 306.17395 39.67796Q305.65833 39.36546 305.43958 38.881084Q305.22083 38.381084 305.22083 36.80296L305.22083 30.83421L303.93958 30.83421L303.93958 29.45921L305.22083 29.45921L305.22083 26.89671L306.97083 25.83421L306.97083 29.45921L308.73645 29.45921L308.73645 30.83421L306.97083 30.83421L306.97083 36.89671Q306.97083 37.64671 307.06458 37.86546Q307.15833 38.068584 307.36145 38.20921Q307.5802 38.33421 307.97083 38.33421Q308.25208 38.33421 308.73645 38.256084ZM318.00208 36.49046L319.81458 36.724834Q319.3927 38.30296 318.22083 39.193584Q317.06458 40.068584 315.25208 40.068584Q312.98645 40.068584 311.6427 38.67796Q310.31458 37.27171 310.31458 34.74046Q310.31458 32.11546 311.65833 30.67796Q313.00208 29.224834 315.15833 29.224834Q317.23645 29.224834 318.54895 30.64671Q319.87708 32.05296 319.87708 34.631084Q319.87708 34.787334 319.86145 35.099834L312.12708 35.099834Q312.22083 36.80296 313.09583 37.70921Q313.97083 38.61546 315.2677 38.61546Q316.23645 38.61546 316.90833 38.11546Q317.59583 37.599834 318.00208 36.49046ZM312.22083 33.64671L318.0177 33.64671Q317.90833 32.349834 317.36145 31.693584Q316.5177 30.67796 315.17395 30.67796Q313.97083 30.67796 313.1427 31.49046Q312.31458 32.287334 312.22083 33.64671ZM321.18958 36.74046L322.93958 36.45921Q323.0802 37.506084 323.75208 38.068584Q324.42395 38.61546 325.62708 38.61546Q326.8302 38.61546 327.40833 38.131084Q328.00208 37.631084 328.00208 36.974834Q328.00208 36.381084 327.48645 36.037334Q327.12708 35.80296 325.68958 35.443584Q323.75208 34.943584 323.00208 34.599834Q322.2677 34.24046 321.87708 33.61546Q321.48645 32.974834 321.48645 32.20921Q321.48645 31.52171 321.79895 30.92796Q322.12708 30.33421 322.67395 29.943584Q323.0802 29.64671 323.78333 29.443584Q324.50208 29.224834 325.31458 29.224834Q326.53333 29.224834 327.4552 29.58421Q328.37708 29.92796 328.81458 30.537334Q329.25208 31.131084 329.42395 32.131084L327.7052 32.36546Q327.5802 31.568584 327.0177 31.131084Q326.4552 30.67796 325.43958 30.67796Q324.22083 30.67796 323.7052 31.08421Q323.18958 31.474834 323.18958 32.006084Q323.18958 32.349834 323.40833 32.631084Q323.61145 32.912334 324.0802 33.099834Q324.34583 33.193584 325.62708 33.537334Q327.50208 34.037334 328.23645 34.36546Q328.97083 34.67796 329.3927 35.287334Q329.81458 35.881084 329.81458 36.787334Q329.81458 37.662334 329.29895 38.443584Q328.78333 39.224834 327.81458 39.64671Q326.84583 40.068584 325.62708 40.068584Q323.61145 40.068584 322.54895 39.224834Q321.48645 38.381084 321.18958 36.74046ZM335.73645 38.256084L335.98645 39.818584Q335.25208 39.974834 334.65833 39.974834Q333.7052 39.974834 333.17395 39.67796Q332.65833 39.36546 332.43958 38.881084Q332.22083 38.381084 332.22083 36.80296L332.22083 30.83421L330.93958 30.83421L330.93958 29.45921L332.22083 29.45921L332.22083 26.89671L333.97083 25.83421L333.97083 29.45921L335.73645 29.45921L335.73645 30.83421L333.97083 30.83421L333.97083 36.89671Q333.97083 37.64671 334.06458 37.86546Q334.15833 38.068584 334.36145 38.20921Q334.5802 38.33421 334.97083 38.33421Q335.25208 38.33421 335.73645 38.256084ZM345.00208 36.49046L346.81458 36.724834Q346.3927 38.30296 345.22083 39.193584Q344.06458 40.068584 342.25208 40.068584Q339.98645 40.068584 338.6427 38.67796Q337.31458 37.27171 337.31458 34.74046Q337.31458 32.11546 338.65833 30.67796Q340.00208 29.224834 342.15833 29.224834Q344.23645 29.224834 345.54895 30.64671Q346.87708 32.05296 346.87708 34.631084Q346.87708 34.787334 346.86145 35.099834L339.12708 35.099834Q339.22083 36.80296 340.09583 37.70921Q340.97083 38.61546 342.2677 38.61546Q343.23645 38.61546 343.90833 38.11546Q344.59583 37.599834 345.00208 36.49046ZM339.22083 33.64671L345.0177 33.64671Q344.90833 32.349834 344.36145 31.693584Q343.5177 30.67796 342.17395 30.67796Q340.97083 30.67796 340.1427 31.49046Q339.31458 32.287334 339.22083 33.64671ZM355.62708 39.83421L355.62708 38.52171Q354.6427 40.068584 352.72083 40.068584Q351.48645 40.068584 350.43958 39.381084Q349.40833 38.693584 348.8302 37.474834Q348.2677 36.256084 348.2677 34.662334Q348.2677 33.099834 348.78333 31.83421Q349.29895 30.568584 350.3302 29.89671Q351.37708 29.224834 352.6427 29.224834Q353.5802 29.224834 354.31458 29.631084Q355.04895 30.02171 355.5177 30.64671L355.5177 25.52171L357.25208 25.52171L357.25208 39.83421L355.62708 39.83421ZM350.06458 34.662334Q350.06458 36.64671 350.90833 37.631084Q351.75208 38.61546 352.8927 38.61546Q354.04895 38.61546 354.84583 37.67796Q355.65833 36.74046 355.65833 34.80296Q355.65833 32.67796 354.8302 31.67796Q354.0177 30.67796 352.81458 30.67796Q351.6427 30.67796 350.84583 31.64671Q350.06458 32.599834 350.06458 34.662334ZM370.22083 39.83421L364.67395 25.52171L366.72083 25.52171L370.43958 35.912334Q370.8927 37.162334 371.18958 38.256084Q371.5177 37.08421 371.97083 35.912334L375.8302 25.52171L377.7677 25.52171L372.15833 39.83421L370.22083 39.83421ZM378.18958 36.74046L379.93958 36.45921Q380.0802 37.506084 380.75208 38.068584Q381.42395 38.61546 382.62708 38.61546Q383.8302 38.61546 384.40833 38.131084Q385.00208 37.631084 385.00208 36.974834Q385.00208 36.381084 384.48645 36.037334Q384.12708 35.80296 382.68958 35.443584Q380.75208 34.943584 380.00208 34.599834Q379.2677 34.24046 378.87708 33.61546Q378.48645 32.974834 378.48645 32.20921Q378.48645 31.52171 378.79895 30.92796Q379.12708 30.33421 379.67395 29.943584Q380.0802 29.64671 380.78333 29.443584Q381.50208 29.224834 382.31458 29.224834Q383.53333 29.224834 384.4552 29.58421Q385.37708 29.92796 385.81458 30.537334Q386.25208 31.131084 386.42395 32.131084L384.7052 32.36546Q384.5802 31.568584 384.0177 31.131084Q383.4552 30.67796 382.43958 30.67796Q381.22083 30.67796 380.7052 31.08421Q380.18958 31.474834 380.18958 32.006084Q380.18958 32.349834 380.40833 32.631084Q380.61145 32.912334 381.0802 33.099834Q381.34583 33.193584 382.62708 33.537334Q384.50208 34.037334 385.23645 34.36546Q385.97083 34.67796 386.3927 35.287334Q386.81458 35.881084 386.81458 36.787334Q386.81458 37.662334 386.29895 38.443584Q385.78333 39.224834 384.81458 39.64671Q383.84583 40.068584 382.62708 40.068584Q380.61145 40.068584 379.54895 39.224834Q378.48645 38.381084 378.18958 36.74046ZM398.7677 39.83421L398.7677 27.20921L394.04895 27.20921L394.04895 25.52171L405.3927 25.52171L405.3927 27.20921L400.65833 27.20921L400.65833 39.83421L398.7677 39.83421ZM406.25208 34.64671Q406.25208 31.77171 407.84583 30.381084Q409.18958 29.224834 411.11145 29.224834Q413.25208 29.224834 414.59583 30.631084Q415.9552 32.037334 415.9552 34.506084Q415.9552 36.506084 415.36145 37.662334Q414.7677 38.80296 413.61145 39.443584Q412.47083 40.068584 411.11145 40.068584Q408.92395 40.068584 407.5802 38.67796Q406.25208 37.27171 406.25208 34.64671ZM408.04895 34.64671Q408.04895 36.64671 408.90833 37.631084Q409.78333 38.61546 411.11145 38.61546Q412.42395 38.61546 413.28333 37.631084Q414.15833 36.631084 414.15833 34.58421Q414.15833 32.662334 413.28333 31.67796Q412.40833 30.67796 411.11145 30.67796Q409.78333 30.67796 408.90833 31.67796Q408.04895 32.662334 408.04895 34.64671ZM421.73645 38.256084L421.98645 39.818584Q421.25208 39.974834 420.65833 39.974834Q419.7052 39.974834 419.17395 39.67796Q418.65833 39.36546 418.43958 38.881084Q418.22083 38.381084 418.22083 36.80296L418.22083 30.83421L416.93958 30.83421L416.93958 29.45921L418.22083 29.45921L418.22083 26.89671L419.97083 25.83421L419.97083 29.45921L421.73645 29.45921L421.73645 30.83421L419.97083 30.83421L419.97083 36.89671Q419.97083 37.64671 420.06458 37.86546Q420.15833 38.068584 420.36145 38.20921Q420.5802 38.33421 420.97083 38.33421Q421.25208 38.33421 421.73645 38.256084ZM430.67395 38.55296Q429.68958 39.381084 428.78333 39.724834Q427.87708 40.068584 426.84583 40.068584Q425.1427 40.068584 424.22083 39.24046Q423.29895 38.39671 423.29895 37.099834Q423.29895 36.33421 423.6427 35.70921Q424.00208 35.08421 424.56458 34.70921Q425.12708 34.318584 425.8302 34.11546Q426.34583 33.99046 427.3927 33.849834Q429.5177 33.599834 430.5177 33.256084Q430.53333 32.89671 430.53333 32.787334Q430.53333 31.724834 430.03333 31.27171Q429.36145 30.67796 428.03333 30.67796Q426.78333 30.67796 426.18958 31.11546Q425.61145 31.55296 425.3302 32.662334L423.61145 32.42796Q423.84583 31.318584 424.37708 30.64671Q424.90833 29.95921 425.92395 29.599834Q426.93958 29.224834 428.28333 29.224834Q429.61145 29.224834 430.43958 29.537334Q431.2677 29.849834 431.65833 30.33421Q432.04895 30.80296 432.2052 31.52171Q432.29895 31.974834 432.29895 33.14671L432.29895 35.49046Q432.29895 37.943584 432.40833 38.599834Q432.5177 39.24046 432.86145 39.83421L431.0177 39.83421Q430.75208 39.287334 430.67395 38.55296ZM430.5177 34.631084Q429.56458 35.02171 427.6427 35.287334Q426.56458 35.443584 426.11145 35.64671Q425.67395 35.83421 425.42395 36.20921Q425.17395 36.58421 425.17395 37.05296Q425.17395 37.756084 425.7052 38.224834Q426.23645 38.693584 427.2677 38.693584Q428.28333 38.693584 429.06458 38.256084Q429.86145 37.80296 430.23645 37.037334Q430.5177 36.42796 430.5177 35.27171L430.5177 34.631084ZM434.86145 39.83421L434.86145 25.52171L436.61145 25.52171L436.61145 39.83421L434.86145 39.83421ZM455.34583 34.818584L457.23645 35.287334Q456.6427 37.631084 455.09583 38.86546Q453.54895 40.08421 451.29895 40.08421Q448.98645 40.08421 447.53333 39.14671Q446.09583 38.193584 445.3302 36.412334Q444.5802 34.61546 444.5802 32.568584Q444.5802 30.33421 445.42395 28.67796Q446.28333 27.006084 447.86145 26.14671Q449.43958 25.27171 451.3302 25.27171Q453.48645 25.27171 454.93958 26.36546Q456.40833 27.45921 456.98645 29.443584L455.12708 29.881084Q454.62708 28.318584 453.67395 27.61546Q452.73645 26.89671 451.29895 26.89671Q449.6427 26.89671 448.53333 27.693584Q447.42395 28.474834 446.97083 29.818584Q446.53333 31.14671 446.53333 32.55296Q446.53333 34.381084 447.06458 35.756084Q447.59583 37.11546 448.72083 37.787334Q449.84583 38.45921 451.1427 38.45921Q452.73645 38.45921 453.84583 37.537334Q454.9552 36.61546 455.34583 34.818584ZM465.67395 38.55296Q464.68958 39.381084 463.78333 39.724834Q462.87708 40.068584 461.84583 40.068584Q460.1427 40.068584 459.22083 39.24046Q458.29895 38.39671 458.29895 37.099834Q458.29895 36.33421 458.6427 35.70921Q459.00208 35.08421 459.56458 34.70921Q460.12708 34.318584 460.8302 34.11546Q461.34583 33.99046 462.3927 33.849834Q464.5177 33.599834 465.5177 33.256084Q465.53333 32.89671 465.53333 32.787334Q465.53333 31.724834 465.03333 31.27171Q464.36145 30.67796 463.03333 30.67796Q461.78333 30.67796 461.18958 31.11546Q460.61145 31.55296 460.3302 32.662334L458.61145 32.42796Q458.84583 31.318584 459.37708 30.64671Q459.90833 29.95921 460.92395 29.599834Q461.93958 29.224834 463.28333 29.224834Q464.61145 29.224834 465.43958 29.537334Q466.2677 29.849834 466.65833 30.33421Q467.04895 30.80296 467.2052 31.52171Q467.29895 31.974834 467.29895 33.14671L467.29895 35.49046Q467.29895 37.943584 467.40833 38.599834Q467.5177 39.24046 467.86145 39.83421L466.0177 39.83421Q465.75208 39.287334 465.67395 38.55296ZM465.5177 34.631084Q464.56458 35.02171 462.6427 35.287334Q461.56458 35.443584 461.11145 35.64671Q460.67395 35.83421 460.42395 36.20921Q460.17395 36.58421 460.17395 37.05296Q460.17395 37.756084 460.7052 38.224834Q461.23645 38.693584 462.2677 38.693584Q463.28333 38.693584 464.06458 38.256084Q464.86145 37.80296 465.23645 37.037334Q465.5177 36.42796 465.5177 35.27171L465.5177 34.631084ZM469.18958 36.74046L470.93958 36.45921Q471.0802 37.506084 471.75208 38.068584Q472.42395 38.61546 473.62708 38.61546Q474.8302 38.61546 475.40833 38.131084Q476.00208 37.631084 476.00208 36.974834Q476.00208 36.381084 475.48645 36.037334Q475.12708 35.80296 473.68958 35.443584Q471.75208 34.943584 471.00208 34.599834Q470.2677 34.24046 469.87708 33.61546Q469.48645 32.974834 469.48645 32.20921Q469.48645 31.52171 469.79895 30.92796Q470.12708 30.33421 470.67395 29.943584Q471.0802 29.64671 471.78333 29.443584Q472.50208 29.224834 473.31458 29.224834Q474.53333 29.224834 475.4552 29.58421Q476.37708 29.92796 476.81458 30.537334Q477.25208 31.131084 477.42395 32.131084L475.7052 32.36546Q475.5802 31.568584 475.0177 31.131084Q474.4552 30.67796 473.43958 30.67796Q472.22083 30.67796 471.7052 31.08421Q471.18958 31.474834 471.18958 32.006084Q471.18958 32.349834 471.40833 32.631084Q471.61145 32.912334 472.0802 33.099834Q472.34583 33.193584 473.62708 33.537334Q475.50208 34.037334 476.23645 34.36546Q476.97083 34.67796 477.3927 35.287334Q477.81458 35.881084 477.81458 36.787334Q477.81458 37.662334 477.29895 38.443584Q476.78333 39.224834 475.81458 39.64671Q474.84583 40.068584 473.62708 40.068584Q471.61145 40.068584 470.54895 39.224834Q469.48645 38.381084 469.18958 36.74046ZM487.00208 36.49046L488.81458 36.724834Q488.3927 38.30296 487.22083 39.193584Q486.06458 40.068584 484.25208 40.068584Q481.98645 40.068584 480.6427 38.67796Q479.31458 37.27171 479.31458 34.74046Q479.31458 32.11546 480.65833 30.67796Q482.00208 29.224834 484.15833 29.224834Q486.23645 29.224834 487.54895 30.64671Q488.87708 32.05296 488.87708 34.631084Q488.87708 34.787334 488.86145 35.099834L481.12708 35.099834Q481.22083 36.80296 482.09583 37.70921Q482.97083 38.61546 484.2677 38.61546Q485.23645 38.61546 485.90833 38.11546Q486.59583 37.599834 487.00208 36.49046ZM481.22083 33.64671L487.0177 33.64671Q486.90833 32.349834 486.36145 31.693584Q485.5177 30.67796 484.17395 30.67796Q482.97083 30.67796 482.1427 31.49046Q481.31458 32.287334 481.22083 33.64671ZM490.18958 36.74046L491.93958 36.45921Q492.0802 37.506084 492.75208 38.068584Q493.42395 38.61546 494.62708 38.61546Q495.8302 38.61546 496.40833 38.131084Q497.00208 37.631084 497.00208 36.974834Q497.00208 36.381084 496.48645 36.037334Q496.12708 35.80296 494.68958 35.443584Q492.75208 34.943584 492.00208 34.599834Q491.2677 34.24046 490.87708 33.61546Q490.48645 32.974834 490.48645 32.20921Q490.48645 31.52171 490.79895 30.92796Q491.12708 30.33421 491.67395 29.943584Q492.0802 29.64671 492.78333 29.443584Q493.50208 29.224834 494.31458 29.224834Q495.53333 29.224834 496.4552 29.58421Q497.37708 29.92796 497.81458 30.537334Q498.25208 31.131084 498.42395 32.131084L496.7052 32.36546Q496.5802 31.568584 496.0177 31.131084Q495.4552 30.67796 494.43958 30.67796Q493.22083 30.67796 492.7052 31.08421Q492.18958 31.474834 492.18958 32.006084Q492.18958 32.349834 492.40833 32.631084Q492.61145 32.912334 493.0802 33.099834Q493.34583 33.193584 494.62708 33.537334Q496.50208 34.037334 497.23645 34.36546Q497.97083 34.67796 498.3927 35.287334Q498.81458 35.881084 498.81458 36.787334Q498.81458 37.662334 498.29895 38.443584Q497.78333 39.224834 496.81458 39.64671Q495.84583 40.068584 494.62708 40.068584Q492.61145 40.068584 491.54895 39.224834Q490.48645 38.381084 490.18958 36.74046Z" fill-rule="nonzero"/></svg>