<svg version="1.1" viewBox="0.0 0.0 705.0 442.0" fill="none" stroke="none" stroke-linecap="square" stroke-miterlimit="10" width="705" height="442" xmlns:xlink="http://www.w3.org/1999/xlink" xmlns="http://www.w3.org/2000/svg"><path fill="#ffffff" d="M0 0L705.0 0L705.0 442.0L0 442.0L0 0Z" fill-rule="nonzero"/><path fill="#fca311" d="M346.35583 374.37933C261.18658 371.03305 194.35669 300.14584 196.03017 214.92732C197.70364 129.7088 267.26505 61.5 352.5 61.5L352.5 139.75C309.8825 139.75 275.10184 173.8544 274.26508 216.46367C273.42834 259.07294 306.8433 294.5165 349.42792 296.18967Z" fill-rule="nonzero"/><path fill="#14213d" d="M391.61746 62.26817C448.26205 62.26817 500.48532 92.87676 528.1631 142.29895C555.8408 191.72113 554.65234 252.24173 525.05566 300.53918C495.45892 348.83664 442.07422 377.37137 385.4733 375.14752L388.54538 296.95786C416.84586 298.06976 443.53818 283.8024 458.33655 259.6537C473.13492 235.50496 473.72916 205.24464 459.89026 180.53355C446.0514 155.82246 419.93976 140.51817 391.61746 140.51817Z" fill-rule="nonzero"/><path fill="#ffffff" d="M490.874 223.47371L492.17087 223.36433Q492.3115 224.30183 492.82712 224.78621Q493.35837 225.25496 494.09274 225.25496Q494.98337 225.25496 495.59274 224.58308Q496.21774 223.91121 496.21774 222.81746Q496.21774 221.75496 495.624 221.14558Q495.03024 220.53621 494.07712 220.53621Q493.48337 220.53621 492.999 220.81746Q492.53024 221.08308 492.249 221.50496L491.09274 221.36433L492.0615 216.20808L497.04587 216.20808L497.04587 217.39558L493.04587 217.39558L492.51462 220.08308Q493.42087 219.45808 494.40524 219.45808Q495.71774 219.45808 496.60837 220.36433Q497.51462 221.27058 497.51462 222.70808Q497.51462 224.06746 496.73337 225.05183Q495.76462 226.27058 494.09274 226.27058Q492.73337 226.27058 491.85837 225.50496Q490.999 224.73933 490.874 223.47371ZM498.874 221.16121Q498.874 219.37996 499.23337 218.30183Q499.60837 217.20808 500.32712 216.62996Q501.04587 216.03621 502.13962 216.03621Q502.95212 216.03621 503.5615 216.36433Q504.17087 216.69246 504.5615 217.30183Q504.96774 217.91121 505.1865 218.78621Q505.40524 219.66121 505.40524 221.16121Q505.40524 222.92683 505.04587 224.00496Q504.6865 225.08308 503.96774 225.67683Q503.249 226.27058 502.13962 226.27058Q500.70212 226.27058 499.874 225.22371Q498.874 223.97371 498.874 221.16121ZM500.13962 221.16121Q500.13962 223.62996 500.71774 224.44246Q501.29587 225.25496 502.13962 225.25496Q502.999 225.25496 503.57712 224.44246Q504.15524 223.61433 504.15524 221.16121Q504.15524 218.67683 503.57712 217.86433Q502.999 217.05183 502.124 217.05183Q501.28024 217.05183 500.78024 217.77058Q500.13962 218.69246 500.13962 221.16121ZM507.5615 226.09871L507.5615 224.69246L508.96774 224.69246L508.96774 226.09871L507.5615 226.09871ZM517.26465 218.53621L516.0459 218.62996Q515.874 217.89558 515.57715 217.56746Q515.07715 217.05183 514.3428 217.05183Q513.749 217.05183 513.3115 217.37996Q512.7334 217.80183 512.38965 218.61433Q512.0615 219.42683 512.0459 220.92683Q512.4834 220.25496 513.124 219.92683Q513.7803 219.59871 514.4834 219.59871Q515.7178 219.59871 516.57715 220.50496Q517.4365 221.41121 517.4365 222.84871Q517.4365 223.78621 517.0303 224.59871Q516.624 225.41121 515.9053 225.84871Q515.20215 226.27058 514.2959 226.27058Q512.76465 226.27058 511.79587 225.14558Q510.82712 224.00496 510.82712 221.41121Q510.82712 218.50496 511.88962 217.17683Q512.82715 216.03621 514.4209 216.03621Q515.6084 216.03621 516.3584 216.70808Q517.1084 217.36433 517.26465 218.53621ZM512.2334 222.84871Q512.2334 223.48933 512.499 224.06746Q512.7803 224.64558 513.26465 224.95808Q513.749 225.25496 514.2803 225.25496Q515.0615 225.25496 515.624 224.62996Q516.1865 224.00496 516.1865 222.92683Q516.1865 221.87996 515.624 221.28621Q515.07715 220.67683 514.2334 220.67683Q513.4053 220.67683 512.8115 221.28621Q512.2334 221.87996 512.2334 222.84871ZM519.1084 218.48933Q519.1084 217.41121 519.63965 216.66121Q520.1865 215.91121 521.2178 215.91121Q522.1553 215.91121 522.76465 216.58308Q523.38965 217.25496 523.38965 218.55183Q523.38965 219.83308 522.76465 220.52058Q522.13965 221.20808 521.2334 221.20808Q520.32715 221.20808 519.7178 220.53621Q519.1084 219.84871 519.1084 218.48933ZM521.249 216.75496Q520.7959 216.75496 520.4834 217.16121Q520.1865 217.55183 520.1865 218.59871Q520.1865 219.56746 520.4834 219.95808Q520.7959 220.34871 521.249 220.34871Q521.7178 220.34871 522.01465 219.95808Q522.32715 219.56746 522.32715 218.50496Q522.32715 217.53621 522.01465 217.14558Q521.70215 216.75496 521.249 216.75496ZM521.249 226.47371L526.7334 215.91121L527.7334 215.91121L522.2803 226.47371L521.249 226.47371ZM525.5928 223.73933Q525.5928 222.66121 526.124 221.92683Q526.6709 221.17683 527.70215 221.17683Q528.63965 221.17683 529.26465 221.84871Q529.88965 222.52058 529.88965 223.81746Q529.88965 225.09871 529.26465 225.78621Q528.63965 226.47371 527.70215 226.47371Q526.7959 226.47371 526.1865 225.80183Q525.5928 225.11433 525.5928 223.73933ZM527.7334 222.02058Q527.26465 222.02058 526.9678 222.42683Q526.6709 222.81746 526.6709 223.86433Q526.6709 224.83308 526.9678 225.22371Q527.2803 225.61433 527.7334 225.61433Q528.20215 225.61433 528.499 225.22371Q528.8115 224.83308 528.8115 223.77058Q528.8115 222.80183 528.499 222.41121Q528.20215 222.02058 527.7334 222.02058Z" fill-rule="nonzero"/><path fill="#ffffff" d="M200.77263 220.6955L200.77263 211.85175L197.47575 211.85175L197.47575 210.67987L205.41325 210.67987L205.41325 211.85175L202.10075 211.85175L202.10075 220.6955L200.77263 220.6955ZM206.61638 217.0705Q206.61638 215.05487 207.74138 214.0705Q208.66325 213.27362 210.02263 213.27362Q211.507 213.27362 212.46013 214.258Q213.41325 215.22675 213.41325 216.96112Q213.41325 218.36737 212.99138 219.17987Q212.5695 219.97675 211.757 220.42987Q210.96013 220.86737 210.02263 220.86737Q208.49138 220.86737 207.55388 219.883Q206.61638 218.89862 206.61638 217.0705ZM207.882 217.0705Q207.882 218.46112 208.49138 219.16425Q209.10075 219.85175 210.02263 219.85175Q210.92888 219.85175 211.53825 219.14862Q212.14763 218.4455 212.14763 217.02362Q212.14763 215.67987 211.53825 214.99237Q210.92888 214.28925 210.02263 214.28925Q209.10075 214.28925 208.49138 214.97675Q207.882 215.66425 207.882 217.0705ZM217.757 219.60175L217.92888 220.67987Q217.41325 220.78925 217.007 220.78925Q216.33513 220.78925 215.96013 220.58612Q215.60075 220.36737 215.4445 220.02362Q215.30388 219.67987 215.30388 218.5705L215.30388 214.39862L214.39763 214.39862L214.39763 213.42987L215.30388 213.42987L215.30388 211.633L216.52263 210.89862L216.52263 213.42987L217.757 213.42987L217.757 214.39862L216.52263 214.39862L216.52263 218.633Q216.52263 219.16425 216.58513 219.3205Q216.64763 219.46112 216.78825 219.55487Q216.9445 219.64862 217.21013 219.64862Q217.42888 219.64862 217.757 219.60175ZM223.80388 219.80487Q223.132 220.383 222.49138 220.633Q221.86638 220.86737 221.132 220.86737Q219.9445 220.86737 219.28825 220.28925Q218.64763 219.6955 218.64763 218.77362Q218.64763 218.24237 218.882 217.80487Q219.132 217.36737 219.52263 217.10175Q219.92888 216.83612 220.41325 216.6955Q220.77263 216.60175 221.507 216.508Q223.007 216.33612 223.71013 216.08612Q223.71013 215.83612 223.71013 215.77362Q223.71013 215.008 223.36638 214.71112Q222.89763 214.28925 221.96013 214.28925Q221.10075 214.28925 220.67888 214.60175Q220.27263 214.89862 220.0695 215.66425L218.86638 215.508Q219.02263 214.72675 219.39763 214.258Q219.78825 213.78925 220.49138 213.53925Q221.21013 213.27362 222.14763 213.27362Q223.0695 213.27362 223.64763 213.49237Q224.22575 213.71112 224.49138 214.03925Q224.77263 214.36737 224.882 214.883Q224.9445 215.1955 224.9445 216.008L224.9445 217.64862Q224.9445 219.36737 225.02263 219.8205Q225.10075 220.27362 225.33513 220.6955L224.05388 220.6955Q223.86638 220.30487 223.80388 219.80487ZM223.71013 217.05487Q223.03825 217.3205 221.6945 217.52362Q220.9445 217.633 220.61638 217.77362Q220.30388 217.89862 220.132 218.16425Q219.96013 218.42987 219.96013 218.74237Q219.96013 219.24237 220.33513 219.5705Q220.71013 219.89862 221.42888 219.89862Q222.14763 219.89862 222.6945 219.58612Q223.24138 219.27362 223.507 218.72675Q223.71013 218.3205 223.71013 217.508L223.71013 217.05487ZM227.03825 220.6955L227.03825 210.67987L228.27263 210.67987L228.27263 220.6955L227.03825 220.6955ZM241.382 217.17987L242.71013 217.52362Q242.28825 219.14862 241.1945 220.008Q240.11638 220.86737 238.55388 220.86737Q236.92888 220.86737 235.91325 220.21112Q234.89763 219.53925 234.36638 218.28925Q233.85075 217.03925 233.85075 215.60175Q233.85075 214.03925 234.4445 212.883Q235.03825 211.71112 236.14763 211.11737Q237.257 210.508 238.5695 210.508Q240.08513 210.508 241.10075 211.27362Q242.132 212.03925 242.53825 213.41425L241.22575 213.72675Q240.882 212.633 240.21013 212.133Q239.55388 211.633 238.55388 211.633Q237.39763 211.633 236.61638 212.1955Q235.83513 212.74237 235.52263 213.67987Q235.21013 214.61737 235.21013 215.60175Q235.21013 216.883 235.58513 217.83612Q235.96013 218.78925 236.74138 219.258Q237.52263 219.72675 238.4445 219.72675Q239.55388 219.72675 240.3195 219.08612Q241.10075 218.4455 241.382 217.17987ZM248.80388 219.80487Q248.132 220.383 247.49138 220.633Q246.86638 220.86737 246.132 220.86737Q244.9445 220.86737 244.28825 220.28925Q243.64763 219.6955 243.64763 218.77362Q243.64763 218.24237 243.882 217.80487Q244.132 217.36737 244.52263 217.10175Q244.92888 216.83612 245.41325 216.6955Q245.77263 216.60175 246.507 216.508Q248.007 216.33612 248.71013 216.08612Q248.71013 215.83612 248.71013 215.77362Q248.71013 215.008 248.36638 214.71112Q247.89763 214.28925 246.96013 214.28925Q246.10075 214.28925 245.67888 214.60175Q245.27263 214.89862 245.0695 215.66425L243.86638 215.508Q244.02263 214.72675 244.39763 214.258Q244.78825 213.78925 245.49138 213.53925Q246.21013 213.27362 247.14763 213.27362Q248.0695 213.27362 248.64763 213.49237Q249.22575 213.71112 249.49138 214.03925Q249.77263 214.36737 249.882 214.883Q249.9445 215.1955 249.9445 216.008L249.9445 217.64862Q249.9445 219.36737 250.02263 219.8205Q250.10075 220.27362 250.33513 220.6955L249.05388 220.6955Q248.86638 220.30487 248.80388 219.80487ZM248.71013 217.05487Q248.03825 217.3205 246.6945 217.52362Q245.9445 217.633 245.61638 217.77362Q245.30388 217.89862 245.132 218.16425Q244.96013 218.42987 244.96013 218.74237Q244.96013 219.24237 245.33513 219.5705Q245.71013 219.89862 246.42888 219.89862Q247.14763 219.89862 247.6945 219.58612Q248.24138 219.27362 248.507 218.72675Q248.71013 218.3205 248.71013 217.508L248.71013 217.05487ZM251.58513 218.52362L252.78825 218.33612Q252.89763 219.0705 253.36638 219.46112Q253.83513 219.85175 254.67888 219.85175Q255.52263 219.85175 255.92888 219.508Q256.35077 219.16425 256.35077 218.6955Q256.35077 218.27362 255.97575 218.03925Q255.72575 217.86737 254.72575 217.61737Q253.36638 217.27362 252.83513 217.02362Q252.3195 216.77362 252.05388 216.33612Q251.78825 215.89862 251.78825 215.36737Q251.78825 214.883 252.007 214.47675Q252.22575 214.05487 252.61638 213.77362Q252.89763 213.5705 253.382 213.42987Q253.882 213.27362 254.46013 213.27362Q255.30388 213.27362 255.9445 213.52362Q256.60077 213.758 256.91327 214.17987Q257.22577 214.60175 257.33514 215.30487L256.13202 215.47675Q256.0539 214.91425 255.64763 214.60175Q255.257 214.28925 254.53825 214.28925Q253.6945 214.28925 253.33513 214.5705Q252.97575 214.83612 252.97575 215.22675Q252.97575 215.46112 253.11638 215.64862Q253.27263 215.85175 253.60075 215.97675Q253.77263 216.03925 254.67888 216.28925Q255.99138 216.64862 256.50702 216.86737Q257.02264 217.08612 257.3039 217.508Q257.60077 217.92987 257.60077 218.55487Q257.60077 219.17987 257.2414 219.72675Q256.89764 220.258 256.21014 220.5705Q255.53825 220.86737 254.67888 220.86737Q253.27263 220.86737 252.52263 220.27362Q251.78825 219.67987 251.58513 218.52362ZM264.03827 218.35175L265.31952 218.508Q265.00702 219.633 264.19452 220.258Q263.38202 220.86737 262.1164 220.86737Q260.52264 220.86737 259.58514 219.883Q258.66327 218.89862 258.66327 217.133Q258.66327 215.28925 259.60077 214.28925Q260.5539 213.27362 262.0539 213.27362Q263.50702 213.27362 264.4289 214.27362Q265.35077 215.258 265.35077 217.05487Q265.35077 217.16425 265.35077 217.383L259.9289 217.383Q260.00702 218.5705 260.60077 219.21112Q261.21014 219.85175 262.13202 219.85175Q262.8039 219.85175 263.27264 219.49237Q263.75702 219.133 264.03827 218.35175ZM260.00702 216.36737L264.0539 216.36737Q263.97577 215.4455 263.58514 214.99237Q263.00702 214.28925 262.06952 214.28925Q261.21014 214.28925 260.63202 214.85175Q260.06952 215.41425 260.00702 216.36737ZM266.58514 218.52362L267.78827 218.33612Q267.89764 219.0705 268.3664 219.46112Q268.83514 219.85175 269.6789 219.85175Q270.52264 219.85175 270.9289 219.508Q271.35077 219.16425 271.35077 218.6955Q271.35077 218.27362 270.97577 218.03925Q270.72577 217.86737 269.72577 217.61737Q268.3664 217.27362 267.83514 217.02362Q267.31952 216.77362 267.0539 216.33612Q266.78827 215.89862 266.78827 215.36737Q266.78827 214.883 267.00702 214.47675Q267.22577 214.05487 267.6164 213.77362Q267.89764 213.5705 268.38202 213.42987Q268.88202 213.27362 269.46014 213.27362Q270.3039 213.27362 270.94452 213.52362Q271.60077 213.758 271.91327 214.17987Q272.22577 214.60175 272.33514 215.30487L271.13202 215.47675Q271.0539 214.91425 270.64764 214.60175Q270.25702 214.28925 269.53827 214.28925Q268.69452 214.28925 268.33514 214.5705Q267.97577 214.83612 267.97577 215.22675Q267.97577 215.46112 268.1164 215.64862Q268.27264 215.85175 268.60077 215.97675Q268.77264 216.03925 269.6789 216.28925Q270.9914 216.64862 271.50702 216.86737Q272.02264 217.08612 272.3039 217.508Q272.60077 217.92987 272.60077 218.55487Q272.60077 219.17987 272.2414 219.72675Q271.89764 220.258 271.21014 220.5705Q270.53827 220.86737 269.6789 220.86737Q268.27264 220.86737 267.52264 220.27362Q266.78827 219.67987 266.58514 218.52362Z" fill-rule="nonzero"/><path fill="#14213d" d="M243.0 408.30984C243.0 411.62354 240.3137 414.30984 237.0 414.30984C233.6863 414.30984 231.0 411.62354 231.0 408.30984C231.0 404.99612 233.6863 402.30984 237.0 402.30984C240.3137 402.30984 243.0 404.99612 243.0 408.30984Z" fill-rule="nonzero"/><path fill="#1a1a1a" d="M258.0625 409.29422L259.1875 409.5911Q258.82812 410.98172 257.90625 411.7161Q256.98438 412.45047 255.64062 412.45047Q254.25 412.45047 253.375 411.88797Q252.5 411.32547 252.04688 410.26297Q251.59375 409.18484 251.59375 407.95047Q251.59375 406.60672 252.10938 405.60672Q252.625 404.60672 253.5625 404.0911Q254.51562 403.57547 255.65625 403.57547Q256.9375 403.57547 257.8125 404.23172Q258.70312 404.88797 259.04688 406.07547L257.92188 406.3411Q257.625 405.4036 257.04688 404.98172Q256.48438 404.54422 255.625 404.54422Q254.64062 404.54422 253.96875 405.0286Q253.3125 405.49734 253.03125 406.29422Q252.76562 407.0911 252.76562 407.95047Q252.76562 409.04422 253.07812 409.85672Q253.40625 410.66922 254.07812 411.07547Q254.75 411.48172 255.54688 411.48172Q256.5 411.48172 257.15625 410.93484Q257.82812 410.38797 258.0625 409.29422ZM264.85938 411.54422Q264.26562 412.04422 263.71875 412.24734Q263.1875 412.45047 262.5625 412.45047Q261.53125 412.45047 260.98438 411.95047Q260.4375 411.45047 260.4375 410.66922Q260.4375 410.2161 260.64062 409.8411Q260.84375 409.45047 261.1875 409.23172Q261.53125 408.99734 261.95312 408.88797Q262.25 408.79422 262.89062 408.7161Q264.15625 408.57547 264.76562 408.35672Q264.76562 408.13797 264.76562 408.0911Q264.76562 407.43484 264.46875 407.16922Q264.0625 406.82547 263.26562 406.82547Q262.53125 406.82547 262.17188 407.0911Q261.8125 407.3411 261.64062 407.99734L260.60938 407.85672Q260.75 407.20047 261.07812 406.79422Q261.40625 406.38797 262.01562 406.16922Q262.625 405.95047 263.42188 405.95047Q264.21875 405.95047 264.71875 406.13797Q265.21875 406.32547 265.45312 406.60672Q265.6875 406.88797 265.78125 407.32547Q265.82812 407.5911 265.82812 408.29422L265.82812 409.70047Q265.82812 411.16922 265.89062 411.55984Q265.96875 411.95047 266.17188 412.30984L265.0625 412.30984Q264.90625 411.98172 264.85938 411.54422ZM264.76562 409.18484Q264.1875 409.41922 263.04688 409.5911Q262.39062 409.68484 262.125 409.80984Q261.85938 409.91922 261.70312 410.13797Q261.5625 410.35672 261.5625 410.63797Q261.5625 411.05984 261.875 411.3411Q262.20312 411.62234 262.8125 411.62234Q263.42188 411.62234 263.89062 411.35672Q264.375 411.0911 264.59375 410.62234Q264.76562 410.26297 264.76562 409.57547L264.76562 409.18484ZM267.375 410.45047L268.40625 410.29422Q268.5 410.91922 268.89062 411.24734Q269.29688 411.57547 270.03125 411.57547Q270.75 411.57547 271.09375 411.29422Q271.45312 410.99734 271.45312 410.5911Q271.45312 410.23172 271.14062 410.0286Q270.92188 409.88797 270.0625 409.66922Q268.90625 409.37234 268.45312 409.16922Q268.01562 408.95047 267.78125 408.57547Q267.54688 408.20047 267.54688 407.73172Q267.54688 407.32547 267.73438 406.9661Q267.92188 406.60672 268.25 406.37234Q268.5 406.20047 268.92188 406.07547Q269.34375 405.95047 269.84375 405.95047Q270.5625 405.95047 271.10938 406.16922Q271.67188 406.37234 271.9375 406.73172Q272.20312 407.0911 272.29688 407.68484L271.26562 407.82547Q271.20312 407.35672 270.85938 407.0911Q270.53125 406.80984 269.90625 406.80984Q269.1875 406.80984 268.875 407.05984Q268.5625 407.29422 268.5625 407.62234Q268.5625 407.82547 268.6875 407.98172Q268.82812 408.1536 269.09375 408.26297Q269.25 408.32547 270.03125 408.5286Q271.15625 408.8411 271.59375 409.0286Q272.03125 409.2161 272.28125 409.57547Q272.53125 409.93484 272.53125 410.48172Q272.53125 411.01297 272.21875 411.48172Q271.92188 411.93484 271.34375 412.20047Q270.76562 412.45047 270.03125 412.45047Q268.8125 412.45047 268.17188 411.95047Q267.54688 411.43484 267.375 410.45047ZM278.04688 410.30984L279.14062 410.43484Q278.89062 411.38797 278.1875 411.91922Q277.48438 412.45047 276.40625 412.45047Q275.04688 412.45047 274.23438 411.60672Q273.4375 410.76297 273.4375 409.24734Q273.4375 407.68484 274.25 406.82547Q275.0625 405.95047 276.34375 405.95047Q277.59375 405.95047 278.375 406.79422Q279.17188 407.63797 279.17188 409.18484Q279.17188 409.2786 279.17188 409.4661L274.53125 409.4661Q274.59375 410.49734 275.10938 411.04422Q275.625 411.57547 276.40625 411.57547Q276.98438 411.57547 277.39062 411.2786Q277.8125 410.9661 278.04688 410.30984ZM274.59375 408.60672L278.0625 408.60672Q278.0 407.80984 277.67188 407.41922Q277.15625 406.80984 276.35938 406.80984Q275.625 406.80984 275.125 407.29422Q274.64062 407.7786 274.59375 408.60672ZM280.375 410.45047L281.40625 410.29422Q281.5 410.91922 281.89062 411.24734Q282.29688 411.57547 283.03125 411.57547Q283.75 411.57547 284.09375 411.29422Q284.45312 410.99734 284.45312 410.5911Q284.45312 410.23172 284.14062 410.0286Q283.92188 409.88797 283.0625 409.66922Q281.90625 409.37234 281.45312 409.16922Q281.01562 408.95047 280.78125 408.57547Q280.54688 408.20047 280.54688 407.73172Q280.54688 407.32547 280.73438 406.9661Q280.92188 406.60672 281.25 406.37234Q281.5 406.20047 281.92188 406.07547Q282.34375 405.95047 282.84375 405.95047Q283.5625 405.95047 284.10938 406.16922Q284.67188 406.37234 284.9375 406.73172Q285.20312 407.0911 285.29688 407.68484L284.26562 407.82547Q284.20312 407.35672 283.85938 407.0911Q283.53125 406.80984 282.90625 406.80984Q282.1875 406.80984 281.875 407.05984Q281.5625 407.29422 281.5625 407.62234Q281.5625 407.82547 281.6875 407.98172Q281.82812 408.1536 282.09375 408.26297Q282.25 408.32547 283.03125 408.5286Q284.15625 408.8411 284.59375 409.0286Q285.03125 409.2161 285.28125 409.57547Q285.53125 409.93484 285.53125 410.48172Q285.53125 411.01297 285.21875 411.48172Q284.92188 411.93484 284.34375 412.20047Q283.76562 412.45047 283.03125 412.45047Q281.8125 412.45047 281.17188 411.95047Q280.54688 411.43484 280.375 410.45047ZM291.42188 412.30984L289.14062 403.7161L290.3125 403.7161L291.625 409.35672Q291.82812 410.23172 291.98438 411.10672Q292.3125 409.73172 292.375 409.51297L294.0 403.7161L295.375 403.7161L296.60938 408.05984Q297.0625 409.68484 297.28125 411.10672Q297.4375 410.29422 297.70312 409.23172L299.04688 403.7161L300.1875 403.7161L297.84375 412.30984L296.73438 412.30984L294.9375 405.76297Q294.70312 404.95047 294.65625 404.76297Q294.53125 405.3411 294.40625 405.76297L292.59375 412.30984L291.42188 412.30984ZM300.40625 409.20047Q300.40625 407.4661 301.35938 406.63797Q302.15625 405.95047 303.3125 405.95047Q304.59375 405.95047 305.40625 406.79422Q306.23438 407.62234 306.23438 409.10672Q306.23438 410.30984 305.875 410.99734Q305.51562 411.68484 304.8125 412.07547Q304.125 412.45047 303.3125 412.45047Q302.01562 412.45047 301.20312 411.62234Q300.40625 410.7786 300.40625 409.20047ZM301.48438 409.20047Q301.48438 410.38797 302.0 410.98172Q302.53125 411.57547 303.3125 411.57547Q304.10938 411.57547 304.625 410.98172Q305.14062 410.38797 305.14062 409.16922Q305.14062 408.01297 304.60938 407.41922Q304.09375 406.82547 303.3125 406.82547Q302.53125 406.82547 302.0 407.41922Q301.48438 407.99734 301.48438 409.20047ZM307.79688 412.30984L307.79688 406.0911L308.73438 406.0911L308.73438 406.9661Q309.42188 405.95047 310.71875 405.95047Q311.28125 405.95047 311.75 406.1536Q312.23438 406.35672 312.46875 406.68484Q312.70312 407.01297 312.79688 407.45047Q312.84375 407.74734 312.84375 408.48172L312.84375 412.30984L311.79688 412.30984L311.79688 408.5286Q311.79688 407.87234 311.67188 407.55984Q311.54688 407.24734 311.23438 407.05984Q310.92188 406.85672 310.5 406.85672Q309.82812 406.85672 309.32812 407.29422Q308.84375 407.7161 308.84375 408.9036L308.84375 412.30984L307.79688 412.30984Z" fill-rule="nonzero"/><path fill="#fca311" d="M342.0 408.30984C342.0 411.62354 339.31372 414.30984 336.0 414.30984C332.68628 414.30984 330.0 411.62354 330.0 408.30984C330.0 404.99612 332.68628 402.30984 336.0 402.30984C339.31372 402.30984 342.0 404.99612 342.0 408.30984Z" fill-rule="nonzero"/><path fill="#1a1a1a" d="M353.10938 412.30984L353.10938 404.73172L350.28125 404.73172L350.28125 403.7161L357.09375 403.7161L357.09375 404.73172L354.25 404.73172L354.25 412.30984L353.10938 412.30984ZM357.40625 409.20047Q357.40625 407.4661 358.35938 406.63797Q359.15625 405.95047 360.3125 405.95047Q361.59375 405.95047 362.40625 406.79422Q363.23438 407.62234 363.23438 409.10672Q363.23438 410.30984 362.875 410.99734Q362.51562 411.68484 361.8125 412.07547Q361.125 412.45047 360.3125 412.45047Q359.01562 412.45047 358.20312 411.62234Q357.40625 410.7786 357.40625 409.20047ZM358.48438 409.20047Q358.48438 410.38797 359.0 410.98172Q359.53125 411.57547 360.3125 411.57547Q361.10938 411.57547 361.625 410.98172Q362.14062 410.38797 362.14062 409.16922Q362.14062 408.01297 361.60938 407.41922Q361.09375 406.82547 360.3125 406.82547Q359.53125 406.82547 359.0 407.41922Q358.48438 407.99734 358.48438 409.20047ZM367.09375 411.37234L367.25 412.29422Q366.79688 412.38797 366.45312 412.38797Q365.875 412.38797 365.5625 412.2161Q365.25 412.0286 365.10938 411.73172Q364.98438 411.43484 364.98438 410.48172L364.98438 406.9036L364.21875 406.9036L364.21875 406.0911L364.98438 406.0911L364.98438 404.54422L366.03125 403.91922L366.03125 406.0911L367.09375 406.0911L367.09375 406.9036L366.03125 406.9036L366.03125 410.54422Q366.03125 410.99734 366.07812 411.12234Q366.14062 411.24734 366.26562 411.32547Q366.39062 411.4036 366.625 411.4036Q366.8125 411.4036 367.09375 411.37234ZM371.85938 411.54422Q371.26562 412.04422 370.71875 412.24734Q370.1875 412.45047 369.5625 412.45047Q368.53125 412.45047 367.98438 411.95047Q367.4375 411.45047 367.4375 410.66922Q367.4375 410.2161 367.64062 409.8411Q367.84375 409.45047 368.1875 409.23172Q368.53125 408.99734 368.95312 408.88797Q369.25 408.79422 369.89062 408.7161Q371.15625 408.57547 371.76562 408.35672Q371.76562 408.13797 371.76562 408.0911Q371.76562 407.43484 371.46875 407.16922Q371.0625 406.82547 370.26562 406.82547Q369.53125 406.82547 369.17188 407.0911Q368.8125 407.3411 368.64062 407.99734L367.60938 407.85672Q367.75 407.20047 368.07812 406.79422Q368.40625 406.38797 369.01562 406.16922Q369.625 405.95047 370.42188 405.95047Q371.21875 405.95047 371.71875 406.13797Q372.21875 406.32547 372.45312 406.60672Q372.6875 406.88797 372.78125 407.32547Q372.82812 407.5911 372.82812 408.29422L372.82812 409.70047Q372.82812 411.16922 372.89062 411.55984Q372.96875 411.95047 373.17188 412.30984L372.0625 412.30984Q371.90625 411.98172 371.85938 411.54422ZM371.76562 409.18484Q371.1875 409.41922 370.04688 409.5911Q369.39062 409.68484 369.125 409.80984Q368.85938 409.91922 368.70312 410.13797Q368.5625 410.35672 368.5625 410.63797Q368.5625 411.05984 368.875 411.3411Q369.20312 411.62234 369.8125 411.62234Q370.42188 411.62234 370.89062 411.35672Q371.375 411.0911 371.59375 410.62234Q371.76562 410.26297 371.76562 409.57547L371.76562 409.18484ZM374.76562 412.30984L374.76562 403.7161L375.82812 403.7161L375.82812 412.30984L374.76562 412.30984ZM387.0625 409.29422L388.1875 409.5911Q387.82812 410.98172 386.90625 411.7161Q385.98438 412.45047 384.64062 412.45047Q383.25 412.45047 382.375 411.88797Q381.5 411.32547 381.04688 410.26297Q380.59375 409.18484 380.59375 407.95047Q380.59375 406.60672 381.10938 405.60672Q381.625 404.60672 382.5625 404.0911Q383.51562 403.57547 384.65625 403.57547Q385.9375 403.57547 386.8125 404.23172Q387.70312 404.88797 388.04688 406.07547L386.92188 406.3411Q386.625 405.4036 386.04688 404.98172Q385.48438 404.54422 384.625 404.54422Q383.64062 404.54422 382.96875 405.0286Q382.3125 405.49734 382.03125 406.29422Q381.76562 407.0911 381.76562 407.95047Q381.76562 409.04422 382.07812 409.85672Q382.40625 410.66922 383.07812 411.07547Q383.75 411.48172 384.54688 411.48172Q385.5 411.48172 386.15625 410.93484Q386.82812 410.38797 387.0625 409.29422ZM389.40625 409.20047Q389.40625 407.4661 390.35938 406.63797Q391.15625 405.95047 392.3125 405.95047Q393.59375 405.95047 394.40625 406.79422Q395.23438 407.62234 395.23438 409.10672Q395.23438 410.30984 394.875 410.99734Q394.51562 411.68484 393.8125 412.07547Q393.125 412.45047 392.3125 412.45047Q391.01562 412.45047 390.20312 411.62234Q389.40625 410.7786 389.40625 409.20047ZM390.48438 409.20047Q390.48438 410.38797 391.0 410.98172Q391.53125 411.57547 392.3125 411.57547Q393.10938 411.57547 393.625 410.98172Q394.14062 410.38797 394.14062 409.16922Q394.14062 408.01297 393.60938 407.41922Q393.09375 406.82547 392.3125 406.82547Q391.53125 406.82547 391.0 407.41922Q390.48438 407.99734 390.48438 409.20047ZM396.79688 412.30984L396.79688 406.0911L397.73438 406.0911L397.73438 406.9661Q398.42188 405.95047 399.71875 405.95047Q400.28125 405.95047 400.75 406.1536Q401.23438 406.35672 401.46875 406.68484Q401.70312 407.01297 401.79688 407.45047Q401.84375 407.74734 401.84375 408.48172L401.84375 412.30984L400.79688 412.30984L400.79688 408.5286Q400.79688 407.87234 400.67188 407.55984Q400.54688 407.24734 400.23438 407.05984Q399.92188 406.85672 399.5 406.85672Q398.82812 406.85672 398.32812 407.29422Q397.84375 407.7161 397.84375 408.9036L397.84375 412.30984L396.79688 412.30984ZM406.09375 411.37234L406.25 412.29422Q405.79688 412.38797 405.45312 412.38797Q404.875 412.38797 404.5625 412.2161Q404.25 412.0286 404.10938 411.73172Q403.98438 411.43484 403.98438 410.48172L403.98438 406.9036L403.21875 406.9036L403.21875 406.0911L403.98438 406.0911L403.98438 404.54422L405.03125 403.91922L405.03125 406.0911L406.09375 406.0911L406.09375 406.9036L405.03125 406.9036L405.03125 410.54422Q405.03125 410.99734 405.07812 411.12234Q405.14062 411.24734 405.26562 411.32547Q405.39062 411.4036 405.625 411.4036Q405.8125 411.4036 406.09375 411.37234ZM411.04688 410.30984L412.14062 410.43484Q411.89062 411.38797 411.1875 411.91922Q410.48438 412.45047 409.40625 412.45047Q408.04688 412.45047 407.23438 411.60672Q406.4375 410.76297 406.4375 409.24734Q406.4375 407.68484 407.25 406.82547Q408.0625 405.95047 409.34375 405.95047Q410.59375 405.95047 411.375 406.79422Q412.17188 407.63797 412.17188 409.18484Q412.17188 409.2786 412.17188 409.4661L407.53125 409.4661Q407.59375 410.49734 408.10938 411.04422Q408.625 411.57547 409.40625 411.57547Q409.98438 411.57547 410.39062 411.2786Q410.8125 410.9661 411.04688 410.30984ZM407.59375 408.60672L411.0625 408.60672Q411.0 407.80984 410.67188 407.41922Q410.15625 406.80984 409.35938 406.80984Q408.625 406.80984 408.125 407.29422Q407.64062 407.7786 407.59375 408.60672ZM413.375 410.45047L414.40625 410.29422Q414.5 410.91922 414.89062 411.24734Q415.29688 411.57547 416.03125 411.57547Q416.75 411.57547 417.09375 411.29422Q417.45312 410.99734 417.45312 410.5911Q417.45312 410.23172 417.14062 410.0286Q416.92188 409.88797 416.0625 409.66922Q414.90625 409.37234 414.45312 409.16922Q414.01562 408.95047 413.78125 408.57547Q413.54688 408.20047 413.54688 407.73172Q413.54688 407.32547 413.73438 406.9661Q413.92188 406.60672 414.25 406.37234Q414.5 406.20047 414.92188 406.07547Q415.34375 405.95047 415.84375 405.95047Q416.5625 405.95047 417.10938 406.16922Q417.67188 406.37234 417.9375 406.73172Q418.20312 407.0911 418.29688 407.68484L417.26562 407.82547Q417.20312 407.35672 416.85938 407.0911Q416.53125 406.80984 415.90625 406.80984Q415.1875 406.80984 414.875 407.05984Q414.5625 407.29422 414.5625 407.62234Q414.5625 407.82547 414.6875 407.98172Q414.82812 408.1536 415.09375 408.26297Q415.25 408.32547 416.03125 408.5286Q417.15625 408.8411 417.59375 409.0286Q418.03125 409.2161 418.28125 409.57547Q418.53125 409.93484 418.53125 410.48172Q418.53125 411.01297 418.21875 411.48172Q417.92188 411.93484 417.34375 412.20047Q416.76562 412.45047 416.03125 412.45047Q414.8125 412.45047 414.17188 411.95047Q413.54688 411.43484 413.375 410.45047ZM422.09375 411.37234L422.25 412.29422Q421.79688 412.38797 421.45312 412.38797Q420.875 412.38797 420.5625 412.2161Q420.25 412.0286 420.10938 411.73172Q419.98438 411.43484 419.98438 410.48172L419.98438 406.9036L419.21875 406.9036L419.21875 406.0911L419.98438 406.0911L419.98438 404.54422L421.03125 403.91922L421.03125 406.0911L422.09375 406.0911L422.09375 406.9036L421.03125 406.9036L421.03125 410.54422Q421.03125 410.99734 421.07812 411.12234Q421.14062 411.24734 421.26562 411.32547Q421.39062 411.4036 421.625 411.4036Q421.8125 411.4036 422.09375 411.37234ZM427.04688 410.30984L428.14062 410.43484Q427.89062 411.38797 427.1875 411.91922Q426.48438 412.45047 425.40625 412.45047Q424.04688 412.45047 423.23438 411.60672Q422.4375 410.76297 422.4375 409.24734Q422.4375 407.68484 423.25 406.82547Q424.0625 405.95047 425.34375 405.95047Q426.59375 405.95047 427.375 406.79422Q428.17188 407.63797 428.17188 409.18484Q428.17188 409.2786 428.17188 409.4661L423.53125 409.4661Q423.59375 410.49734 424.10938 411.04422Q424.625 411.57547 425.40625 411.57547Q425.98438 411.57547 426.39062 411.2786Q426.8125 410.9661 427.04688 410.30984ZM423.59375 408.60672L427.0625 408.60672Q427.0 407.80984 426.67188 407.41922Q426.15625 406.80984 425.35938 406.80984Q424.625 406.80984 424.125 407.29422Q423.64062 407.7786 423.59375 408.60672ZM433.82812 412.30984L433.82812 411.5286Q433.23438 412.45047 432.09375 412.45047Q431.34375 412.45047 430.71875 412.04422Q430.09375 411.62234 429.75 410.88797Q429.40625 410.1536 429.40625 409.20047Q429.40625 408.2786 429.71875 407.51297Q430.03125 406.74734 430.65625 406.35672Q431.28125 405.95047 432.04688 405.95047Q432.60938 405.95047 433.04688 406.18484Q433.48438 406.41922 433.76562 406.79422L433.76562 403.7161L434.8125 403.7161L434.8125 412.30984L433.82812 412.30984ZM430.5 409.20047Q430.5 410.4036 431.0 410.99734Q431.5 411.57547 432.1875 411.57547Q432.875 411.57547 433.35938 411.01297Q433.84375 410.45047 433.84375 409.29422Q433.84375 408.01297 433.34375 407.41922Q432.85938 406.82547 432.14062 406.82547Q431.4375 406.82547 430.96875 407.4036Q430.5 407.9661 430.5 409.20047ZM446.0625 409.29422L447.1875 409.5911Q446.82812 410.98172 445.90625 411.7161Q444.98438 412.45047 443.64062 412.45047Q442.25 412.45047 441.375 411.88797Q440.5 411.32547 440.04688 410.26297Q439.59375 409.18484 439.59375 407.95047Q439.59375 406.60672 440.10938 405.60672Q440.625 404.60672 441.5625 404.0911Q442.51562 403.57547 443.65625 403.57547Q444.9375 403.57547 445.8125 404.23172Q446.70312 404.88797 447.04688 406.07547L445.92188 406.3411Q445.625 405.4036 445.04688 404.98172Q444.48438 404.54422 443.625 404.54422Q442.64062 404.54422 441.96875 405.0286Q441.3125 405.49734 441.03125 406.29422Q440.76562 407.0911 440.76562 407.95047Q440.76562 409.04422 441.07812 409.85672Q441.40625 410.66922 442.07812 411.07547Q442.75 411.48172 443.54688 411.48172Q444.5 411.48172 445.15625 410.93484Q445.82812 410.38797 446.0625 409.29422ZM452.85938 411.54422Q452.26562 412.04422 451.71875 412.24734Q451.1875 412.45047 450.5625 412.45047Q449.53125 412.45047 448.98438 411.95047Q448.4375 411.45047 448.4375 410.66922Q448.4375 410.2161 448.64062 409.8411Q448.84375 409.45047 449.1875 409.23172Q449.53125 408.99734 449.95312 408.88797Q450.25 408.79422 450.89062 408.7161Q452.15625 408.57547 452.76562 408.35672Q452.76562 408.13797 452.76562 408.0911Q452.76562 407.43484 452.46875 407.16922Q452.0625 406.82547 451.26562 406.82547Q450.53125 406.82547 450.17188 407.0911Q449.8125 407.3411 449.64062 407.99734L448.60938 407.85672Q448.75 407.20047 449.07812 406.79422Q449.40625 406.38797 450.01562 406.16922Q450.625 405.95047 451.42188 405.95047Q452.21875 405.95047 452.71875 406.13797Q453.21875 406.32547 453.45312 406.60672Q453.6875 406.88797 453.78125 407.32547Q453.82812 407.5911 453.82812 408.29422L453.82812 409.70047Q453.82812 411.16922 453.89062 411.55984Q453.96875 411.95047 454.17188 412.30984L453.0625 412.30984Q452.90625 411.98172 452.85938 411.54422ZM452.76562 409.18484Q452.1875 409.41922 451.04688 409.5911Q450.39062 409.68484 450.125 409.80984Q449.85938 409.91922 449.70312 410.13797Q449.5625 410.35672 449.5625 410.63797Q449.5625 411.05984 449.875 411.3411Q450.20312 411.62234 450.8125 411.62234Q451.42188 411.62234 451.89062 411.35672Q452.375 411.0911 452.59375 410.62234Q452.76562 410.26297 452.76562 409.57547L452.76562 409.18484ZM455.375 410.45047L456.40625 410.29422Q456.5 410.91922 456.89062 411.24734Q457.29688 411.57547 458.03125 411.57547Q458.75 411.57547 459.09375 411.29422Q459.45312 410.99734 459.45312 410.5911Q459.45312 410.23172 459.14062 410.0286Q458.92188 409.88797 458.0625 409.66922Q456.90625 409.37234 456.45312 409.16922Q456.01562 408.95047 455.78125 408.57547Q455.54688 408.20047 455.54688 407.73172Q455.54688 407.32547 455.73438 406.9661Q455.92188 406.60672 456.25 406.37234Q456.5 406.20047 456.92188 406.07547Q457.34375 405.95047 457.84375 405.95047Q458.5625 405.95047 459.10938 406.16922Q459.67188 406.37234 459.9375 406.73172Q460.20312 407.0911 460.29688 407.68484L459.26562 407.82547Q459.20312 407.35672 458.85938 407.0911Q458.53125 406.80984 457.90625 406.80984Q457.1875 406.80984 456.875 407.05984Q456.5625 407.29422 456.5625 407.62234Q456.5625 407.82547 456.6875 407.98172Q456.82812 408.1536 457.09375 408.26297Q457.25 408.32547 458.03125 408.5286Q459.15625 408.8411 459.59375 409.0286Q460.03125 409.2161 460.28125 409.57547Q460.53125 409.93484 460.53125 410.48172Q460.53125 411.01297 460.21875 411.48172Q459.92188 411.93484 459.34375 412.20047Q458.76562 412.45047 458.03125 412.45047Q456.8125 412.45047 456.17188 411.95047Q455.54688 411.43484 455.375 410.45047ZM466.04688 410.30984L467.14062 410.43484Q466.89062 411.38797 466.1875 411.91922Q465.48438 412.45047 464.40625 412.45047Q463.04688 412.45047 462.23438 411.60672Q461.4375 410.76297 461.4375 409.24734Q461.4375 407.68484 462.25 406.82547Q463.0625 405.95047 464.34375 405.95047Q465.59375 405.95047 466.375 406.79422Q467.17188 407.63797 467.17188 409.18484Q467.17188 409.2786 467.17188 409.4661L462.53125 409.4661Q462.59375 410.49734 463.10938 411.04422Q463.625 411.57547 464.40625 411.57547Q464.98438 411.57547 465.39062 411.2786Q465.8125 410.9661 466.04688 410.30984ZM462.59375 408.60672L466.0625 408.60672Q466.0 407.80984 465.67188 407.41922Q465.15625 406.80984 464.35938 406.80984Q463.625 406.80984 463.125 407.29422Q462.64062 407.7786 462.59375 408.60672ZM468.375 410.45047L469.40625 410.29422Q469.5 410.91922 469.89062 411.24734Q470.29688 411.57547 471.03125 411.57547Q471.75 411.57547 472.09375 411.29422Q472.45312 410.99734 472.45312 410.5911Q472.45312 410.23172 472.14062 410.0286Q471.92188 409.88797 471.0625 409.66922Q469.90625 409.37234 469.45312 409.16922Q469.01562 408.95047 468.78125 408.57547Q468.54688 408.20047 468.54688 407.73172Q468.54688 407.32547 468.73438 406.9661Q468.92188 406.60672 469.25 406.37234Q469.5 406.20047 469.92188 406.07547Q470.34375 405.95047 470.84375 405.95047Q471.5625 405.95047 472.10938 406.16922Q472.67188 406.37234 472.9375 406.73172Q473.20312 407.0911 473.29688 407.68484L472.26562 407.82547Q472.20312 407.35672 471.85938 407.0911Q471.53125 406.80984 470.90625 406.80984Q470.1875 406.80984 469.875 407.05984Q469.5625 407.29422 469.5625 407.62234Q469.5625 407.82547 469.6875 407.98172Q469.82812 408.1536 470.09375 408.26297Q470.25 408.32547 471.03125 408.5286Q472.15625 408.8411 472.59375 409.0286Q473.03125 409.2161 473.28125 409.57547Q473.53125 409.93484 473.53125 410.48172Q473.53125 411.01297 473.21875 411.48172Q472.92188 411.93484 472.34375 412.20047Q471.76562 412.45047 471.03125 412.45047Q469.8125 412.45047 469.17188 411.95047Q468.54688 411.43484 468.375 410.45047Z" fill-rule="nonzero"/><path fill="#757575" d="M156.26562 35.15385L158.15625 35.6226Q157.5625 37.96635 156.01562 39.200726Q154.46875 40.419476 152.21875 40.419476Q149.90625 40.419476 148.45312 39.481976Q147.01562 38.52885 146.25 36.7476Q145.5 34.950726 145.5 32.90385Q145.5 30.669476 146.34375 29.013226Q147.20312 27.34135 148.78125 26.481976Q150.35938 25.606976 152.25 25.606976Q154.40625 25.606976 155.85938 26.700726Q157.32812 27.794476 157.90625 29.77885L156.04688 30.21635Q155.54688 28.65385 154.59375 27.950726Q153.65625 27.231976 152.21875 27.231976Q150.5625 27.231976 149.45312 28.02885Q148.34375 28.8101 147.89062 30.15385Q147.45312 31.481976 147.45312 32.888226Q147.45312 34.71635 147.98438 36.09135Q148.51562 37.450726 149.64062 38.1226Q150.76562 38.794476 152.0625 38.794476Q153.65625 38.794476 154.76562 37.8726Q155.875 36.950726 156.26562 35.15385ZM166.59375 38.888226Q165.60938 39.71635 164.70312 40.0601Q163.79688 40.40385 162.76562 40.40385Q161.0625 40.40385 160.14062 39.575726Q159.21875 38.731976 159.21875 37.4351Q159.21875 36.669476 159.5625 36.044476Q159.92188 35.419476 160.48438 35.044476Q161.04688 34.65385 161.75 34.450726Q162.26562 34.325726 163.3125 34.1851Q165.4375 33.9351 166.4375 33.59135Q166.45312 33.231976 166.45312 33.1226Q166.45312 32.0601 165.95312 31.606976Q165.28125 31.013226 163.95312 31.013226Q162.70312 31.013226 162.10938 31.450726Q161.53125 31.888226 161.25 32.9976L159.53125 32.763226Q159.76562 31.65385 160.29688 30.981976Q160.82812 30.294476 161.84375 29.9351Q162.85938 29.5601 164.20312 29.5601Q165.53125 29.5601 166.35938 29.8726Q167.1875 30.1851 167.57812 30.669476Q167.96875 31.138226 168.125 31.856976Q168.21875 32.3101 168.21875 33.481976L168.21875 35.825726Q168.21875 38.27885 168.32812 38.9351Q168.4375 39.575726 168.78125 40.169476L166.9375 40.169476Q166.67188 39.6226 166.59375 38.888226ZM166.4375 34.96635Q165.48438 35.356976 163.5625 35.6226Q162.48438 35.77885 162.03125 35.981976Q161.59375 36.169476 161.34375 36.544476Q161.09375 36.919476 161.09375 37.388226Q161.09375 38.09135 161.625 38.5601Q162.15625 39.02885 163.1875 39.02885Q164.20312 39.02885 164.98438 38.59135Q165.78125 38.138226 166.15625 37.3726Q166.4375 36.763226 166.4375 35.606976L166.4375 34.96635ZM170.10938 37.075726L171.85938 36.794476Q172.0 37.84135 172.67188 38.40385Q173.34375 38.950726 174.54688 38.950726Q175.75 38.950726 176.32812 38.46635Q176.92188 37.96635 176.92188 37.3101Q176.92188 36.71635 176.40625 36.3726Q176.04688 36.138226 174.60938 35.77885Q172.67188 35.27885 171.92188 34.9351Q171.1875 34.575726 170.79688 33.950726Q170.40625 33.3101 170.40625 32.544476Q170.40625 31.856976 170.71875 31.263226Q171.04688 30.669476 171.59375 30.27885Q172.0 29.981976 172.70312 29.77885Q173.42188 29.5601 174.23438 29.5601Q175.45312 29.5601 176.375 29.919476Q177.29688 30.263226 177.73438 30.8726Q178.17188 31.46635 178.34375 32.46635L176.625 32.700726Q176.5 31.90385 175.9375 31.46635Q175.375 31.013226 174.35938 31.013226Q173.14062 31.013226 172.625 31.419476Q172.10938 31.8101 172.10938 32.34135Q172.10938 32.6851 172.32812 32.96635Q172.53125 33.2476 173.0 33.4351Q173.26562 33.52885 174.54688 33.8726Q176.42188 34.3726 177.15625 34.700726Q177.89062 35.013226 178.3125 35.6226Q178.73438 36.21635 178.73438 37.1226Q178.73438 37.9976 178.21875 38.77885Q177.70312 39.5601 176.73438 39.981976Q175.76562 40.40385 174.54688 40.40385Q172.53125 40.40385 171.46875 39.5601Q170.40625 38.71635 170.10938 37.075726ZM187.92188 36.825726L189.73438 37.0601Q189.3125 38.638226 188.14062 39.52885Q186.98438 40.40385 185.17188 40.40385Q182.90625 40.40385 181.5625 39.013226Q180.23438 37.606976 180.23438 35.075726Q180.23438 32.450726 181.57812 31.013226Q182.92188 29.5601 185.07812 29.5601Q187.15625 29.5601 188.46875 30.981976Q189.79688 32.388226 189.79688 34.96635Q189.79688 35.1226 189.78125 35.4351L182.04688 35.4351Q182.14062 37.138226 183.01562 38.044476Q183.89062 38.950726 185.1875 38.950726Q186.15625 38.950726 186.82812 38.450726Q187.51562 37.9351 187.92188 36.825726ZM182.14062 33.981976L187.9375 33.981976Q187.82812 32.6851 187.28125 32.02885Q186.4375 31.013226 185.09375 31.013226Q183.89062 31.013226 183.0625 31.825726Q182.23438 32.6226 182.14062 33.981976ZM191.10938 37.075726L192.85938 36.794476Q193.0 37.84135 193.67188 38.40385Q194.34375 38.950726 195.54688 38.950726Q196.75 38.950726 197.32812 38.46635Q197.92188 37.96635 197.92188 37.3101Q197.92188 36.71635 197.40625 36.3726Q197.04688 36.138226 195.60938 35.77885Q193.67188 35.27885 192.92188 34.9351Q192.1875 34.575726 191.79688 33.950726Q191.40625 33.3101 191.40625 32.544476Q191.40625 31.856976 191.71875 31.263226Q192.04688 30.669476 192.59375 30.27885Q193.0 29.981976 193.70312 29.77885Q194.42188 29.5601 195.23438 29.5601Q196.45312 29.5601 197.375 29.919476Q198.29688 30.263226 198.73438 30.8726Q199.17188 31.46635 199.34375 32.46635L197.625 32.700726Q197.5 31.90385 196.9375 31.46635Q196.375 31.013226 195.35938 31.013226Q194.14062 31.013226 193.625 31.419476Q193.10938 31.8101 193.10938 32.34135Q193.10938 32.6851 193.32812 32.96635Q193.53125 33.2476 194.0 33.4351Q194.26562 33.52885 195.54688 33.8726Q197.42188 34.3726 198.15625 34.700726Q198.89062 35.013226 199.3125 35.6226Q199.73438 36.21635 199.73438 37.1226Q199.73438 37.9976 199.21875 38.77885Q198.70312 39.5601 197.73438 39.981976Q196.76562 40.40385 195.54688 40.40385Q193.53125 40.40385 192.46875 39.5601Q191.40625 38.71635 191.10938 37.075726ZM208.23438 40.169476L208.23438 31.169476L206.6875 31.169476L206.6875 29.794476L208.23438 29.794476L208.23438 28.700726Q208.23438 27.65385 208.42188 27.138226Q208.67188 26.450726 209.3125 26.02885Q209.95312 25.606976 211.10938 25.606976Q211.85938 25.606976 212.75 25.77885L212.48438 27.3101Q211.9375 27.21635 211.45312 27.21635Q210.65625 27.21635 210.3125 27.5601Q209.98438 27.90385 209.98438 28.84135L209.98438 29.794476L212.01562 29.794476L212.01562 31.169476L209.98438 31.169476L209.98438 40.169476L208.23438 40.169476ZM213.17188 34.981976Q213.17188 32.106976 214.76562 30.71635Q216.10938 29.5601 218.03125 29.5601Q220.17188 29.5601 221.51562 30.96635Q222.875 32.3726 222.875 34.84135Q222.875 36.84135 222.28125 37.9976Q221.6875 39.138226 220.53125 39.77885Q219.39062 40.40385 218.03125 40.40385Q215.84375 40.40385 214.5 39.013226Q213.17188 37.606976 213.17188 34.981976ZM214.96875 34.981976Q214.96875 36.981976 215.82812 37.96635Q216.70312 38.950726 218.03125 38.950726Q219.34375 38.950726 220.20312 37.96635Q221.07812 36.96635 221.07812 34.919476Q221.07812 32.9976 220.20312 32.013226Q219.32812 31.013226 218.03125 31.013226Q216.70312 31.013226 215.82812 32.013226Q214.96875 32.9976 214.96875 34.981976ZM224.79688 40.169476L224.79688 29.794476L226.375 29.794476L226.375 31.3726Q226.98438 30.263226 227.5 29.919476Q228.01562 29.5601 228.625 29.5601Q229.51562 29.5601 230.4375 30.1226L229.82812 31.763226Q229.1875 31.3726 228.54688 31.3726Q227.96875 31.3726 227.5 31.731976Q227.04688 32.075726 226.84375 32.6851Q226.5625 33.6226 226.5625 34.731976L226.5625 40.169476L224.79688 40.169476ZM238.04688 40.169476L238.04688 25.856976L243.4375 25.856976Q244.875 25.856976 245.625 25.981976Q246.67188 26.169476 247.39062 26.669476Q248.10938 27.15385 248.53125 28.044476Q248.96875 28.9351 248.96875 29.9976Q248.96875 31.825726 247.79688 33.09135Q246.64062 34.34135 243.60938 34.34135L239.9375 34.34135L239.9375 40.169476L238.04688 40.169476ZM239.9375 32.65385L243.64062 32.65385Q245.46875 32.65385 246.23438 31.981976Q247.01562 31.294476 247.01562 30.044476Q247.01562 29.15385 246.5625 28.513226Q246.10938 27.8726 245.375 27.669476Q244.89062 27.544476 243.59375 27.544476L239.9375 27.544476L239.9375 32.65385ZM257.59375 38.888226Q256.60938 39.71635 255.70312 40.0601Q254.79688 40.40385 253.76562 40.40385Q252.0625 40.40385 251.14062 39.575726Q250.21875 38.731976 250.21875 37.4351Q250.21875 36.669476 250.5625 36.044476Q250.92188 35.419476 251.48438 35.044476Q252.04688 34.65385 252.75 34.450726Q253.26562 34.325726 254.3125 34.1851Q256.4375 33.9351 257.4375 33.59135Q257.45312 33.231976 257.45312 33.1226Q257.45312 32.0601 256.95312 31.606976Q256.28125 31.013226 254.95312 31.013226Q253.70312 31.013226 253.10938 31.450726Q252.53125 31.888226 252.25 32.9976L250.53125 32.763226Q250.76562 31.65385 251.29688 30.981976Q251.82812 30.294476 252.84375 29.9351Q253.85938 29.5601 255.20312 29.5601Q256.53125 29.5601 257.35938 29.8726Q258.1875 30.1851 258.57812 30.669476Q258.96875 31.138226 259.125 31.856976Q259.21875 32.3101 259.21875 33.481976L259.21875 35.825726Q259.21875 38.27885 259.32812 38.9351Q259.4375 39.575726 259.78125 40.169476L257.9375 40.169476Q257.67188 39.6226 257.59375 38.888226ZM257.4375 34.96635Q256.48438 35.356976 254.5625 35.6226Q253.48438 35.77885 253.03125 35.981976Q252.59375 36.169476 252.34375 36.544476Q252.09375 36.919476 252.09375 37.388226Q252.09375 38.09135 252.625 38.5601Q253.15625 39.02885 254.1875 39.02885Q255.20312 39.02885 255.98438 38.59135Q256.78125 38.138226 257.15625 37.3726Q257.4375 36.763226 257.4375 35.606976L257.4375 34.96635ZM261.79688 40.169476L261.79688 29.794476L263.375 29.794476L263.375 31.3726Q263.98438 30.263226 264.5 29.919476Q265.01562 29.5601 265.625 29.5601Q266.51562 29.5601 267.4375 30.1226L266.82812 31.763226Q266.1875 31.3726 265.54688 31.3726Q264.96875 31.3726 264.5 31.731976Q264.04688 32.075726 263.84375 32.6851Q263.5625 33.6226 263.5625 34.731976L263.5625 40.169476L261.79688 40.169476ZM268.82812 40.169476L268.82812 25.856976L270.59375 25.856976L270.59375 34.013226L274.75 29.794476L277.01562 29.794476L273.0625 33.638226L277.42188 40.169476L275.25 40.169476L271.82812 34.8726L270.59375 36.0601L270.59375 40.169476L268.82812 40.169476ZM278.82812 27.8726L278.82812 25.856976L280.59375 25.856976L280.59375 27.8726L278.82812 27.8726ZM278.82812 40.169476L278.82812 29.794476L280.59375 29.794476L280.59375 40.169476L278.82812 40.169476ZM282.8125 40.169476L282.8125 29.794476L284.40625 29.794476L284.40625 31.27885Q285.54688 29.5601 287.70312 29.5601Q288.64062 29.5601 289.42188 29.90385Q290.21875 30.231976 290.60938 30.77885Q291.0 31.325726 291.15625 32.075726Q291.25 32.575726 291.25 33.794476L291.25 40.169476L289.48438 40.169476L289.48438 33.856976Q289.48438 32.77885 289.28125 32.2476Q289.07812 31.71635 288.54688 31.40385Q288.03125 31.09135 287.32812 31.09135Q286.20312 31.09135 285.39062 31.8101Q284.57812 32.513226 284.57812 34.4976L284.57812 40.169476L282.8125 40.169476ZM293.5 41.02885L295.20312 41.27885Q295.3125 42.075726 295.79688 42.4351Q296.45312 42.919476 297.59375 42.919476Q298.8125 42.919476 299.46875 42.4351Q300.14062 41.950726 300.375 41.075726Q300.51562 40.52885 300.5 38.8101Q299.34375 40.169476 297.625 40.169476Q295.48438 40.169476 294.3125 38.6226Q293.14062 37.075726 293.14062 34.919476Q293.14062 33.4351 293.67188 32.1851Q294.21875 30.9351 295.23438 30.2476Q296.26562 29.5601 297.64062 29.5601Q299.46875 29.5601 300.67188 31.044476L300.67188 29.794476L302.28125 29.794476L302.28125 38.763226Q302.28125 41.1851 301.78125 42.1851Q301.29688 43.200726 300.21875 43.77885Q299.15625 44.3726 297.59375 44.3726Q295.75 44.3726 294.59375 43.544476Q293.45312 42.71635 293.5 41.02885ZM294.95312 34.794476Q294.95312 36.84135 295.76562 37.77885Q296.57812 38.71635 297.79688 38.71635Q299.0 38.71635 299.8125 37.77885Q300.64062 36.84135 300.64062 34.856976Q300.64062 32.950726 299.79688 31.981976Q298.95312 31.013226 297.76562 31.013226Q296.59375 31.013226 295.76562 31.96635Q294.95312 32.919476 294.95312 34.794476ZM303.5 40.419476L307.65625 25.606976L309.0625 25.606976L304.92188 40.419476L303.5 40.419476ZM310.40625 35.575726L312.1875 35.419476Q312.3125 36.481976 312.76562 37.169476Q313.23438 37.856976 314.20312 38.294476Q315.1875 38.71635 316.42188 38.71635Q317.5 38.71635 318.32812 38.40385Q319.15625 38.075726 319.5625 37.513226Q319.96875 36.950726 319.96875 36.27885Q319.96875 35.606976 319.57812 35.106976Q319.1875 34.606976 318.29688 34.263226Q317.71875 34.02885 315.73438 33.5601Q313.76562 33.09135 312.98438 32.669476Q311.95312 32.138226 311.45312 31.34135Q310.95312 30.544476 310.95312 29.5601Q310.95312 28.46635 311.5625 27.52885Q312.17188 26.59135 313.35938 26.106976Q314.54688 25.606976 315.98438 25.606976Q317.57812 25.606976 318.79688 26.1226Q320.01562 26.638226 320.65625 27.638226Q321.3125 28.6226 321.35938 29.888226L319.54688 30.02885Q319.40625 28.669476 318.5625 27.981976Q317.71875 27.27885 316.0625 27.27885Q314.34375 27.27885 313.54688 27.919476Q312.76562 28.544476 312.76562 29.419476Q312.76562 30.200726 313.32812 30.700726Q313.875 31.200726 316.1875 31.71635Q318.5 32.231976 319.35938 32.6226Q320.60938 33.200726 321.20312 34.09135Q321.79688 34.96635 321.79688 36.1226Q321.79688 37.263226 321.14062 38.27885Q320.48438 39.294476 319.25 39.856976Q318.03125 40.419476 316.5 40.419476Q314.5625 40.419476 313.25 39.856976Q311.9375 39.27885 311.1875 38.138226Q310.4375 36.9976 310.40625 35.575726ZM327.65625 38.59135L327.90625 40.15385Q327.17188 40.3101 326.57812 40.3101Q325.625 40.3101 325.09375 40.013226Q324.57812 39.700726 324.35938 39.21635Q324.14062 38.71635 324.14062 37.138226L324.14062 31.169476L322.85938 31.169476L322.85938 29.794476L324.14062 29.794476L324.14062 27.231976L325.89062 26.169476L325.89062 29.794476L327.65625 29.794476L327.65625 31.169476L325.89062 31.169476L325.89062 37.231976Q325.89062 37.981976 325.98438 38.200726Q326.07812 38.40385 326.28125 38.544476Q326.5 38.669476 326.89062 38.669476Q327.17188 38.669476 327.65625 38.59135ZM336.59375 38.888226Q335.60938 39.71635 334.70312 40.0601Q333.79688 40.40385 332.76562 40.40385Q331.0625 40.40385 330.14062 39.575726Q329.21875 38.731976 329.21875 37.4351Q329.21875 36.669476 329.5625 36.044476Q329.92188 35.419476 330.48438 35.044476Q331.04688 34.65385 331.75 34.450726Q332.26562 34.325726 333.3125 34.1851Q335.4375 33.9351 336.4375 33.59135Q336.45312 33.231976 336.45312 33.1226Q336.45312 32.0601 335.95312 31.606976Q335.28125 31.013226 333.95312 31.013226Q332.70312 31.013226 332.10938 31.450726Q331.53125 31.888226 331.25 32.9976L329.53125 32.763226Q329.76562 31.65385 330.29688 30.981976Q330.82812 30.294476 331.84375 29.9351Q332.85938 29.5601 334.20312 29.5601Q335.53125 29.5601 336.35938 29.8726Q337.1875 30.1851 337.57812 30.669476Q337.96875 31.138226 338.125 31.856976Q338.21875 32.3101 338.21875 33.481976L338.21875 35.825726Q338.21875 38.27885 338.32812 38.9351Q338.4375 39.575726 338.78125 40.169476L336.9375 40.169476Q336.67188 39.6226 336.59375 38.888226ZM336.4375 34.96635Q335.48438 35.356976 333.5625 35.6226Q332.48438 35.77885 332.03125 35.981976Q331.59375 36.169476 331.34375 36.544476Q331.09375 36.919476 331.09375 37.388226Q331.09375 38.09135 331.625 38.5601Q332.15625 39.02885 333.1875 39.02885Q334.20312 39.02885 334.98438 38.59135Q335.78125 38.138226 336.15625 37.3726Q336.4375 36.763226 336.4375 35.606976L336.4375 34.96635ZM340.8125 40.169476L340.8125 29.794476L342.40625 29.794476L342.40625 31.27885Q343.54688 29.5601 345.70312 29.5601Q346.64062 29.5601 347.42188 29.90385Q348.21875 30.231976 348.60938 30.77885Q349.0 31.325726 349.15625 32.075726Q349.25 32.575726 349.25 33.794476L349.25 40.169476L347.48438 40.169476L347.48438 33.856976Q347.48438 32.77885 347.28125 32.2476Q347.07812 31.71635 346.54688 31.40385Q346.03125 31.09135 345.32812 31.09135Q344.20312 31.09135 343.39062 31.8101Q342.57812 32.513226 342.57812 34.4976L342.57812 40.169476L340.8125 40.169476ZM358.54688 40.169476L358.54688 38.856976Q357.5625 40.40385 355.64062 40.40385Q354.40625 40.40385 353.35938 39.71635Q352.32812 39.02885 351.75 37.8101Q351.1875 36.59135 351.1875 34.9976Q351.1875 33.4351 351.70312 32.169476Q352.21875 30.90385 353.25 30.231976Q354.29688 29.5601 355.5625 29.5601Q356.5 29.5601 357.23438 29.96635Q357.96875 30.356976 358.4375 30.981976L358.4375 25.856976L360.17188 25.856976L360.17188 40.169476L358.54688 40.169476ZM352.98438 34.9976Q352.98438 36.981976 353.82812 37.96635Q354.67188 38.950726 355.8125 38.950726Q356.96875 38.950726 357.76562 38.013226Q358.57812 37.075726 358.57812 35.138226Q358.57812 33.013226 357.75 32.013226Q356.9375 31.013226 355.73438 31.013226Q354.5625 31.013226 353.76562 31.981976Q352.98438 32.9351 352.98438 34.9976ZM362.82812 27.8726L362.82812 25.856976L364.59375 25.856976L364.59375 27.8726L362.82812 27.8726ZM362.82812 40.169476L362.82812 29.794476L364.59375 29.794476L364.59375 40.169476L362.82812 40.169476ZM366.8125 40.169476L366.8125 29.794476L368.40625 29.794476L368.40625 31.27885Q369.54688 29.5601 371.70312 29.5601Q372.64062 29.5601 373.42188 29.90385Q374.21875 30.231976 374.60938 30.77885Q375.0 31.325726 375.15625 32.075726Q375.25 32.575726 375.25 33.794476L375.25 40.169476L373.48438 40.169476L373.48438 33.856976Q373.48438 32.77885 373.28125 32.2476Q373.07812 31.71635 372.54688 31.40385Q372.03125 31.09135 371.32812 31.09135Q370.20312 31.09135 369.39062 31.8101Q368.57812 32.513226 368.57812 34.4976L368.57812 40.169476L366.8125 40.169476ZM377.5 41.02885L379.20312 41.27885Q379.3125 42.075726 379.79688 42.4351Q380.45312 42.919476 381.59375 42.919476Q382.8125 42.919476 383.46875 42.4351Q384.14062 41.950726 384.375 41.075726Q384.51562 40.52885 384.5 38.8101Q383.34375 40.169476 381.625 40.169476Q379.48438 40.169476 378.3125 38.6226Q377.14062 37.075726 377.14062 34.919476Q377.14062 33.4351 377.67188 32.1851Q378.21875 30.9351 379.23438 30.2476Q380.26562 29.5601 381.64062 29.5601Q383.46875 29.5601 384.67188 31.044476L384.67188 29.794476L386.28125 29.794476L386.28125 38.763226Q386.28125 41.1851 385.78125 42.1851Q385.29688 43.200726 384.21875 43.77885Q383.15625 44.3726 381.59375 44.3726Q379.75 44.3726 378.59375 43.544476Q377.45312 42.71635 377.5 41.02885ZM378.95312 34.794476Q378.95312 36.84135 379.76562 37.77885Q380.57812 38.71635 381.79688 38.71635Q383.0 38.71635 383.8125 37.77885Q384.64062 36.84135 384.64062 34.856976Q384.64062 32.950726 383.79688 31.981976Q382.95312 31.013226 381.76562 31.013226Q380.59375 31.013226 379.76562 31.96635Q378.95312 32.919476 378.95312 34.794476ZM395.04688 40.169476L395.04688 25.856976L400.4375 25.856976Q401.875 25.856976 402.625 25.981976Q403.67188 26.169476 404.39062 26.669476Q405.10938 27.15385 405.53125 28.044476Q405.96875 28.9351 405.96875 29.9976Q405.96875 31.825726 404.79688 33.09135Q403.64062 34.34135 400.60938 34.34135L396.9375 34.34135L396.9375 40.169476L395.04688 40.169476ZM396.9375 32.65385L400.64062 32.65385Q402.46875 32.65385 403.23438 31.981976Q404.01562 31.294476 404.01562 30.044476Q404.01562 29.15385 403.5625 28.513226Q403.10938 27.8726 402.375 27.669476Q401.89062 27.544476 400.59375 27.544476L396.9375 27.544476L396.9375 32.65385ZM407.79688 40.169476L407.79688 29.794476L409.375 29.794476L409.375 31.3726Q409.98438 30.263226 410.5 29.919476Q411.01562 29.5601 411.625 29.5601Q412.51562 29.5601 413.4375 30.1226L412.82812 31.763226Q412.1875 31.3726 411.54688 31.3726Q410.96875 31.3726 410.5 31.731976Q410.04688 32.075726 409.84375 32.6851Q409.5625 33.6226 409.5625 34.731976L409.5625 40.169476L407.79688 40.169476ZM414.17188 34.981976Q414.17188 32.106976 415.76562 30.71635Q417.10938 29.5601 419.03125 29.5601Q421.17188 29.5601 422.51562 30.96635Q423.875 32.3726 423.875 34.84135Q423.875 36.84135 423.28125 37.9976Q422.6875 39.138226 421.53125 39.77885Q420.39062 40.40385 419.03125 40.40385Q416.84375 40.40385 415.5 39.013226Q414.17188 37.606976 414.17188 34.981976ZM415.96875 34.981976Q415.96875 36.981976 416.82812 37.96635Q417.70312 38.950726 419.03125 38.950726Q420.34375 38.950726 421.20312 37.96635Q422.07812 36.96635 422.07812 34.919476Q422.07812 32.9976 421.20312 32.013226Q420.32812 31.013226 419.03125 31.013226Q417.70312 31.013226 416.82812 32.013226Q415.96875 32.9976 415.96875 34.981976ZM425.8125 40.169476L425.8125 25.856976L427.57812 25.856976L427.57812 30.981976Q428.8125 29.5601 430.6875 29.5601Q431.82812 29.5601 432.67188 30.013226Q433.53125 30.46635 433.89062 31.27885Q434.26562 32.075726 434.26562 33.59135L434.26562 40.169476L432.51562 40.169476L432.51562 33.59135Q432.51562 32.27885 431.9375 31.6851Q431.35938 31.075726 430.32812 31.075726Q429.54688 31.075726 428.84375 31.481976Q428.15625 31.888226 427.85938 32.59135Q427.57812 33.27885 427.57812 34.4976L427.57812 40.169476L425.8125 40.169476ZM436.82812 27.8726L436.82812 25.856976L438.59375 25.856976L438.59375 27.8726L436.82812 27.8726ZM436.82812 40.169476L436.82812 29.794476L438.59375 29.794476L438.59375 40.169476L436.82812 40.169476ZM442.4375 40.169476L440.8125 40.169476L440.8125 25.856976L442.5625 25.856976L442.5625 30.96635Q443.6875 29.5601 445.40625 29.5601Q446.35938 29.5601 447.21875 29.950726Q448.07812 30.34135 448.625 31.044476Q449.17188 31.731976 449.48438 32.71635Q449.79688 33.700726 449.79688 34.825726Q449.79688 37.4976 448.48438 38.950726Q447.17188 40.40385 445.32812 40.40385Q443.48438 40.40385 442.4375 38.8726L442.4375 40.169476ZM442.42188 34.90385Q442.42188 36.763226 442.92188 37.606976Q443.76562 38.950726 445.17188 38.950726Q446.32812 38.950726 447.15625 37.950726Q448.0 36.950726 448.0 34.96635Q448.0 32.9351 447.1875 31.981976Q446.39062 31.013226 445.25 31.013226Q444.09375 31.013226 443.25 32.013226Q442.42188 33.013226 442.42188 34.90385ZM451.82812 27.8726L451.82812 25.856976L453.59375 25.856976L453.59375 27.8726L451.82812 27.8726ZM451.82812 40.169476L451.82812 29.794476L453.59375 29.794476L453.59375 40.169476L451.82812 40.169476ZM459.65625 38.59135L459.90625 40.15385Q459.17188 40.3101 458.57812 40.3101Q457.625 40.3101 457.09375 40.013226Q456.57812 39.700726 456.35938 39.21635Q456.14062 38.71635 456.14062 37.138226L456.14062 31.169476L454.85938 31.169476L454.85938 29.794476L456.14062 29.794476L456.14062 27.231976L457.89062 26.169476L457.89062 29.794476L459.65625 29.794476L459.65625 31.169476L457.89062 31.169476L457.89062 37.231976Q457.89062 37.981976 457.98438 38.200726Q458.07812 38.40385 458.28125 38.544476Q458.5 38.669476 458.89062 38.669476Q459.17188 38.669476 459.65625 38.59135ZM468.92188 36.825726L470.73438 37.0601Q470.3125 38.638226 469.14062 39.52885Q467.98438 40.40385 466.17188 40.40385Q463.90625 40.40385 462.5625 39.013226Q461.23438 37.606976 461.23438 35.075726Q461.23438 32.450726 462.57812 31.013226Q463.92188 29.5601 466.07812 29.5601Q468.15625 29.5601 469.46875 30.981976Q470.79688 32.388226 470.79688 34.96635Q470.79688 35.1226 470.78125 35.4351L463.04688 35.4351Q463.14062 37.138226 464.01562 38.044476Q464.89062 38.950726 466.1875 38.950726Q467.15625 38.950726 467.82812 38.450726Q468.51562 37.9351 468.92188 36.825726ZM463.14062 33.981976L468.9375 33.981976Q468.82812 32.6851 468.28125 32.02885Q467.4375 31.013226 466.09375 31.013226Q464.89062 31.013226 464.0625 31.825726Q463.23438 32.6226 463.14062 33.981976ZM479.54688 40.169476L479.54688 38.856976Q478.5625 40.40385 476.64062 40.40385Q475.40625 40.40385 474.35938 39.71635Q473.32812 39.02885 472.75 37.8101Q472.1875 36.59135 472.1875 34.9976Q472.1875 33.4351 472.70312 32.169476Q473.21875 30.90385 474.25 30.231976Q475.29688 29.5601 476.5625 29.5601Q477.5 29.5601 478.23438 29.96635Q478.96875 30.356976 479.4375 30.981976L479.4375 25.856976L481.17188 25.856976L481.17188 40.169476L479.54688 40.169476ZM473.98438 34.9976Q473.98438 36.981976 474.82812 37.96635Q475.67188 38.950726 476.8125 38.950726Q477.96875 38.950726 478.76562 38.013226Q479.57812 37.075726 479.57812 35.138226Q479.57812 33.013226 478.75 32.013226Q477.9375 31.013226 476.73438 31.013226Q475.5625 31.013226 474.76562 31.981976Q473.98438 32.9351 473.98438 34.9976ZM488.46875 40.169476L493.96875 25.856976L496.01562 25.856976L501.875 40.169476L499.71875 40.169476L498.04688 35.825726L492.0625 35.825726L490.48438 40.169476L488.46875 40.169476ZM492.60938 34.294476L497.45312 34.294476L495.96875 30.325726Q495.28125 28.513226 494.95312 27.356976Q494.67188 28.731976 494.17188 30.09135L492.60938 34.294476ZM502.8125 40.169476L502.8125 29.794476L504.40625 29.794476L504.40625 31.27885Q505.54688 29.5601 507.70312 29.5601Q508.64062 29.5601 509.42188 29.90385Q510.21875 30.231976 510.60938 30.77885Q511.0 31.325726 511.15625 32.075726Q511.25 32.575726 511.25 33.794476L511.25 40.169476L509.48438 40.169476L509.48438 33.856976Q509.48438 32.77885 509.28125 32.2476Q509.07812 31.71635 508.54688 31.40385Q508.03125 31.09135 507.32812 31.09135Q506.20312 31.09135 505.39062 31.8101Q504.57812 32.513226 504.57812 34.4976L504.57812 40.169476L502.8125 40.169476ZM513.7344 44.169476L513.5469 42.513226Q514.125 42.669476 514.5469 42.669476Q515.1406 42.669476 515.4844 42.46635Q515.84375 42.27885 516.0625 41.9351Q516.2344 41.669476 516.6094 40.6226Q516.65625 40.46635 516.7656 40.1851L512.8281 29.794476L514.71875 29.794476L516.875 35.8101Q517.2969 36.950726 517.625 38.200726Q517.9375 36.9976 518.34375 35.84135L520.5625 29.794476L522.3281 29.794476L518.375 40.34135Q517.75 42.0601 517.3906 42.700726Q516.9219 43.575726 516.3125 43.96635Q515.71875 44.3726 514.875 44.3726Q514.3594 44.3726 513.7344 44.169476ZM527.65625 38.59135L527.90625 40.15385Q527.1719 40.3101 526.5781 40.3101Q525.625 40.3101 525.09375 40.013226Q524.5781 39.700726 524.3594 39.21635Q524.1406 38.71635 524.1406 37.138226L524.1406 31.169476L522.8594 31.169476L522.8594 29.794476L524.1406 29.794476L524.1406 27.231976L525.8906 26.169476L525.8906 29.794476L527.65625 29.794476L527.65625 31.169476L525.8906 31.169476L525.8906 37.231976Q525.8906 37.981976 525.9844 38.200726Q526.0781 38.40385 526.28125 38.544476Q526.5 38.669476 526.8906 38.669476Q527.1719 38.669476 527.65625 38.59135ZM529.8281 27.8726L529.8281 25.856976L531.59375 25.856976L531.59375 27.8726L529.8281 27.8726ZM529.8281 40.169476L529.8281 29.794476L531.59375 29.794476L531.59375 40.169476L529.8281 40.169476ZM533.8125 40.169476L533.8125 29.794476L535.3906 29.794476L535.3906 31.2476Q535.875 30.4976 536.6875 30.02885Q537.5 29.5601 538.53125 29.5601Q539.6875 29.5601 540.4219 30.044476Q541.15625 30.513226 541.46875 31.3726Q542.7031 29.5601 544.6719 29.5601Q546.21875 29.5601 547.0469 30.419476Q547.875 31.27885 547.875 33.044476L547.875 40.169476L546.125 40.169476L546.125 33.638226Q546.125 32.575726 545.9531 32.1226Q545.78125 31.65385 545.3281 31.3726Q544.8906 31.09135 544.28125 31.09135Q543.1875 31.09135 542.4531 31.825726Q541.7344 32.544476 541.7344 34.138226L541.7344 40.169476L539.9844 40.169476L539.9844 33.4351Q539.9844 32.263226 539.5469 31.6851Q539.125 31.09135 538.1406 31.09135Q537.40625 31.09135 536.7656 31.481976Q536.1406 31.8726 535.8594 32.6226Q535.5781 33.3726 535.5781 34.794476L535.5781 40.169476L533.8125 40.169476ZM557.9219 36.825726L559.7344 37.0601Q559.3125 38.638226 558.1406 39.52885Q556.9844 40.40385 555.1719 40.40385Q552.90625 40.40385 551.5625 39.013226Q550.2344 37.606976 550.2344 35.075726Q550.2344 32.450726 551.5781 31.013226Q552.9219 29.5601 555.0781 29.5601Q557.15625 29.5601 558.46875 30.981976Q559.7969 32.388226 559.7969 34.96635Q559.7969 35.1226 559.78125 35.4351L552.0469 35.4351Q552.1406 37.138226 553.0156 38.044476Q553.8906 38.950726 555.1875 38.950726Q556.15625 38.950726 556.8281 38.450726Q557.5156 37.9351 557.9219 36.825726ZM552.1406 33.981976L557.9375 33.981976Q557.8281 32.6851 557.28125 32.02885Q556.4375 31.013226 555.09375 31.013226Q553.8906 31.013226 553.0625 31.825726Q552.2344 32.6226 552.1406 33.981976Z" fill-rule="nonzero"/></svg>