<svg version="1.1" viewBox="0.0 0.0 705.0 442.0" fill="none" stroke="none" stroke-linecap="square" stroke-miterlimit="10" width="705" height="442" xmlns:xlink="http://www.w3.org/1999/xlink" xmlns="http://www.w3.org/2000/svg"><path fill="#ffffff" d="M0 0L705.0 0L705.0 442.0L0 442.0L0 0Z" fill-rule="nonzero"/><path fill="#fca311" d="M262.4285 364.7954C208.55334 325.7537 185.96425 256.44858 206.4856 193.15831C227.00694 129.86803 285.9659 87.00421 352.5 87.00421L352.5 163.75325C319.23294 163.75325 289.75348 185.18515 279.4928 216.83029C269.23212 248.47543 280.52667 283.128 307.46423 302.64883Z" fill-rule="nonzero"/><path fill="#14213d" d="M389.0036 98.8402C455.47986 98.8402 514.40137 141.6308 534.96954 204.84508C555.53766 268.05936 533.07745 337.32925 479.329 376.447C425.58057 415.56473 352.7604 415.63916 298.9321 376.6314L343.96783 314.48483C370.882 333.9887 407.29208 333.9515 434.16632 314.39264C461.04053 294.83377 472.27063 260.19882 461.98657 228.59167C451.70248 196.98453 422.24173 175.58923 389.0036 175.58923Z" fill-rule="nonzero"/><path fill="#ffffff" d="M485.48315 285.28375L484.2644 285.3775Q484.09253 284.64313 483.79565 284.315Q483.29565 283.79938 482.56128 283.79938Q481.96753 283.79938 481.53003 284.1275Q480.9519 284.54938 480.60815 285.36188Q480.28003 286.17438 480.2644 287.67438Q480.7019 287.0025 481.34253 286.67438Q481.99878 286.34625 482.7019 286.34625Q483.93628 286.34625 484.79565 287.2525Q485.65503 288.15875 485.65503 289.59625Q485.65503 290.53375 485.24878 291.34625Q484.84253 292.15875 484.12378 292.59625Q483.42065 293.01813 482.5144 293.01813Q480.98315 293.01813 480.0144 291.89313Q479.04565 290.7525 479.04565 288.15875Q479.04565 285.2525 480.10815 283.92438Q481.04565 282.78375 482.6394 282.78375Q483.8269 282.78375 484.5769 283.45563Q485.3269 284.11188 485.48315 285.28375ZM480.4519 289.59625Q480.4519 290.23688 480.71753 290.815Q480.99878 291.39313 481.48315 291.70563Q481.96753 292.0025 482.49878 292.0025Q483.28003 292.0025 483.84253 291.3775Q484.40503 290.7525 484.40503 289.67438Q484.40503 288.6275 483.84253 288.03375Q483.29565 287.42438 482.4519 287.42438Q481.62378 287.42438 481.03003 288.03375Q480.4519 288.6275 480.4519 289.59625ZM487.09253 287.90875Q487.09253 286.1275 487.4519 285.04938Q487.8269 283.95563 488.54565 283.3775Q489.2644 282.78375 490.35815 282.78375Q491.17065 282.78375 491.78003 283.11188Q492.3894 283.44 492.78003 284.04938Q493.18628 284.65875 493.40503 285.53375Q493.62378 286.40875 493.62378 287.90875Q493.62378 289.67438 493.2644 290.7525Q492.90503 291.83063 492.18628 292.42438Q491.46753 293.01813 490.35815 293.01813Q488.92065 293.01813 488.09253 291.97125Q487.09253 290.72125 487.09253 287.90875ZM488.35815 287.90875Q488.35815 290.3775 488.93628 291.19Q489.5144 292.0025 490.35815 292.0025Q491.21753 292.0025 491.79565 291.19Q492.37378 290.36188 492.37378 287.90875Q492.37378 285.42438 491.79565 284.61188Q491.21753 283.79938 490.34253 283.79938Q489.49878 283.79938 488.99878 284.51813Q488.35815 285.44 488.35815 287.90875ZM495.78003 292.84625L495.78003 291.44L497.18628 291.44L497.18628 292.84625L495.78003 292.84625ZM499.09253 287.90875Q499.09253 286.1275 499.4519 285.04938Q499.8269 283.95563 500.54565 283.3775Q501.2644 282.78375 502.35815 282.78375Q503.17065 282.78375 503.78003 283.11188Q504.3894 283.44 504.78003 284.04938Q505.18628 284.65875 505.40503 285.53375Q505.62378 286.40875 505.62378 287.90875Q505.62378 289.67438 505.2644 290.7525Q504.90503 291.83063 504.18628 292.42438Q503.46753 293.01813 502.35815 293.01813Q500.92065 293.01813 500.09253 291.97125Q499.09253 290.72125 499.09253 287.90875ZM500.35815 287.90875Q500.35815 290.3775 500.93628 291.19Q501.5144 292.0025 502.35815 292.0025Q503.21753 292.0025 503.79565 291.19Q504.37378 290.36188 504.37378 287.90875Q504.37378 285.42438 503.79565 284.61188Q503.21753 283.79938 502.34253 283.79938Q501.49878 283.79938 500.99878 284.51813Q500.35815 285.44 500.35815 287.90875ZM507.3269 285.23688Q507.3269 284.15875 507.85815 283.40875Q508.40503 282.65875 509.43628 282.65875Q510.37378 282.65875 510.98315 283.33063Q511.60815 284.0025 511.60815 285.29938Q511.60815 286.58063 510.98315 287.26813Q510.35815 287.95563 509.4519 287.95563Q508.54565 287.95563 507.93628 287.28375Q507.3269 286.59625 507.3269 285.23688ZM509.46753 283.5025Q509.0144 283.5025 508.7019 283.90875Q508.40503 284.29938 508.40503 285.34625Q508.40503 286.315 508.7019 286.70563Q509.0144 287.09625 509.46753 287.09625Q509.93628 287.09625 510.23315 286.70563Q510.54565 286.315 510.54565 285.2525Q510.54565 284.28375 510.23315 283.89313Q509.92065 283.5025 509.46753 283.5025ZM509.46753 293.22125L514.9519 282.65875L515.9519 282.65875L510.49878 293.22125L509.46753 293.22125ZM513.8113 290.48688Q513.8113 289.40875 514.3425 288.67438Q514.8894 287.92438 515.92065 287.92438Q516.85815 287.92438 517.48315 288.59625Q518.10815 289.26813 518.10815 290.565Q518.10815 291.84625 517.48315 292.53375Q516.85815 293.22125 515.92065 293.22125Q515.0144 293.22125 514.405 292.54938Q513.8113 291.86188 513.8113 290.48688ZM515.9519 288.76813Q515.48315 288.76813 515.1863 289.17438Q514.8894 289.565 514.8894 290.61188Q514.8894 291.58063 515.1863 291.97125Q515.4988 292.36188 515.9519 292.36188Q516.42065 292.36188 516.7175 291.97125Q517.03 291.58063 517.03 290.51813Q517.03 289.54938 516.7175 289.15875Q516.42065 288.76813 515.9519 288.76813Z" fill-rule="nonzero"/><path fill="#14213d" d="M243.0 414.91238C243.0 418.22607 240.3137 420.91238 237.0 420.91238C233.6863 420.91238 231.0 418.22607 231.0 414.91238C231.0 411.59866 233.6863 408.91238 237.0 408.91238C240.3137 408.91238 243.0 411.59866 243.0 414.91238Z" fill-rule="nonzero"/><path fill="#1a1a1a" d="M258.0625 415.89676L259.1875 416.19363Q258.82812 417.58426 257.90625 418.31863Q256.98438 419.053 255.64062 419.053Q254.25 419.053 253.375 418.4905Q252.5 417.928 252.04688 416.8655Q251.59375 415.78738 251.59375 414.553Q251.59375 413.20926 252.10938 412.20926Q252.625 411.20926 253.5625 410.69363Q254.51562 410.178 255.65625 410.178Q256.9375 410.178 257.8125 410.83426Q258.70312 411.4905 259.04688 412.678L257.92188 412.94363Q257.625 412.00613 257.04688 411.58426Q256.48438 411.14676 255.625 411.14676Q254.64062 411.14676 253.96875 411.63113Q253.3125 412.09988 253.03125 412.89676Q252.76562 413.69363 252.76562 414.553Q252.76562 415.64676 253.07812 416.45926Q253.40625 417.27176 254.07812 417.678Q254.75 418.08426 255.54688 418.08426Q256.5 418.08426 257.15625 417.53738Q257.82812 416.9905 258.0625 415.89676ZM264.85938 418.14676Q264.26562 418.64676 263.71875 418.84988Q263.1875 419.053 262.5625 419.053Q261.53125 419.053 260.98438 418.553Q260.4375 418.053 260.4375 417.27176Q260.4375 416.81863 260.64062 416.44363Q260.84375 416.053 261.1875 415.83426Q261.53125 415.59988 261.95312 415.4905Q262.25 415.39676 262.89062 415.31863Q264.15625 415.178 264.76562 414.95926Q264.76562 414.7405 264.76562 414.69363Q264.76562 414.03738 264.46875 413.77176Q264.0625 413.428 263.26562 413.428Q262.53125 413.428 262.17188 413.69363Q261.8125 413.94363 261.64062 414.59988L260.60938 414.45926Q260.75 413.803 261.07812 413.39676Q261.40625 412.9905 262.01562 412.77176Q262.625 412.553 263.42188 412.553Q264.21875 412.553 264.71875 412.7405Q265.21875 412.928 265.45312 413.20926Q265.6875 413.4905 265.78125 413.928Q265.82812 414.19363 265.82812 414.89676L265.82812 416.303Q265.82812 417.77176 265.89062 418.16238Q265.96875 418.553 266.17188 418.91238L265.0625 418.91238Q264.90625 418.58426 264.85938 418.14676ZM264.76562 415.78738Q264.1875 416.02176 263.04688 416.19363Q262.39062 416.28738 262.125 416.41238Q261.85938 416.52176 261.70312 416.7405Q261.5625 416.95926 261.5625 417.2405Q261.5625 417.66238 261.875 417.94363Q262.20312 418.22488 262.8125 418.22488Q263.42188 418.22488 263.89062 417.95926Q264.375 417.69363 264.59375 417.22488Q264.76562 416.8655 264.76562 416.178L264.76562 415.78738ZM267.375 417.053L268.40625 416.89676Q268.5 417.52176 268.89062 417.84988Q269.29688 418.178 270.03125 418.178Q270.75 418.178 271.09375 417.89676Q271.45312 417.59988 271.45312 417.19363Q271.45312 416.83426 271.14062 416.63113Q270.92188 416.4905 270.0625 416.27176Q268.90625 415.97488 268.45312 415.77176Q268.01562 415.553 267.78125 415.178Q267.54688 414.803 267.54688 414.33426Q267.54688 413.928 267.73438 413.56863Q267.92188 413.20926 268.25 412.97488Q268.5 412.803 268.92188 412.678Q269.34375 412.553 269.84375 412.553Q270.5625 412.553 271.10938 412.77176Q271.67188 412.97488 271.9375 413.33426Q272.20312 413.69363 272.29688 414.28738L271.26562 414.428Q271.20312 413.95926 270.85938 413.69363Q270.53125 413.41238 269.90625 413.41238Q269.1875 413.41238 268.875 413.66238Q268.5625 413.89676 268.5625 414.22488Q268.5625 414.428 268.6875 414.58426Q268.82812 414.75613 269.09375 414.8655Q269.25 414.928 270.03125 415.13113Q271.15625 415.44363 271.59375 415.63113Q272.03125 415.81863 272.28125 416.178Q272.53125 416.53738 272.53125 417.08426Q272.53125 417.6155 272.21875 418.08426Q271.92188 418.53738 271.34375 418.803Q270.76562 419.053 270.03125 419.053Q268.8125 419.053 268.17188 418.553Q267.54688 418.03738 267.375 417.053ZM278.04688 416.91238L279.14062 417.03738Q278.89062 417.9905 278.1875 418.52176Q277.48438 419.053 276.40625 419.053Q275.04688 419.053 274.23438 418.20926Q273.4375 417.3655 273.4375 415.84988Q273.4375 414.28738 274.25 413.428Q275.0625 412.553 276.34375 412.553Q277.59375 412.553 278.375 413.39676Q279.17188 414.2405 279.17188 415.78738Q279.17188 415.88113 279.17188 416.06863L274.53125 416.06863Q274.59375 417.09988 275.10938 417.64676Q275.625 418.178 276.40625 418.178Q276.98438 418.178 277.39062 417.88113Q277.8125 417.56863 278.04688 416.91238ZM274.59375 415.20926L278.0625 415.20926Q278.0 414.41238 277.67188 414.02176Q277.15625 413.41238 276.35938 413.41238Q275.625 413.41238 275.125 413.89676Q274.64062 414.38113 274.59375 415.20926ZM280.375 417.053L281.40625 416.89676Q281.5 417.52176 281.89062 417.84988Q282.29688 418.178 283.03125 418.178Q283.75 418.178 284.09375 417.89676Q284.45312 417.59988 284.45312 417.19363Q284.45312 416.83426 284.14062 416.63113Q283.92188 416.4905 283.0625 416.27176Q281.90625 415.97488 281.45312 415.77176Q281.01562 415.553 280.78125 415.178Q280.54688 414.803 280.54688 414.33426Q280.54688 413.928 280.73438 413.56863Q280.92188 413.20926 281.25 412.97488Q281.5 412.803 281.92188 412.678Q282.34375 412.553 282.84375 412.553Q283.5625 412.553 284.10938 412.77176Q284.67188 412.97488 284.9375 413.33426Q285.20312 413.69363 285.29688 414.28738L284.26562 414.428Q284.20312 413.95926 283.85938 413.69363Q283.53125 413.41238 282.90625 413.41238Q282.1875 413.41238 281.875 413.66238Q281.5625 413.89676 281.5625 414.22488Q281.5625 414.428 281.6875 414.58426Q281.82812 414.75613 282.09375 414.8655Q282.25 414.928 283.03125 415.13113Q284.15625 415.44363 284.59375 415.63113Q285.03125 415.81863 285.28125 416.178Q285.53125 416.53738 285.53125 417.08426Q285.53125 417.6155 285.21875 418.08426Q284.92188 418.53738 284.34375 418.803Q283.76562 419.053 283.03125 419.053Q281.8125 419.053 281.17188 418.553Q280.54688 418.03738 280.375 417.053ZM291.42188 418.91238L289.14062 410.31863L290.3125 410.31863L291.625 415.95926Q291.82812 416.83426 291.98438 417.70926Q292.3125 416.33426 292.375 416.1155L294.0 410.31863L295.375 410.31863L296.60938 414.66238Q297.0625 416.28738 297.28125 417.70926Q297.4375 416.89676 297.70312 415.83426L299.04688 410.31863L300.1875 410.31863L297.84375 418.91238L296.73438 418.91238L294.9375 412.3655Q294.70312 411.553 294.65625 411.3655Q294.53125 411.94363 294.40625 412.3655L292.59375 418.91238L291.42188 418.91238ZM300.40625 415.803Q300.40625 414.06863 301.35938 413.2405Q302.15625 412.553 303.3125 412.553Q304.59375 412.553 305.40625 413.39676Q306.23438 414.22488 306.23438 415.70926Q306.23438 416.91238 305.875 417.59988Q305.51562 418.28738 304.8125 418.678Q304.125 419.053 303.3125 419.053Q302.01562 419.053 301.20312 418.22488Q300.40625 417.38113 300.40625 415.803ZM301.48438 415.803Q301.48438 416.9905 302.0 417.58426Q302.53125 418.178 303.3125 418.178Q304.10938 418.178 304.625 417.58426Q305.14062 416.9905 305.14062 415.77176Q305.14062 414.6155 304.60938 414.02176Q304.09375 413.428 303.3125 413.428Q302.53125 413.428 302.0 414.02176Q301.48438 414.59988 301.48438 415.803ZM307.79688 418.91238L307.79688 412.69363L308.73438 412.69363L308.73438 413.56863Q309.42188 412.553 310.71875 412.553Q311.28125 412.553 311.75 412.75613Q312.23438 412.95926 312.46875 413.28738Q312.70312 413.6155 312.79688 414.053Q312.84375 414.34988 312.84375 415.08426L312.84375 418.91238L311.79688 418.91238L311.79688 415.13113Q311.79688 414.47488 311.67188 414.16238Q311.54688 413.84988 311.23438 413.66238Q310.92188 413.45926 310.5 413.45926Q309.82812 413.45926 309.32812 413.89676Q308.84375 414.31863 308.84375 415.50613L308.84375 418.91238L307.79688 418.91238Z" fill-rule="nonzero"/><path fill="#fca311" d="M342.0 414.91238C342.0 418.22607 339.31372 420.91238 336.0 420.91238C332.68628 420.91238 330.0 418.22607 330.0 414.91238C330.0 411.59866 332.68628 408.91238 336.0 408.91238C339.31372 408.91238 342.0 411.59866 342.0 414.91238Z" fill-rule="nonzero"/><path fill="#1a1a1a" d="M353.10938 418.91238L353.10938 411.33426L350.28125 411.33426L350.28125 410.31863L357.09375 410.31863L357.09375 411.33426L354.25 411.33426L354.25 418.91238L353.10938 418.91238ZM357.40625 415.803Q357.40625 414.06863 358.35938 413.2405Q359.15625 412.553 360.3125 412.553Q361.59375 412.553 362.40625 413.39676Q363.23438 414.22488 363.23438 415.70926Q363.23438 416.91238 362.875 417.59988Q362.51562 418.28738 361.8125 418.678Q361.125 419.053 360.3125 419.053Q359.01562 419.053 358.20312 418.22488Q357.40625 417.38113 357.40625 415.803ZM358.48438 415.803Q358.48438 416.9905 359.0 417.58426Q359.53125 418.178 360.3125 418.178Q361.10938 418.178 361.625 417.58426Q362.14062 416.9905 362.14062 415.77176Q362.14062 414.6155 361.60938 414.02176Q361.09375 413.428 360.3125 413.428Q359.53125 413.428 359.0 414.02176Q358.48438 414.59988 358.48438 415.803ZM367.09375 417.97488L367.25 418.89676Q366.79688 418.9905 366.45312 418.9905Q365.875 418.9905 365.5625 418.81863Q365.25 418.63113 365.10938 418.33426Q364.98438 418.03738 364.98438 417.08426L364.98438 413.50613L364.21875 413.50613L364.21875 412.69363L364.98438 412.69363L364.98438 411.14676L366.03125 410.52176L366.03125 412.69363L367.09375 412.69363L367.09375 413.50613L366.03125 413.50613L366.03125 417.14676Q366.03125 417.59988 366.07812 417.72488Q366.14062 417.84988 366.26562 417.928Q366.39062 418.00613 366.625 418.00613Q366.8125 418.00613 367.09375 417.97488ZM371.85938 418.14676Q371.26562 418.64676 370.71875 418.84988Q370.1875 419.053 369.5625 419.053Q368.53125 419.053 367.98438 418.553Q367.4375 418.053 367.4375 417.27176Q367.4375 416.81863 367.64062 416.44363Q367.84375 416.053 368.1875 415.83426Q368.53125 415.59988 368.95312 415.4905Q369.25 415.39676 369.89062 415.31863Q371.15625 415.178 371.76562 414.95926Q371.76562 414.7405 371.76562 414.69363Q371.76562 414.03738 371.46875 413.77176Q371.0625 413.428 370.26562 413.428Q369.53125 413.428 369.17188 413.69363Q368.8125 413.94363 368.64062 414.59988L367.60938 414.45926Q367.75 413.803 368.07812 413.39676Q368.40625 412.9905 369.01562 412.77176Q369.625 412.553 370.42188 412.553Q371.21875 412.553 371.71875 412.7405Q372.21875 412.928 372.45312 413.20926Q372.6875 413.4905 372.78125 413.928Q372.82812 414.19363 372.82812 414.89676L372.82812 416.303Q372.82812 417.77176 372.89062 418.16238Q372.96875 418.553 373.17188 418.91238L372.0625 418.91238Q371.90625 418.58426 371.85938 418.14676ZM371.76562 415.78738Q371.1875 416.02176 370.04688 416.19363Q369.39062 416.28738 369.125 416.41238Q368.85938 416.52176 368.70312 416.7405Q368.5625 416.95926 368.5625 417.2405Q368.5625 417.66238 368.875 417.94363Q369.20312 418.22488 369.8125 418.22488Q370.42188 418.22488 370.89062 417.95926Q371.375 417.69363 371.59375 417.22488Q371.76562 416.8655 371.76562 416.178L371.76562 415.78738ZM374.76562 418.91238L374.76562 410.31863L375.82812 410.31863L375.82812 418.91238L374.76562 418.91238ZM387.0625 415.89676L388.1875 416.19363Q387.82812 417.58426 386.90625 418.31863Q385.98438 419.053 384.64062 419.053Q383.25 419.053 382.375 418.4905Q381.5 417.928 381.04688 416.8655Q380.59375 415.78738 380.59375 414.553Q380.59375 413.20926 381.10938 412.20926Q381.625 411.20926 382.5625 410.69363Q383.51562 410.178 384.65625 410.178Q385.9375 410.178 386.8125 410.83426Q387.70312 411.4905 388.04688 412.678L386.92188 412.94363Q386.625 412.00613 386.04688 411.58426Q385.48438 411.14676 384.625 411.14676Q383.64062 411.14676 382.96875 411.63113Q382.3125 412.09988 382.03125 412.89676Q381.76562 413.69363 381.76562 414.553Q381.76562 415.64676 382.07812 416.45926Q382.40625 417.27176 383.07812 417.678Q383.75 418.08426 384.54688 418.08426Q385.5 418.08426 386.15625 417.53738Q386.82812 416.9905 387.0625 415.89676ZM389.40625 415.803Q389.40625 414.06863 390.35938 413.2405Q391.15625 412.553 392.3125 412.553Q393.59375 412.553 394.40625 413.39676Q395.23438 414.22488 395.23438 415.70926Q395.23438 416.91238 394.875 417.59988Q394.51562 418.28738 393.8125 418.678Q393.125 419.053 392.3125 419.053Q391.01562 419.053 390.20312 418.22488Q389.40625 417.38113 389.40625 415.803ZM390.48438 415.803Q390.48438 416.9905 391.0 417.58426Q391.53125 418.178 392.3125 418.178Q393.10938 418.178 393.625 417.58426Q394.14062 416.9905 394.14062 415.77176Q394.14062 414.6155 393.60938 414.02176Q393.09375 413.428 392.3125 413.428Q391.53125 413.428 391.0 414.02176Q390.48438 414.59988 390.48438 415.803ZM396.79688 418.91238L396.79688 412.69363L397.73438 412.69363L397.73438 413.56863Q398.42188 412.553 399.71875 412.553Q400.28125 412.553 400.75 412.75613Q401.23438 412.95926 401.46875 413.28738Q401.70312 413.6155 401.79688 414.053Q401.84375 414.34988 401.84375 415.08426L401.84375 418.91238L400.79688 418.91238L400.79688 415.13113Q400.79688 414.47488 400.67188 414.16238Q400.54688 413.84988 400.23438 413.66238Q399.92188 413.45926 399.5 413.45926Q398.82812 413.45926 398.32812 413.89676Q397.84375 414.31863 397.84375 415.50613L397.84375 418.91238L396.79688 418.91238ZM406.09375 417.97488L406.25 418.89676Q405.79688 418.9905 405.45312 418.9905Q404.875 418.9905 404.5625 418.81863Q404.25 418.63113 404.10938 418.33426Q403.98438 418.03738 403.98438 417.08426L403.98438 413.50613L403.21875 413.50613L403.21875 412.69363L403.98438 412.69363L403.98438 411.14676L405.03125 410.52176L405.03125 412.69363L406.09375 412.69363L406.09375 413.50613L405.03125 413.50613L405.03125 417.14676Q405.03125 417.59988 405.07812 417.72488Q405.14062 417.84988 405.26562 417.928Q405.39062 418.00613 405.625 418.00613Q405.8125 418.00613 406.09375 417.97488ZM411.04688 416.91238L412.14062 417.03738Q411.89062 417.9905 411.1875 418.52176Q410.48438 419.053 409.40625 419.053Q408.04688 419.053 407.23438 418.20926Q406.4375 417.3655 406.4375 415.84988Q406.4375 414.28738 407.25 413.428Q408.0625 412.553 409.34375 412.553Q410.59375 412.553 411.375 413.39676Q412.17188 414.2405 412.17188 415.78738Q412.17188 415.88113 412.17188 416.06863L407.53125 416.06863Q407.59375 417.09988 408.10938 417.64676Q408.625 418.178 409.40625 418.178Q409.98438 418.178 410.39062 417.88113Q410.8125 417.56863 411.04688 416.91238ZM407.59375 415.20926L411.0625 415.20926Q411.0 414.41238 410.67188 414.02176Q410.15625 413.41238 409.35938 413.41238Q408.625 413.41238 408.125 413.89676Q407.64062 414.38113 407.59375 415.20926ZM413.375 417.053L414.40625 416.89676Q414.5 417.52176 414.89062 417.84988Q415.29688 418.178 416.03125 418.178Q416.75 418.178 417.09375 417.89676Q417.45312 417.59988 417.45312 417.19363Q417.45312 416.83426 417.14062 416.63113Q416.92188 416.4905 416.0625 416.27176Q414.90625 415.97488 414.45312 415.77176Q414.01562 415.553 413.78125 415.178Q413.54688 414.803 413.54688 414.33426Q413.54688 413.928 413.73438 413.56863Q413.92188 413.20926 414.25 412.97488Q414.5 412.803 414.92188 412.678Q415.34375 412.553 415.84375 412.553Q416.5625 412.553 417.10938 412.77176Q417.67188 412.97488 417.9375 413.33426Q418.20312 413.69363 418.29688 414.28738L417.26562 414.428Q417.20312 413.95926 416.85938 413.69363Q416.53125 413.41238 415.90625 413.41238Q415.1875 413.41238 414.875 413.66238Q414.5625 413.89676 414.5625 414.22488Q414.5625 414.428 414.6875 414.58426Q414.82812 414.75613 415.09375 414.8655Q415.25 414.928 416.03125 415.13113Q417.15625 415.44363 417.59375 415.63113Q418.03125 415.81863 418.28125 416.178Q418.53125 416.53738 418.53125 417.08426Q418.53125 417.6155 418.21875 418.08426Q417.92188 418.53738 417.34375 418.803Q416.76562 419.053 416.03125 419.053Q414.8125 419.053 414.17188 418.553Q413.54688 418.03738 413.375 417.053ZM422.09375 417.97488L422.25 418.89676Q421.79688 418.9905 421.45312 418.9905Q420.875 418.9905 420.5625 418.81863Q420.25 418.63113 420.10938 418.33426Q419.98438 418.03738 419.98438 417.08426L419.98438 413.50613L419.21875 413.50613L419.21875 412.69363L419.98438 412.69363L419.98438 411.14676L421.03125 410.52176L421.03125 412.69363L422.09375 412.69363L422.09375 413.50613L421.03125 413.50613L421.03125 417.14676Q421.03125 417.59988 421.07812 417.72488Q421.14062 417.84988 421.26562 417.928Q421.39062 418.00613 421.625 418.00613Q421.8125 418.00613 422.09375 417.97488ZM427.04688 416.91238L428.14062 417.03738Q427.89062 417.9905 427.1875 418.52176Q426.48438 419.053 425.40625 419.053Q424.04688 419.053 423.23438 418.20926Q422.4375 417.3655 422.4375 415.84988Q422.4375 414.28738 423.25 413.428Q424.0625 412.553 425.34375 412.553Q426.59375 412.553 427.375 413.39676Q428.17188 414.2405 428.17188 415.78738Q428.17188 415.88113 428.17188 416.06863L423.53125 416.06863Q423.59375 417.09988 424.10938 417.64676Q424.625 418.178 425.40625 418.178Q425.98438 418.178 426.39062 417.88113Q426.8125 417.56863 427.04688 416.91238ZM423.59375 415.20926L427.0625 415.20926Q427.0 414.41238 426.67188 414.02176Q426.15625 413.41238 425.35938 413.41238Q424.625 413.41238 424.125 413.89676Q423.64062 414.38113 423.59375 415.20926ZM433.82812 418.91238L433.82812 418.13113Q433.23438 419.053 432.09375 419.053Q431.34375 419.053 430.71875 418.64676Q430.09375 418.22488 429.75 417.4905Q429.40625 416.75613 429.40625 415.803Q429.40625 414.88113 429.71875 414.1155Q430.03125 413.34988 430.65625 412.95926Q431.28125 412.553 432.04688 412.553Q432.60938 412.553 433.04688 412.78738Q433.48438 413.02176 433.76562 413.39676L433.76562 410.31863L434.8125 410.31863L434.8125 418.91238L433.82812 418.91238ZM430.5 415.803Q430.5 417.00613 431.0 417.59988Q431.5 418.178 432.1875 418.178Q432.875 418.178 433.35938 417.6155Q433.84375 417.053 433.84375 415.89676Q433.84375 414.6155 433.34375 414.02176Q432.85938 413.428 432.14062 413.428Q431.4375 413.428 430.96875 414.00613Q430.5 414.56863 430.5 415.803ZM446.0625 415.89676L447.1875 416.19363Q446.82812 417.58426 445.90625 418.31863Q444.98438 419.053 443.64062 419.053Q442.25 419.053 441.375 418.4905Q440.5 417.928 440.04688 416.8655Q439.59375 415.78738 439.59375 414.553Q439.59375 413.20926 440.10938 412.20926Q440.625 411.20926 441.5625 410.69363Q442.51562 410.178 443.65625 410.178Q444.9375 410.178 445.8125 410.83426Q446.70312 411.4905 447.04688 412.678L445.92188 412.94363Q445.625 412.00613 445.04688 411.58426Q444.48438 411.14676 443.625 411.14676Q442.64062 411.14676 441.96875 411.63113Q441.3125 412.09988 441.03125 412.89676Q440.76562 413.69363 440.76562 414.553Q440.76562 415.64676 441.07812 416.45926Q441.40625 417.27176 442.07812 417.678Q442.75 418.08426 443.54688 418.08426Q444.5 418.08426 445.15625 417.53738Q445.82812 416.9905 446.0625 415.89676ZM452.85938 418.14676Q452.26562 418.64676 451.71875 418.84988Q451.1875 419.053 450.5625 419.053Q449.53125 419.053 448.98438 418.553Q448.4375 418.053 448.4375 417.27176Q448.4375 416.81863 448.64062 416.44363Q448.84375 416.053 449.1875 415.83426Q449.53125 415.59988 449.95312 415.4905Q450.25 415.39676 450.89062 415.31863Q452.15625 415.178 452.76562 414.95926Q452.76562 414.7405 452.76562 414.69363Q452.76562 414.03738 452.46875 413.77176Q452.0625 413.428 451.26562 413.428Q450.53125 413.428 450.17188 413.69363Q449.8125 413.94363 449.64062 414.59988L448.60938 414.45926Q448.75 413.803 449.07812 413.39676Q449.40625 412.9905 450.01562 412.77176Q450.625 412.553 451.42188 412.553Q452.21875 412.553 452.71875 412.7405Q453.21875 412.928 453.45312 413.20926Q453.6875 413.4905 453.78125 413.928Q453.82812 414.19363 453.82812 414.89676L453.82812 416.303Q453.82812 417.77176 453.89062 418.16238Q453.96875 418.553 454.17188 418.91238L453.0625 418.91238Q452.90625 418.58426 452.85938 418.14676ZM452.76562 415.78738Q452.1875 416.02176 451.04688 416.19363Q450.39062 416.28738 450.125 416.41238Q449.85938 416.52176 449.70312 416.7405Q449.5625 416.95926 449.5625 417.2405Q449.5625 417.66238 449.875 417.94363Q450.20312 418.22488 450.8125 418.22488Q451.42188 418.22488 451.89062 417.95926Q452.375 417.69363 452.59375 417.22488Q452.76562 416.8655 452.76562 416.178L452.76562 415.78738ZM455.375 417.053L456.40625 416.89676Q456.5 417.52176 456.89062 417.84988Q457.29688 418.178 458.03125 418.178Q458.75 418.178 459.09375 417.89676Q459.45312 417.59988 459.45312 417.19363Q459.45312 416.83426 459.14062 416.63113Q458.92188 416.4905 458.0625 416.27176Q456.90625 415.97488 456.45312 415.77176Q456.01562 415.553 455.78125 415.178Q455.54688 414.803 455.54688 414.33426Q455.54688 413.928 455.73438 413.56863Q455.92188 413.20926 456.25 412.97488Q456.5 412.803 456.92188 412.678Q457.34375 412.553 457.84375 412.553Q458.5625 412.553 459.10938 412.77176Q459.67188 412.97488 459.9375 413.33426Q460.20312 413.69363 460.29688 414.28738L459.26562 414.428Q459.20312 413.95926 458.85938 413.69363Q458.53125 413.41238 457.90625 413.41238Q457.1875 413.41238 456.875 413.66238Q456.5625 413.89676 456.5625 414.22488Q456.5625 414.428 456.6875 414.58426Q456.82812 414.75613 457.09375 414.8655Q457.25 414.928 458.03125 415.13113Q459.15625 415.44363 459.59375 415.63113Q460.03125 415.81863 460.28125 416.178Q460.53125 416.53738 460.53125 417.08426Q460.53125 417.6155 460.21875 418.08426Q459.92188 418.53738 459.34375 418.803Q458.76562 419.053 458.03125 419.053Q456.8125 419.053 456.17188 418.553Q455.54688 418.03738 455.375 417.053ZM466.04688 416.91238L467.14062 417.03738Q466.89062 417.9905 466.1875 418.52176Q465.48438 419.053 464.40625 419.053Q463.04688 419.053 462.23438 418.20926Q461.4375 417.3655 461.4375 415.84988Q461.4375 414.28738 462.25 413.428Q463.0625 412.553 464.34375 412.553Q465.59375 412.553 466.375 413.39676Q467.17188 414.2405 467.17188 415.78738Q467.17188 415.88113 467.17188 416.06863L462.53125 416.06863Q462.59375 417.09988 463.10938 417.64676Q463.625 418.178 464.40625 418.178Q464.98438 418.178 465.39062 417.88113Q465.8125 417.56863 466.04688 416.91238ZM462.59375 415.20926L466.0625 415.20926Q466.0 414.41238 465.67188 414.02176Q465.15625 413.41238 464.35938 413.41238Q463.625 413.41238 463.125 413.89676Q462.64062 414.38113 462.59375 415.20926ZM468.375 417.053L469.40625 416.89676Q469.5 417.52176 469.89062 417.84988Q470.29688 418.178 471.03125 418.178Q471.75 418.178 472.09375 417.89676Q472.45312 417.59988 472.45312 417.19363Q472.45312 416.83426 472.14062 416.63113Q471.92188 416.4905 471.0625 416.27176Q469.90625 415.97488 469.45312 415.77176Q469.01562 415.553 468.78125 415.178Q468.54688 414.803 468.54688 414.33426Q468.54688 413.928 468.73438 413.56863Q468.92188 413.20926 469.25 412.97488Q469.5 412.803 469.92188 412.678Q470.34375 412.553 470.84375 412.553Q471.5625 412.553 472.10938 412.77176Q472.67188 412.97488 472.9375 413.33426Q473.20312 413.69363 473.29688 414.28738L472.26562 414.428Q472.20312 413.95926 471.85938 413.69363Q471.53125 413.41238 470.90625 413.41238Q470.1875 413.41238 469.875 413.66238Q469.5625 413.89676 469.5625 414.22488Q469.5625 414.428 469.6875 414.58426Q469.82812 414.75613 470.09375 414.8655Q470.25 414.928 471.03125 415.13113Q472.15625 415.44363 472.59375 415.63113Q473.03125 415.81863 473.28125 416.178Q473.53125 416.53738 473.53125 417.08426Q473.53125 417.6155 473.21875 418.08426Q472.92188 418.53738 472.34375 418.803Q471.76562 419.053 471.03125 419.053Q469.8125 419.053 469.17188 418.553Q468.54688 418.03738 468.375 417.053Z" fill-rule="nonzero"/><path fill="#757575" d="M193.76562 35.15385L195.65625 35.6226Q195.0625 37.96635 193.51562 39.200726Q191.96875 40.419476 189.71875 40.419476Q187.40625 40.419476 185.95312 39.481976Q184.51562 38.52885 183.75 36.7476Q183.0 34.950726 183.0 32.90385Q183.0 30.669476 183.84375 29.013226Q184.70312 27.34135 186.28125 26.481976Q187.85938 25.606976 189.75 25.606976Q191.90625 25.606976 193.35938 26.700726Q194.82812 27.794476 195.40625 29.77885L193.54688 30.21635Q193.04688 28.65385 192.09375 27.950726Q191.15625 27.231976 189.71875 27.231976Q188.0625 27.231976 186.95312 28.02885Q185.84375 28.8101 185.39062 30.15385Q184.95312 31.481976 184.95312 32.888226Q184.95312 34.71635 185.48438 36.09135Q186.01562 37.450726 187.14062 38.1226Q188.26562 38.794476 189.5625 38.794476Q191.15625 38.794476 192.26562 37.8726Q193.375 36.950726 193.76562 35.15385ZM204.09375 38.888226Q203.10938 39.71635 202.20312 40.0601Q201.29688 40.40385 200.26562 40.40385Q198.5625 40.40385 197.64062 39.575726Q196.71875 38.731976 196.71875 37.4351Q196.71875 36.669476 197.0625 36.044476Q197.42188 35.419476 197.98438 35.044476Q198.54688 34.65385 199.25 34.450726Q199.76562 34.325726 200.8125 34.1851Q202.9375 33.9351 203.9375 33.59135Q203.95312 33.231976 203.95312 33.1226Q203.95312 32.0601 203.45312 31.606976Q202.78125 31.013226 201.45312 31.013226Q200.20312 31.013226 199.60938 31.450726Q199.03125 31.888226 198.75 32.9976L197.03125 32.763226Q197.26562 31.65385 197.79688 30.981976Q198.32812 30.294476 199.34375 29.9351Q200.35938 29.5601 201.70312 29.5601Q203.03125 29.5601 203.85938 29.8726Q204.6875 30.1851 205.07812 30.669476Q205.46875 31.138226 205.625 31.856976Q205.71875 32.3101 205.71875 33.481976L205.71875 35.825726Q205.71875 38.27885 205.82812 38.9351Q205.9375 39.575726 206.28125 40.169476L204.4375 40.169476Q204.17188 39.6226 204.09375 38.888226ZM203.9375 34.96635Q202.98438 35.356976 201.0625 35.6226Q199.98438 35.77885 199.53125 35.981976Q199.09375 36.169476 198.84375 36.544476Q198.59375 36.919476 198.59375 37.388226Q198.59375 38.09135 199.125 38.5601Q199.65625 39.02885 200.6875 39.02885Q201.70312 39.02885 202.48438 38.59135Q203.28125 38.138226 203.65625 37.3726Q203.9375 36.763226 203.9375 35.606976L203.9375 34.96635ZM207.60938 37.075726L209.35938 36.794476Q209.5 37.84135 210.17188 38.40385Q210.84375 38.950726 212.04688 38.950726Q213.25 38.950726 213.82812 38.46635Q214.42188 37.96635 214.42188 37.3101Q214.42188 36.71635 213.90625 36.3726Q213.54688 36.138226 212.10938 35.77885Q210.17188 35.27885 209.42188 34.9351Q208.6875 34.575726 208.29688 33.950726Q207.90625 33.3101 207.90625 32.544476Q207.90625 31.856976 208.21875 31.263226Q208.54688 30.669476 209.09375 30.27885Q209.5 29.981976 210.20312 29.77885Q210.92188 29.5601 211.73438 29.5601Q212.95312 29.5601 213.875 29.919476Q214.79688 30.263226 215.23438 30.8726Q215.67188 31.46635 215.84375 32.46635L214.125 32.700726Q214.0 31.90385 213.4375 31.46635Q212.875 31.013226 211.85938 31.013226Q210.64062 31.013226 210.125 31.419476Q209.60938 31.8101 209.60938 32.34135Q209.60938 32.6851 209.82812 32.96635Q210.03125 33.2476 210.5 33.4351Q210.76562 33.52885 212.04688 33.8726Q213.92188 34.3726 214.65625 34.700726Q215.39062 35.013226 215.8125 35.6226Q216.23438 36.21635 216.23438 37.1226Q216.23438 37.9976 215.71875 38.77885Q215.20312 39.5601 214.23438 39.981976Q213.26562 40.40385 212.04688 40.40385Q210.03125 40.40385 208.96875 39.5601Q207.90625 38.71635 207.60938 37.075726ZM225.42188 36.825726L227.23438 37.0601Q226.8125 38.638226 225.64062 39.52885Q224.48438 40.40385 222.67188 40.40385Q220.40625 40.40385 219.0625 39.013226Q217.73438 37.606976 217.73438 35.075726Q217.73438 32.450726 219.07812 31.013226Q220.42188 29.5601 222.57812 29.5601Q224.65625 29.5601 225.96875 30.981976Q227.29688 32.388226 227.29688 34.96635Q227.29688 35.1226 227.28125 35.4351L219.54688 35.4351Q219.64062 37.138226 220.51562 38.044476Q221.39062 38.950726 222.6875 38.950726Q223.65625 38.950726 224.32812 38.450726Q225.01562 37.9351 225.42188 36.825726ZM219.64062 33.981976L225.4375 33.981976Q225.32812 32.6851 224.78125 32.02885Q223.9375 31.013226 222.59375 31.013226Q221.39062 31.013226 220.5625 31.825726Q219.73438 32.6226 219.64062 33.981976ZM228.60938 37.075726L230.35938 36.794476Q230.5 37.84135 231.17188 38.40385Q231.84375 38.950726 233.04688 38.950726Q234.25 38.950726 234.82812 38.46635Q235.42188 37.96635 235.42188 37.3101Q235.42188 36.71635 234.90625 36.3726Q234.54688 36.138226 233.10938 35.77885Q231.17188 35.27885 230.42188 34.9351Q229.6875 34.575726 229.29688 33.950726Q228.90625 33.3101 228.90625 32.544476Q228.90625 31.856976 229.21875 31.263226Q229.54688 30.669476 230.09375 30.27885Q230.5 29.981976 231.20312 29.77885Q231.92188 29.5601 232.73438 29.5601Q233.95312 29.5601 234.875 29.919476Q235.79688 30.263226 236.23438 30.8726Q236.67188 31.46635 236.84375 32.46635L235.125 32.700726Q235.0 31.90385 234.4375 31.46635Q233.875 31.013226 232.85938 31.013226Q231.64062 31.013226 231.125 31.419476Q230.60938 31.8101 230.60938 32.34135Q230.60938 32.6851 230.82812 32.96635Q231.03125 33.2476 231.5 33.4351Q231.76562 33.52885 233.04688 33.8726Q234.92188 34.3726 235.65625 34.700726Q236.39062 35.013226 236.8125 35.6226Q237.23438 36.21635 237.23438 37.1226Q237.23438 37.9976 236.71875 38.77885Q236.20312 39.5601 235.23438 39.981976Q234.26562 40.40385 233.04688 40.40385Q231.03125 40.40385 229.96875 39.5601Q228.90625 38.71635 228.60938 37.075726ZM248.04688 40.169476L244.25 25.856976L246.1875 25.856976L248.35938 35.231976Q248.71875 36.71635 248.96875 38.169476Q249.51562 35.8726 249.60938 35.513226L252.34375 25.856976L254.625 25.856976L256.67188 33.09135Q257.45312 35.794476 257.79688 38.169476Q258.0625 36.8101 258.5 35.044476L260.75 25.856976L262.65625 25.856976L258.73438 40.169476L256.90625 40.169476L253.89062 29.263226Q253.5 27.888226 253.4375 27.575726Q253.20312 28.5601 253.01562 29.263226L249.98438 40.169476L248.04688 40.169476ZM263.67188 34.981976Q263.67188 32.106976 265.26562 30.71635Q266.60938 29.5601 268.53125 29.5601Q270.67188 29.5601 272.01562 30.96635Q273.375 32.3726 273.375 34.84135Q273.375 36.84135 272.78125 37.9976Q272.1875 39.138226 271.03125 39.77885Q269.89062 40.40385 268.53125 40.40385Q266.34375 40.40385 265.0 39.013226Q263.67188 37.606976 263.67188 34.981976ZM265.46875 34.981976Q265.46875 36.981976 266.32812 37.96635Q267.20312 38.950726 268.53125 38.950726Q269.84375 38.950726 270.70312 37.96635Q271.57812 36.96635 271.57812 34.919476Q271.57812 32.9976 270.70312 32.013226Q269.82812 31.013226 268.53125 31.013226Q267.20312 31.013226 266.32812 32.013226Q265.46875 32.9976 265.46875 34.981976ZM275.3125 40.169476L275.3125 29.794476L276.90625 29.794476L276.90625 31.27885Q278.04688 29.5601 280.20312 29.5601Q281.14062 29.5601 281.92188 29.90385Q282.71875 30.231976 283.10938 30.77885Q283.5 31.325726 283.65625 32.075726Q283.75 32.575726 283.75 33.794476L283.75 40.169476L281.98438 40.169476L281.98438 33.856976Q281.98438 32.77885 281.78125 32.2476Q281.57812 31.71635 281.04688 31.40385Q280.53125 31.09135 279.82812 31.09135Q278.70312 31.09135 277.89062 31.8101Q277.07812 32.513226 277.07812 34.4976L277.07812 40.169476L275.3125 40.169476ZM296.64062 40.169476L291.09375 25.856976L293.14062 25.856976L296.85938 36.2476Q297.3125 37.4976 297.60938 38.59135Q297.9375 37.419476 298.39062 36.2476L302.25 25.856976L304.1875 25.856976L298.57812 40.169476L296.64062 40.169476ZM304.60938 37.075726L306.35938 36.794476Q306.5 37.84135 307.17188 38.40385Q307.84375 38.950726 309.04688 38.950726Q310.25 38.950726 310.82812 38.46635Q311.42188 37.96635 311.42188 37.3101Q311.42188 36.71635 310.90625 36.3726Q310.54688 36.138226 309.10938 35.77885Q307.17188 35.27885 306.42188 34.9351Q305.6875 34.575726 305.29688 33.950726Q304.90625 33.3101 304.90625 32.544476Q304.90625 31.856976 305.21875 31.263226Q305.54688 30.669476 306.09375 30.27885Q306.5 29.981976 307.20312 29.77885Q307.92188 29.5601 308.73438 29.5601Q309.95312 29.5601 310.875 29.919476Q311.79688 30.263226 312.23438 30.8726Q312.67188 31.46635 312.84375 32.46635L311.125 32.700726Q311.0 31.90385 310.4375 31.46635Q309.875 31.013226 308.85938 31.013226Q307.64062 31.013226 307.125 31.419476Q306.60938 31.8101 306.60938 32.34135Q306.60938 32.6851 306.82812 32.96635Q307.03125 33.2476 307.5 33.4351Q307.76562 33.52885 309.04688 33.8726Q310.92188 34.3726 311.65625 34.700726Q312.39062 35.013226 312.8125 35.6226Q313.23438 36.21635 313.23438 37.1226Q313.23438 37.9976 312.71875 38.77885Q312.20312 39.5601 311.23438 39.981976Q310.26562 40.40385 309.04688 40.40385Q307.03125 40.40385 305.96875 39.5601Q304.90625 38.71635 304.60938 37.075726ZM325.1875 40.169476L325.1875 27.544476L320.46875 27.544476L320.46875 25.856976L331.8125 25.856976L331.8125 27.544476L327.07812 27.544476L327.07812 40.169476L325.1875 40.169476ZM332.67188 34.981976Q332.67188 32.106976 334.26562 30.71635Q335.60938 29.5601 337.53125 29.5601Q339.67188 29.5601 341.01562 30.96635Q342.375 32.3726 342.375 34.84135Q342.375 36.84135 341.78125 37.9976Q341.1875 39.138226 340.03125 39.77885Q338.89062 40.40385 337.53125 40.40385Q335.34375 40.40385 334.0 39.013226Q332.67188 37.606976 332.67188 34.981976ZM334.46875 34.981976Q334.46875 36.981976 335.32812 37.96635Q336.20312 38.950726 337.53125 38.950726Q338.84375 38.950726 339.70312 37.96635Q340.57812 36.96635 340.57812 34.919476Q340.57812 32.9976 339.70312 32.013226Q338.82812 31.013226 337.53125 31.013226Q336.20312 31.013226 335.32812 32.013226Q334.46875 32.9976 334.46875 34.981976ZM348.15625 38.59135L348.40625 40.15385Q347.67188 40.3101 347.07812 40.3101Q346.125 40.3101 345.59375 40.013226Q345.07812 39.700726 344.85938 39.21635Q344.64062 38.71635 344.64062 37.138226L344.64062 31.169476L343.35938 31.169476L343.35938 29.794476L344.64062 29.794476L344.64062 27.231976L346.39062 26.169476L346.39062 29.794476L348.15625 29.794476L348.15625 31.169476L346.39062 31.169476L346.39062 37.231976Q346.39062 37.981976 346.48438 38.200726Q346.57812 38.40385 346.78125 38.544476Q347.0 38.669476 347.39062 38.669476Q347.67188 38.669476 348.15625 38.59135ZM357.09375 38.888226Q356.10938 39.71635 355.20312 40.0601Q354.29688 40.40385 353.26562 40.40385Q351.5625 40.40385 350.64062 39.575726Q349.71875 38.731976 349.71875 37.4351Q349.71875 36.669476 350.0625 36.044476Q350.42188 35.419476 350.98438 35.044476Q351.54688 34.65385 352.25 34.450726Q352.76562 34.325726 353.8125 34.1851Q355.9375 33.9351 356.9375 33.59135Q356.95312 33.231976 356.95312 33.1226Q356.95312 32.0601 356.45312 31.606976Q355.78125 31.013226 354.45312 31.013226Q353.20312 31.013226 352.60938 31.450726Q352.03125 31.888226 351.75 32.9976L350.03125 32.763226Q350.26562 31.65385 350.79688 30.981976Q351.32812 30.294476 352.34375 29.9351Q353.35938 29.5601 354.70312 29.5601Q356.03125 29.5601 356.85938 29.8726Q357.6875 30.1851 358.07812 30.669476Q358.46875 31.138226 358.625 31.856976Q358.71875 32.3101 358.71875 33.481976L358.71875 35.825726Q358.71875 38.27885 358.82812 38.9351Q358.9375 39.575726 359.28125 40.169476L357.4375 40.169476Q357.17188 39.6226 357.09375 38.888226ZM356.9375 34.96635Q355.98438 35.356976 354.0625 35.6226Q352.98438 35.77885 352.53125 35.981976Q352.09375 36.169476 351.84375 36.544476Q351.59375 36.919476 351.59375 37.388226Q351.59375 38.09135 352.125 38.5601Q352.65625 39.02885 353.6875 39.02885Q354.70312 39.02885 355.48438 38.59135Q356.28125 38.138226 356.65625 37.3726Q356.9375 36.763226 356.9375 35.606976L356.9375 34.96635ZM361.28125 40.169476L361.28125 25.856976L363.03125 25.856976L363.03125 40.169476L361.28125 40.169476ZM381.76562 35.15385L383.65625 35.6226Q383.0625 37.96635 381.51562 39.200726Q379.96875 40.419476 377.71875 40.419476Q375.40625 40.419476 373.95312 39.481976Q372.51562 38.52885 371.75 36.7476Q371.0 34.950726 371.0 32.90385Q371.0 30.669476 371.84375 29.013226Q372.70312 27.34135 374.28125 26.481976Q375.85938 25.606976 377.75 25.606976Q379.90625 25.606976 381.35938 26.700726Q382.82812 27.794476 383.40625 29.77885L381.54688 30.21635Q381.04688 28.65385 380.09375 27.950726Q379.15625 27.231976 377.71875 27.231976Q376.0625 27.231976 374.95312 28.02885Q373.84375 28.8101 373.39062 30.15385Q372.95312 31.481976 372.95312 32.888226Q372.95312 34.71635 373.48438 36.09135Q374.01562 37.450726 375.14062 38.1226Q376.26562 38.794476 377.5625 38.794476Q379.15625 38.794476 380.26562 37.8726Q381.375 36.950726 381.76562 35.15385ZM384.67188 34.981976Q384.67188 32.106976 386.26562 30.71635Q387.60938 29.5601 389.53125 29.5601Q391.67188 29.5601 393.01562 30.96635Q394.375 32.3726 394.375 34.84135Q394.375 36.84135 393.78125 37.9976Q393.1875 39.138226 392.03125 39.77885Q390.89062 40.40385 389.53125 40.40385Q387.34375 40.40385 386.0 39.013226Q384.67188 37.606976 384.67188 34.981976ZM386.46875 34.981976Q386.46875 36.981976 387.32812 37.96635Q388.20312 38.950726 389.53125 38.950726Q390.84375 38.950726 391.70312 37.96635Q392.57812 36.96635 392.57812 34.919476Q392.57812 32.9976 391.70312 32.013226Q390.82812 31.013226 389.53125 31.013226Q388.20312 31.013226 387.32812 32.013226Q386.46875 32.9976 386.46875 34.981976ZM396.3125 40.169476L396.3125 29.794476L397.90625 29.794476L397.90625 31.27885Q399.04688 29.5601 401.20312 29.5601Q402.14062 29.5601 402.92188 29.90385Q403.71875 30.231976 404.10938 30.77885Q404.5 31.325726 404.65625 32.075726Q404.75 32.575726 404.75 33.794476L404.75 40.169476L402.98438 40.169476L402.98438 33.856976Q402.98438 32.77885 402.78125 32.2476Q402.57812 31.71635 402.04688 31.40385Q401.53125 31.09135 400.82812 31.09135Q399.70312 31.09135 398.89062 31.8101Q398.07812 32.513226 398.07812 34.4976L398.07812 40.169476L396.3125 40.169476ZM411.15625 38.59135L411.40625 40.15385Q410.67188 40.3101 410.07812 40.3101Q409.125 40.3101 408.59375 40.013226Q408.07812 39.700726 407.85938 39.21635Q407.64062 38.71635 407.64062 37.138226L407.64062 31.169476L406.35938 31.169476L406.35938 29.794476L407.64062 29.794476L407.64062 27.231976L409.39062 26.169476L409.39062 29.794476L411.15625 29.794476L411.15625 31.169476L409.39062 31.169476L409.39062 37.231976Q409.39062 37.981976 409.48438 38.200726Q409.57812 38.40385 409.78125 38.544476Q410.0 38.669476 410.39062 38.669476Q410.67188 38.669476 411.15625 38.59135ZM420.42188 36.825726L422.23438 37.0601Q421.8125 38.638226 420.64062 39.52885Q419.48438 40.40385 417.67188 40.40385Q415.40625 40.40385 414.0625 39.013226Q412.73438 37.606976 412.73438 35.075726Q412.73438 32.450726 414.07812 31.013226Q415.42188 29.5601 417.57812 29.5601Q419.65625 29.5601 420.96875 30.981976Q422.29688 32.388226 422.29688 34.96635Q422.29688 35.1226 422.28125 35.4351L414.54688 35.4351Q414.64062 37.138226 415.51562 38.044476Q416.39062 38.950726 417.6875 38.950726Q418.65625 38.950726 419.32812 38.450726Q420.01562 37.9351 420.42188 36.825726ZM414.64062 33.981976L420.4375 33.981976Q420.32812 32.6851 419.78125 32.02885Q418.9375 31.013226 417.59375 31.013226Q416.39062 31.013226 415.5625 31.825726Q414.73438 32.6226 414.64062 33.981976ZM423.60938 37.075726L425.35938 36.794476Q425.5 37.84135 426.17188 38.40385Q426.84375 38.950726 428.04688 38.950726Q429.25 38.950726 429.82812 38.46635Q430.42188 37.96635 430.42188 37.3101Q430.42188 36.71635 429.90625 36.3726Q429.54688 36.138226 428.10938 35.77885Q426.17188 35.27885 425.42188 34.9351Q424.6875 34.575726 424.29688 33.950726Q423.90625 33.3101 423.90625 32.544476Q423.90625 31.856976 424.21875 31.263226Q424.54688 30.669476 425.09375 30.27885Q425.5 29.981976 426.20312 29.77885Q426.92188 29.5601 427.73438 29.5601Q428.95312 29.5601 429.875 29.919476Q430.79688 30.263226 431.23438 30.8726Q431.67188 31.46635 431.84375 32.46635L430.125 32.700726Q430.0 31.90385 429.4375 31.46635Q428.875 31.013226 427.85938 31.013226Q426.64062 31.013226 426.125 31.419476Q425.60938 31.8101 425.60938 32.34135Q425.60938 32.6851 425.82812 32.96635Q426.03125 33.2476 426.5 33.4351Q426.76562 33.52885 428.04688 33.8726Q429.92188 34.3726 430.65625 34.700726Q431.39062 35.013226 431.8125 35.6226Q432.23438 36.21635 432.23438 37.1226Q432.23438 37.9976 431.71875 38.77885Q431.20312 39.5601 430.23438 39.981976Q429.26562 40.40385 428.04688 40.40385Q426.03125 40.40385 424.96875 39.5601Q423.90625 38.71635 423.60938 37.075726ZM438.15625 38.59135L438.40625 40.15385Q437.67188 40.3101 437.07812 40.3101Q436.125 40.3101 435.59375 40.013226Q435.07812 39.700726 434.85938 39.21635Q434.64062 38.71635 434.64062 37.138226L434.64062 31.169476L433.35938 31.169476L433.35938 29.794476L434.64062 29.794476L434.64062 27.231976L436.39062 26.169476L436.39062 29.794476L438.15625 29.794476L438.15625 31.169476L436.39062 31.169476L436.39062 37.231976Q436.39062 37.981976 436.48438 38.200726Q436.57812 38.40385 436.78125 38.544476Q437.0 38.669476 437.39062 38.669476Q437.67188 38.669476 438.15625 38.59135ZM447.42188 36.825726L449.23438 37.0601Q448.8125 38.638226 447.64062 39.52885Q446.48438 40.40385 444.67188 40.40385Q442.40625 40.40385 441.0625 39.013226Q439.73438 37.606976 439.73438 35.075726Q439.73438 32.450726 441.07812 31.013226Q442.42188 29.5601 444.57812 29.5601Q446.65625 29.5601 447.96875 30.981976Q449.29688 32.388226 449.29688 34.96635Q449.29688 35.1226 449.28125 35.4351L441.54688 35.4351Q441.64062 37.138226 442.51562 38.044476Q443.39062 38.950726 444.6875 38.950726Q445.65625 38.950726 446.32812 38.450726Q447.01562 37.9351 447.42188 36.825726ZM441.64062 33.981976L447.4375 33.981976Q447.32812 32.6851 446.78125 32.02885Q445.9375 31.013226 444.59375 31.013226Q443.39062 31.013226 442.5625 31.825726Q441.73438 32.6226 441.64062 33.981976ZM458.04688 40.169476L458.04688 38.856976Q457.0625 40.40385 455.14062 40.40385Q453.90625 40.40385 452.85938 39.71635Q451.82812 39.02885 451.25 37.8101Q450.6875 36.59135 450.6875 34.9976Q450.6875 33.4351 451.20312 32.169476Q451.71875 30.90385 452.75 30.231976Q453.79688 29.5601 455.0625 29.5601Q456.0 29.5601 456.73438 29.96635Q457.46875 30.356976 457.9375 30.981976L457.9375 25.856976L459.67188 25.856976L459.67188 40.169476L458.04688 40.169476ZM452.48438 34.9976Q452.48438 36.981976 453.32812 37.96635Q454.17188 38.950726 455.3125 38.950726Q456.46875 38.950726 457.26562 38.013226Q458.07812 37.075726 458.07812 35.138226Q458.07812 33.013226 457.25 32.013226Q456.4375 31.013226 455.23438 31.013226Q454.0625 31.013226 453.26562 31.981976Q452.48438 32.9351 452.48438 34.9976ZM478.76562 35.15385L480.65625 35.6226Q480.0625 37.96635 478.51562 39.200726Q476.96875 40.419476 474.71875 40.419476Q472.40625 40.419476 470.95312 39.481976Q469.51562 38.52885 468.75 36.7476Q468.0 34.950726 468.0 32.90385Q468.0 30.669476 468.84375 29.013226Q469.70312 27.34135 471.28125 26.481976Q472.85938 25.606976 474.75 25.606976Q476.90625 25.606976 478.35938 26.700726Q479.82812 27.794476 480.40625 29.77885L478.54688 30.21635Q478.04688 28.65385 477.09375 27.950726Q476.15625 27.231976 474.71875 27.231976Q473.0625 27.231976 471.95312 28.02885Q470.84375 28.8101 470.39062 30.15385Q469.95312 31.481976 469.95312 32.888226Q469.95312 34.71635 470.48438 36.09135Q471.01562 37.450726 472.14062 38.1226Q473.26562 38.794476 474.5625 38.794476Q476.15625 38.794476 477.26562 37.8726Q478.375 36.950726 478.76562 35.15385ZM489.09375 38.888226Q488.10938 39.71635 487.20312 40.0601Q486.29688 40.40385 485.26562 40.40385Q483.5625 40.40385 482.64062 39.575726Q481.71875 38.731976 481.71875 37.4351Q481.71875 36.669476 482.0625 36.044476Q482.42188 35.419476 482.98438 35.044476Q483.54688 34.65385 484.25 34.450726Q484.76562 34.325726 485.8125 34.1851Q487.9375 33.9351 488.9375 33.59135Q488.95312 33.231976 488.95312 33.1226Q488.95312 32.0601 488.45312 31.606976Q487.78125 31.013226 486.45312 31.013226Q485.20312 31.013226 484.60938 31.450726Q484.03125 31.888226 483.75 32.9976L482.03125 32.763226Q482.26562 31.65385 482.79688 30.981976Q483.32812 30.294476 484.34375 29.9351Q485.35938 29.5601 486.70312 29.5601Q488.03125 29.5601 488.85938 29.8726Q489.6875 30.1851 490.07812 30.669476Q490.46875 31.138226 490.625 31.856976Q490.71875 32.3101 490.71875 33.481976L490.71875 35.825726Q490.71875 38.27885 490.82812 38.9351Q490.9375 39.575726 491.28125 40.169476L489.4375 40.169476Q489.17188 39.6226 489.09375 38.888226ZM488.9375 34.96635Q487.98438 35.356976 486.0625 35.6226Q484.98438 35.77885 484.53125 35.981976Q484.09375 36.169476 483.84375 36.544476Q483.59375 36.919476 483.59375 37.388226Q483.59375 38.09135 484.125 38.5601Q484.65625 39.02885 485.6875 39.02885Q486.70312 39.02885 487.48438 38.59135Q488.28125 38.138226 488.65625 37.3726Q488.9375 36.763226 488.9375 35.606976L488.9375 34.96635ZM492.60938 37.075726L494.35938 36.794476Q494.5 37.84135 495.17188 38.40385Q495.84375 38.950726 497.04688 38.950726Q498.25 38.950726 498.82812 38.46635Q499.42188 37.96635 499.42188 37.3101Q499.42188 36.71635 498.90625 36.3726Q498.54688 36.138226 497.10938 35.77885Q495.17188 35.27885 494.42188 34.9351Q493.6875 34.575726 493.29688 33.950726Q492.90625 33.3101 492.90625 32.544476Q492.90625 31.856976 493.21875 31.263226Q493.54688 30.669476 494.09375 30.27885Q494.5 29.981976 495.20312 29.77885Q495.92188 29.5601 496.73438 29.5601Q497.95312 29.5601 498.875 29.919476Q499.79688 30.263226 500.23438 30.8726Q500.67188 31.46635 500.84375 32.46635L499.125 32.700726Q499.0 31.90385 498.4375 31.46635Q497.875 31.013226 496.85938 31.013226Q495.64062 31.013226 495.125 31.419476Q494.60938 31.8101 494.60938 32.34135Q494.60938 32.6851 494.82812 32.96635Q495.03125 33.2476 495.5 33.4351Q495.76562 33.52885 497.04688 33.8726Q498.92188 34.3726 499.65625 34.700726Q500.39062 35.013226 500.8125 35.6226Q501.23438 36.21635 501.23438 37.1226Q501.23438 37.9976 500.71875 38.77885Q500.20312 39.5601 499.23438 39.981976Q498.26562 40.40385 497.04688 40.40385Q495.03125 40.40385 493.96875 39.5601Q492.90625 38.71635 492.60938 37.075726ZM510.42188 36.825726L512.2344 37.0601Q511.8125 38.638226 510.64062 39.52885Q509.48438 40.40385 507.67188 40.40385Q505.40625 40.40385 504.0625 39.013226Q502.73438 37.606976 502.73438 35.075726Q502.73438 32.450726 504.07812 31.013226Q505.42188 29.5601 507.57812 29.5601Q509.65625 29.5601 510.96875 30.981976Q512.2969 32.388226 512.2969 34.96635Q512.2969 35.1226 512.28125 35.4351L504.54688 35.4351Q504.64062 37.138226 505.51562 38.044476Q506.39062 38.950726 507.6875 38.950726Q508.65625 38.950726 509.32812 38.450726Q510.01562 37.9351 510.42188 36.825726ZM504.64062 33.981976L510.4375 33.981976Q510.32812 32.6851 509.78125 32.02885Q508.9375 31.013226 507.59375 31.013226Q506.39062 31.013226 505.5625 31.825726Q504.73438 32.6226 504.64062 33.981976ZM513.6094 37.075726L515.3594 36.794476Q515.5 37.84135 516.1719 38.40385Q516.84375 38.950726 518.0469 38.950726Q519.25 38.950726 519.8281 38.46635Q520.4219 37.96635 520.4219 37.3101Q520.4219 36.71635 519.90625 36.3726Q519.5469 36.138226 518.1094 35.77885Q516.1719 35.27885 515.4219 34.9351Q514.6875 34.575726 514.2969 33.950726Q513.90625 33.3101 513.90625 32.544476Q513.90625 31.856976 514.21875 31.263226Q514.5469 30.669476 515.09375 30.27885Q515.5 29.981976 516.2031 29.77885Q516.9219 29.5601 517.7344 29.5601Q518.9531 29.5601 519.875 29.919476Q520.7969 30.263226 521.2344 30.8726Q521.6719 31.46635 521.84375 32.46635L520.125 32.700726Q520.0 31.90385 519.4375 31.46635Q518.875 31.013226 517.8594 31.013226Q516.6406 31.013226 516.125 31.419476Q515.6094 31.8101 515.6094 32.34135Q515.6094 32.6851 515.8281 32.96635Q516.03125 33.2476 516.5 33.4351Q516.7656 33.52885 518.0469 33.8726Q519.9219 34.3726 520.65625 34.700726Q521.3906 35.013226 521.8125 35.6226Q522.2344 36.21635 522.2344 37.1226Q522.2344 37.9976 521.71875 38.77885Q521.2031 39.5601 520.2344 39.981976Q519.2656 40.40385 518.0469 40.40385Q516.03125 40.40385 514.96875 39.5601Q513.90625 38.71635 513.6094 37.075726Z" fill-rule="nonzero"/></svg>