<svg version="1.1" viewBox="0.0 0.0 705.0 442.0" fill="none" stroke="none" stroke-linecap="square" stroke-miterlimit="10" width="705" height="442" xmlns:xlink="http://www.w3.org/1999/xlink" xmlns="http://www.w3.org/2000/svg"><path fill="#ffffff" d="M0 0L705.0 0L705.0 442.0L0 442.0L0 0Z" fill-rule="nonzero"/><path fill="#fca311" d="M261.67682 345.4496C206.24681 305.94904 182.70343 235.15096 203.43942 170.32198C224.17542 105.49298 284.4355 61.5 352.5 61.5L352.5 139.75C318.46774 139.75 288.3377 161.74649 277.96973 194.16098C267.6017 226.57547 279.3734 261.97452 307.0884 281.7248Z" fill-rule="nonzero"/><path fill="#14213d" d="M389.76514 73.41951C457.38876 73.41951 517.3635 116.853806 538.4569 181.1035C559.5503 245.35318 536.9906 315.88382 482.52603 355.9658C428.06146 396.04776 354.01288 396.61377 298.94196 357.3691L344.35355 293.6443C371.889 313.26663 408.9133 312.98364 436.1456 292.94266C463.37787 272.90167 474.65775 237.63634 464.11102 205.5115C453.56433 173.38666 423.57697 151.66951 389.76514 151.66951Z" fill-rule="nonzero"/><path fill="#ffffff" d="M482.1387 268.05304L483.43558 267.94366Q483.5762 268.88116 484.09183 269.36554Q484.62308 269.8343 485.35745 269.8343Q486.24808 269.8343 486.85745 269.1624Q487.48245 268.49054 487.48245 267.3968Q487.48245 266.3343 486.8887 265.7249Q486.29495 265.11554 485.34183 265.11554Q484.74808 265.11554 484.2637 265.3968Q483.79495 265.6624 483.5137 266.0843L482.35745 265.94366L483.3262 260.7874L488.31058 260.7874L488.31058 261.9749L484.31058 261.9749L483.77933 264.6624Q484.68558 264.0374 485.66995 264.0374Q486.98245 264.0374 487.87308 264.94366Q488.77933 265.8499 488.77933 267.2874Q488.77933 268.6468 487.99808 269.63116Q487.02933 270.8499 485.35745 270.8499Q483.99808 270.8499 483.12308 270.0843Q482.2637 269.31866 482.1387 268.05304ZM490.3262 268.36554L491.5137 268.25616Q491.65433 269.0843 492.0762 269.4593Q492.5137 269.8343 493.16995 269.8343Q493.73245 269.8343 494.15433 269.5843Q494.59183 269.31866 494.85745 268.88116Q495.1387 268.44366 495.3262 267.7093Q495.5137 266.9749 495.5137 266.2093Q495.5137 266.13116 495.49808 265.9593Q495.1387 266.55304 494.49808 266.92804Q493.85745 267.2874 493.10745 267.2874Q491.85745 267.2874 490.99808 266.38116Q490.1387 265.4749 490.1387 264.00616Q490.1387 262.4749 491.02933 261.55304Q491.93558 260.61554 493.29495 260.61554Q494.2637 260.61554 495.0762 261.1468Q495.8887 261.6624 496.31058 262.6468Q496.73245 263.61554 496.73245 265.4593Q496.73245 267.38116 496.31058 268.5218Q495.90433 269.6624 495.0762 270.25616Q494.24808 270.8499 493.1387 270.8499Q491.96683 270.8499 491.21683 270.19366Q490.48245 269.5374 490.3262 268.36554ZM495.35745 263.94366Q495.35745 262.88116 494.79495 262.25616Q494.23245 261.63116 493.4512 261.63116Q492.62308 261.63116 492.0137 262.30304Q491.40433 262.9749 491.40433 264.0374Q491.40433 264.99054 491.98245 265.5999Q492.56058 266.19366 493.40433 266.19366Q494.2637 266.19366 494.81058 265.5999Q495.35745 264.99054 495.35745 263.94366ZM498.8262 270.67804L498.8262 269.2718L500.23245 269.2718L500.23245 270.67804L498.8262 270.67804ZM502.3262 268.36554L503.5137 268.25616Q503.65433 269.0843 504.0762 269.4593Q504.5137 269.8343 505.16995 269.8343Q505.73245 269.8343 506.15433 269.5843Q506.59183 269.31866 506.85745 268.88116Q507.1387 268.44366 507.3262 267.7093Q507.5137 266.9749 507.5137 266.2093Q507.5137 266.13116 507.49808 265.9593Q507.1387 266.55304 506.49808 266.92804Q505.85745 267.2874 505.10745 267.2874Q503.85745 267.2874 502.99808 266.38116Q502.1387 265.4749 502.1387 264.00616Q502.1387 262.4749 503.02933 261.55304Q503.93558 260.61554 505.29495 260.61554Q506.2637 260.61554 507.0762 261.1468Q507.8887 261.6624 508.31058 262.6468Q508.73245 263.61554 508.73245 265.4593Q508.73245 267.38116 508.31058 268.5218Q507.90433 269.6624 507.0762 270.25616Q506.24808 270.8499 505.1387 270.8499Q503.96683 270.8499 503.21683 270.19366Q502.48245 269.5374 502.3262 268.36554ZM507.35745 263.94366Q507.35745 262.88116 506.79495 262.25616Q506.23245 261.63116 505.4512 261.63116Q504.62308 261.63116 504.0137 262.30304Q503.40433 262.9749 503.40433 264.0374Q503.40433 264.99054 503.98245 265.5999Q504.56058 266.19366 505.40433 266.19366Q506.2637 266.19366 506.81058 265.5999Q507.35745 264.99054 507.35745 263.94366ZM510.37308 263.06866Q510.37308 261.99054 510.90433 261.24054Q511.4512 260.49054 512.4824 260.49054Q513.4199 260.49054 514.0293 261.1624Q514.6543 261.8343 514.6543 263.13116Q514.6543 264.4124 514.0293 265.0999Q513.4043 265.7874 512.49805 265.7874Q511.59183 265.7874 510.98245 265.11554Q510.37308 264.42804 510.37308 263.06866ZM512.5137 261.3343Q512.06055 261.3343 511.74808 261.74054Q511.4512 262.13116 511.4512 263.17804Q511.4512 264.1468 511.74808 264.5374Q512.06055 264.92804 512.5137 264.92804Q512.9824 264.92804 513.2793 264.5374Q513.5918 264.1468 513.5918 263.0843Q513.5918 262.11554 513.2793 261.7249Q512.9668 261.3343 512.5137 261.3343ZM512.5137 271.05304L517.99805 260.49054L518.99805 260.49054L513.5449 271.05304L512.5137 271.05304ZM516.8574 268.31866Q516.8574 267.24054 517.3887 266.50616Q517.93555 265.75616 518.9668 265.75616Q519.9043 265.75616 520.5293 266.42804Q521.1543 267.0999 521.1543 268.3968Q521.1543 269.67804 520.5293 270.36554Q519.9043 271.05304 518.9668 271.05304Q518.06055 271.05304 517.4512 270.38116Q516.8574 269.69366 516.8574 268.31866ZM518.99805 266.5999Q518.5293 266.5999 518.2324 267.00616Q517.93555 267.3968 517.93555 268.44366Q517.93555 269.4124 518.2324 269.80304Q518.5449 270.19366 518.99805 270.19366Q519.4668 270.19366 519.7637 269.80304Q520.0762 269.4124 520.0762 268.3499Q520.0762 267.38116 519.7637 266.99054Q519.4668 266.5999 518.99805 266.5999Z" fill-rule="nonzero"/><path fill="#ffffff" d="M206.32957 187.24147L206.32957 178.39772L203.0327 178.39772L203.0327 177.22585L210.9702 177.22585L210.9702 178.39772L207.6577 178.39772L207.6577 187.24147L206.32957 187.24147ZM212.17332 183.61647Q212.17332 181.60085 213.29832 180.61647Q214.2202 179.8196 215.57957 179.8196Q217.06395 179.8196 218.01707 180.80397Q218.9702 181.77272 218.9702 183.5071Q218.9702 184.91335 218.54832 185.72585Q218.12645 186.52272 217.31395 186.97585Q216.51707 187.41335 215.57957 187.41335Q214.04832 187.41335 213.11082 186.42897Q212.17332 185.4446 212.17332 183.61647ZM213.43895 183.61647Q213.43895 185.0071 214.04832 185.71022Q214.6577 186.39772 215.57957 186.39772Q216.48582 186.39772 217.0952 185.6946Q217.70457 184.99147 217.70457 183.5696Q217.70457 182.22585 217.0952 181.53835Q216.48582 180.83522 215.57957 180.83522Q214.6577 180.83522 214.04832 181.52272Q213.43895 182.21022 213.43895 183.61647ZM223.31395 186.14772L223.48582 187.22585Q222.9702 187.33522 222.56395 187.33522Q221.89207 187.33522 221.51707 187.1321Q221.1577 186.91335 221.00145 186.5696Q220.86082 186.22585 220.86082 185.11647L220.86082 180.9446L219.95457 180.9446L219.95457 179.97585L220.86082 179.97585L220.86082 178.17897L222.07957 177.4446L222.07957 179.97585L223.31395 179.97585L223.31395 180.9446L222.07957 180.9446L222.07957 185.17897Q222.07957 185.71022 222.14207 185.86647Q222.20457 186.0071 222.3452 186.10085Q222.50145 186.1946 222.76707 186.1946Q222.98582 186.1946 223.31395 186.14772ZM229.36082 186.35085Q228.68895 186.92897 228.04832 187.17897Q227.42332 187.41335 226.68895 187.41335Q225.50145 187.41335 224.8452 186.83522Q224.20457 186.24147 224.20457 185.3196Q224.20457 184.78835 224.43895 184.35085Q224.68895 183.91335 225.07957 183.64772Q225.48582 183.3821 225.9702 183.24147Q226.32957 183.14772 227.06395 183.05397Q228.56395 182.8821 229.26707 182.6321Q229.26707 182.3821 229.26707 182.3196Q229.26707 181.55397 228.92332 181.2571Q228.45457 180.83522 227.51707 180.83522Q226.6577 180.83522 226.23582 181.14772Q225.82957 181.4446 225.62645 182.21022L224.42332 182.05397Q224.57957 181.27272 224.95457 180.80397Q225.3452 180.33522 226.04832 180.08522Q226.76707 179.8196 227.70457 179.8196Q228.62645 179.8196 229.20457 180.03835Q229.7827 180.2571 230.04832 180.58522Q230.32957 180.91335 230.43895 181.42897Q230.50145 181.74147 230.50145 182.55397L230.50145 184.1946Q230.50145 185.91335 230.57957 186.36647Q230.6577 186.8196 230.89207 187.24147L229.61082 187.24147Q229.42332 186.85085 229.36082 186.35085ZM229.26707 183.60085Q228.5952 183.86647 227.25145 184.0696Q226.50145 184.17897 226.17332 184.3196Q225.86082 184.4446 225.68895 184.71022Q225.51707 184.97585 225.51707 185.28835Q225.51707 185.78835 225.89207 186.11647Q226.26707 186.4446 226.98582 186.4446Q227.70457 186.4446 228.25145 186.1321Q228.79832 185.8196 229.06395 185.27272Q229.26707 184.86647 229.26707 184.05397L229.26707 183.60085ZM232.5952 187.24147L232.5952 177.22585L233.82957 177.22585L233.82957 187.24147L232.5952 187.24147ZM246.93895 183.72585L248.26707 184.0696Q247.8452 185.6946 246.75145 186.55397Q245.67332 187.41335 244.11082 187.41335Q242.48582 187.41335 241.4702 186.7571Q240.45457 186.08522 239.92332 184.83522Q239.4077 183.58522 239.4077 182.14772Q239.4077 180.58522 240.00145 179.42897Q240.5952 178.2571 241.70457 177.66335Q242.81395 177.05397 244.12645 177.05397Q245.64207 177.05397 246.6577 177.8196Q247.68895 178.58522 248.0952 179.96022L246.7827 180.27272Q246.43895 179.17897 245.76707 178.67897Q245.11082 178.17897 244.11082 178.17897Q242.95457 178.17897 242.17332 178.74147Q241.39207 179.28835 241.07957 180.22585Q240.76707 181.16335 240.76707 182.14772Q240.76707 183.42897 241.14207 184.3821Q241.51707 185.33522 242.29832 185.80397Q243.07957 186.27272 244.00145 186.27272Q245.11082 186.27272 245.87645 185.6321Q246.6577 184.99147 246.93895 183.72585ZM254.36082 186.35085Q253.68895 186.92897 253.04832 187.17897Q252.42332 187.41335 251.68895 187.41335Q250.50145 187.41335 249.8452 186.83522Q249.20457 186.24147 249.20457 185.3196Q249.20457 184.78835 249.43895 184.35085Q249.68895 183.91335 250.07957 183.64772Q250.48582 183.3821 250.9702 183.24147Q251.32957 183.14772 252.06395 183.05397Q253.56395 182.8821 254.26707 182.6321Q254.26707 182.3821 254.26707 182.3196Q254.26707 181.55397 253.92332 181.2571Q253.45457 180.83522 252.51707 180.83522Q251.6577 180.83522 251.23582 181.14772Q250.82957 181.4446 250.62645 182.21022L249.42332 182.05397Q249.57957 181.27272 249.95457 180.80397Q250.3452 180.33522 251.04832 180.08522Q251.76707 179.8196 252.70457 179.8196Q253.62645 179.8196 254.20457 180.03835Q254.7827 180.2571 255.04832 180.58522Q255.32957 180.91335 255.43895 181.42897Q255.50145 181.74147 255.50145 182.55397L255.50145 184.1946Q255.50145 185.91335 255.57957 186.36647Q255.6577 186.8196 255.89207 187.24147L254.61082 187.24147Q254.42332 186.85085 254.36082 186.35085ZM254.26707 183.60085Q253.5952 183.86647 252.25145 184.0696Q251.50145 184.17897 251.17332 184.3196Q250.86082 184.4446 250.68895 184.71022Q250.51707 184.97585 250.51707 185.28835Q250.51707 185.78835 250.89207 186.11647Q251.26707 186.4446 251.98582 186.4446Q252.70457 186.4446 253.25145 186.1321Q253.79832 185.8196 254.06395 185.27272Q254.26707 184.86647 254.26707 184.05397L254.26707 183.60085ZM257.1421 185.0696L258.3452 184.8821Q258.4546 185.61647 258.92334 186.0071Q259.3921 186.39772 260.23584 186.39772Q261.0796 186.39772 261.48584 186.05397Q261.9077 185.71022 261.9077 185.24147Q261.9077 184.8196 261.5327 184.58522Q261.2827 184.41335 260.2827 184.16335Q258.92334 183.8196 258.3921 183.5696Q257.87646 183.3196 257.61084 182.8821Q257.3452 182.4446 257.3452 181.91335Q257.3452 181.42897 257.56396 181.02272Q257.7827 180.60085 258.17334 180.3196Q258.4546 180.11647 258.93896 179.97585Q259.43896 179.8196 260.0171 179.8196Q260.86084 179.8196 261.50146 180.0696Q262.1577 180.30397 262.4702 180.72585Q262.7827 181.14772 262.8921 181.85085L261.68896 182.02272Q261.61084 181.46022 261.2046 181.14772Q260.81396 180.83522 260.0952 180.83522Q259.25146 180.83522 258.8921 181.11647Q258.5327 181.3821 258.5327 181.77272Q258.5327 182.0071 258.67334 182.1946Q258.8296 182.39772 259.1577 182.52272Q259.3296 182.58522 260.23584 182.83522Q261.54834 183.1946 262.06396 183.41335Q262.5796 183.6321 262.86084 184.05397Q263.1577 184.47585 263.1577 185.10085Q263.1577 185.72585 262.79834 186.27272Q262.4546 186.80397 261.7671 187.11647Q261.0952 187.41335 260.23584 187.41335Q258.8296 187.41335 258.0796 186.8196Q257.3452 186.22585 257.1421 185.0696ZM269.5952 184.89772L270.87646 185.05397Q270.56396 186.17897 269.75146 186.80397Q268.93896 187.41335 267.67334 187.41335Q266.0796 187.41335 265.1421 186.42897Q264.2202 185.4446 264.2202 183.67897Q264.2202 181.83522 265.1577 180.83522Q266.11084 179.8196 267.61084 179.8196Q269.06396 179.8196 269.98584 180.8196Q270.9077 181.80397 270.9077 183.60085Q270.9077 183.71022 270.9077 183.92897L265.48584 183.92897Q265.56396 185.11647 266.1577 185.7571Q266.7671 186.39772 267.68896 186.39772Q268.36084 186.39772 268.8296 186.03835Q269.31396 185.67897 269.5952 184.89772ZM265.56396 182.91335L269.61084 182.91335Q269.5327 181.99147 269.1421 181.53835Q268.56396 180.83522 267.62646 180.83522Q266.7671 180.83522 266.18896 181.39772Q265.62646 181.96022 265.56396 182.91335ZM272.1421 185.0696L273.3452 184.8821Q273.4546 185.61647 273.92334 186.0071Q274.3921 186.39772 275.23584 186.39772Q276.0796 186.39772 276.48584 186.05397Q276.9077 185.71022 276.9077 185.24147Q276.9077 184.8196 276.5327 184.58522Q276.2827 184.41335 275.2827 184.16335Q273.92334 183.8196 273.3921 183.5696Q272.87646 183.3196 272.61084 182.8821Q272.3452 182.4446 272.3452 181.91335Q272.3452 181.42897 272.56396 181.02272Q272.7827 180.60085 273.17334 180.3196Q273.4546 180.11647 273.93896 179.97585Q274.43896 179.8196 275.0171 179.8196Q275.86084 179.8196 276.50146 180.0696Q277.1577 180.30397 277.4702 180.72585Q277.7827 181.14772 277.8921 181.85085L276.68896 182.02272Q276.61084 181.46022 276.2046 181.14772Q275.81396 180.83522 275.0952 180.83522Q274.25146 180.83522 273.8921 181.11647Q273.5327 181.3821 273.5327 181.77272Q273.5327 182.0071 273.67334 182.1946Q273.8296 182.39772 274.1577 182.52272Q274.3296 182.58522 275.23584 182.83522Q276.54834 183.1946 277.06396 183.41335Q277.5796 183.6321 277.86084 184.05397Q278.1577 184.47585 278.1577 185.10085Q278.1577 185.72585 277.79834 186.27272Q277.4546 186.80397 276.7671 187.11647Q276.0952 187.41335 275.23584 187.41335Q273.8296 187.41335 273.0796 186.8196Q272.3452 186.22585 272.1421 185.0696Z" fill-rule="nonzero"/><path fill="#14213d" d="M243.0 408.30984C243.0 411.62354 240.3137 414.30984 237.0 414.30984C233.6863 414.30984 231.0 411.62354 231.0 408.30984C231.0 404.99612 233.6863 402.30984 237.0 402.30984C240.3137 402.30984 243.0 404.99612 243.0 408.30984Z" fill-rule="nonzero"/><path fill="#1a1a1a" d="M258.0625 409.29422L259.1875 409.5911Q258.82812 410.98172 257.90625 411.7161Q256.98438 412.45047 255.64062 412.45047Q254.25 412.45047 253.375 411.88797Q252.5 411.32547 252.04688 410.26297Q251.59375 409.18484 251.59375 407.95047Q251.59375 406.60672 252.10938 405.60672Q252.625 404.60672 253.5625 404.0911Q254.51562 403.57547 255.65625 403.57547Q256.9375 403.57547 257.8125 404.23172Q258.70312 404.88797 259.04688 406.07547L257.92188 406.3411Q257.625 405.4036 257.04688 404.98172Q256.48438 404.54422 255.625 404.54422Q254.64062 404.54422 253.96875 405.0286Q253.3125 405.49734 253.03125 406.29422Q252.76562 407.0911 252.76562 407.95047Q252.76562 409.04422 253.07812 409.85672Q253.40625 410.66922 254.07812 411.07547Q254.75 411.48172 255.54688 411.48172Q256.5 411.48172 257.15625 410.93484Q257.82812 410.38797 258.0625 409.29422ZM264.85938 411.54422Q264.26562 412.04422 263.71875 412.24734Q263.1875 412.45047 262.5625 412.45047Q261.53125 412.45047 260.98438 411.95047Q260.4375 411.45047 260.4375 410.66922Q260.4375 410.2161 260.64062 409.8411Q260.84375 409.45047 261.1875 409.23172Q261.53125 408.99734 261.95312 408.88797Q262.25 408.79422 262.89062 408.7161Q264.15625 408.57547 264.76562 408.35672Q264.76562 408.13797 264.76562 408.0911Q264.76562 407.43484 264.46875 407.16922Q264.0625 406.82547 263.26562 406.82547Q262.53125 406.82547 262.17188 407.0911Q261.8125 407.3411 261.64062 407.99734L260.60938 407.85672Q260.75 407.20047 261.07812 406.79422Q261.40625 406.38797 262.01562 406.16922Q262.625 405.95047 263.42188 405.95047Q264.21875 405.95047 264.71875 406.13797Q265.21875 406.32547 265.45312 406.60672Q265.6875 406.88797 265.78125 407.32547Q265.82812 407.5911 265.82812 408.29422L265.82812 409.70047Q265.82812 411.16922 265.89062 411.55984Q265.96875 411.95047 266.17188 412.30984L265.0625 412.30984Q264.90625 411.98172 264.85938 411.54422ZM264.76562 409.18484Q264.1875 409.41922 263.04688 409.5911Q262.39062 409.68484 262.125 409.80984Q261.85938 409.91922 261.70312 410.13797Q261.5625 410.35672 261.5625 410.63797Q261.5625 411.05984 261.875 411.3411Q262.20312 411.62234 262.8125 411.62234Q263.42188 411.62234 263.89062 411.35672Q264.375 411.0911 264.59375 410.62234Q264.76562 410.26297 264.76562 409.57547L264.76562 409.18484ZM267.375 410.45047L268.40625 410.29422Q268.5 410.91922 268.89062 411.24734Q269.29688 411.57547 270.03125 411.57547Q270.75 411.57547 271.09375 411.29422Q271.45312 410.99734 271.45312 410.5911Q271.45312 410.23172 271.14062 410.0286Q270.92188 409.88797 270.0625 409.66922Q268.90625 409.37234 268.45312 409.16922Q268.01562 408.95047 267.78125 408.57547Q267.54688 408.20047 267.54688 407.73172Q267.54688 407.32547 267.73438 406.9661Q267.92188 406.60672 268.25 406.37234Q268.5 406.20047 268.92188 406.07547Q269.34375 405.95047 269.84375 405.95047Q270.5625 405.95047 271.10938 406.16922Q271.67188 406.37234 271.9375 406.73172Q272.20312 407.0911 272.29688 407.68484L271.26562 407.82547Q271.20312 407.35672 270.85938 407.0911Q270.53125 406.80984 269.90625 406.80984Q269.1875 406.80984 268.875 407.05984Q268.5625 407.29422 268.5625 407.62234Q268.5625 407.82547 268.6875 407.98172Q268.82812 408.1536 269.09375 408.26297Q269.25 408.32547 270.03125 408.5286Q271.15625 408.8411 271.59375 409.0286Q272.03125 409.2161 272.28125 409.57547Q272.53125 409.93484 272.53125 410.48172Q272.53125 411.01297 272.21875 411.48172Q271.92188 411.93484 271.34375 412.20047Q270.76562 412.45047 270.03125 412.45047Q268.8125 412.45047 268.17188 411.95047Q267.54688 411.43484 267.375 410.45047ZM278.04688 410.30984L279.14062 410.43484Q278.89062 411.38797 278.1875 411.91922Q277.48438 412.45047 276.40625 412.45047Q275.04688 412.45047 274.23438 411.60672Q273.4375 410.76297 273.4375 409.24734Q273.4375 407.68484 274.25 406.82547Q275.0625 405.95047 276.34375 405.95047Q277.59375 405.95047 278.375 406.79422Q279.17188 407.63797 279.17188 409.18484Q279.17188 409.2786 279.17188 409.4661L274.53125 409.4661Q274.59375 410.49734 275.10938 411.04422Q275.625 411.57547 276.40625 411.57547Q276.98438 411.57547 277.39062 411.2786Q277.8125 410.9661 278.04688 410.30984ZM274.59375 408.60672L278.0625 408.60672Q278.0 407.80984 277.67188 407.41922Q277.15625 406.80984 276.35938 406.80984Q275.625 406.80984 275.125 407.29422Q274.64062 407.7786 274.59375 408.60672ZM280.375 410.45047L281.40625 410.29422Q281.5 410.91922 281.89062 411.24734Q282.29688 411.57547 283.03125 411.57547Q283.75 411.57547 284.09375 411.29422Q284.45312 410.99734 284.45312 410.5911Q284.45312 410.23172 284.14062 410.0286Q283.92188 409.88797 283.0625 409.66922Q281.90625 409.37234 281.45312 409.16922Q281.01562 408.95047 280.78125 408.57547Q280.54688 408.20047 280.54688 407.73172Q280.54688 407.32547 280.73438 406.9661Q280.92188 406.60672 281.25 406.37234Q281.5 406.20047 281.92188 406.07547Q282.34375 405.95047 282.84375 405.95047Q283.5625 405.95047 284.10938 406.16922Q284.67188 406.37234 284.9375 406.73172Q285.20312 407.0911 285.29688 407.68484L284.26562 407.82547Q284.20312 407.35672 283.85938 407.0911Q283.53125 406.80984 282.90625 406.80984Q282.1875 406.80984 281.875 407.05984Q281.5625 407.29422 281.5625 407.62234Q281.5625 407.82547 281.6875 407.98172Q281.82812 408.1536 282.09375 408.26297Q282.25 408.32547 283.03125 408.5286Q284.15625 408.8411 284.59375 409.0286Q285.03125 409.2161 285.28125 409.57547Q285.53125 409.93484 285.53125 410.48172Q285.53125 411.01297 285.21875 411.48172Q284.92188 411.93484 284.34375 412.20047Q283.76562 412.45047 283.03125 412.45047Q281.8125 412.45047 281.17188 411.95047Q280.54688 411.43484 280.375 410.45047ZM291.42188 412.30984L289.14062 403.7161L290.3125 403.7161L291.625 409.35672Q291.82812 410.23172 291.98438 411.10672Q292.3125 409.73172 292.375 409.51297L294.0 403.7161L295.375 403.7161L296.60938 408.05984Q297.0625 409.68484 297.28125 411.10672Q297.4375 410.29422 297.70312 409.23172L299.04688 403.7161L300.1875 403.7161L297.84375 412.30984L296.73438 412.30984L294.9375 405.76297Q294.70312 404.95047 294.65625 404.76297Q294.53125 405.3411 294.40625 405.76297L292.59375 412.30984L291.42188 412.30984ZM300.40625 409.20047Q300.40625 407.4661 301.35938 406.63797Q302.15625 405.95047 303.3125 405.95047Q304.59375 405.95047 305.40625 406.79422Q306.23438 407.62234 306.23438 409.10672Q306.23438 410.30984 305.875 410.99734Q305.51562 411.68484 304.8125 412.07547Q304.125 412.45047 303.3125 412.45047Q302.01562 412.45047 301.20312 411.62234Q300.40625 410.7786 300.40625 409.20047ZM301.48438 409.20047Q301.48438 410.38797 302.0 410.98172Q302.53125 411.57547 303.3125 411.57547Q304.10938 411.57547 304.625 410.98172Q305.14062 410.38797 305.14062 409.16922Q305.14062 408.01297 304.60938 407.41922Q304.09375 406.82547 303.3125 406.82547Q302.53125 406.82547 302.0 407.41922Q301.48438 407.99734 301.48438 409.20047ZM307.79688 412.30984L307.79688 406.0911L308.73438 406.0911L308.73438 406.9661Q309.42188 405.95047 310.71875 405.95047Q311.28125 405.95047 311.75 406.1536Q312.23438 406.35672 312.46875 406.68484Q312.70312 407.01297 312.79688 407.45047Q312.84375 407.74734 312.84375 408.48172L312.84375 412.30984L311.79688 412.30984L311.79688 408.5286Q311.79688 407.87234 311.67188 407.55984Q311.54688 407.24734 311.23438 407.05984Q310.92188 406.85672 310.5 406.85672Q309.82812 406.85672 309.32812 407.29422Q308.84375 407.7161 308.84375 408.9036L308.84375 412.30984L307.79688 412.30984Z" fill-rule="nonzero"/><path fill="#fca311" d="M342.0 408.30984C342.0 411.62354 339.31372 414.30984 336.0 414.30984C332.68628 414.30984 330.0 411.62354 330.0 408.30984C330.0 404.99612 332.68628 402.30984 336.0 402.30984C339.31372 402.30984 342.0 404.99612 342.0 408.30984Z" fill-rule="nonzero"/><path fill="#1a1a1a" d="M353.10938 412.30984L353.10938 404.73172L350.28125 404.73172L350.28125 403.7161L357.09375 403.7161L357.09375 404.73172L354.25 404.73172L354.25 412.30984L353.10938 412.30984ZM357.40625 409.20047Q357.40625 407.4661 358.35938 406.63797Q359.15625 405.95047 360.3125 405.95047Q361.59375 405.95047 362.40625 406.79422Q363.23438 407.62234 363.23438 409.10672Q363.23438 410.30984 362.875 410.99734Q362.51562 411.68484 361.8125 412.07547Q361.125 412.45047 360.3125 412.45047Q359.01562 412.45047 358.20312 411.62234Q357.40625 410.7786 357.40625 409.20047ZM358.48438 409.20047Q358.48438 410.38797 359.0 410.98172Q359.53125 411.57547 360.3125 411.57547Q361.10938 411.57547 361.625 410.98172Q362.14062 410.38797 362.14062 409.16922Q362.14062 408.01297 361.60938 407.41922Q361.09375 406.82547 360.3125 406.82547Q359.53125 406.82547 359.0 407.41922Q358.48438 407.99734 358.48438 409.20047ZM367.09375 411.37234L367.25 412.29422Q366.79688 412.38797 366.45312 412.38797Q365.875 412.38797 365.5625 412.2161Q365.25 412.0286 365.10938 411.73172Q364.98438 411.43484 364.98438 410.48172L364.98438 406.9036L364.21875 406.9036L364.21875 406.0911L364.98438 406.0911L364.98438 404.54422L366.03125 403.91922L366.03125 406.0911L367.09375 406.0911L367.09375 406.9036L366.03125 406.9036L366.03125 410.54422Q366.03125 410.99734 366.07812 411.12234Q366.14062 411.24734 366.26562 411.32547Q366.39062 411.4036 366.625 411.4036Q366.8125 411.4036 367.09375 411.37234ZM371.85938 411.54422Q371.26562 412.04422 370.71875 412.24734Q370.1875 412.45047 369.5625 412.45047Q368.53125 412.45047 367.98438 411.95047Q367.4375 411.45047 367.4375 410.66922Q367.4375 410.2161 367.64062 409.8411Q367.84375 409.45047 368.1875 409.23172Q368.53125 408.99734 368.95312 408.88797Q369.25 408.79422 369.89062 408.7161Q371.15625 408.57547 371.76562 408.35672Q371.76562 408.13797 371.76562 408.0911Q371.76562 407.43484 371.46875 407.16922Q371.0625 406.82547 370.26562 406.82547Q369.53125 406.82547 369.17188 407.0911Q368.8125 407.3411 368.64062 407.99734L367.60938 407.85672Q367.75 407.20047 368.07812 406.79422Q368.40625 406.38797 369.01562 406.16922Q369.625 405.95047 370.42188 405.95047Q371.21875 405.95047 371.71875 406.13797Q372.21875 406.32547 372.45312 406.60672Q372.6875 406.88797 372.78125 407.32547Q372.82812 407.5911 372.82812 408.29422L372.82812 409.70047Q372.82812 411.16922 372.89062 411.55984Q372.96875 411.95047 373.17188 412.30984L372.0625 412.30984Q371.90625 411.98172 371.85938 411.54422ZM371.76562 409.18484Q371.1875 409.41922 370.04688 409.5911Q369.39062 409.68484 369.125 409.80984Q368.85938 409.91922 368.70312 410.13797Q368.5625 410.35672 368.5625 410.63797Q368.5625 411.05984 368.875 411.3411Q369.20312 411.62234 369.8125 411.62234Q370.42188 411.62234 370.89062 411.35672Q371.375 411.0911 371.59375 410.62234Q371.76562 410.26297 371.76562 409.57547L371.76562 409.18484ZM374.76562 412.30984L374.76562 403.7161L375.82812 403.7161L375.82812 412.30984L374.76562 412.30984ZM387.0625 409.29422L388.1875 409.5911Q387.82812 410.98172 386.90625 411.7161Q385.98438 412.45047 384.64062 412.45047Q383.25 412.45047 382.375 411.88797Q381.5 411.32547 381.04688 410.26297Q380.59375 409.18484 380.59375 407.95047Q380.59375 406.60672 381.10938 405.60672Q381.625 404.60672 382.5625 404.0911Q383.51562 403.57547 384.65625 403.57547Q385.9375 403.57547 386.8125 404.23172Q387.70312 404.88797 388.04688 406.07547L386.92188 406.3411Q386.625 405.4036 386.04688 404.98172Q385.48438 404.54422 384.625 404.54422Q383.64062 404.54422 382.96875 405.0286Q382.3125 405.49734 382.03125 406.29422Q381.76562 407.0911 381.76562 407.95047Q381.76562 409.04422 382.07812 409.85672Q382.40625 410.66922 383.07812 411.07547Q383.75 411.48172 384.54688 411.48172Q385.5 411.48172 386.15625 410.93484Q386.82812 410.38797 387.0625 409.29422ZM389.40625 409.20047Q389.40625 407.4661 390.35938 406.63797Q391.15625 405.95047 392.3125 405.95047Q393.59375 405.95047 394.40625 406.79422Q395.23438 407.62234 395.23438 409.10672Q395.23438 410.30984 394.875 410.99734Q394.51562 411.68484 393.8125 412.07547Q393.125 412.45047 392.3125 412.45047Q391.01562 412.45047 390.20312 411.62234Q389.40625 410.7786 389.40625 409.20047ZM390.48438 409.20047Q390.48438 410.38797 391.0 410.98172Q391.53125 411.57547 392.3125 411.57547Q393.10938 411.57547 393.625 410.98172Q394.14062 410.38797 394.14062 409.16922Q394.14062 408.01297 393.60938 407.41922Q393.09375 406.82547 392.3125 406.82547Q391.53125 406.82547 391.0 407.41922Q390.48438 407.99734 390.48438 409.20047ZM396.79688 412.30984L396.79688 406.0911L397.73438 406.0911L397.73438 406.9661Q398.42188 405.95047 399.71875 405.95047Q400.28125 405.95047 400.75 406.1536Q401.23438 406.35672 401.46875 406.68484Q401.70312 407.01297 401.79688 407.45047Q401.84375 407.74734 401.84375 408.48172L401.84375 412.30984L400.79688 412.30984L400.79688 408.5286Q400.79688 407.87234 400.67188 407.55984Q400.54688 407.24734 400.23438 407.05984Q399.92188 406.85672 399.5 406.85672Q398.82812 406.85672 398.32812 407.29422Q397.84375 407.7161 397.84375 408.9036L397.84375 412.30984L396.79688 412.30984ZM406.09375 411.37234L406.25 412.29422Q405.79688 412.38797 405.45312 412.38797Q404.875 412.38797 404.5625 412.2161Q404.25 412.0286 404.10938 411.73172Q403.98438 411.43484 403.98438 410.48172L403.98438 406.9036L403.21875 406.9036L403.21875 406.0911L403.98438 406.0911L403.98438 404.54422L405.03125 403.91922L405.03125 406.0911L406.09375 406.0911L406.09375 406.9036L405.03125 406.9036L405.03125 410.54422Q405.03125 410.99734 405.07812 411.12234Q405.14062 411.24734 405.26562 411.32547Q405.39062 411.4036 405.625 411.4036Q405.8125 411.4036 406.09375 411.37234ZM411.04688 410.30984L412.14062 410.43484Q411.89062 411.38797 411.1875 411.91922Q410.48438 412.45047 409.40625 412.45047Q408.04688 412.45047 407.23438 411.60672Q406.4375 410.76297 406.4375 409.24734Q406.4375 407.68484 407.25 406.82547Q408.0625 405.95047 409.34375 405.95047Q410.59375 405.95047 411.375 406.79422Q412.17188 407.63797 412.17188 409.18484Q412.17188 409.2786 412.17188 409.4661L407.53125 409.4661Q407.59375 410.49734 408.10938 411.04422Q408.625 411.57547 409.40625 411.57547Q409.98438 411.57547 410.39062 411.2786Q410.8125 410.9661 411.04688 410.30984ZM407.59375 408.60672L411.0625 408.60672Q411.0 407.80984 410.67188 407.41922Q410.15625 406.80984 409.35938 406.80984Q408.625 406.80984 408.125 407.29422Q407.64062 407.7786 407.59375 408.60672ZM413.375 410.45047L414.40625 410.29422Q414.5 410.91922 414.89062 411.24734Q415.29688 411.57547 416.03125 411.57547Q416.75 411.57547 417.09375 411.29422Q417.45312 410.99734 417.45312 410.5911Q417.45312 410.23172 417.14062 410.0286Q416.92188 409.88797 416.0625 409.66922Q414.90625 409.37234 414.45312 409.16922Q414.01562 408.95047 413.78125 408.57547Q413.54688 408.20047 413.54688 407.73172Q413.54688 407.32547 413.73438 406.9661Q413.92188 406.60672 414.25 406.37234Q414.5 406.20047 414.92188 406.07547Q415.34375 405.95047 415.84375 405.95047Q416.5625 405.95047 417.10938 406.16922Q417.67188 406.37234 417.9375 406.73172Q418.20312 407.0911 418.29688 407.68484L417.26562 407.82547Q417.20312 407.35672 416.85938 407.0911Q416.53125 406.80984 415.90625 406.80984Q415.1875 406.80984 414.875 407.05984Q414.5625 407.29422 414.5625 407.62234Q414.5625 407.82547 414.6875 407.98172Q414.82812 408.1536 415.09375 408.26297Q415.25 408.32547 416.03125 408.5286Q417.15625 408.8411 417.59375 409.0286Q418.03125 409.2161 418.28125 409.57547Q418.53125 409.93484 418.53125 410.48172Q418.53125 411.01297 418.21875 411.48172Q417.92188 411.93484 417.34375 412.20047Q416.76562 412.45047 416.03125 412.45047Q414.8125 412.45047 414.17188 411.95047Q413.54688 411.43484 413.375 410.45047ZM422.09375 411.37234L422.25 412.29422Q421.79688 412.38797 421.45312 412.38797Q420.875 412.38797 420.5625 412.2161Q420.25 412.0286 420.10938 411.73172Q419.98438 411.43484 419.98438 410.48172L419.98438 406.9036L419.21875 406.9036L419.21875 406.0911L419.98438 406.0911L419.98438 404.54422L421.03125 403.91922L421.03125 406.0911L422.09375 406.0911L422.09375 406.9036L421.03125 406.9036L421.03125 410.54422Q421.03125 410.99734 421.07812 411.12234Q421.14062 411.24734 421.26562 411.32547Q421.39062 411.4036 421.625 411.4036Q421.8125 411.4036 422.09375 411.37234ZM427.04688 410.30984L428.14062 410.43484Q427.89062 411.38797 427.1875 411.91922Q426.48438 412.45047 425.40625 412.45047Q424.04688 412.45047 423.23438 411.60672Q422.4375 410.76297 422.4375 409.24734Q422.4375 407.68484 423.25 406.82547Q424.0625 405.95047 425.34375 405.95047Q426.59375 405.95047 427.375 406.79422Q428.17188 407.63797 428.17188 409.18484Q428.17188 409.2786 428.17188 409.4661L423.53125 409.4661Q423.59375 410.49734 424.10938 411.04422Q424.625 411.57547 425.40625 411.57547Q425.98438 411.57547 426.39062 411.2786Q426.8125 410.9661 427.04688 410.30984ZM423.59375 408.60672L427.0625 408.60672Q427.0 407.80984 426.67188 407.41922Q426.15625 406.80984 425.35938 406.80984Q424.625 406.80984 424.125 407.29422Q423.64062 407.7786 423.59375 408.60672ZM433.82812 412.30984L433.82812 411.5286Q433.23438 412.45047 432.09375 412.45047Q431.34375 412.45047 430.71875 412.04422Q430.09375 411.62234 429.75 410.88797Q429.40625 410.1536 429.40625 409.20047Q429.40625 408.2786 429.71875 407.51297Q430.03125 406.74734 430.65625 406.35672Q431.28125 405.95047 432.04688 405.95047Q432.60938 405.95047 433.04688 406.18484Q433.48438 406.41922 433.76562 406.79422L433.76562 403.7161L434.8125 403.7161L434.8125 412.30984L433.82812 412.30984ZM430.5 409.20047Q430.5 410.4036 431.0 410.99734Q431.5 411.57547 432.1875 411.57547Q432.875 411.57547 433.35938 411.01297Q433.84375 410.45047 433.84375 409.29422Q433.84375 408.01297 433.34375 407.41922Q432.85938 406.82547 432.14062 406.82547Q431.4375 406.82547 430.96875 407.4036Q430.5 407.9661 430.5 409.20047ZM446.0625 409.29422L447.1875 409.5911Q446.82812 410.98172 445.90625 411.7161Q444.98438 412.45047 443.64062 412.45047Q442.25 412.45047 441.375 411.88797Q440.5 411.32547 440.04688 410.26297Q439.59375 409.18484 439.59375 407.95047Q439.59375 406.60672 440.10938 405.60672Q440.625 404.60672 441.5625 404.0911Q442.51562 403.57547 443.65625 403.57547Q444.9375 403.57547 445.8125 404.23172Q446.70312 404.88797 447.04688 406.07547L445.92188 406.3411Q445.625 405.4036 445.04688 404.98172Q444.48438 404.54422 443.625 404.54422Q442.64062 404.54422 441.96875 405.0286Q441.3125 405.49734 441.03125 406.29422Q440.76562 407.0911 440.76562 407.95047Q440.76562 409.04422 441.07812 409.85672Q441.40625 410.66922 442.07812 411.07547Q442.75 411.48172 443.54688 411.48172Q444.5 411.48172 445.15625 410.93484Q445.82812 410.38797 446.0625 409.29422ZM452.85938 411.54422Q452.26562 412.04422 451.71875 412.24734Q451.1875 412.45047 450.5625 412.45047Q449.53125 412.45047 448.98438 411.95047Q448.4375 411.45047 448.4375 410.66922Q448.4375 410.2161 448.64062 409.8411Q448.84375 409.45047 449.1875 409.23172Q449.53125 408.99734 449.95312 408.88797Q450.25 408.79422 450.89062 408.7161Q452.15625 408.57547 452.76562 408.35672Q452.76562 408.13797 452.76562 408.0911Q452.76562 407.43484 452.46875 407.16922Q452.0625 406.82547 451.26562 406.82547Q450.53125 406.82547 450.17188 407.0911Q449.8125 407.3411 449.64062 407.99734L448.60938 407.85672Q448.75 407.20047 449.07812 406.79422Q449.40625 406.38797 450.01562 406.16922Q450.625 405.95047 451.42188 405.95047Q452.21875 405.95047 452.71875 406.13797Q453.21875 406.32547 453.45312 406.60672Q453.6875 406.88797 453.78125 407.32547Q453.82812 407.5911 453.82812 408.29422L453.82812 409.70047Q453.82812 411.16922 453.89062 411.55984Q453.96875 411.95047 454.17188 412.30984L453.0625 412.30984Q452.90625 411.98172 452.85938 411.54422ZM452.76562 409.18484Q452.1875 409.41922 451.04688 409.5911Q450.39062 409.68484 450.125 409.80984Q449.85938 409.91922 449.70312 410.13797Q449.5625 410.35672 449.5625 410.63797Q449.5625 411.05984 449.875 411.3411Q450.20312 411.62234 450.8125 411.62234Q451.42188 411.62234 451.89062 411.35672Q452.375 411.0911 452.59375 410.62234Q452.76562 410.26297 452.76562 409.57547L452.76562 409.18484ZM455.375 410.45047L456.40625 410.29422Q456.5 410.91922 456.89062 411.24734Q457.29688 411.57547 458.03125 411.57547Q458.75 411.57547 459.09375 411.29422Q459.45312 410.99734 459.45312 410.5911Q459.45312 410.23172 459.14062 410.0286Q458.92188 409.88797 458.0625 409.66922Q456.90625 409.37234 456.45312 409.16922Q456.01562 408.95047 455.78125 408.57547Q455.54688 408.20047 455.54688 407.73172Q455.54688 407.32547 455.73438 406.9661Q455.92188 406.60672 456.25 406.37234Q456.5 406.20047 456.92188 406.07547Q457.34375 405.95047 457.84375 405.95047Q458.5625 405.95047 459.10938 406.16922Q459.67188 406.37234 459.9375 406.73172Q460.20312 407.0911 460.29688 407.68484L459.26562 407.82547Q459.20312 407.35672 458.85938 407.0911Q458.53125 406.80984 457.90625 406.80984Q457.1875 406.80984 456.875 407.05984Q456.5625 407.29422 456.5625 407.62234Q456.5625 407.82547 456.6875 407.98172Q456.82812 408.1536 457.09375 408.26297Q457.25 408.32547 458.03125 408.5286Q459.15625 408.8411 459.59375 409.0286Q460.03125 409.2161 460.28125 409.57547Q460.53125 409.93484 460.53125 410.48172Q460.53125 411.01297 460.21875 411.48172Q459.92188 411.93484 459.34375 412.20047Q458.76562 412.45047 458.03125 412.45047Q456.8125 412.45047 456.17188 411.95047Q455.54688 411.43484 455.375 410.45047ZM466.04688 410.30984L467.14062 410.43484Q466.89062 411.38797 466.1875 411.91922Q465.48438 412.45047 464.40625 412.45047Q463.04688 412.45047 462.23438 411.60672Q461.4375 410.76297 461.4375 409.24734Q461.4375 407.68484 462.25 406.82547Q463.0625 405.95047 464.34375 405.95047Q465.59375 405.95047 466.375 406.79422Q467.17188 407.63797 467.17188 409.18484Q467.17188 409.2786 467.17188 409.4661L462.53125 409.4661Q462.59375 410.49734 463.10938 411.04422Q463.625 411.57547 464.40625 411.57547Q464.98438 411.57547 465.39062 411.2786Q465.8125 410.9661 466.04688 410.30984ZM462.59375 408.60672L466.0625 408.60672Q466.0 407.80984 465.67188 407.41922Q465.15625 406.80984 464.35938 406.80984Q463.625 406.80984 463.125 407.29422Q462.64062 407.7786 462.59375 408.60672ZM468.375 410.45047L469.40625 410.29422Q469.5 410.91922 469.89062 411.24734Q470.29688 411.57547 471.03125 411.57547Q471.75 411.57547 472.09375 411.29422Q472.45312 410.99734 472.45312 410.5911Q472.45312 410.23172 472.14062 410.0286Q471.92188 409.88797 471.0625 409.66922Q469.90625 409.37234 469.45312 409.16922Q469.01562 408.95047 468.78125 408.57547Q468.54688 408.20047 468.54688 407.73172Q468.54688 407.32547 468.73438 406.9661Q468.92188 406.60672 469.25 406.37234Q469.5 406.20047 469.92188 406.07547Q470.34375 405.95047 470.84375 405.95047Q471.5625 405.95047 472.10938 406.16922Q472.67188 406.37234 472.9375 406.73172Q473.20312 407.0911 473.29688 407.68484L472.26562 407.82547Q472.20312 407.35672 471.85938 407.0911Q471.53125 406.80984 470.90625 406.80984Q470.1875 406.80984 469.875 407.05984Q469.5625 407.29422 469.5625 407.62234Q469.5625 407.82547 469.6875 407.98172Q469.82812 408.1536 470.09375 408.26297Q470.25 408.32547 471.03125 408.5286Q472.15625 408.8411 472.59375 409.0286Q473.03125 409.2161 473.28125 409.57547Q473.53125 409.93484 473.53125 410.48172Q473.53125 411.01297 473.21875 411.48172Q472.92188 411.93484 472.34375 412.20047Q471.76562 412.45047 471.03125 412.45047Q469.8125 412.45047 469.17188 411.95047Q468.54688 411.43484 468.375 410.45047Z" fill-rule="nonzero"/><path fill="#757575" d="M133.76562 35.15385L135.65625 35.6226Q135.0625 37.96635 133.51562 39.200726Q131.96875 40.419476 129.71875 40.419476Q127.40625 40.419476 125.953125 39.481976Q124.515625 38.52885 123.75 36.7476Q123.0 34.950726 123.0 32.90385Q123.0 30.669476 123.84375 29.013226Q124.703125 27.34135 126.28125 26.481976Q127.859375 25.606976 129.75 25.606976Q131.90625 25.606976 133.35938 26.700726Q134.82812 27.794476 135.40625 29.77885L133.54688 30.21635Q133.04688 28.65385 132.09375 27.950726Q131.15625 27.231976 129.71875 27.231976Q128.0625 27.231976 126.953125 28.02885Q125.84375 28.8101 125.390625 30.15385Q124.953125 31.481976 124.953125 32.888226Q124.953125 34.71635 125.484375 36.09135Q126.015625 37.450726 127.140625 38.1226Q128.26562 38.794476 129.5625 38.794476Q131.15625 38.794476 132.26562 37.8726Q133.375 36.950726 133.76562 35.15385ZM144.09375 38.888226Q143.10938 39.71635 142.20312 40.0601Q141.29688 40.40385 140.26562 40.40385Q138.5625 40.40385 137.64062 39.575726Q136.71875 38.731976 136.71875 37.4351Q136.71875 36.669476 137.0625 36.044476Q137.42188 35.419476 137.98438 35.044476Q138.54688 34.65385 139.25 34.450726Q139.76562 34.325726 140.8125 34.1851Q142.9375 33.9351 143.9375 33.59135Q143.95312 33.231976 143.95312 33.1226Q143.95312 32.0601 143.45312 31.606976Q142.78125 31.013226 141.45312 31.013226Q140.20312 31.013226 139.60938 31.450726Q139.03125 31.888226 138.75 32.9976L137.03125 32.763226Q137.26562 31.65385 137.79688 30.981976Q138.32812 30.294476 139.34375 29.9351Q140.35938 29.5601 141.70312 29.5601Q143.03125 29.5601 143.85938 29.8726Q144.6875 30.1851 145.07812 30.669476Q145.46875 31.138226 145.625 31.856976Q145.71875 32.3101 145.71875 33.481976L145.71875 35.825726Q145.71875 38.27885 145.82812 38.9351Q145.9375 39.575726 146.28125 40.169476L144.4375 40.169476Q144.17188 39.6226 144.09375 38.888226ZM143.9375 34.96635Q142.98438 35.356976 141.0625 35.6226Q139.98438 35.77885 139.53125 35.981976Q139.09375 36.169476 138.84375 36.544476Q138.59375 36.919476 138.59375 37.388226Q138.59375 38.09135 139.125 38.5601Q139.65625 39.02885 140.6875 39.02885Q141.70312 39.02885 142.48438 38.59135Q143.28125 38.138226 143.65625 37.3726Q143.9375 36.763226 143.9375 35.606976L143.9375 34.96635ZM147.60938 37.075726L149.35938 36.794476Q149.5 37.84135 150.17188 38.40385Q150.84375 38.950726 152.04688 38.950726Q153.25 38.950726 153.82812 38.46635Q154.42188 37.96635 154.42188 37.3101Q154.42188 36.71635 153.90625 36.3726Q153.54688 36.138226 152.10938 35.77885Q150.17188 35.27885 149.42188 34.9351Q148.6875 34.575726 148.29688 33.950726Q147.90625 33.3101 147.90625 32.544476Q147.90625 31.856976 148.21875 31.263226Q148.54688 30.669476 149.09375 30.27885Q149.5 29.981976 150.20312 29.77885Q150.92188 29.5601 151.73438 29.5601Q152.95312 29.5601 153.875 29.919476Q154.79688 30.263226 155.23438 30.8726Q155.67188 31.46635 155.84375 32.46635L154.125 32.700726Q154.0 31.90385 153.4375 31.46635Q152.875 31.013226 151.85938 31.013226Q150.64062 31.013226 150.125 31.419476Q149.60938 31.8101 149.60938 32.34135Q149.60938 32.6851 149.82812 32.96635Q150.03125 33.2476 150.5 33.4351Q150.76562 33.52885 152.04688 33.8726Q153.92188 34.3726 154.65625 34.700726Q155.39062 35.013226 155.8125 35.6226Q156.23438 36.21635 156.23438 37.1226Q156.23438 37.9976 155.71875 38.77885Q155.20312 39.5601 154.23438 39.981976Q153.26562 40.40385 152.04688 40.40385Q150.03125 40.40385 148.96875 39.5601Q147.90625 38.71635 147.60938 37.075726ZM165.42188 36.825726L167.23438 37.0601Q166.8125 38.638226 165.64062 39.52885Q164.48438 40.40385 162.67188 40.40385Q160.40625 40.40385 159.0625 39.013226Q157.73438 37.606976 157.73438 35.075726Q157.73438 32.450726 159.07812 31.013226Q160.42188 29.5601 162.57812 29.5601Q164.65625 29.5601 165.96875 30.981976Q167.29688 32.388226 167.29688 34.96635Q167.29688 35.1226 167.28125 35.4351L159.54688 35.4351Q159.64062 37.138226 160.51562 38.044476Q161.39062 38.950726 162.6875 38.950726Q163.65625 38.950726 164.32812 38.450726Q165.01562 37.9351 165.42188 36.825726ZM159.64062 33.981976L165.4375 33.981976Q165.32812 32.6851 164.78125 32.02885Q163.9375 31.013226 162.59375 31.013226Q161.39062 31.013226 160.5625 31.825726Q159.73438 32.6226 159.64062 33.981976ZM168.60938 37.075726L170.35938 36.794476Q170.5 37.84135 171.17188 38.40385Q171.84375 38.950726 173.04688 38.950726Q174.25 38.950726 174.82812 38.46635Q175.42188 37.96635 175.42188 37.3101Q175.42188 36.71635 174.90625 36.3726Q174.54688 36.138226 173.10938 35.77885Q171.17188 35.27885 170.42188 34.9351Q169.6875 34.575726 169.29688 33.950726Q168.90625 33.3101 168.90625 32.544476Q168.90625 31.856976 169.21875 31.263226Q169.54688 30.669476 170.09375 30.27885Q170.5 29.981976 171.20312 29.77885Q171.92188 29.5601 172.73438 29.5601Q173.95312 29.5601 174.875 29.919476Q175.79688 30.263226 176.23438 30.8726Q176.67188 31.46635 176.84375 32.46635L175.125 32.700726Q175.0 31.90385 174.4375 31.46635Q173.875 31.013226 172.85938 31.013226Q171.64062 31.013226 171.125 31.419476Q170.60938 31.8101 170.60938 32.34135Q170.60938 32.6851 170.82812 32.96635Q171.03125 33.2476 171.5 33.4351Q171.76562 33.52885 173.04688 33.8726Q174.92188 34.3726 175.65625 34.700726Q176.39062 35.013226 176.8125 35.6226Q177.23438 36.21635 177.23438 37.1226Q177.23438 37.9976 176.71875 38.77885Q176.20312 39.5601 175.23438 39.981976Q174.26562 40.40385 173.04688 40.40385Q171.03125 40.40385 169.96875 39.5601Q168.90625 38.71635 168.60938 37.075726ZM185.73438 40.169476L185.73438 31.169476L184.1875 31.169476L184.1875 29.794476L185.73438 29.794476L185.73438 28.700726Q185.73438 27.65385 185.92188 27.138226Q186.17188 26.450726 186.8125 26.02885Q187.45312 25.606976 188.60938 25.606976Q189.35938 25.606976 190.25 25.77885L189.98438 27.3101Q189.4375 27.21635 188.95312 27.21635Q188.15625 27.21635 187.8125 27.5601Q187.48438 27.90385 187.48438 28.84135L187.48438 29.794476L189.51562 29.794476L189.51562 31.169476L187.48438 31.169476L187.48438 40.169476L185.73438 40.169476ZM190.67188 34.981976Q190.67188 32.106976 192.26562 30.71635Q193.60938 29.5601 195.53125 29.5601Q197.67188 29.5601 199.01562 30.96635Q200.375 32.3726 200.375 34.84135Q200.375 36.84135 199.78125 37.9976Q199.1875 39.138226 198.03125 39.77885Q196.89062 40.40385 195.53125 40.40385Q193.34375 40.40385 192.0 39.013226Q190.67188 37.606976 190.67188 34.981976ZM192.46875 34.981976Q192.46875 36.981976 193.32812 37.96635Q194.20312 38.950726 195.53125 38.950726Q196.84375 38.950726 197.70312 37.96635Q198.57812 36.96635 198.57812 34.919476Q198.57812 32.9976 197.70312 32.013226Q196.82812 31.013226 195.53125 31.013226Q194.20312 31.013226 193.32812 32.013226Q192.46875 32.9976 192.46875 34.981976ZM202.29688 40.169476L202.29688 29.794476L203.875 29.794476L203.875 31.3726Q204.48438 30.263226 205.0 29.919476Q205.51562 29.5601 206.125 29.5601Q207.01562 29.5601 207.9375 30.1226L207.32812 31.763226Q206.6875 31.3726 206.04688 31.3726Q205.46875 31.3726 205.0 31.731976Q204.54688 32.075726 204.34375 32.6851Q204.0625 33.6226 204.0625 34.731976L204.0625 40.169476L202.29688 40.169476ZM215.54688 40.169476L215.54688 25.856976L220.9375 25.856976Q222.375 25.856976 223.125 25.981976Q224.17188 26.169476 224.89062 26.669476Q225.60938 27.15385 226.03125 28.044476Q226.46875 28.9351 226.46875 29.9976Q226.46875 31.825726 225.29688 33.09135Q224.14062 34.34135 221.10938 34.34135L217.4375 34.34135L217.4375 40.169476L215.54688 40.169476ZM217.4375 32.65385L221.14062 32.65385Q222.96875 32.65385 223.73438 31.981976Q224.51562 31.294476 224.51562 30.044476Q224.51562 29.15385 224.0625 28.513226Q223.60938 27.8726 222.875 27.669476Q222.39062 27.544476 221.09375 27.544476L217.4375 27.544476L217.4375 32.65385ZM235.09375 38.888226Q234.10938 39.71635 233.20312 40.0601Q232.29688 40.40385 231.26562 40.40385Q229.5625 40.40385 228.64062 39.575726Q227.71875 38.731976 227.71875 37.4351Q227.71875 36.669476 228.0625 36.044476Q228.42188 35.419476 228.98438 35.044476Q229.54688 34.65385 230.25 34.450726Q230.76562 34.325726 231.8125 34.1851Q233.9375 33.9351 234.9375 33.59135Q234.95312 33.231976 234.95312 33.1226Q234.95312 32.0601 234.45312 31.606976Q233.78125 31.013226 232.45312 31.013226Q231.20312 31.013226 230.60938 31.450726Q230.03125 31.888226 229.75 32.9976L228.03125 32.763226Q228.26562 31.65385 228.79688 30.981976Q229.32812 30.294476 230.34375 29.9351Q231.35938 29.5601 232.70312 29.5601Q234.03125 29.5601 234.85938 29.8726Q235.6875 30.1851 236.07812 30.669476Q236.46875 31.138226 236.625 31.856976Q236.71875 32.3101 236.71875 33.481976L236.71875 35.825726Q236.71875 38.27885 236.82812 38.9351Q236.9375 39.575726 237.28125 40.169476L235.4375 40.169476Q235.17188 39.6226 235.09375 38.888226ZM234.9375 34.96635Q233.98438 35.356976 232.0625 35.6226Q230.98438 35.77885 230.53125 35.981976Q230.09375 36.169476 229.84375 36.544476Q229.59375 36.919476 229.59375 37.388226Q229.59375 38.09135 230.125 38.5601Q230.65625 39.02885 231.6875 39.02885Q232.70312 39.02885 233.48438 38.59135Q234.28125 38.138226 234.65625 37.3726Q234.9375 36.763226 234.9375 35.606976L234.9375 34.96635ZM239.29688 40.169476L239.29688 29.794476L240.875 29.794476L240.875 31.3726Q241.48438 30.263226 242.0 29.919476Q242.51562 29.5601 243.125 29.5601Q244.01562 29.5601 244.9375 30.1226L244.32812 31.763226Q243.6875 31.3726 243.04688 31.3726Q242.46875 31.3726 242.0 31.731976Q241.54688 32.075726 241.34375 32.6851Q241.0625 33.6226 241.0625 34.731976L241.0625 40.169476L239.29688 40.169476ZM246.32812 40.169476L246.32812 25.856976L248.09375 25.856976L248.09375 34.013226L252.25 29.794476L254.51562 29.794476L250.5625 33.638226L254.92188 40.169476L252.75 40.169476L249.32812 34.8726L248.09375 36.0601L248.09375 40.169476L246.32812 40.169476ZM261.67188 34.981976Q261.67188 32.106976 263.26562 30.71635Q264.60938 29.5601 266.53125 29.5601Q268.67188 29.5601 270.01562 30.96635Q271.375 32.3726 271.375 34.84135Q271.375 36.84135 270.78125 37.9976Q270.1875 39.138226 269.03125 39.77885Q267.89062 40.40385 266.53125 40.40385Q264.34375 40.40385 263.0 39.013226Q261.67188 37.606976 261.67188 34.981976ZM263.46875 34.981976Q263.46875 36.981976 264.32812 37.96635Q265.20312 38.950726 266.53125 38.950726Q267.84375 38.950726 268.70312 37.96635Q269.57812 36.96635 269.57812 34.919476Q269.57812 32.9976 268.70312 32.013226Q267.82812 31.013226 266.53125 31.013226Q265.20312 31.013226 264.32812 32.013226Q263.46875 32.9976 263.46875 34.981976ZM273.29688 40.169476L273.29688 29.794476L274.875 29.794476L274.875 31.3726Q275.48438 30.263226 276.0 29.919476Q276.51562 29.5601 277.125 29.5601Q278.01562 29.5601 278.9375 30.1226L278.32812 31.763226Q277.6875 31.3726 277.04688 31.3726Q276.46875 31.3726 276.0 31.731976Q275.54688 32.075726 275.34375 32.6851Q275.0625 33.6226 275.0625 34.731976L275.0625 40.169476L273.29688 40.169476ZM285.90625 35.575726L287.6875 35.419476Q287.8125 36.481976 288.26562 37.169476Q288.73438 37.856976 289.70312 38.294476Q290.6875 38.71635 291.92188 38.71635Q293.0 38.71635 293.82812 38.40385Q294.65625 38.075726 295.0625 37.513226Q295.46875 36.950726 295.46875 36.27885Q295.46875 35.606976 295.07812 35.106976Q294.6875 34.606976 293.79688 34.263226Q293.21875 34.02885 291.23438 33.5601Q289.26562 33.09135 288.48438 32.669476Q287.45312 32.138226 286.95312 31.34135Q286.45312 30.544476 286.45312 29.5601Q286.45312 28.46635 287.0625 27.52885Q287.67188 26.59135 288.85938 26.106976Q290.04688 25.606976 291.48438 25.606976Q293.07812 25.606976 294.29688 26.1226Q295.51562 26.638226 296.15625 27.638226Q296.8125 28.6226 296.85938 29.888226L295.04688 30.02885Q294.90625 28.669476 294.0625 27.981976Q293.21875 27.27885 291.5625 27.27885Q289.84375 27.27885 289.04688 27.919476Q288.26562 28.544476 288.26562 29.419476Q288.26562 30.200726 288.82812 30.700726Q289.375 31.200726 291.6875 31.71635Q294.0 32.231976 294.85938 32.6226Q296.10938 33.200726 296.70312 34.09135Q297.29688 34.96635 297.29688 36.1226Q297.29688 37.263226 296.64062 38.27885Q295.98438 39.294476 294.75 39.856976Q293.53125 40.419476 292.0 40.419476Q290.0625 40.419476 288.75 39.856976Q287.4375 39.27885 286.6875 38.138226Q285.9375 36.9976 285.90625 35.575726ZM303.15625 38.59135L303.40625 40.15385Q302.67188 40.3101 302.07812 40.3101Q301.125 40.3101 300.59375 40.013226Q300.07812 39.700726 299.85938 39.21635Q299.64062 38.71635 299.64062 37.138226L299.64062 31.169476L298.35938 31.169476L298.35938 29.794476L299.64062 29.794476L299.64062 27.231976L301.39062 26.169476L301.39062 29.794476L303.15625 29.794476L303.15625 31.169476L301.39062 31.169476L301.39062 37.231976Q301.39062 37.981976 301.48438 38.200726Q301.57812 38.40385 301.78125 38.544476Q302.0 38.669476 302.39062 38.669476Q302.67188 38.669476 303.15625 38.59135ZM312.09375 38.888226Q311.10938 39.71635 310.20312 40.0601Q309.29688 40.40385 308.26562 40.40385Q306.5625 40.40385 305.64062 39.575726Q304.71875 38.731976 304.71875 37.4351Q304.71875 36.669476 305.0625 36.044476Q305.42188 35.419476 305.98438 35.044476Q306.54688 34.65385 307.25 34.450726Q307.76562 34.325726 308.8125 34.1851Q310.9375 33.9351 311.9375 33.59135Q311.95312 33.231976 311.95312 33.1226Q311.95312 32.0601 311.45312 31.606976Q310.78125 31.013226 309.45312 31.013226Q308.20312 31.013226 307.60938 31.450726Q307.03125 31.888226 306.75 32.9976L305.03125 32.763226Q305.26562 31.65385 305.79688 30.981976Q306.32812 30.294476 307.34375 29.9351Q308.35938 29.5601 309.70312 29.5601Q311.03125 29.5601 311.85938 29.8726Q312.6875 30.1851 313.07812 30.669476Q313.46875 31.138226 313.625 31.856976Q313.71875 32.3101 313.71875 33.481976L313.71875 35.825726Q313.71875 38.27885 313.82812 38.9351Q313.9375 39.575726 314.28125 40.169476L312.4375 40.169476Q312.17188 39.6226 312.09375 38.888226ZM311.9375 34.96635Q310.98438 35.356976 309.0625 35.6226Q307.98438 35.77885 307.53125 35.981976Q307.09375 36.169476 306.84375 36.544476Q306.59375 36.919476 306.59375 37.388226Q306.59375 38.09135 307.125 38.5601Q307.65625 39.02885 308.6875 39.02885Q309.70312 39.02885 310.48438 38.59135Q311.28125 38.138226 311.65625 37.3726Q311.9375 36.763226 311.9375 35.606976L311.9375 34.96635ZM316.3125 40.169476L316.3125 29.794476L317.90625 29.794476L317.90625 31.27885Q319.04688 29.5601 321.20312 29.5601Q322.14062 29.5601 322.92188 29.90385Q323.71875 30.231976 324.10938 30.77885Q324.5 31.325726 324.65625 32.075726Q324.75 32.575726 324.75 33.794476L324.75 40.169476L322.98438 40.169476L322.98438 33.856976Q322.98438 32.77885 322.78125 32.2476Q322.57812 31.71635 322.04688 31.40385Q321.53125 31.09135 320.82812 31.09135Q319.70312 31.09135 318.89062 31.8101Q318.07812 32.513226 318.07812 34.4976L318.07812 40.169476L316.3125 40.169476ZM334.04688 40.169476L334.04688 38.856976Q333.0625 40.40385 331.14062 40.40385Q329.90625 40.40385 328.85938 39.71635Q327.82812 39.02885 327.25 37.8101Q326.6875 36.59135 326.6875 34.9976Q326.6875 33.4351 327.20312 32.169476Q327.71875 30.90385 328.75 30.231976Q329.79688 29.5601 331.0625 29.5601Q332.0 29.5601 332.73438 29.96635Q333.46875 30.356976 333.9375 30.981976L333.9375 25.856976L335.67188 25.856976L335.67188 40.169476L334.04688 40.169476ZM328.48438 34.9976Q328.48438 36.981976 329.32812 37.96635Q330.17188 38.950726 331.3125 38.950726Q332.46875 38.950726 333.26562 38.013226Q334.07812 37.075726 334.07812 35.138226Q334.07812 33.013226 333.25 32.013226Q332.4375 31.013226 331.23438 31.013226Q330.0625 31.013226 329.26562 31.981976Q328.48438 32.9351 328.48438 34.9976ZM344.85938 40.169476L344.85938 25.856976L346.76562 25.856976L346.76562 40.169476L344.85938 40.169476ZM350.3125 40.169476L350.3125 29.794476L351.90625 29.794476L351.90625 31.27885Q353.04688 29.5601 355.20312 29.5601Q356.14062 29.5601 356.92188 29.90385Q357.71875 30.231976 358.10938 30.77885Q358.5 31.325726 358.65625 32.075726Q358.75 32.575726 358.75 33.794476L358.75 40.169476L356.98438 40.169476L356.98438 33.856976Q356.98438 32.77885 356.78125 32.2476Q356.57812 31.71635 356.04688 31.40385Q355.53125 31.09135 354.82812 31.09135Q353.70312 31.09135 352.89062 31.8101Q352.07812 32.513226 352.07812 34.4976L352.07812 40.169476L350.3125 40.169476ZM367.46875 40.169476L367.46875 25.856976L372.84375 25.856976Q374.48438 25.856976 375.46875 26.294476Q376.45312 26.71635 377.01562 27.6226Q377.57812 28.52885 377.57812 29.513226Q377.57812 30.4351 377.07812 31.2476Q376.59375 32.0601 375.57812 32.544476Q376.875 32.9351 377.57812 33.856976Q378.28125 34.763226 378.28125 36.013226Q378.28125 37.02885 377.84375 37.888226Q377.42188 38.7476 376.79688 39.21635Q376.17188 39.6851 375.23438 39.9351Q374.29688 40.169476 372.92188 40.169476L367.46875 40.169476ZM369.35938 31.8726L372.45312 31.8726Q373.71875 31.8726 374.26562 31.700726Q374.98438 31.481976 375.34375 30.9976Q375.71875 30.4976 375.71875 29.731976Q375.71875 29.02885 375.375 28.481976Q375.03125 27.9351 374.39062 27.7476Q373.76562 27.544476 372.21875 27.544476L369.35938 27.544476L369.35938 31.8726ZM369.35938 38.481976L372.92188 38.481976Q373.84375 38.481976 374.21875 38.40385Q374.875 38.294476 375.3125 38.02885Q375.75 37.7476 376.03125 37.231976Q376.3125 36.700726 376.3125 36.013226Q376.3125 35.21635 375.90625 34.6226Q375.5 34.02885 374.76562 33.794476Q374.03125 33.5601 372.67188 33.5601L369.35938 33.5601L369.35938 38.481976ZM387.10938 40.169476L387.10938 38.638226Q385.90625 40.40385 383.82812 40.40385Q382.90625 40.40385 382.10938 40.0601Q381.3125 39.700726 380.92188 39.169476Q380.54688 38.638226 380.39062 37.856976Q380.28125 37.34135 380.28125 36.21635L380.28125 29.794476L382.03125 29.794476L382.03125 35.544476Q382.03125 36.919476 382.14062 37.40385Q382.3125 38.09135 382.84375 38.4976Q383.39062 38.888226 384.17188 38.888226Q384.96875 38.888226 385.65625 38.481976Q386.35938 38.075726 386.64062 37.388226Q386.9375 36.6851 386.9375 35.356976L386.9375 29.794476L388.6875 29.794476L388.6875 40.169476L387.10938 40.169476ZM390.60938 37.075726L392.35938 36.794476Q392.5 37.84135 393.17188 38.40385Q393.84375 38.950726 395.04688 38.950726Q396.25 38.950726 396.82812 38.46635Q397.42188 37.96635 397.42188 37.3101Q397.42188 36.71635 396.90625 36.3726Q396.54688 36.138226 395.10938 35.77885Q393.17188 35.27885 392.42188 34.9351Q391.6875 34.575726 391.29688 33.950726Q390.90625 33.3101 390.90625 32.544476Q390.90625 31.856976 391.21875 31.263226Q391.54688 30.669476 392.09375 30.27885Q392.5 29.981976 393.20312 29.77885Q393.92188 29.5601 394.73438 29.5601Q395.95312 29.5601 396.875 29.919476Q397.79688 30.263226 398.23438 30.8726Q398.67188 31.46635 398.84375 32.46635L397.125 32.700726Q397.0 31.90385 396.4375 31.46635Q395.875 31.013226 394.85938 31.013226Q393.64062 31.013226 393.125 31.419476Q392.60938 31.8101 392.60938 32.34135Q392.60938 32.6851 392.82812 32.96635Q393.03125 33.2476 393.5 33.4351Q393.76562 33.52885 395.04688 33.8726Q396.92188 34.3726 397.65625 34.700726Q398.39062 35.013226 398.8125 35.6226Q399.23438 36.21635 399.23438 37.1226Q399.23438 37.9976 398.71875 38.77885Q398.20312 39.5601 397.23438 39.981976Q396.26562 40.40385 395.04688 40.40385Q393.03125 40.40385 391.96875 39.5601Q390.90625 38.71635 390.60938 37.075726ZM400.0 40.419476L404.15625 25.606976L405.5625 25.606976L401.42188 40.419476L400.0 40.419476ZM411.1875 40.169476L411.1875 27.544476L406.46875 27.544476L406.46875 25.856976L417.8125 25.856976L417.8125 27.544476L413.07812 27.544476L413.07812 40.169476L411.1875 40.169476ZM426.09375 38.888226Q425.10938 39.71635 424.20312 40.0601Q423.29688 40.40385 422.26562 40.40385Q420.5625 40.40385 419.64062 39.575726Q418.71875 38.731976 418.71875 37.4351Q418.71875 36.669476 419.0625 36.044476Q419.42188 35.419476 419.98438 35.044476Q420.54688 34.65385 421.25 34.450726Q421.76562 34.325726 422.8125 34.1851Q424.9375 33.9351 425.9375 33.59135Q425.95312 33.231976 425.95312 33.1226Q425.95312 32.0601 425.45312 31.606976Q424.78125 31.013226 423.45312 31.013226Q422.20312 31.013226 421.60938 31.450726Q421.03125 31.888226 420.75 32.9976L419.03125 32.763226Q419.26562 31.65385 419.79688 30.981976Q420.32812 30.294476 421.34375 29.9351Q422.35938 29.5601 423.70312 29.5601Q425.03125 29.5601 425.85938 29.8726Q426.6875 30.1851 427.07812 30.669476Q427.46875 31.138226 427.625 31.856976Q427.71875 32.3101 427.71875 33.481976L427.71875 35.825726Q427.71875 38.27885 427.82812 38.9351Q427.9375 39.575726 428.28125 40.169476L426.4375 40.169476Q426.17188 39.6226 426.09375 38.888226ZM425.9375 34.96635Q424.98438 35.356976 423.0625 35.6226Q421.98438 35.77885 421.53125 35.981976Q421.09375 36.169476 420.84375 36.544476Q420.59375 36.919476 420.59375 37.388226Q420.59375 38.09135 421.125 38.5601Q421.65625 39.02885 422.6875 39.02885Q423.70312 39.02885 424.48438 38.59135Q425.28125 38.138226 425.65625 37.3726Q425.9375 36.763226 425.9375 35.606976L425.9375 34.96635ZM429.14062 40.169476L432.9375 34.77885L429.4375 29.794476L431.625 29.794476L433.21875 32.231976Q433.67188 32.919476 433.9375 33.388226Q434.375 32.7476 434.73438 32.2476L436.48438 29.794476L438.57812 29.794476L435.0 34.6851L438.85938 40.169476L436.70312 40.169476L434.5625 36.950726L434.0 36.075726L431.28125 40.169476L429.14062 40.169476ZM440.32812 27.8726L440.32812 25.856976L442.09375 25.856976L442.09375 27.8726L440.32812 27.8726ZM440.32812 40.169476L440.32812 29.794476L442.09375 29.794476L442.09375 40.169476L440.32812 40.169476ZM443.0 40.419476L447.15625 25.606976L448.5625 25.606976L444.42188 40.419476L443.0 40.419476ZM460.76562 35.15385L462.65625 35.6226Q462.0625 37.96635 460.51562 39.200726Q458.96875 40.419476 456.71875 40.419476Q454.40625 40.419476 452.95312 39.481976Q451.51562 38.52885 450.75 36.7476Q450.0 34.950726 450.0 32.90385Q450.0 30.669476 450.84375 29.013226Q451.70312 27.34135 453.28125 26.481976Q454.85938 25.606976 456.75 25.606976Q458.90625 25.606976 460.35938 26.700726Q461.82812 27.794476 462.40625 29.77885L460.54688 30.21635Q460.04688 28.65385 459.09375 27.950726Q458.15625 27.231976 456.71875 27.231976Q455.0625 27.231976 453.95312 28.02885Q452.84375 28.8101 452.39062 30.15385Q451.95312 31.481976 451.95312 32.888226Q451.95312 34.71635 452.48438 36.09135Q453.01562 37.450726 454.14062 38.1226Q455.26562 38.794476 456.5625 38.794476Q458.15625 38.794476 459.26562 37.8726Q460.375 36.950726 460.76562 35.15385ZM471.09375 38.888226Q470.10938 39.71635 469.20312 40.0601Q468.29688 40.40385 467.26562 40.40385Q465.5625 40.40385 464.64062 39.575726Q463.71875 38.731976 463.71875 37.4351Q463.71875 36.669476 464.0625 36.044476Q464.42188 35.419476 464.98438 35.044476Q465.54688 34.65385 466.25 34.450726Q466.76562 34.325726 467.8125 34.1851Q469.9375 33.9351 470.9375 33.59135Q470.95312 33.231976 470.95312 33.1226Q470.95312 32.0601 470.45312 31.606976Q469.78125 31.013226 468.45312 31.013226Q467.20312 31.013226 466.60938 31.450726Q466.03125 31.888226 465.75 32.9976L464.03125 32.763226Q464.26562 31.65385 464.79688 30.981976Q465.32812 30.294476 466.34375 29.9351Q467.35938 29.5601 468.70312 29.5601Q470.03125 29.5601 470.85938 29.8726Q471.6875 30.1851 472.07812 30.669476Q472.46875 31.138226 472.625 31.856976Q472.71875 32.3101 472.71875 33.481976L472.71875 35.825726Q472.71875 38.27885 472.82812 38.9351Q472.9375 39.575726 473.28125 40.169476L471.4375 40.169476Q471.17188 39.6226 471.09375 38.888226ZM470.9375 34.96635Q469.98438 35.356976 468.0625 35.6226Q466.98438 35.77885 466.53125 35.981976Q466.09375 36.169476 465.84375 36.544476Q465.59375 36.919476 465.59375 37.388226Q465.59375 38.09135 466.125 38.5601Q466.65625 39.02885 467.6875 39.02885Q468.70312 39.02885 469.48438 38.59135Q470.28125 38.138226 470.65625 37.3726Q470.9375 36.763226 470.9375 35.606976L470.9375 34.96635ZM475.29688 40.169476L475.29688 29.794476L476.875 29.794476L476.875 31.3726Q477.48438 30.263226 478.0 29.919476Q478.51562 29.5601 479.125 29.5601Q480.01562 29.5601 480.9375 30.1226L480.32812 31.763226Q479.6875 31.3726 479.04688 31.3726Q478.46875 31.3726 478.0 31.731976Q477.54688 32.075726 477.34375 32.6851Q477.0625 33.6226 477.0625 34.731976L477.0625 40.169476L475.29688 40.169476ZM482.29688 40.169476L482.29688 29.794476L483.875 29.794476L483.875 31.3726Q484.48438 30.263226 485.0 29.919476Q485.51562 29.5601 486.125 29.5601Q487.01562 29.5601 487.9375 30.1226L487.32812 31.763226Q486.6875 31.3726 486.04688 31.3726Q485.46875 31.3726 485.0 31.731976Q484.54688 32.075726 484.34375 32.6851Q484.0625 33.6226 484.0625 34.731976L484.0625 40.169476L482.29688 40.169476ZM489.32812 27.8726L489.32812 25.856976L491.09375 25.856976L491.09375 27.8726L489.32812 27.8726ZM489.32812 40.169476L489.32812 29.794476L491.09375 29.794476L491.09375 40.169476L489.32812 40.169476ZM500.09375 38.888226Q499.10938 39.71635 498.20312 40.0601Q497.29688 40.40385 496.26562 40.40385Q494.5625 40.40385 493.64062 39.575726Q492.71875 38.731976 492.71875 37.4351Q492.71875 36.669476 493.0625 36.044476Q493.42188 35.419476 493.98438 35.044476Q494.54688 34.65385 495.25 34.450726Q495.76562 34.325726 496.8125 34.1851Q498.9375 33.9351 499.9375 33.59135Q499.95312 33.231976 499.95312 33.1226Q499.95312 32.0601 499.45312 31.606976Q498.78125 31.013226 497.45312 31.013226Q496.20312 31.013226 495.60938 31.450726Q495.03125 31.888226 494.75 32.9976L493.03125 32.763226Q493.26562 31.65385 493.79688 30.981976Q494.32812 30.294476 495.34375 29.9351Q496.35938 29.5601 497.70312 29.5601Q499.03125 29.5601 499.85938 29.8726Q500.6875 30.1851 501.07812 30.669476Q501.46875 31.138226 501.625 31.856976Q501.71875 32.3101 501.71875 33.481976L501.71875 35.825726Q501.71875 38.27885 501.82812 38.9351Q501.9375 39.575726 502.28125 40.169476L500.4375 40.169476Q500.17188 39.6226 500.09375 38.888226ZM499.9375 34.96635Q498.98438 35.356976 497.0625 35.6226Q495.98438 35.77885 495.53125 35.981976Q495.09375 36.169476 494.84375 36.544476Q494.59375 36.919476 494.59375 37.388226Q494.59375 38.09135 495.125 38.5601Q495.65625 39.02885 496.6875 39.02885Q497.70312 39.02885 498.48438 38.59135Q499.28125 38.138226 499.65625 37.3726Q499.9375 36.763226 499.9375 35.606976L499.9375 34.96635ZM504.0 41.02885L505.70312 41.27885Q505.8125 42.075726 506.29688 42.4351Q506.95312 42.919476 508.09375 42.919476Q509.3125 42.919476 509.96875 42.4351Q510.64062 41.950726 510.875 41.075726Q511.01562 40.52885 511.0 38.8101Q509.84375 40.169476 508.125 40.169476Q505.98438 40.169476 504.8125 38.6226Q503.64062 37.075726 503.64062 34.919476Q503.64062 33.4351 504.17188 32.1851Q504.71875 30.9351 505.73438 30.2476Q506.76562 29.5601 508.14062 29.5601Q509.96875 29.5601 511.17188 31.044476L511.17188 29.794476L512.78125 29.794476L512.78125 38.763226Q512.78125 41.1851 512.28125 42.1851Q511.79688 43.200726 510.71875 43.77885Q509.65625 44.3726 508.09375 44.3726Q506.25 44.3726 505.09375 43.544476Q503.95312 42.71635 504.0 41.02885ZM505.45312 34.794476Q505.45312 36.84135 506.26562 37.77885Q507.07812 38.71635 508.29688 38.71635Q509.5 38.71635 510.3125 37.77885Q511.14062 36.84135 511.14062 34.856976Q511.14062 32.950726 510.29688 31.981976Q509.45312 31.013226 508.26562 31.013226Q507.09375 31.013226 506.26562 31.96635Q505.45312 32.919476 505.45312 34.794476ZM522.4219 36.825726L524.2344 37.0601Q523.8125 38.638226 522.6406 39.52885Q521.4844 40.40385 519.6719 40.40385Q517.40625 40.40385 516.0625 39.013226Q514.7344 37.606976 514.7344 35.075726Q514.7344 32.450726 516.0781 31.013226Q517.4219 29.5601 519.5781 29.5601Q521.65625 29.5601 522.96875 30.981976Q524.2969 32.388226 524.2969 34.96635Q524.2969 35.1226 524.28125 35.4351L516.5469 35.4351Q516.6406 37.138226 517.5156 38.044476Q518.3906 38.950726 519.6875 38.950726Q520.65625 38.950726 521.3281 38.450726Q522.0156 37.9351 522.4219 36.825726ZM516.6406 33.981976L522.4375 33.981976Q522.3281 32.6851 521.78125 32.02885Q520.9375 31.013226 519.59375 31.013226Q518.3906 31.013226 517.5625 31.825726Q516.7344 32.6226 516.6406 33.981976ZM531.90625 35.575726L533.6875 35.419476Q533.8125 36.481976 534.2656 37.169476Q534.7344 37.856976 535.7031 38.294476Q536.6875 38.71635 537.9219 38.71635Q539.0 38.71635 539.8281 38.40385Q540.65625 38.075726 541.0625 37.513226Q541.46875 36.950726 541.46875 36.27885Q541.46875 35.606976 541.0781 35.106976Q540.6875 34.606976 539.7969 34.263226Q539.21875 34.02885 537.2344 33.5601Q535.2656 33.09135 534.4844 32.669476Q533.4531 32.138226 532.9531 31.34135Q532.4531 30.544476 532.4531 29.5601Q532.4531 28.46635 533.0625 27.52885Q533.6719 26.59135 534.8594 26.106976Q536.0469 25.606976 537.4844 25.606976Q539.0781 25.606976 540.2969 26.1226Q541.5156 26.638226 542.15625 27.638226Q542.8125 28.6226 542.8594 29.888226L541.0469 30.02885Q540.90625 28.669476 540.0625 27.981976Q539.21875 27.27885 537.5625 27.27885Q535.84375 27.27885 535.0469 27.919476Q534.2656 28.544476 534.2656 29.419476Q534.2656 30.200726 534.8281 30.700726Q535.375 31.200726 537.6875 31.71635Q540.0 32.231976 540.8594 32.6226Q542.1094 33.200726 542.7031 34.09135Q543.2969 34.96635 543.2969 36.1226Q543.2969 37.263226 542.6406 38.27885Q541.9844 39.294476 540.75 39.856976Q539.53125 40.419476 538.0 40.419476Q536.0625 40.419476 534.75 39.856976Q533.4375 39.27885 532.6875 38.138226Q531.9375 36.9976 531.90625 35.575726ZM549.15625 38.59135L549.40625 40.15385Q548.6719 40.3101 548.0781 40.3101Q547.125 40.3101 546.59375 40.013226Q546.0781 39.700726 545.8594 39.21635Q545.6406 38.71635 545.6406 37.138226L545.6406 31.169476L544.3594 31.169476L544.3594 29.794476L545.6406 29.794476L545.6406 27.231976L547.3906 26.169476L547.3906 29.794476L549.15625 29.794476L549.15625 31.169476L547.3906 31.169476L547.3906 37.231976Q547.3906 37.981976 547.4844 38.200726Q547.5781 38.40385 547.78125 38.544476Q548.0 38.669476 548.3906 38.669476Q548.6719 38.669476 549.15625 38.59135ZM558.09375 38.888226Q557.1094 39.71635 556.2031 40.0601Q555.2969 40.40385 554.2656 40.40385Q552.5625 40.40385 551.6406 39.575726Q550.71875 38.731976 550.71875 37.4351Q550.71875 36.669476 551.0625 36.044476Q551.4219 35.419476 551.9844 35.044476Q552.5469 34.65385 553.25 34.450726Q553.7656 34.325726 554.8125 34.1851Q556.9375 33.9351 557.9375 33.59135Q557.9531 33.231976 557.9531 33.1226Q557.9531 32.0601 557.4531 31.606976Q556.78125 31.013226 555.4531 31.013226Q554.2031 31.013226 553.6094 31.450726Q553.03125 31.888226 552.75 32.9976L551.03125 32.763226Q551.2656 31.65385 551.7969 30.981976Q552.3281 30.294476 553.34375 29.9351Q554.3594 29.5601 555.7031 29.5601Q557.03125 29.5601 557.8594 29.8726Q558.6875 30.1851 559.0781 30.669476Q559.46875 31.138226 559.625 31.856976Q559.71875 32.3101 559.71875 33.481976L559.71875 35.825726Q559.71875 38.27885 559.8281 38.9351Q559.9375 39.575726 560.28125 40.169476L558.4375 40.169476Q558.1719 39.6226 558.09375 38.888226ZM557.9375 34.96635Q556.9844 35.356976 555.0625 35.6226Q553.9844 35.77885 553.53125 35.981976Q553.09375 36.169476 552.84375 36.544476Q552.59375 36.919476 552.59375 37.388226Q552.59375 38.09135 553.125 38.5601Q553.65625 39.02885 554.6875 39.02885Q555.7031 39.02885 556.4844 38.59135Q557.28125 38.138226 557.65625 37.3726Q557.9375 36.763226 557.9375 35.606976L557.9375 34.96635ZM562.3125 40.169476L562.3125 29.794476L563.90625 29.794476L563.90625 31.27885Q565.0469 29.5601 567.2031 29.5601Q568.1406 29.5601 568.9219 29.90385Q569.71875 30.231976 570.1094 30.77885Q570.5 31.325726 570.65625 32.075726Q570.75 32.575726 570.75 33.794476L570.75 40.169476L568.9844 40.169476L568.9844 33.856976Q568.9844 32.77885 568.78125 32.2476Q568.5781 31.71635 568.0469 31.40385Q567.53125 31.09135 566.8281 31.09135Q565.7031 31.09135 564.8906 31.8101Q564.0781 32.513226 564.0781 34.4976L564.0781 40.169476L562.3125 40.169476ZM580.0469 40.169476L580.0469 38.856976Q579.0625 40.40385 577.1406 40.40385Q575.90625 40.40385 574.8594 39.71635Q573.8281 39.02885 573.25 37.8101Q572.6875 36.59135 572.6875 34.9976Q572.6875 33.4351 573.2031 32.169476Q573.71875 30.90385 574.75 30.231976Q575.7969 29.5601 577.0625 29.5601Q578.0 29.5601 578.7344 29.96635Q579.46875 30.356976 579.9375 30.981976L579.9375 25.856976L581.6719 25.856976L581.6719 40.169476L580.0469 40.169476ZM574.4844 34.9976Q574.4844 36.981976 575.3281 37.96635Q576.1719 38.950726 577.3125 38.950726Q578.46875 38.950726 579.2656 38.013226Q580.0781 37.075726 580.0781 35.138226Q580.0781 33.013226 579.25 32.013226Q578.4375 31.013226 577.2344 31.013226Q576.0625 31.013226 575.2656 31.981976Q574.4844 32.9351 574.4844 34.9976Z" fill-rule="nonzero"/></svg>