<svg version="1.1" viewBox="0.0 0.0 705.0 442.0" fill="none" stroke="none" stroke-linecap="square" stroke-miterlimit="10" width="705" height="442" xmlns:xlink="http://www.w3.org/1999/xlink" xmlns="http://www.w3.org/2000/svg"><path fill="#ffffff" d="M0 0L705.0 0L705.0 442.0L0 442.0L0 0Z" fill-rule="nonzero"/><path fill="#fca311" d="M209.46289 281.50302C187.97119 233.09413 192.42274 177.09969 221.29315 132.69458C250.16357 88.28948 299.5348 61.5 352.5 61.5L352.5 139.75C326.0174 139.75 301.3318 153.14474 286.89658 175.34729C272.46136 197.54985 270.2356 225.54706 280.98145 249.75151Z" fill-rule="nonzero"/><path fill="#14213d" d="M385.3017 82.826355C463.33994 82.826355 529.45276 140.31781 540.2863 217.6004C551.11993 294.883 503.3632 368.33685 428.33286 389.7942C353.30255 411.25153 273.93018 374.1544 242.2646 302.82938L313.78314 271.07785C329.61594 306.74036 369.30212 325.28894 406.8173 314.56027C444.33246 303.8316 468.21082 267.10468 462.79404 228.46338C457.37723 189.82208 424.32083 161.07635 385.3017 161.07635Z" fill-rule="nonzero"/><path fill="#ffffff" d="M470.6756 300.74292L469.45685 300.83667Q469.28497 300.1023 468.9881 299.77417Q468.4881 299.25854 467.75372 299.25854Q467.15997 299.25854 466.72247 299.58667Q466.14435 300.00854 465.8006 300.82104Q465.47247 301.63354 465.45685 303.13354Q465.89435 302.46167 466.53497 302.13354Q467.19122 301.80542 467.89435 301.80542Q469.12872 301.80542 469.9881 302.71167Q470.84747 303.61792 470.84747 305.05542Q470.84747 305.99292 470.44122 306.80542Q470.03497 307.61792 469.31622 308.05542Q468.6131 308.4773 467.70685 308.4773Q466.1756 308.4773 465.20685 307.3523Q464.2381 306.21167 464.2381 303.61792Q464.2381 300.71167 465.3006 299.38354Q466.2381 298.24292 467.83185 298.24292Q469.01935 298.24292 469.76935 298.9148Q470.51935 299.57104 470.6756 300.74292ZM465.64435 305.05542Q465.64435 305.69604 465.90997 306.27417Q466.19122 306.8523 466.6756 307.1648Q467.15997 307.46167 467.69122 307.46167Q468.47247 307.46167 469.03497 306.83667Q469.59747 306.21167 469.59747 305.13354Q469.59747 304.08667 469.03497 303.49292Q468.4881 302.88354 467.64435 302.88354Q466.81622 302.88354 466.22247 303.49292Q465.64435 304.08667 465.64435 305.05542ZM474.1756 302.86792Q473.40997 302.58667 473.03497 302.07104Q472.6756 301.55542 472.6756 300.82104Q472.6756 299.7273 473.45685 298.99292Q474.25372 298.24292 475.5506 298.24292Q476.8631 298.24292 477.65997 299.00854Q478.47247 299.77417 478.47247 300.86792Q478.47247 301.55542 478.09747 302.07104Q477.7381 302.58667 476.9881 302.86792Q477.90997 303.1648 478.39435 303.83667Q478.87872 304.50854 478.87872 305.44604Q478.87872 306.7273 477.97247 307.6023Q477.06622 308.4773 475.58185 308.4773Q474.09747 308.4773 473.1756 307.6023Q472.26935 306.71167 472.26935 305.39917Q472.26935 304.43042 472.76935 303.77417Q473.26935 303.1023 474.1756 302.86792ZM473.94122 300.7898Q473.94122 301.49292 474.39435 301.94604Q474.84747 302.39917 475.58185 302.39917Q476.3006 302.39917 476.75372 301.96167Q477.20685 301.50854 477.20685 300.8523Q477.20685 300.18042 476.7381 299.7273Q476.26935 299.25854 475.56622 299.25854Q474.8631 299.25854 474.39435 299.71167Q473.94122 300.14917 473.94122 300.7898ZM473.53497 305.4148Q473.53497 305.94604 473.78497 306.44604Q474.03497 306.93042 474.51935 307.19604Q475.01935 307.46167 475.59747 307.46167Q476.47247 307.46167 477.03497 306.89917Q477.6131 306.33667 477.6131 305.46167Q477.6131 304.57104 477.01935 303.99292Q476.44122 303.39917 475.5506 303.39917Q474.6756 303.39917 474.09747 303.9773Q473.53497 304.55542 473.53497 305.4148ZM480.97247 308.30542L480.97247 306.89917L482.37872 306.89917L482.37872 308.30542L480.97247 308.30542ZM488.2381 308.30542L488.2381 305.89917L483.87872 305.89917L483.87872 304.77417L488.45685 298.2898L489.45685 298.2898L489.45685 304.77417L490.81622 304.77417L490.81622 305.89917L489.45685 305.89917L489.45685 308.30542L488.2381 308.30542ZM488.2381 304.77417L488.2381 300.25854L485.09747 304.77417L488.2381 304.77417ZM492.51935 300.69604Q492.51935 299.61792 493.0506 298.86792Q493.59747 298.11792 494.62872 298.11792Q495.56622 298.11792 496.1756 298.7898Q496.8006 299.46167 496.8006 300.75854Q496.8006 302.0398 496.1756 302.7273Q495.5506 303.4148 494.64435 303.4148Q493.7381 303.4148 493.12872 302.74292Q492.51935 302.05542 492.51935 300.69604ZM494.65997 298.96167Q494.20685 298.96167 493.89435 299.36792Q493.59747 299.75854 493.59747 300.80542Q493.59747 301.77417 493.89435 302.1648Q494.20685 302.55542 494.65997 302.55542Q495.12872 302.55542 495.4256 302.1648Q495.7381 301.77417 495.7381 300.71167Q495.7381 299.74292 495.4256 299.3523Q495.1131 298.96167 494.65997 298.96167ZM494.65997 308.68042L500.14435 298.11792L501.14435 298.11792L495.69122 308.68042L494.65997 308.68042ZM499.00372 305.94604Q499.00372 304.86792 499.53497 304.13354Q500.08185 303.38354 501.1131 303.38354Q502.0506 303.38354 502.6756 304.05542Q503.3006 304.7273 503.3006 306.02417Q503.3006 307.30542 502.6756 307.99292Q502.0506 308.68042 501.1131 308.68042Q500.20685 308.68042 499.59747 308.00854Q499.00372 307.32104 499.00372 305.94604ZM501.14435 304.2273Q500.6756 304.2273 500.37872 304.63354Q500.08185 305.02417 500.08185 306.07104Q500.08185 307.0398 500.37872 307.43042Q500.69122 307.82104 501.14435 307.82104Q501.6131 307.82104 501.90997 307.43042Q502.22247 307.0398 502.22247 305.9773Q502.22247 305.00854 501.90997 304.61792Q501.6131 304.2273 501.14435 304.2273Z" fill-rule="nonzero"/><path fill="#ffffff" d="M219.71986 159.02094L219.71986 150.17719L216.42299 150.17719L216.42299 149.00531L224.36049 149.00531L224.36049 150.17719L221.04799 150.17719L221.04799 159.02094L219.71986 159.02094ZM225.56361 155.39594Q225.56361 153.38031 226.68861 152.39594Q227.61049 151.59906 228.96986 151.59906Q230.45424 151.59906 231.40736 152.58344Q232.36049 153.55219 232.36049 155.28656Q232.36049 156.69281 231.93861 157.50531Q231.51674 158.30219 230.70424 158.75531Q229.90736 159.19281 228.96986 159.19281Q227.43861 159.19281 226.50111 158.20844Q225.56361 157.22406 225.56361 155.39594ZM226.82924 155.39594Q226.82924 156.78656 227.43861 157.48969Q228.04799 158.17719 228.96986 158.17719Q229.87611 158.17719 230.48549 157.47406Q231.09486 156.77094 231.09486 155.34906Q231.09486 154.00531 230.48549 153.31781Q229.87611 152.61469 228.96986 152.61469Q228.04799 152.61469 227.43861 153.30219Q226.82924 153.98969 226.82924 155.39594ZM236.70424 157.92719L236.87611 159.00531Q236.36049 159.11469 235.95424 159.11469Q235.28236 159.11469 234.90736 158.91156Q234.54799 158.69281 234.39174 158.34906Q234.25111 158.00531 234.25111 156.89594L234.25111 152.72406L233.34486 152.72406L233.34486 151.75531L234.25111 151.75531L234.25111 149.95844L235.46986 149.22406L235.46986 151.75531L236.70424 151.75531L236.70424 152.72406L235.46986 152.72406L235.46986 156.95844Q235.46986 157.48969 235.53236 157.64594Q235.59486 157.78656 235.73549 157.88031Q235.89174 157.97406 236.15736 157.97406Q236.37611 157.97406 236.70424 157.92719ZM242.75111 158.13031Q242.07924 158.70844 241.43861 158.95844Q240.81361 159.19281 240.07924 159.19281Q238.89174 159.19281 238.23549 158.61469Q237.59486 158.02094 237.59486 157.09906Q237.59486 156.56781 237.82924 156.13031Q238.07924 155.69281 238.46986 155.42719Q238.87611 155.16156 239.36049 155.02094Q239.71986 154.92719 240.45424 154.83344Q241.95424 154.66156 242.65736 154.41156Q242.65736 154.16156 242.65736 154.09906Q242.65736 153.33344 242.31361 153.03656Q241.84486 152.61469 240.90736 152.61469Q240.04799 152.61469 239.62611 152.92719Q239.21986 153.22406 239.01674 153.98969L237.81361 153.83344Q237.96986 153.05219 238.34486 152.58344Q238.73549 152.11469 239.43861 151.86469Q240.15736 151.59906 241.09486 151.59906Q242.01674 151.59906 242.59486 151.81781Q243.17299 152.03656 243.43861 152.36469Q243.71986 152.69281 243.82924 153.20844Q243.89174 153.52094 243.89174 154.33344L243.89174 155.97406Q243.89174 157.69281 243.96986 158.14594Q244.04799 158.59906 244.28236 159.02094L243.00111 159.02094Q242.81361 158.63031 242.75111 158.13031ZM242.65736 155.38031Q241.98549 155.64594 240.64174 155.84906Q239.89174 155.95844 239.56361 156.09906Q239.25111 156.22406 239.07924 156.48969Q238.90736 156.75531 238.90736 157.06781Q238.90736 157.56781 239.28236 157.89594Q239.65736 158.22406 240.37611 158.22406Q241.09486 158.22406 241.64174 157.91156Q242.18861 157.59906 242.45424 157.05219Q242.65736 156.64594 242.65736 155.83344L242.65736 155.38031ZM245.98549 159.02094L245.98549 149.00531L247.21986 149.00531L247.21986 159.02094L245.98549 159.02094ZM260.32922 155.50531L261.65735 155.84906Q261.23547 157.47406 260.14172 158.33344Q259.0636 159.19281 257.5011 159.19281Q255.87611 159.19281 254.86049 158.53656Q253.84486 157.86469 253.31361 156.61469Q252.79799 155.36469 252.79799 153.92719Q252.79799 152.36469 253.39174 151.20844Q253.98549 150.03656 255.09486 149.44281Q256.20422 148.83344 257.51672 148.83344Q259.03235 148.83344 260.04797 149.59906Q261.07922 150.36469 261.48547 151.73969L260.17297 152.05219Q259.82922 150.95844 259.15735 150.45844Q258.5011 149.95844 257.5011 149.95844Q256.34485 149.95844 255.56361 150.52094Q254.78236 151.06781 254.46986 152.00531Q254.15736 152.94281 254.15736 153.92719Q254.15736 155.20844 254.53236 156.16156Q254.90736 157.11469 255.68861 157.58344Q256.46985 158.05219 257.39172 158.05219Q258.5011 158.05219 259.26672 157.41156Q260.04797 156.77094 260.32922 155.50531ZM267.7511 158.13031Q267.07922 158.70844 266.4386 158.95844Q265.8136 159.19281 265.07922 159.19281Q263.89172 159.19281 263.23547 158.61469Q262.59485 158.02094 262.59485 157.09906Q262.59485 156.56781 262.82922 156.13031Q263.07922 155.69281 263.46985 155.42719Q263.8761 155.16156 264.36047 155.02094Q264.71985 154.92719 265.45422 154.83344Q266.95422 154.66156 267.65735 154.41156Q267.65735 154.16156 267.65735 154.09906Q267.65735 153.33344 267.3136 153.03656Q266.84485 152.61469 265.90735 152.61469Q265.04797 152.61469 264.6261 152.92719Q264.21985 153.22406 264.01672 153.98969L262.8136 153.83344Q262.96985 153.05219 263.34485 152.58344Q263.73547 152.11469 264.4386 151.86469Q265.15735 151.59906 266.09485 151.59906Q267.01672 151.59906 267.59485 151.81781Q268.17297 152.03656 268.4386 152.36469Q268.71985 152.69281 268.82922 153.20844Q268.89172 153.52094 268.89172 154.33344L268.89172 155.97406Q268.89172 157.69281 268.96985 158.14594Q269.04797 158.59906 269.28235 159.02094L268.0011 159.02094Q267.8136 158.63031 267.7511 158.13031ZM267.65735 155.38031Q266.98547 155.64594 265.64172 155.84906Q264.89172 155.95844 264.5636 156.09906Q264.2511 156.22406 264.07922 156.48969Q263.90735 156.75531 263.90735 157.06781Q263.90735 157.56781 264.28235 157.89594Q264.65735 158.22406 265.3761 158.22406Q266.09485 158.22406 266.64172 157.91156Q267.1886 157.59906 267.45422 157.05219Q267.65735 156.64594 267.65735 155.83344L267.65735 155.38031ZM270.53235 156.84906L271.73547 156.66156Q271.84485 157.39594 272.3136 157.78656Q272.78235 158.17719 273.6261 158.17719Q274.46985 158.17719 274.8761 157.83344Q275.29797 157.48969 275.29797 157.02094Q275.29797 156.59906 274.92297 156.36469Q274.67297 156.19281 273.67297 155.94281Q272.3136 155.59906 271.78235 155.34906Q271.26672 155.09906 271.0011 154.66156Q270.73547 154.22406 270.73547 153.69281Q270.73547 153.20844 270.95422 152.80219Q271.17297 152.38031 271.5636 152.09906Q271.84485 151.89594 272.32922 151.75531Q272.82922 151.59906 273.40735 151.59906Q274.2511 151.59906 274.89172 151.84906Q275.54797 152.08344 275.86047 152.50531Q276.17297 152.92719 276.28235 153.63031L275.07922 153.80219Q275.0011 153.23969 274.59485 152.92719Q274.20422 152.61469 273.48547 152.61469Q272.64172 152.61469 272.28235 152.89594Q271.92297 153.16156 271.92297 153.55219Q271.92297 153.78656 272.0636 153.97406Q272.21985 154.17719 272.54797 154.30219Q272.71985 154.36469 273.6261 154.61469Q274.9386 154.97406 275.45422 155.19281Q275.96985 155.41156 276.2511 155.83344Q276.54797 156.25531 276.54797 156.88031Q276.54797 157.50531 276.1886 158.05219Q275.84485 158.58344 275.15735 158.89594Q274.48547 159.19281 273.6261 159.19281Q272.21985 159.19281 271.46985 158.59906Q270.73547 158.00531 270.53235 156.84906ZM282.98547 156.67719L284.26672 156.83344Q283.95422 157.95844 283.14172 158.58344Q282.32922 159.19281 281.0636 159.19281Q279.46985 159.19281 278.53235 158.20844Q277.61047 157.22406 277.61047 155.45844Q277.61047 153.61469 278.54797 152.61469Q279.5011 151.59906 281.0011 151.59906Q282.45422 151.59906 283.3761 152.59906Q284.29797 153.58344 284.29797 155.38031Q284.29797 155.48969 284.29797 155.70844L278.8761 155.70844Q278.95422 156.89594 279.54797 157.53656Q280.15735 158.17719 281.07922 158.17719Q281.7511 158.17719 282.21985 157.81781Q282.70422 157.45844 282.98547 156.67719ZM278.95422 154.69281L283.0011 154.69281Q282.92297 153.77094 282.53235 153.31781Q281.95422 152.61469 281.01672 152.61469Q280.15735 152.61469 279.57922 153.17719Q279.01672 153.73969 278.95422 154.69281ZM285.53235 156.84906L286.73547 156.66156Q286.84485 157.39594 287.3136 157.78656Q287.78235 158.17719 288.6261 158.17719Q289.46985 158.17719 289.8761 157.83344Q290.29797 157.48969 290.29797 157.02094Q290.29797 156.59906 289.92297 156.36469Q289.67297 156.19281 288.67297 155.94281Q287.3136 155.59906 286.78235 155.34906Q286.26672 155.09906 286.0011 154.66156Q285.73547 154.22406 285.73547 153.69281Q285.73547 153.20844 285.95422 152.80219Q286.17297 152.38031 286.5636 152.09906Q286.84485 151.89594 287.32922 151.75531Q287.82922 151.59906 288.40735 151.59906Q289.2511 151.59906 289.89172 151.84906Q290.54797 152.08344 290.86047 152.50531Q291.17297 152.92719 291.28235 153.63031L290.07922 153.80219Q290.0011 153.23969 289.59485 152.92719Q289.20422 152.61469 288.48547 152.61469Q287.64172 152.61469 287.28235 152.89594Q286.92297 153.16156 286.92297 153.55219Q286.92297 153.78656 287.0636 153.97406Q287.21985 154.17719 287.54797 154.30219Q287.71985 154.36469 288.6261 154.61469Q289.9386 154.97406 290.45422 155.19281Q290.96985 155.41156 291.2511 155.83344Q291.54797 156.25531 291.54797 156.88031Q291.54797 157.50531 291.1886 158.05219Q290.84485 158.58344 290.15735 158.89594Q289.48547 159.19281 288.6261 159.19281Q287.21985 159.19281 286.46985 158.59906Q285.73547 158.00531 285.53235 156.84906Z" fill-rule="nonzero"/><path fill="#14213d" d="M243.0 408.30984C243.0 411.62354 240.3137 414.30984 237.0 414.30984C233.6863 414.30984 231.0 411.62354 231.0 408.30984C231.0 404.99612 233.6863 402.30984 237.0 402.30984C240.3137 402.30984 243.0 404.99612 243.0 408.30984Z" fill-rule="nonzero"/><path fill="#1a1a1a" d="M258.0625 409.29422L259.1875 409.5911Q258.82812 410.98172 257.90625 411.7161Q256.98438 412.45047 255.64062 412.45047Q254.25 412.45047 253.375 411.88797Q252.5 411.32547 252.04688 410.26297Q251.59375 409.18484 251.59375 407.95047Q251.59375 406.60672 252.10938 405.60672Q252.625 404.60672 253.5625 404.0911Q254.51562 403.57547 255.65625 403.57547Q256.9375 403.57547 257.8125 404.23172Q258.70312 404.88797 259.04688 406.07547L257.92188 406.3411Q257.625 405.4036 257.04688 404.98172Q256.48438 404.54422 255.625 404.54422Q254.64062 404.54422 253.96875 405.0286Q253.3125 405.49734 253.03125 406.29422Q252.76562 407.0911 252.76562 407.95047Q252.76562 409.04422 253.07812 409.85672Q253.40625 410.66922 254.07812 411.07547Q254.75 411.48172 255.54688 411.48172Q256.5 411.48172 257.15625 410.93484Q257.82812 410.38797 258.0625 409.29422ZM264.85938 411.54422Q264.26562 412.04422 263.71875 412.24734Q263.1875 412.45047 262.5625 412.45047Q261.53125 412.45047 260.98438 411.95047Q260.4375 411.45047 260.4375 410.66922Q260.4375 410.2161 260.64062 409.8411Q260.84375 409.45047 261.1875 409.23172Q261.53125 408.99734 261.95312 408.88797Q262.25 408.79422 262.89062 408.7161Q264.15625 408.57547 264.76562 408.35672Q264.76562 408.13797 264.76562 408.0911Q264.76562 407.43484 264.46875 407.16922Q264.0625 406.82547 263.26562 406.82547Q262.53125 406.82547 262.17188 407.0911Q261.8125 407.3411 261.64062 407.99734L260.60938 407.85672Q260.75 407.20047 261.07812 406.79422Q261.40625 406.38797 262.01562 406.16922Q262.625 405.95047 263.42188 405.95047Q264.21875 405.95047 264.71875 406.13797Q265.21875 406.32547 265.45312 406.60672Q265.6875 406.88797 265.78125 407.32547Q265.82812 407.5911 265.82812 408.29422L265.82812 409.70047Q265.82812 411.16922 265.89062 411.55984Q265.96875 411.95047 266.17188 412.30984L265.0625 412.30984Q264.90625 411.98172 264.85938 411.54422ZM264.76562 409.18484Q264.1875 409.41922 263.04688 409.5911Q262.39062 409.68484 262.125 409.80984Q261.85938 409.91922 261.70312 410.13797Q261.5625 410.35672 261.5625 410.63797Q261.5625 411.05984 261.875 411.3411Q262.20312 411.62234 262.8125 411.62234Q263.42188 411.62234 263.89062 411.35672Q264.375 411.0911 264.59375 410.62234Q264.76562 410.26297 264.76562 409.57547L264.76562 409.18484ZM267.375 410.45047L268.40625 410.29422Q268.5 410.91922 268.89062 411.24734Q269.29688 411.57547 270.03125 411.57547Q270.75 411.57547 271.09375 411.29422Q271.45312 410.99734 271.45312 410.5911Q271.45312 410.23172 271.14062 410.0286Q270.92188 409.88797 270.0625 409.66922Q268.90625 409.37234 268.45312 409.16922Q268.01562 408.95047 267.78125 408.57547Q267.54688 408.20047 267.54688 407.73172Q267.54688 407.32547 267.73438 406.9661Q267.92188 406.60672 268.25 406.37234Q268.5 406.20047 268.92188 406.07547Q269.34375 405.95047 269.84375 405.95047Q270.5625 405.95047 271.10938 406.16922Q271.67188 406.37234 271.9375 406.73172Q272.20312 407.0911 272.29688 407.68484L271.26562 407.82547Q271.20312 407.35672 270.85938 407.0911Q270.53125 406.80984 269.90625 406.80984Q269.1875 406.80984 268.875 407.05984Q268.5625 407.29422 268.5625 407.62234Q268.5625 407.82547 268.6875 407.98172Q268.82812 408.1536 269.09375 408.26297Q269.25 408.32547 270.03125 408.5286Q271.15625 408.8411 271.59375 409.0286Q272.03125 409.2161 272.28125 409.57547Q272.53125 409.93484 272.53125 410.48172Q272.53125 411.01297 272.21875 411.48172Q271.92188 411.93484 271.34375 412.20047Q270.76562 412.45047 270.03125 412.45047Q268.8125 412.45047 268.17188 411.95047Q267.54688 411.43484 267.375 410.45047ZM278.04688 410.30984L279.14062 410.43484Q278.89062 411.38797 278.1875 411.91922Q277.48438 412.45047 276.40625 412.45047Q275.04688 412.45047 274.23438 411.60672Q273.4375 410.76297 273.4375 409.24734Q273.4375 407.68484 274.25 406.82547Q275.0625 405.95047 276.34375 405.95047Q277.59375 405.95047 278.375 406.79422Q279.17188 407.63797 279.17188 409.18484Q279.17188 409.2786 279.17188 409.4661L274.53125 409.4661Q274.59375 410.49734 275.10938 411.04422Q275.625 411.57547 276.40625 411.57547Q276.98438 411.57547 277.39062 411.2786Q277.8125 410.9661 278.04688 410.30984ZM274.59375 408.60672L278.0625 408.60672Q278.0 407.80984 277.67188 407.41922Q277.15625 406.80984 276.35938 406.80984Q275.625 406.80984 275.125 407.29422Q274.64062 407.7786 274.59375 408.60672ZM280.375 410.45047L281.40625 410.29422Q281.5 410.91922 281.89062 411.24734Q282.29688 411.57547 283.03125 411.57547Q283.75 411.57547 284.09375 411.29422Q284.45312 410.99734 284.45312 410.5911Q284.45312 410.23172 284.14062 410.0286Q283.92188 409.88797 283.0625 409.66922Q281.90625 409.37234 281.45312 409.16922Q281.01562 408.95047 280.78125 408.57547Q280.54688 408.20047 280.54688 407.73172Q280.54688 407.32547 280.73438 406.9661Q280.92188 406.60672 281.25 406.37234Q281.5 406.20047 281.92188 406.07547Q282.34375 405.95047 282.84375 405.95047Q283.5625 405.95047 284.10938 406.16922Q284.67188 406.37234 284.9375 406.73172Q285.20312 407.0911 285.29688 407.68484L284.26562 407.82547Q284.20312 407.35672 283.85938 407.0911Q283.53125 406.80984 282.90625 406.80984Q282.1875 406.80984 281.875 407.05984Q281.5625 407.29422 281.5625 407.62234Q281.5625 407.82547 281.6875 407.98172Q281.82812 408.1536 282.09375 408.26297Q282.25 408.32547 283.03125 408.5286Q284.15625 408.8411 284.59375 409.0286Q285.03125 409.2161 285.28125 409.57547Q285.53125 409.93484 285.53125 410.48172Q285.53125 411.01297 285.21875 411.48172Q284.92188 411.93484 284.34375 412.20047Q283.76562 412.45047 283.03125 412.45047Q281.8125 412.45047 281.17188 411.95047Q280.54688 411.43484 280.375 410.45047ZM291.42188 412.30984L289.14062 403.7161L290.3125 403.7161L291.625 409.35672Q291.82812 410.23172 291.98438 411.10672Q292.3125 409.73172 292.375 409.51297L294.0 403.7161L295.375 403.7161L296.60938 408.05984Q297.0625 409.68484 297.28125 411.10672Q297.4375 410.29422 297.70312 409.23172L299.04688 403.7161L300.1875 403.7161L297.84375 412.30984L296.73438 412.30984L294.9375 405.76297Q294.70312 404.95047 294.65625 404.76297Q294.53125 405.3411 294.40625 405.76297L292.59375 412.30984L291.42188 412.30984ZM300.40625 409.20047Q300.40625 407.4661 301.35938 406.63797Q302.15625 405.95047 303.3125 405.95047Q304.59375 405.95047 305.40625 406.79422Q306.23438 407.62234 306.23438 409.10672Q306.23438 410.30984 305.875 410.99734Q305.51562 411.68484 304.8125 412.07547Q304.125 412.45047 303.3125 412.45047Q302.01562 412.45047 301.20312 411.62234Q300.40625 410.7786 300.40625 409.20047ZM301.48438 409.20047Q301.48438 410.38797 302.0 410.98172Q302.53125 411.57547 303.3125 411.57547Q304.10938 411.57547 304.625 410.98172Q305.14062 410.38797 305.14062 409.16922Q305.14062 408.01297 304.60938 407.41922Q304.09375 406.82547 303.3125 406.82547Q302.53125 406.82547 302.0 407.41922Q301.48438 407.99734 301.48438 409.20047ZM307.79688 412.30984L307.79688 406.0911L308.73438 406.0911L308.73438 406.9661Q309.42188 405.95047 310.71875 405.95047Q311.28125 405.95047 311.75 406.1536Q312.23438 406.35672 312.46875 406.68484Q312.70312 407.01297 312.79688 407.45047Q312.84375 407.74734 312.84375 408.48172L312.84375 412.30984L311.79688 412.30984L311.79688 408.5286Q311.79688 407.87234 311.67188 407.55984Q311.54688 407.24734 311.23438 407.05984Q310.92188 406.85672 310.5 406.85672Q309.82812 406.85672 309.32812 407.29422Q308.84375 407.7161 308.84375 408.9036L308.84375 412.30984L307.79688 412.30984Z" fill-rule="nonzero"/><path fill="#fca311" d="M342.0 408.30984C342.0 411.62354 339.31372 414.30984 336.0 414.30984C332.68628 414.30984 330.0 411.62354 330.0 408.30984C330.0 404.99612 332.68628 402.30984 336.0 402.30984C339.31372 402.30984 342.0 404.99612 342.0 408.30984Z" fill-rule="nonzero"/><path fill="#1a1a1a" d="M353.10938 412.30984L353.10938 404.73172L350.28125 404.73172L350.28125 403.7161L357.09375 403.7161L357.09375 404.73172L354.25 404.73172L354.25 412.30984L353.10938 412.30984ZM357.40625 409.20047Q357.40625 407.4661 358.35938 406.63797Q359.15625 405.95047 360.3125 405.95047Q361.59375 405.95047 362.40625 406.79422Q363.23438 407.62234 363.23438 409.10672Q363.23438 410.30984 362.875 410.99734Q362.51562 411.68484 361.8125 412.07547Q361.125 412.45047 360.3125 412.45047Q359.01562 412.45047 358.20312 411.62234Q357.40625 410.7786 357.40625 409.20047ZM358.48438 409.20047Q358.48438 410.38797 359.0 410.98172Q359.53125 411.57547 360.3125 411.57547Q361.10938 411.57547 361.625 410.98172Q362.14062 410.38797 362.14062 409.16922Q362.14062 408.01297 361.60938 407.41922Q361.09375 406.82547 360.3125 406.82547Q359.53125 406.82547 359.0 407.41922Q358.48438 407.99734 358.48438 409.20047ZM367.09375 411.37234L367.25 412.29422Q366.79688 412.38797 366.45312 412.38797Q365.875 412.38797 365.5625 412.2161Q365.25 412.0286 365.10938 411.73172Q364.98438 411.43484 364.98438 410.48172L364.98438 406.9036L364.21875 406.9036L364.21875 406.0911L364.98438 406.0911L364.98438 404.54422L366.03125 403.91922L366.03125 406.0911L367.09375 406.0911L367.09375 406.9036L366.03125 406.9036L366.03125 410.54422Q366.03125 410.99734 366.07812 411.12234Q366.14062 411.24734 366.26562 411.32547Q366.39062 411.4036 366.625 411.4036Q366.8125 411.4036 367.09375 411.37234ZM371.85938 411.54422Q371.26562 412.04422 370.71875 412.24734Q370.1875 412.45047 369.5625 412.45047Q368.53125 412.45047 367.98438 411.95047Q367.4375 411.45047 367.4375 410.66922Q367.4375 410.2161 367.64062 409.8411Q367.84375 409.45047 368.1875 409.23172Q368.53125 408.99734 368.95312 408.88797Q369.25 408.79422 369.89062 408.7161Q371.15625 408.57547 371.76562 408.35672Q371.76562 408.13797 371.76562 408.0911Q371.76562 407.43484 371.46875 407.16922Q371.0625 406.82547 370.26562 406.82547Q369.53125 406.82547 369.17188 407.0911Q368.8125 407.3411 368.64062 407.99734L367.60938 407.85672Q367.75 407.20047 368.07812 406.79422Q368.40625 406.38797 369.01562 406.16922Q369.625 405.95047 370.42188 405.95047Q371.21875 405.95047 371.71875 406.13797Q372.21875 406.32547 372.45312 406.60672Q372.6875 406.88797 372.78125 407.32547Q372.82812 407.5911 372.82812 408.29422L372.82812 409.70047Q372.82812 411.16922 372.89062 411.55984Q372.96875 411.95047 373.17188 412.30984L372.0625 412.30984Q371.90625 411.98172 371.85938 411.54422ZM371.76562 409.18484Q371.1875 409.41922 370.04688 409.5911Q369.39062 409.68484 369.125 409.80984Q368.85938 409.91922 368.70312 410.13797Q368.5625 410.35672 368.5625 410.63797Q368.5625 411.05984 368.875 411.3411Q369.20312 411.62234 369.8125 411.62234Q370.42188 411.62234 370.89062 411.35672Q371.375 411.0911 371.59375 410.62234Q371.76562 410.26297 371.76562 409.57547L371.76562 409.18484ZM374.76562 412.30984L374.76562 403.7161L375.82812 403.7161L375.82812 412.30984L374.76562 412.30984ZM387.0625 409.29422L388.1875 409.5911Q387.82812 410.98172 386.90625 411.7161Q385.98438 412.45047 384.64062 412.45047Q383.25 412.45047 382.375 411.88797Q381.5 411.32547 381.04688 410.26297Q380.59375 409.18484 380.59375 407.95047Q380.59375 406.60672 381.10938 405.60672Q381.625 404.60672 382.5625 404.0911Q383.51562 403.57547 384.65625 403.57547Q385.9375 403.57547 386.8125 404.23172Q387.70312 404.88797 388.04688 406.07547L386.92188 406.3411Q386.625 405.4036 386.04688 404.98172Q385.48438 404.54422 384.625 404.54422Q383.64062 404.54422 382.96875 405.0286Q382.3125 405.49734 382.03125 406.29422Q381.76562 407.0911 381.76562 407.95047Q381.76562 409.04422 382.07812 409.85672Q382.40625 410.66922 383.07812 411.07547Q383.75 411.48172 384.54688 411.48172Q385.5 411.48172 386.15625 410.93484Q386.82812 410.38797 387.0625 409.29422ZM389.40625 409.20047Q389.40625 407.4661 390.35938 406.63797Q391.15625 405.95047 392.3125 405.95047Q393.59375 405.95047 394.40625 406.79422Q395.23438 407.62234 395.23438 409.10672Q395.23438 410.30984 394.875 410.99734Q394.51562 411.68484 393.8125 412.07547Q393.125 412.45047 392.3125 412.45047Q391.01562 412.45047 390.20312 411.62234Q389.40625 410.7786 389.40625 409.20047ZM390.48438 409.20047Q390.48438 410.38797 391.0 410.98172Q391.53125 411.57547 392.3125 411.57547Q393.10938 411.57547 393.625 410.98172Q394.14062 410.38797 394.14062 409.16922Q394.14062 408.01297 393.60938 407.41922Q393.09375 406.82547 392.3125 406.82547Q391.53125 406.82547 391.0 407.41922Q390.48438 407.99734 390.48438 409.20047ZM396.79688 412.30984L396.79688 406.0911L397.73438 406.0911L397.73438 406.9661Q398.42188 405.95047 399.71875 405.95047Q400.28125 405.95047 400.75 406.1536Q401.23438 406.35672 401.46875 406.68484Q401.70312 407.01297 401.79688 407.45047Q401.84375 407.74734 401.84375 408.48172L401.84375 412.30984L400.79688 412.30984L400.79688 408.5286Q400.79688 407.87234 400.67188 407.55984Q400.54688 407.24734 400.23438 407.05984Q399.92188 406.85672 399.5 406.85672Q398.82812 406.85672 398.32812 407.29422Q397.84375 407.7161 397.84375 408.9036L397.84375 412.30984L396.79688 412.30984ZM406.09375 411.37234L406.25 412.29422Q405.79688 412.38797 405.45312 412.38797Q404.875 412.38797 404.5625 412.2161Q404.25 412.0286 404.10938 411.73172Q403.98438 411.43484 403.98438 410.48172L403.98438 406.9036L403.21875 406.9036L403.21875 406.0911L403.98438 406.0911L403.98438 404.54422L405.03125 403.91922L405.03125 406.0911L406.09375 406.0911L406.09375 406.9036L405.03125 406.9036L405.03125 410.54422Q405.03125 410.99734 405.07812 411.12234Q405.14062 411.24734 405.26562 411.32547Q405.39062 411.4036 405.625 411.4036Q405.8125 411.4036 406.09375 411.37234ZM411.04688 410.30984L412.14062 410.43484Q411.89062 411.38797 411.1875 411.91922Q410.48438 412.45047 409.40625 412.45047Q408.04688 412.45047 407.23438 411.60672Q406.4375 410.76297 406.4375 409.24734Q406.4375 407.68484 407.25 406.82547Q408.0625 405.95047 409.34375 405.95047Q410.59375 405.95047 411.375 406.79422Q412.17188 407.63797 412.17188 409.18484Q412.17188 409.2786 412.17188 409.4661L407.53125 409.4661Q407.59375 410.49734 408.10938 411.04422Q408.625 411.57547 409.40625 411.57547Q409.98438 411.57547 410.39062 411.2786Q410.8125 410.9661 411.04688 410.30984ZM407.59375 408.60672L411.0625 408.60672Q411.0 407.80984 410.67188 407.41922Q410.15625 406.80984 409.35938 406.80984Q408.625 406.80984 408.125 407.29422Q407.64062 407.7786 407.59375 408.60672ZM413.375 410.45047L414.40625 410.29422Q414.5 410.91922 414.89062 411.24734Q415.29688 411.57547 416.03125 411.57547Q416.75 411.57547 417.09375 411.29422Q417.45312 410.99734 417.45312 410.5911Q417.45312 410.23172 417.14062 410.0286Q416.92188 409.88797 416.0625 409.66922Q414.90625 409.37234 414.45312 409.16922Q414.01562 408.95047 413.78125 408.57547Q413.54688 408.20047 413.54688 407.73172Q413.54688 407.32547 413.73438 406.9661Q413.92188 406.60672 414.25 406.37234Q414.5 406.20047 414.92188 406.07547Q415.34375 405.95047 415.84375 405.95047Q416.5625 405.95047 417.10938 406.16922Q417.67188 406.37234 417.9375 406.73172Q418.20312 407.0911 418.29688 407.68484L417.26562 407.82547Q417.20312 407.35672 416.85938 407.0911Q416.53125 406.80984 415.90625 406.80984Q415.1875 406.80984 414.875 407.05984Q414.5625 407.29422 414.5625 407.62234Q414.5625 407.82547 414.6875 407.98172Q414.82812 408.1536 415.09375 408.26297Q415.25 408.32547 416.03125 408.5286Q417.15625 408.8411 417.59375 409.0286Q418.03125 409.2161 418.28125 409.57547Q418.53125 409.93484 418.53125 410.48172Q418.53125 411.01297 418.21875 411.48172Q417.92188 411.93484 417.34375 412.20047Q416.76562 412.45047 416.03125 412.45047Q414.8125 412.45047 414.17188 411.95047Q413.54688 411.43484 413.375 410.45047ZM422.09375 411.37234L422.25 412.29422Q421.79688 412.38797 421.45312 412.38797Q420.875 412.38797 420.5625 412.2161Q420.25 412.0286 420.10938 411.73172Q419.98438 411.43484 419.98438 410.48172L419.98438 406.9036L419.21875 406.9036L419.21875 406.0911L419.98438 406.0911L419.98438 404.54422L421.03125 403.91922L421.03125 406.0911L422.09375 406.0911L422.09375 406.9036L421.03125 406.9036L421.03125 410.54422Q421.03125 410.99734 421.07812 411.12234Q421.14062 411.24734 421.26562 411.32547Q421.39062 411.4036 421.625 411.4036Q421.8125 411.4036 422.09375 411.37234ZM427.04688 410.30984L428.14062 410.43484Q427.89062 411.38797 427.1875 411.91922Q426.48438 412.45047 425.40625 412.45047Q424.04688 412.45047 423.23438 411.60672Q422.4375 410.76297 422.4375 409.24734Q422.4375 407.68484 423.25 406.82547Q424.0625 405.95047 425.34375 405.95047Q426.59375 405.95047 427.375 406.79422Q428.17188 407.63797 428.17188 409.18484Q428.17188 409.2786 428.17188 409.4661L423.53125 409.4661Q423.59375 410.49734 424.10938 411.04422Q424.625 411.57547 425.40625 411.57547Q425.98438 411.57547 426.39062 411.2786Q426.8125 410.9661 427.04688 410.30984ZM423.59375 408.60672L427.0625 408.60672Q427.0 407.80984 426.67188 407.41922Q426.15625 406.80984 425.35938 406.80984Q424.625 406.80984 424.125 407.29422Q423.64062 407.7786 423.59375 408.60672ZM433.82812 412.30984L433.82812 411.5286Q433.23438 412.45047 432.09375 412.45047Q431.34375 412.45047 430.71875 412.04422Q430.09375 411.62234 429.75 410.88797Q429.40625 410.1536 429.40625 409.20047Q429.40625 408.2786 429.71875 407.51297Q430.03125 406.74734 430.65625 406.35672Q431.28125 405.95047 432.04688 405.95047Q432.60938 405.95047 433.04688 406.18484Q433.48438 406.41922 433.76562 406.79422L433.76562 403.7161L434.8125 403.7161L434.8125 412.30984L433.82812 412.30984ZM430.5 409.20047Q430.5 410.4036 431.0 410.99734Q431.5 411.57547 432.1875 411.57547Q432.875 411.57547 433.35938 411.01297Q433.84375 410.45047 433.84375 409.29422Q433.84375 408.01297 433.34375 407.41922Q432.85938 406.82547 432.14062 406.82547Q431.4375 406.82547 430.96875 407.4036Q430.5 407.9661 430.5 409.20047ZM446.0625 409.29422L447.1875 409.5911Q446.82812 410.98172 445.90625 411.7161Q444.98438 412.45047 443.64062 412.45047Q442.25 412.45047 441.375 411.88797Q440.5 411.32547 440.04688 410.26297Q439.59375 409.18484 439.59375 407.95047Q439.59375 406.60672 440.10938 405.60672Q440.625 404.60672 441.5625 404.0911Q442.51562 403.57547 443.65625 403.57547Q444.9375 403.57547 445.8125 404.23172Q446.70312 404.88797 447.04688 406.07547L445.92188 406.3411Q445.625 405.4036 445.04688 404.98172Q444.48438 404.54422 443.625 404.54422Q442.64062 404.54422 441.96875 405.0286Q441.3125 405.49734 441.03125 406.29422Q440.76562 407.0911 440.76562 407.95047Q440.76562 409.04422 441.07812 409.85672Q441.40625 410.66922 442.07812 411.07547Q442.75 411.48172 443.54688 411.48172Q444.5 411.48172 445.15625 410.93484Q445.82812 410.38797 446.0625 409.29422ZM452.85938 411.54422Q452.26562 412.04422 451.71875 412.24734Q451.1875 412.45047 450.5625 412.45047Q449.53125 412.45047 448.98438 411.95047Q448.4375 411.45047 448.4375 410.66922Q448.4375 410.2161 448.64062 409.8411Q448.84375 409.45047 449.1875 409.23172Q449.53125 408.99734 449.95312 408.88797Q450.25 408.79422 450.89062 408.7161Q452.15625 408.57547 452.76562 408.35672Q452.76562 408.13797 452.76562 408.0911Q452.76562 407.43484 452.46875 407.16922Q452.0625 406.82547 451.26562 406.82547Q450.53125 406.82547 450.17188 407.0911Q449.8125 407.3411 449.64062 407.99734L448.60938 407.85672Q448.75 407.20047 449.07812 406.79422Q449.40625 406.38797 450.01562 406.16922Q450.625 405.95047 451.42188 405.95047Q452.21875 405.95047 452.71875 406.13797Q453.21875 406.32547 453.45312 406.60672Q453.6875 406.88797 453.78125 407.32547Q453.82812 407.5911 453.82812 408.29422L453.82812 409.70047Q453.82812 411.16922 453.89062 411.55984Q453.96875 411.95047 454.17188 412.30984L453.0625 412.30984Q452.90625 411.98172 452.85938 411.54422ZM452.76562 409.18484Q452.1875 409.41922 451.04688 409.5911Q450.39062 409.68484 450.125 409.80984Q449.85938 409.91922 449.70312 410.13797Q449.5625 410.35672 449.5625 410.63797Q449.5625 411.05984 449.875 411.3411Q450.20312 411.62234 450.8125 411.62234Q451.42188 411.62234 451.89062 411.35672Q452.375 411.0911 452.59375 410.62234Q452.76562 410.26297 452.76562 409.57547L452.76562 409.18484ZM455.375 410.45047L456.40625 410.29422Q456.5 410.91922 456.89062 411.24734Q457.29688 411.57547 458.03125 411.57547Q458.75 411.57547 459.09375 411.29422Q459.45312 410.99734 459.45312 410.5911Q459.45312 410.23172 459.14062 410.0286Q458.92188 409.88797 458.0625 409.66922Q456.90625 409.37234 456.45312 409.16922Q456.01562 408.95047 455.78125 408.57547Q455.54688 408.20047 455.54688 407.73172Q455.54688 407.32547 455.73438 406.9661Q455.92188 406.60672 456.25 406.37234Q456.5 406.20047 456.92188 406.07547Q457.34375 405.95047 457.84375 405.95047Q458.5625 405.95047 459.10938 406.16922Q459.67188 406.37234 459.9375 406.73172Q460.20312 407.0911 460.29688 407.68484L459.26562 407.82547Q459.20312 407.35672 458.85938 407.0911Q458.53125 406.80984 457.90625 406.80984Q457.1875 406.80984 456.875 407.05984Q456.5625 407.29422 456.5625 407.62234Q456.5625 407.82547 456.6875 407.98172Q456.82812 408.1536 457.09375 408.26297Q457.25 408.32547 458.03125 408.5286Q459.15625 408.8411 459.59375 409.0286Q460.03125 409.2161 460.28125 409.57547Q460.53125 409.93484 460.53125 410.48172Q460.53125 411.01297 460.21875 411.48172Q459.92188 411.93484 459.34375 412.20047Q458.76562 412.45047 458.03125 412.45047Q456.8125 412.45047 456.17188 411.95047Q455.54688 411.43484 455.375 410.45047ZM466.04688 410.30984L467.14062 410.43484Q466.89062 411.38797 466.1875 411.91922Q465.48438 412.45047 464.40625 412.45047Q463.04688 412.45047 462.23438 411.60672Q461.4375 410.76297 461.4375 409.24734Q461.4375 407.68484 462.25 406.82547Q463.0625 405.95047 464.34375 405.95047Q465.59375 405.95047 466.375 406.79422Q467.17188 407.63797 467.17188 409.18484Q467.17188 409.2786 467.17188 409.4661L462.53125 409.4661Q462.59375 410.49734 463.10938 411.04422Q463.625 411.57547 464.40625 411.57547Q464.98438 411.57547 465.39062 411.2786Q465.8125 410.9661 466.04688 410.30984ZM462.59375 408.60672L466.0625 408.60672Q466.0 407.80984 465.67188 407.41922Q465.15625 406.80984 464.35938 406.80984Q463.625 406.80984 463.125 407.29422Q462.64062 407.7786 462.59375 408.60672ZM468.375 410.45047L469.40625 410.29422Q469.5 410.91922 469.89062 411.24734Q470.29688 411.57547 471.03125 411.57547Q471.75 411.57547 472.09375 411.29422Q472.45312 410.99734 472.45312 410.5911Q472.45312 410.23172 472.14062 410.0286Q471.92188 409.88797 471.0625 409.66922Q469.90625 409.37234 469.45312 409.16922Q469.01562 408.95047 468.78125 408.57547Q468.54688 408.20047 468.54688 407.73172Q468.54688 407.32547 468.73438 406.9661Q468.92188 406.60672 469.25 406.37234Q469.5 406.20047 469.92188 406.07547Q470.34375 405.95047 470.84375 405.95047Q471.5625 405.95047 472.10938 406.16922Q472.67188 406.37234 472.9375 406.73172Q473.20312 407.0911 473.29688 407.68484L472.26562 407.82547Q472.20312 407.35672 471.85938 407.0911Q471.53125 406.80984 470.90625 406.80984Q470.1875 406.80984 469.875 407.05984Q469.5625 407.29422 469.5625 407.62234Q469.5625 407.82547 469.6875 407.98172Q469.82812 408.1536 470.09375 408.26297Q470.25 408.32547 471.03125 408.5286Q472.15625 408.8411 472.59375 409.0286Q473.03125 409.2161 473.28125 409.57547Q473.53125 409.93484 473.53125 410.48172Q473.53125 411.01297 473.21875 411.48172Q472.92188 411.93484 472.34375 412.20047Q471.76562 412.45047 471.03125 412.45047Q469.8125 412.45047 469.17188 411.95047Q468.54688 411.43484 468.375 410.45047Z" fill-rule="nonzero"/><path fill="#757575" d="M134.76562 35.15385L136.65625 35.6226Q136.0625 37.96635 134.51562 39.200726Q132.96875 40.419476 130.71875 40.419476Q128.40625 40.419476 126.953125 39.481976Q125.515625 38.52885 124.75 36.7476Q124.0 34.950726 124.0 32.90385Q124.0 30.669476 124.84375 29.013226Q125.703125 27.34135 127.28125 26.481976Q128.85938 25.606976 130.75 25.606976Q132.90625 25.606976 134.35938 26.700726Q135.82812 27.794476 136.40625 29.77885L134.54688 30.21635Q134.04688 28.65385 133.09375 27.950726Q132.15625 27.231976 130.71875 27.231976Q129.0625 27.231976 127.953125 28.02885Q126.84375 28.8101 126.390625 30.15385Q125.953125 31.481976 125.953125 32.888226Q125.953125 34.71635 126.484375 36.09135Q127.015625 37.450726 128.14062 38.1226Q129.26562 38.794476 130.5625 38.794476Q132.15625 38.794476 133.26562 37.8726Q134.375 36.950726 134.76562 35.15385ZM145.09375 38.888226Q144.10938 39.71635 143.20312 40.0601Q142.29688 40.40385 141.26562 40.40385Q139.5625 40.40385 138.64062 39.575726Q137.71875 38.731976 137.71875 37.4351Q137.71875 36.669476 138.0625 36.044476Q138.42188 35.419476 138.98438 35.044476Q139.54688 34.65385 140.25 34.450726Q140.76562 34.325726 141.8125 34.1851Q143.9375 33.9351 144.9375 33.59135Q144.95312 33.231976 144.95312 33.1226Q144.95312 32.0601 144.45312 31.606976Q143.78125 31.013226 142.45312 31.013226Q141.20312 31.013226 140.60938 31.450726Q140.03125 31.888226 139.75 32.9976L138.03125 32.763226Q138.26562 31.65385 138.79688 30.981976Q139.32812 30.294476 140.34375 29.9351Q141.35938 29.5601 142.70312 29.5601Q144.03125 29.5601 144.85938 29.8726Q145.6875 30.1851 146.07812 30.669476Q146.46875 31.138226 146.625 31.856976Q146.71875 32.3101 146.71875 33.481976L146.71875 35.825726Q146.71875 38.27885 146.82812 38.9351Q146.9375 39.575726 147.28125 40.169476L145.4375 40.169476Q145.17188 39.6226 145.09375 38.888226ZM144.9375 34.96635Q143.98438 35.356976 142.0625 35.6226Q140.98438 35.77885 140.53125 35.981976Q140.09375 36.169476 139.84375 36.544476Q139.59375 36.919476 139.59375 37.388226Q139.59375 38.09135 140.125 38.5601Q140.65625 39.02885 141.6875 39.02885Q142.70312 39.02885 143.48438 38.59135Q144.28125 38.138226 144.65625 37.3726Q144.9375 36.763226 144.9375 35.606976L144.9375 34.96635ZM148.60938 37.075726L150.35938 36.794476Q150.5 37.84135 151.17188 38.40385Q151.84375 38.950726 153.04688 38.950726Q154.25 38.950726 154.82812 38.46635Q155.42188 37.96635 155.42188 37.3101Q155.42188 36.71635 154.90625 36.3726Q154.54688 36.138226 153.10938 35.77885Q151.17188 35.27885 150.42188 34.9351Q149.6875 34.575726 149.29688 33.950726Q148.90625 33.3101 148.90625 32.544476Q148.90625 31.856976 149.21875 31.263226Q149.54688 30.669476 150.09375 30.27885Q150.5 29.981976 151.20312 29.77885Q151.92188 29.5601 152.73438 29.5601Q153.95312 29.5601 154.875 29.919476Q155.79688 30.263226 156.23438 30.8726Q156.67188 31.46635 156.84375 32.46635L155.125 32.700726Q155.0 31.90385 154.4375 31.46635Q153.875 31.013226 152.85938 31.013226Q151.64062 31.013226 151.125 31.419476Q150.60938 31.8101 150.60938 32.34135Q150.60938 32.6851 150.82812 32.96635Q151.03125 33.2476 151.5 33.4351Q151.76562 33.52885 153.04688 33.8726Q154.92188 34.3726 155.65625 34.700726Q156.39062 35.013226 156.8125 35.6226Q157.23438 36.21635 157.23438 37.1226Q157.23438 37.9976 156.71875 38.77885Q156.20312 39.5601 155.23438 39.981976Q154.26562 40.40385 153.04688 40.40385Q151.03125 40.40385 149.96875 39.5601Q148.90625 38.71635 148.60938 37.075726ZM166.42188 36.825726L168.23438 37.0601Q167.8125 38.638226 166.64062 39.52885Q165.48438 40.40385 163.67188 40.40385Q161.40625 40.40385 160.0625 39.013226Q158.73438 37.606976 158.73438 35.075726Q158.73438 32.450726 160.07812 31.013226Q161.42188 29.5601 163.57812 29.5601Q165.65625 29.5601 166.96875 30.981976Q168.29688 32.388226 168.29688 34.96635Q168.29688 35.1226 168.28125 35.4351L160.54688 35.4351Q160.64062 37.138226 161.51562 38.044476Q162.39062 38.950726 163.6875 38.950726Q164.65625 38.950726 165.32812 38.450726Q166.01562 37.9351 166.42188 36.825726ZM160.64062 33.981976L166.4375 33.981976Q166.32812 32.6851 165.78125 32.02885Q164.9375 31.013226 163.59375 31.013226Q162.39062 31.013226 161.5625 31.825726Q160.73438 32.6226 160.64062 33.981976ZM169.60938 37.075726L171.35938 36.794476Q171.5 37.84135 172.17188 38.40385Q172.84375 38.950726 174.04688 38.950726Q175.25 38.950726 175.82812 38.46635Q176.42188 37.96635 176.42188 37.3101Q176.42188 36.71635 175.90625 36.3726Q175.54688 36.138226 174.10938 35.77885Q172.17188 35.27885 171.42188 34.9351Q170.6875 34.575726 170.29688 33.950726Q169.90625 33.3101 169.90625 32.544476Q169.90625 31.856976 170.21875 31.263226Q170.54688 30.669476 171.09375 30.27885Q171.5 29.981976 172.20312 29.77885Q172.92188 29.5601 173.73438 29.5601Q174.95312 29.5601 175.875 29.919476Q176.79688 30.263226 177.23438 30.8726Q177.67188 31.46635 177.84375 32.46635L176.125 32.700726Q176.0 31.90385 175.4375 31.46635Q174.875 31.013226 173.85938 31.013226Q172.64062 31.013226 172.125 31.419476Q171.60938 31.8101 171.60938 32.34135Q171.60938 32.6851 171.82812 32.96635Q172.03125 33.2476 172.5 33.4351Q172.76562 33.52885 174.04688 33.8726Q175.92188 34.3726 176.65625 34.700726Q177.39062 35.013226 177.8125 35.6226Q178.23438 36.21635 178.23438 37.1226Q178.23438 37.9976 177.71875 38.77885Q177.20312 39.5601 176.23438 39.981976Q175.26562 40.40385 174.04688 40.40385Q172.03125 40.40385 170.96875 39.5601Q169.90625 38.71635 169.60938 37.075726ZM186.73438 40.169476L186.73438 31.169476L185.1875 31.169476L185.1875 29.794476L186.73438 29.794476L186.73438 28.700726Q186.73438 27.65385 186.92188 27.138226Q187.17188 26.450726 187.8125 26.02885Q188.45312 25.606976 189.60938 25.606976Q190.35938 25.606976 191.25 25.77885L190.98438 27.3101Q190.4375 27.21635 189.95312 27.21635Q189.15625 27.21635 188.8125 27.5601Q188.48438 27.90385 188.48438 28.84135L188.48438 29.794476L190.51562 29.794476L190.51562 31.169476L188.48438 31.169476L188.48438 40.169476L186.73438 40.169476ZM191.67188 34.981976Q191.67188 32.106976 193.26562 30.71635Q194.60938 29.5601 196.53125 29.5601Q198.67188 29.5601 200.01562 30.96635Q201.375 32.3726 201.375 34.84135Q201.375 36.84135 200.78125 37.9976Q200.1875 39.138226 199.03125 39.77885Q197.89062 40.40385 196.53125 40.40385Q194.34375 40.40385 193.0 39.013226Q191.67188 37.606976 191.67188 34.981976ZM193.46875 34.981976Q193.46875 36.981976 194.32812 37.96635Q195.20312 38.950726 196.53125 38.950726Q197.84375 38.950726 198.70312 37.96635Q199.57812 36.96635 199.57812 34.919476Q199.57812 32.9976 198.70312 32.013226Q197.82812 31.013226 196.53125 31.013226Q195.20312 31.013226 194.32812 32.013226Q193.46875 32.9976 193.46875 34.981976ZM203.29688 40.169476L203.29688 29.794476L204.875 29.794476L204.875 31.3726Q205.48438 30.263226 206.0 29.919476Q206.51562 29.5601 207.125 29.5601Q208.01562 29.5601 208.9375 30.1226L208.32812 31.763226Q207.6875 31.3726 207.04688 31.3726Q206.46875 31.3726 206.0 31.731976Q205.54688 32.075726 205.34375 32.6851Q205.0625 33.6226 205.0625 34.731976L205.0625 40.169476L203.29688 40.169476ZM216.57812 40.169476L216.57812 25.856976L226.9375 25.856976L226.9375 27.544476L218.48438 27.544476L218.48438 31.919476L226.39062 31.919476L226.39062 33.606976L218.48438 33.606976L218.48438 38.481976L227.26562 38.481976L227.26562 40.169476L216.57812 40.169476ZM228.14062 40.169476L231.9375 34.77885L228.4375 29.794476L230.625 29.794476L232.21875 32.231976Q232.67188 32.919476 232.9375 33.388226Q233.375 32.7476 233.73438 32.2476L235.48438 29.794476L237.57812 29.794476L234.0 34.6851L237.85938 40.169476L235.70312 40.169476L233.5625 36.950726L233.0 36.075726L230.28125 40.169476L228.14062 40.169476ZM239.3125 44.138226L239.3125 29.794476L240.92188 29.794476L240.92188 31.138226Q241.48438 30.356976 242.1875 29.96635Q242.90625 29.5601 243.92188 29.5601Q245.25 29.5601 246.26562 30.2476Q247.28125 30.9351 247.79688 32.1851Q248.32812 33.419476 248.32812 34.90385Q248.32812 36.4976 247.75 37.77885Q247.1875 39.044476 246.09375 39.731976Q245.0 40.40385 243.79688 40.40385Q242.92188 40.40385 242.21875 40.02885Q241.53125 39.65385 241.07812 39.09135L241.07812 44.138226L239.3125 44.138226ZM240.90625 35.044476Q240.90625 37.044476 241.71875 37.9976Q242.53125 38.950726 243.6875 38.950726Q244.85938 38.950726 245.6875 37.96635Q246.53125 36.981976 246.53125 34.888226Q246.53125 32.919476 245.70312 31.9351Q244.89062 30.9351 243.76562 30.9351Q242.64062 30.9351 241.76562 31.9976Q240.90625 33.044476 240.90625 35.044476ZM250.32812 27.8726L250.32812 25.856976L252.09375 25.856976L252.09375 27.8726L250.32812 27.8726ZM250.32812 40.169476L250.32812 29.794476L252.09375 29.794476L252.09375 40.169476L250.32812 40.169476ZM254.29688 40.169476L254.29688 29.794476L255.875 29.794476L255.875 31.3726Q256.48438 30.263226 257.0 29.919476Q257.51562 29.5601 258.125 29.5601Q259.01562 29.5601 259.9375 30.1226L259.32812 31.763226Q258.6875 31.3726 258.04688 31.3726Q257.46875 31.3726 257.0 31.731976Q256.54688 32.075726 256.34375 32.6851Q256.0625 33.6226 256.0625 34.731976L256.0625 40.169476L254.29688 40.169476ZM268.42188 36.825726L270.23438 37.0601Q269.8125 38.638226 268.64062 39.52885Q267.48438 40.40385 265.67188 40.40385Q263.40625 40.40385 262.0625 39.013226Q260.73438 37.606976 260.73438 35.075726Q260.73438 32.450726 262.07812 31.013226Q263.42188 29.5601 265.57812 29.5601Q267.65625 29.5601 268.96875 30.981976Q270.29688 32.388226 270.29688 34.96635Q270.29688 35.1226 270.28125 35.4351L262.54688 35.4351Q262.64062 37.138226 263.51562 38.044476Q264.39062 38.950726 265.6875 38.950726Q266.65625 38.950726 267.32812 38.450726Q268.01562 37.9351 268.42188 36.825726ZM262.64062 33.981976L268.4375 33.981976Q268.32812 32.6851 267.78125 32.02885Q266.9375 31.013226 265.59375 31.013226Q264.39062 31.013226 263.5625 31.825726Q262.73438 32.6226 262.64062 33.981976ZM279.04688 40.169476L279.04688 38.856976Q278.0625 40.40385 276.14062 40.40385Q274.90625 40.40385 273.85938 39.71635Q272.82812 39.02885 272.25 37.8101Q271.6875 36.59135 271.6875 34.9976Q271.6875 33.4351 272.20312 32.169476Q272.71875 30.90385 273.75 30.231976Q274.79688 29.5601 276.0625 29.5601Q277.0 29.5601 277.73438 29.96635Q278.46875 30.356976 278.9375 30.981976L278.9375 25.856976L280.67188 25.856976L280.67188 40.169476L279.04688 40.169476ZM273.48438 34.9976Q273.48438 36.981976 274.32812 37.96635Q275.17188 38.950726 276.3125 38.950726Q277.46875 38.950726 278.26562 38.013226Q279.07812 37.075726 279.07812 35.138226Q279.07812 33.013226 278.25 32.013226Q277.4375 31.013226 276.23438 31.013226Q275.0625 31.013226 274.26562 31.981976Q273.48438 32.9351 273.48438 34.9976ZM289.54688 40.169476L289.54688 25.856976L294.9375 25.856976Q296.375 25.856976 297.125 25.981976Q298.17188 26.169476 298.89062 26.669476Q299.60938 27.15385 300.03125 28.044476Q300.46875 28.9351 300.46875 29.9976Q300.46875 31.825726 299.29688 33.09135Q298.14062 34.34135 295.10938 34.34135L291.4375 34.34135L291.4375 40.169476L289.54688 40.169476ZM291.4375 32.65385L295.14062 32.65385Q296.96875 32.65385 297.73438 31.981976Q298.51562 31.294476 298.51562 30.044476Q298.51562 29.15385 298.0625 28.513226Q297.60938 27.8726 296.875 27.669476Q296.39062 27.544476 295.09375 27.544476L291.4375 27.544476L291.4375 32.65385ZM302.28125 40.169476L302.28125 25.856976L304.03125 25.856976L304.03125 40.169476L302.28125 40.169476ZM313.09375 38.888226Q312.10938 39.71635 311.20312 40.0601Q310.29688 40.40385 309.26562 40.40385Q307.5625 40.40385 306.64062 39.575726Q305.71875 38.731976 305.71875 37.4351Q305.71875 36.669476 306.0625 36.044476Q306.42188 35.419476 306.98438 35.044476Q307.54688 34.65385 308.25 34.450726Q308.76562 34.325726 309.8125 34.1851Q311.9375 33.9351 312.9375 33.59135Q312.95312 33.231976 312.95312 33.1226Q312.95312 32.0601 312.45312 31.606976Q311.78125 31.013226 310.45312 31.013226Q309.20312 31.013226 308.60938 31.450726Q308.03125 31.888226 307.75 32.9976L306.03125 32.763226Q306.26562 31.65385 306.79688 30.981976Q307.32812 30.294476 308.34375 29.9351Q309.35938 29.5601 310.70312 29.5601Q312.03125 29.5601 312.85938 29.8726Q313.6875 30.1851 314.07812 30.669476Q314.46875 31.138226 314.625 31.856976Q314.71875 32.3101 314.71875 33.481976L314.71875 35.825726Q314.71875 38.27885 314.82812 38.9351Q314.9375 39.575726 315.28125 40.169476L313.4375 40.169476Q313.17188 39.6226 313.09375 38.888226ZM312.9375 34.96635Q311.98438 35.356976 310.0625 35.6226Q308.98438 35.77885 308.53125 35.981976Q308.09375 36.169476 307.84375 36.544476Q307.59375 36.919476 307.59375 37.388226Q307.59375 38.09135 308.125 38.5601Q308.65625 39.02885 309.6875 39.02885Q310.70312 39.02885 311.48438 38.59135Q312.28125 38.138226 312.65625 37.3726Q312.9375 36.763226 312.9375 35.606976L312.9375 34.96635ZM321.15625 38.59135L321.40625 40.15385Q320.67188 40.3101 320.07812 40.3101Q319.125 40.3101 318.59375 40.013226Q318.07812 39.700726 317.85938 39.21635Q317.64062 38.71635 317.64062 37.138226L317.64062 31.169476L316.35938 31.169476L316.35938 29.794476L317.64062 29.794476L317.64062 27.231976L319.39062 26.169476L319.39062 29.794476L321.15625 29.794476L321.15625 31.169476L319.39062 31.169476L319.39062 37.231976Q319.39062 37.981976 319.48438 38.200726Q319.57812 38.40385 319.78125 38.544476Q320.0 38.669476 320.39062 38.669476Q320.67188 38.669476 321.15625 38.59135ZM330.42188 36.825726L332.23438 37.0601Q331.8125 38.638226 330.64062 39.52885Q329.48438 40.40385 327.67188 40.40385Q325.40625 40.40385 324.0625 39.013226Q322.73438 37.606976 322.73438 35.075726Q322.73438 32.450726 324.07812 31.013226Q325.42188 29.5601 327.57812 29.5601Q329.65625 29.5601 330.96875 30.981976Q332.29688 32.388226 332.29688 34.96635Q332.29688 35.1226 332.28125 35.4351L324.54688 35.4351Q324.64062 37.138226 325.51562 38.044476Q326.39062 38.950726 327.6875 38.950726Q328.65625 38.950726 329.32812 38.450726Q330.01562 37.9351 330.42188 36.825726ZM324.64062 33.981976L330.4375 33.981976Q330.32812 32.6851 329.78125 32.02885Q328.9375 31.013226 327.59375 31.013226Q326.39062 31.013226 325.5625 31.825726Q324.73438 32.6226 324.64062 33.981976ZM333.60938 37.075726L335.35938 36.794476Q335.5 37.84135 336.17188 38.40385Q336.84375 38.950726 338.04688 38.950726Q339.25 38.950726 339.82812 38.46635Q340.42188 37.96635 340.42188 37.3101Q340.42188 36.71635 339.90625 36.3726Q339.54688 36.138226 338.10938 35.77885Q336.17188 35.27885 335.42188 34.9351Q334.6875 34.575726 334.29688 33.950726Q333.90625 33.3101 333.90625 32.544476Q333.90625 31.856976 334.21875 31.263226Q334.54688 30.669476 335.09375 30.27885Q335.5 29.981976 336.20312 29.77885Q336.92188 29.5601 337.73438 29.5601Q338.95312 29.5601 339.875 29.919476Q340.79688 30.263226 341.23438 30.8726Q341.67188 31.46635 341.84375 32.46635L340.125 32.700726Q340.0 31.90385 339.4375 31.46635Q338.875 31.013226 337.85938 31.013226Q336.64062 31.013226 336.125 31.419476Q335.60938 31.8101 335.60938 32.34135Q335.60938 32.6851 335.82812 32.96635Q336.03125 33.2476 336.5 33.4351Q336.76562 33.52885 338.04688 33.8726Q339.92188 34.3726 340.65625 34.700726Q341.39062 35.013226 341.8125 35.6226Q342.23438 36.21635 342.23438 37.1226Q342.23438 37.9976 341.71875 38.77885Q341.20312 39.5601 340.23438 39.981976Q339.26562 40.40385 338.04688 40.40385Q336.03125 40.40385 334.96875 39.5601Q333.90625 38.71635 333.60938 37.075726ZM349.67188 34.981976Q349.67188 32.106976 351.26562 30.71635Q352.60938 29.5601 354.53125 29.5601Q356.67188 29.5601 358.01562 30.96635Q359.375 32.3726 359.375 34.84135Q359.375 36.84135 358.78125 37.9976Q358.1875 39.138226 357.03125 39.77885Q355.89062 40.40385 354.53125 40.40385Q352.34375 40.40385 351.0 39.013226Q349.67188 37.606976 349.67188 34.981976ZM351.46875 34.981976Q351.46875 36.981976 352.32812 37.96635Q353.20312 38.950726 354.53125 38.950726Q355.84375 38.950726 356.70312 37.96635Q357.57812 36.96635 357.57812 34.919476Q357.57812 32.9976 356.70312 32.013226Q355.82812 31.013226 354.53125 31.013226Q353.20312 31.013226 352.32812 32.013226Q351.46875 32.9976 351.46875 34.981976ZM361.29688 40.169476L361.29688 29.794476L362.875 29.794476L362.875 31.3726Q363.48438 30.263226 364.0 29.919476Q364.51562 29.5601 365.125 29.5601Q366.01562 29.5601 366.9375 30.1226L366.32812 31.763226Q365.6875 31.3726 365.04688 31.3726Q364.46875 31.3726 364.0 31.731976Q363.54688 32.075726 363.34375 32.6851Q363.0625 33.6226 363.0625 34.731976L363.0625 40.169476L361.29688 40.169476ZM378.1875 40.169476L378.1875 27.544476L373.46875 27.544476L373.46875 25.856976L384.8125 25.856976L384.8125 27.544476L380.07812 27.544476L380.07812 40.169476L378.1875 40.169476ZM393.42188 36.825726L395.23438 37.0601Q394.8125 38.638226 393.64062 39.52885Q392.48438 40.40385 390.67188 40.40385Q388.40625 40.40385 387.0625 39.013226Q385.73438 37.606976 385.73438 35.075726Q385.73438 32.450726 387.07812 31.013226Q388.42188 29.5601 390.57812 29.5601Q392.65625 29.5601 393.96875 30.981976Q395.29688 32.388226 395.29688 34.96635Q395.29688 35.1226 395.28125 35.4351L387.54688 35.4351Q387.64062 37.138226 388.51562 38.044476Q389.39062 38.950726 390.6875 38.950726Q391.65625 38.950726 392.32812 38.450726Q393.01562 37.9351 393.42188 36.825726ZM387.64062 33.981976L393.4375 33.981976Q393.32812 32.6851 392.78125 32.02885Q391.9375 31.013226 390.59375 31.013226Q389.39062 31.013226 388.5625 31.825726Q387.73438 32.6226 387.64062 33.981976ZM397.3125 40.169476L397.3125 29.794476L398.89062 29.794476L398.89062 31.2476Q399.375 30.4976 400.1875 30.02885Q401.0 29.5601 402.03125 29.5601Q403.1875 29.5601 403.92188 30.044476Q404.65625 30.513226 404.96875 31.3726Q406.20312 29.5601 408.17188 29.5601Q409.71875 29.5601 410.54688 30.419476Q411.375 31.27885 411.375 33.044476L411.375 40.169476L409.625 40.169476L409.625 33.638226Q409.625 32.575726 409.45312 32.1226Q409.28125 31.65385 408.82812 31.3726Q408.39062 31.09135 407.78125 31.09135Q406.6875 31.09135 405.95312 31.825726Q405.23438 32.544476 405.23438 34.138226L405.23438 40.169476L403.48438 40.169476L403.48438 33.4351Q403.48438 32.263226 403.04688 31.6851Q402.625 31.09135 401.64062 31.09135Q400.90625 31.09135 400.26562 31.481976Q399.64062 31.8726 399.35938 32.6226Q399.07812 33.3726 399.07812 34.794476L399.07812 40.169476L397.3125 40.169476ZM414.3125 44.138226L414.3125 29.794476L415.92188 29.794476L415.92188 31.138226Q416.48438 30.356976 417.1875 29.96635Q417.90625 29.5601 418.92188 29.5601Q420.25 29.5601 421.26562 30.2476Q422.28125 30.9351 422.79688 32.1851Q423.32812 33.419476 423.32812 34.90385Q423.32812 36.4976 422.75 37.77885Q422.1875 39.044476 421.09375 39.731976Q420.0 40.40385 418.79688 40.40385Q417.92188 40.40385 417.21875 40.02885Q416.53125 39.65385 416.07812 39.09135L416.07812 44.138226L414.3125 44.138226ZM415.90625 35.044476Q415.90625 37.044476 416.71875 37.9976Q417.53125 38.950726 418.6875 38.950726Q419.85938 38.950726 420.6875 37.96635Q421.53125 36.981976 421.53125 34.888226Q421.53125 32.919476 420.70312 31.9351Q419.89062 30.9351 418.76562 30.9351Q417.64062 30.9351 416.76562 31.9976Q415.90625 33.044476 415.90625 35.044476ZM424.67188 34.981976Q424.67188 32.106976 426.26562 30.71635Q427.60938 29.5601 429.53125 29.5601Q431.67188 29.5601 433.01562 30.96635Q434.375 32.3726 434.375 34.84135Q434.375 36.84135 433.78125 37.9976Q433.1875 39.138226 432.03125 39.77885Q430.89062 40.40385 429.53125 40.40385Q427.34375 40.40385 426.0 39.013226Q424.67188 37.606976 424.67188 34.981976ZM426.46875 34.981976Q426.46875 36.981976 427.32812 37.96635Q428.20312 38.950726 429.53125 38.950726Q430.84375 38.950726 431.70312 37.96635Q432.57812 36.96635 432.57812 34.919476Q432.57812 32.9976 431.70312 32.013226Q430.82812 31.013226 429.53125 31.013226Q428.20312 31.013226 427.32812 32.013226Q426.46875 32.9976 426.46875 34.981976ZM436.29688 40.169476L436.29688 29.794476L437.875 29.794476L437.875 31.3726Q438.48438 30.263226 439.0 29.919476Q439.51562 29.5601 440.125 29.5601Q441.01562 29.5601 441.9375 30.1226L441.32812 31.763226Q440.6875 31.3726 440.04688 31.3726Q439.46875 31.3726 439.0 31.731976Q438.54688 32.075726 438.34375 32.6851Q438.0625 33.6226 438.0625 34.731976L438.0625 40.169476L436.29688 40.169476ZM450.09375 38.888226Q449.10938 39.71635 448.20312 40.0601Q447.29688 40.40385 446.26562 40.40385Q444.5625 40.40385 443.64062 39.575726Q442.71875 38.731976 442.71875 37.4351Q442.71875 36.669476 443.0625 36.044476Q443.42188 35.419476 443.98438 35.044476Q444.54688 34.65385 445.25 34.450726Q445.76562 34.325726 446.8125 34.1851Q448.9375 33.9351 449.9375 33.59135Q449.95312 33.231976 449.95312 33.1226Q449.95312 32.0601 449.45312 31.606976Q448.78125 31.013226 447.45312 31.013226Q446.20312 31.013226 445.60938 31.450726Q445.03125 31.888226 444.75 32.9976L443.03125 32.763226Q443.26562 31.65385 443.79688 30.981976Q444.32812 30.294476 445.34375 29.9351Q446.35938 29.5601 447.70312 29.5601Q449.03125 29.5601 449.85938 29.8726Q450.6875 30.1851 451.07812 30.669476Q451.46875 31.138226 451.625 31.856976Q451.71875 32.3101 451.71875 33.481976L451.71875 35.825726Q451.71875 38.27885 451.82812 38.9351Q451.9375 39.575726 452.28125 40.169476L450.4375 40.169476Q450.17188 39.6226 450.09375 38.888226ZM449.9375 34.96635Q448.98438 35.356976 447.0625 35.6226Q445.98438 35.77885 445.53125 35.981976Q445.09375 36.169476 444.84375 36.544476Q444.59375 36.919476 444.59375 37.388226Q444.59375 38.09135 445.125 38.5601Q445.65625 39.02885 446.6875 39.02885Q447.70312 39.02885 448.48438 38.59135Q449.28125 38.138226 449.65625 37.3726Q449.9375 36.763226 449.9375 35.606976L449.9375 34.96635ZM454.29688 40.169476L454.29688 29.794476L455.875 29.794476L455.875 31.3726Q456.48438 30.263226 457.0 29.919476Q457.51562 29.5601 458.125 29.5601Q459.01562 29.5601 459.9375 30.1226L459.32812 31.763226Q458.6875 31.3726 458.04688 31.3726Q457.46875 31.3726 457.0 31.731976Q456.54688 32.075726 456.34375 32.6851Q456.0625 33.6226 456.0625 34.731976L456.0625 40.169476L454.29688 40.169476ZM461.23438 44.169476L461.04688 42.513226Q461.625 42.669476 462.04688 42.669476Q462.64062 42.669476 462.98438 42.46635Q463.34375 42.27885 463.5625 41.9351Q463.73438 41.669476 464.10938 40.6226Q464.15625 40.46635 464.26562 40.1851L460.32812 29.794476L462.21875 29.794476L464.375 35.8101Q464.79688 36.950726 465.125 38.200726Q465.4375 36.9976 465.84375 35.84135L468.0625 29.794476L469.82812 29.794476L465.875 40.34135Q465.25 42.0601 464.89062 42.700726Q464.42188 43.575726 463.8125 43.96635Q463.21875 44.3726 462.375 44.3726Q461.85938 44.3726 461.23438 44.169476ZM477.57812 40.169476L477.57812 25.856976L483.92188 25.856976Q485.82812 25.856976 486.82812 26.2476Q487.82812 26.6226 488.42188 27.606976Q489.01562 28.575726 489.01562 29.763226Q489.01562 31.27885 488.03125 32.325726Q487.04688 33.3726 484.98438 33.65385Q485.73438 34.013226 486.125 34.3726Q486.95312 35.1226 487.70312 36.27885L490.1875 40.169476L487.8125 40.169476L485.90625 37.1851Q485.07812 35.90385 484.54688 35.21635Q484.01562 34.52885 483.57812 34.263226Q483.15625 33.981976 482.71875 33.8726Q482.39062 33.8101 481.67188 33.8101L479.46875 33.8101L479.46875 40.169476L477.57812 40.169476ZM479.46875 32.169476L483.54688 32.169476Q484.84375 32.169476 485.5625 31.90385Q486.29688 31.638226 486.67188 31.044476Q487.0625 30.450726 487.0625 29.763226Q487.0625 28.7476 486.32812 28.09135Q485.59375 27.4351 484.0 27.4351L479.46875 27.4351L479.46875 32.169476ZM498.42188 36.825726L500.23438 37.0601Q499.8125 38.638226 498.64062 39.52885Q497.48438 40.40385 495.67188 40.40385Q493.40625 40.40385 492.0625 39.013226Q490.73438 37.606976 490.73438 35.075726Q490.73438 32.450726 492.07812 31.013226Q493.42188 29.5601 495.57812 29.5601Q497.65625 29.5601 498.96875 30.981976Q500.29688 32.388226 500.29688 34.96635Q500.29688 35.1226 500.28125 35.4351L492.54688 35.4351Q492.64062 37.138226 493.51562 38.044476Q494.39062 38.950726 495.6875 38.950726Q496.65625 38.950726 497.32812 38.450726Q498.01562 37.9351 498.42188 36.825726ZM492.64062 33.981976L498.4375 33.981976Q498.32812 32.6851 497.78125 32.02885Q496.9375 31.013226 495.59375 31.013226Q494.39062 31.013226 493.5625 31.825726Q492.73438 32.6226 492.64062 33.981976ZM502.0 41.02885L503.70312 41.27885Q503.8125 42.075726 504.29688 42.4351Q504.95312 42.919476 506.09375 42.919476Q507.3125 42.919476 507.96875 42.4351Q508.64062 41.950726 508.875 41.075726Q509.01562 40.52885 509.0 38.8101Q507.84375 40.169476 506.125 40.169476Q503.98438 40.169476 502.8125 38.6226Q501.64062 37.075726 501.64062 34.919476Q501.64062 33.4351 502.17188 32.1851Q502.71875 30.9351 503.73438 30.2476Q504.76562 29.5601 506.14062 29.5601Q507.96875 29.5601 509.17188 31.044476L509.17188 29.794476L510.78125 29.794476L510.78125 38.763226Q510.78125 41.1851 510.28125 42.1851Q509.79688 43.200726 508.71875 43.77885Q507.65625 44.3726 506.09375 44.3726Q504.25 44.3726 503.09375 43.544476Q501.95312 42.71635 502.0 41.02885ZM503.45312 34.794476Q503.45312 36.84135 504.26562 37.77885Q505.07812 38.71635 506.29688 38.71635Q507.5 38.71635 508.3125 37.77885Q509.14062 36.84135 509.14062 34.856976Q509.14062 32.950726 508.29688 31.981976Q507.45312 31.013226 506.26562 31.013226Q505.09375 31.013226 504.26562 31.96635Q503.45312 32.919476 503.45312 34.794476ZM513.3281 27.8726L513.3281 25.856976L515.09375 25.856976L515.09375 27.8726L513.3281 27.8726ZM513.3281 40.169476L513.3281 29.794476L515.09375 29.794476L515.09375 40.169476L513.3281 40.169476ZM516.6094 37.075726L518.3594 36.794476Q518.5 37.84135 519.1719 38.40385Q519.84375 38.950726 521.0469 38.950726Q522.25 38.950726 522.8281 38.46635Q523.4219 37.96635 523.4219 37.3101Q523.4219 36.71635 522.90625 36.3726Q522.5469 36.138226 521.1094 35.77885Q519.1719 35.27885 518.4219 34.9351Q517.6875 34.575726 517.2969 33.950726Q516.90625 33.3101 516.90625 32.544476Q516.90625 31.856976 517.21875 31.263226Q517.5469 30.669476 518.09375 30.27885Q518.5 29.981976 519.2031 29.77885Q519.9219 29.5601 520.7344 29.5601Q521.9531 29.5601 522.875 29.919476Q523.7969 30.263226 524.2344 30.8726Q524.6719 31.46635 524.84375 32.46635L523.125 32.700726Q523.0 31.90385 522.4375 31.46635Q521.875 31.013226 520.8594 31.013226Q519.6406 31.013226 519.125 31.419476Q518.6094 31.8101 518.6094 32.34135Q518.6094 32.6851 518.8281 32.96635Q519.03125 33.2476 519.5 33.4351Q519.7656 33.52885 521.0469 33.8726Q522.9219 34.3726 523.65625 34.700726Q524.3906 35.013226 524.8125 35.6226Q525.2344 36.21635 525.2344 37.1226Q525.2344 37.9976 524.71875 38.77885Q524.2031 39.5601 523.2344 39.981976Q522.2656 40.40385 521.0469 40.40385Q519.03125 40.40385 517.96875 39.5601Q516.90625 38.71635 516.6094 37.075726ZM531.15625 38.59135L531.40625 40.15385Q530.6719 40.3101 530.0781 40.3101Q529.125 40.3101 528.59375 40.013226Q528.0781 39.700726 527.8594 39.21635Q527.6406 38.71635 527.6406 37.138226L527.6406 31.169476L526.3594 31.169476L526.3594 29.794476L527.6406 29.794476L527.6406 27.231976L529.3906 26.169476L529.3906 29.794476L531.15625 29.794476L531.15625 31.169476L529.3906 31.169476L529.3906 37.231976Q529.3906 37.981976 529.4844 38.200726Q529.5781 38.40385 529.78125 38.544476Q530.0 38.669476 530.3906 38.669476Q530.6719 38.669476 531.15625 38.59135ZM533.2969 40.169476L533.2969 29.794476L534.875 29.794476L534.875 31.3726Q535.4844 30.263226 536.0 29.919476Q536.5156 29.5601 537.125 29.5601Q538.0156 29.5601 538.9375 30.1226L538.3281 31.763226Q537.6875 31.3726 537.0469 31.3726Q536.46875 31.3726 536.0 31.731976Q535.5469 32.075726 535.34375 32.6851Q535.0625 33.6226 535.0625 34.731976L535.0625 40.169476L533.2969 40.169476ZM547.09375 38.888226Q546.1094 39.71635 545.2031 40.0601Q544.2969 40.40385 543.2656 40.40385Q541.5625 40.40385 540.6406 39.575726Q539.71875 38.731976 539.71875 37.4351Q539.71875 36.669476 540.0625 36.044476Q540.4219 35.419476 540.9844 35.044476Q541.5469 34.65385 542.25 34.450726Q542.7656 34.325726 543.8125 34.1851Q545.9375 33.9351 546.9375 33.59135Q546.9531 33.231976 546.9531 33.1226Q546.9531 32.0601 546.4531 31.606976Q545.78125 31.013226 544.4531 31.013226Q543.2031 31.013226 542.6094 31.450726Q542.03125 31.888226 541.75 32.9976L540.03125 32.763226Q540.2656 31.65385 540.7969 30.981976Q541.3281 30.294476 542.34375 29.9351Q543.3594 29.5601 544.7031 29.5601Q546.03125 29.5601 546.8594 29.8726Q547.6875 30.1851 548.0781 30.669476Q548.46875 31.138226 548.625 31.856976Q548.71875 32.3101 548.71875 33.481976L548.71875 35.825726Q548.71875 38.27885 548.8281 38.9351Q548.9375 39.575726 549.28125 40.169476L547.4375 40.169476Q547.1719 39.6226 547.09375 38.888226ZM546.9375 34.96635Q545.9844 35.356976 544.0625 35.6226Q542.9844 35.77885 542.53125 35.981976Q542.09375 36.169476 541.84375 36.544476Q541.59375 36.919476 541.59375 37.388226Q541.59375 38.09135 542.125 38.5601Q542.65625 39.02885 543.6875 39.02885Q544.7031 39.02885 545.4844 38.59135Q546.28125 38.138226 546.65625 37.3726Q546.9375 36.763226 546.9375 35.606976L546.9375 34.96635ZM555.15625 38.59135L555.40625 40.15385Q554.6719 40.3101 554.0781 40.3101Q553.125 40.3101 552.59375 40.013226Q552.0781 39.700726 551.8594 39.21635Q551.6406 38.71635 551.6406 37.138226L551.6406 31.169476L550.3594 31.169476L550.3594 29.794476L551.6406 29.794476L551.6406 27.231976L553.3906 26.169476L553.3906 29.794476L555.15625 29.794476L555.15625 31.169476L553.3906 31.169476L553.3906 37.231976Q553.3906 37.981976 553.4844 38.200726Q553.5781 38.40385 553.78125 38.544476Q554.0 38.669476 554.3906 38.669476Q554.6719 38.669476 555.15625 38.59135ZM557.3281 27.8726L557.3281 25.856976L559.09375 25.856976L559.09375 27.8726L557.3281 27.8726ZM557.3281 40.169476L557.3281 29.794476L559.09375 29.794476L559.09375 40.169476L557.3281 40.169476ZM560.6719 34.981976Q560.6719 32.106976 562.2656 30.71635Q563.6094 29.5601 565.53125 29.5601Q567.6719 29.5601 569.0156 30.96635Q570.375 32.3726 570.375 34.84135Q570.375 36.84135 569.78125 37.9976Q569.1875 39.138226 568.03125 39.77885Q566.8906 40.40385 565.53125 40.40385Q563.34375 40.40385 562.0 39.013226Q560.6719 37.606976 560.6719 34.981976ZM562.46875 34.981976Q562.46875 36.981976 563.3281 37.96635Q564.2031 38.950726 565.53125 38.950726Q566.84375 38.950726 567.7031 37.96635Q568.5781 36.96635 568.5781 34.919476Q568.5781 32.9976 567.7031 32.013226Q566.8281 31.013226 565.53125 31.013226Q564.2031 31.013226 563.3281 32.013226Q562.46875 32.9976 562.46875 34.981976ZM572.3125 40.169476L572.3125 29.794476L573.90625 29.794476L573.90625 31.27885Q575.0469 29.5601 577.2031 29.5601Q578.1406 29.5601 578.9219 29.90385Q579.71875 30.231976 580.1094 30.77885Q580.5 31.325726 580.65625 32.075726Q580.75 32.575726 580.75 33.794476L580.75 40.169476L578.9844 40.169476L578.9844 33.856976Q578.9844 32.77885 578.78125 32.2476Q578.5781 31.71635 578.0469 31.40385Q577.53125 31.09135 576.8281 31.09135Q575.7031 31.09135 574.8906 31.8101Q574.0781 32.513226 574.0781 34.4976L574.0781 40.169476L572.3125 40.169476Z" fill-rule="nonzero"/></svg>